<svg width="37" height="37" viewBox="0 0 37 37" fill="none" xmlns="http://www.w3.org/2000/svg">
<g clip-path="url(#clip0_1_201)">
<path d="M29.7917 0.00415039H27.5331C27.2337 0.00415039 26.9911 0.246821 26.9911 0.546149C26.9911 0.845477 27.2337 1.08815 27.5331 1.08815H29.7917C33.1686 1.08815 35.916 3.8355 35.916 7.21244C35.916 10.5894 33.1687 13.3367 29.7918 13.3367H27.3379C27.1942 13.3367 27.0564 13.3938 26.9546 13.4955L24.411 16.0392V13.8787C24.411 13.5794 24.1684 13.3367 23.869 13.3367H18.0628L17.7067 12.3632C17.3593 11.4137 16.2591 10.9008 15.3075 11.249C14.477 11.5528 13.9502 12.4634 14.1092 13.3367H10.1525C6.77556 13.3367 4.02828 10.5893 4.02828 7.21237C4.02828 3.83543 6.77564 1.08815 10.1526 1.08815H25.2206C25.52 1.08815 25.7626 0.845477 25.7626 0.546149C25.7626 0.246821 25.52 0.00415039 25.2206 0.00415039H10.1526C6.17792 0.00415039 2.94436 3.23779 2.94436 7.21244C2.94436 11.1871 6.17792 14.4207 10.1526 14.4207H13.4161L7.75123 20.9712L4.04432 22.327C3.76314 22.4299 3.6186 22.7411 3.72144 23.0222C3.82434 23.3034 4.13552 23.448 4.41664 23.3451L7.74639 22.1272L9.79832 27.7368L3.98803 29.8622C3.32303 30.1054 2.56647 29.7542 2.3233 29.0892L1.16306 25.9172C0.917209 25.2451 1.26394 24.4983 1.93602 24.2524L2.40575 24.0807C2.68694 23.9778 2.83148 23.6666 2.72864 23.3855C2.62573 23.1043 2.31448 22.9597 2.03344 23.0626L1.56371 23.2344C0.330406 23.6856 -0.306045 25.056 0.145042 26.2894L1.30528 29.4614C1.75109 30.6802 3.14172 31.326 4.36042 30.8801L5.72091 30.3824L7.82841 36.1439C8.22516 37.2285 9.76385 37.2893 10.2485 36.2457L11.0271 34.569C11.1746 34.2514 11.1895 33.8953 11.0693 33.5665L9.4109 29.0326L10.5479 28.6168L20.2324 30.1443C20.614 31.0428 21.6708 31.5064 22.5938 31.1687C23.5433 30.8214 24.0561 29.7213 23.7079 28.7695L18.4593 14.4206H23.327V16.4752C23.327 17.263 24.3258 17.657 24.8691 17.114L27.5624 14.4206H29.7919C33.7665 14.4206 37.0001 11.187 37.0001 7.2123C37.0001 3.23764 33.7664 0.00415039 29.7917 0.00415039ZM19.8012 28.9789L10.8932 27.5739L8.68795 21.5451L14.587 14.724C16.325 19.4756 18.0631 24.2272 19.8012 28.9789ZM10.0513 33.939C10.0721 33.9959 10.0695 34.0575 10.044 34.1125L9.26536 35.7892C9.11786 35.9699 8.97824 35.9641 8.8465 35.7716L6.739 30.0101L8.39289 29.4051L10.0513 33.939ZM22.6646 29.7433C22.5761 29.9339 22.4188 30.0786 22.2214 30.1508C21.8137 30.2997 21.3542 30.0695 21.2127 29.6823C19.2126 24.2134 17.2126 18.7444 15.2114 13.2758C15.0623 12.8681 15.2928 12.4086 15.6798 12.267C16.0821 12.12 16.5414 12.3327 16.6886 12.7355L22.6899 29.142C22.7621 29.3392 22.7531 29.5528 22.6646 29.7433Z" fill="white"/>
<path d="M21.3123 4.94248C21.0859 5.01308 20.9316 5.22273 20.9316 5.4599V9.67256C20.9316 9.97188 21.1742 10.2145 21.4736 10.2145C21.773 10.2145 22.0156 9.97188 22.0156 9.67256V7.19847L23.8762 9.89261C24.0349 10.122 24.3001 10.2194 24.5511 10.1409C24.8075 10.0608 24.9732 9.82121 24.9732 9.52506V5.44675C24.9703 5.14923 24.6887 4.91003 24.3919 4.91003C24.3901 4.91003 24.3883 4.91003 24.3865 4.91003C24.0871 4.91292 23.8468 5.15791 23.8497 5.45723V7.98212L21.9197 5.15191C21.7849 4.95672 21.539 4.87195 21.3123 4.94248Z" fill="white"/>
<path d="M12.7246 5.45203V9.67256C12.7246 9.97188 12.9672 10.2145 13.2666 10.2145C13.566 10.2145 13.8086 9.97188 13.8086 9.67256V5.45203C13.8086 5.1527 13.566 4.91003 13.2666 4.91003C12.9672 4.91003 12.7246 5.1527 12.7246 5.45203Z" fill="white"/>
<path d="M18.9336 5.45203V9.67256C18.9336 9.97188 19.1762 10.2145 19.4756 10.2145C19.775 10.2145 20.0176 9.97188 20.0176 9.67256V5.45203C20.0176 5.1527 19.775 4.91003 19.4756 4.91003C19.1762 4.91003 18.9336 5.1527 18.9336 5.45203Z" fill="white"/>
<path d="M11.1795 10.2145C11.4789 10.2145 11.7215 9.97188 11.7215 9.67256V5.45203C11.7215 5.1527 11.4789 4.91003 11.1795 4.91003C10.8801 4.91003 10.6375 5.1527 10.6375 5.45203V6.94792H8.80078V5.45203C8.80078 5.1527 8.55819 4.91003 8.25879 4.91003C7.95939 4.91003 7.7168 5.1527 7.7168 5.45203V9.67256C7.7168 9.97188 7.95939 10.2145 8.25879 10.2145C8.55819 10.2145 8.80078 9.97188 8.80078 9.67256V8.03191H10.6375V9.67256C10.6375 9.97188 10.8801 10.2145 11.1795 10.2145Z" fill="white"/>
<path d="M28.2714 5.99402C28.5857 5.99402 28.8888 6.08652 29.1479 6.26155C29.396 6.42913 29.7329 6.3638 29.9004 6.11579C30.0679 5.8677 30.0027 5.5308 29.7546 5.36328C29.3157 5.06678 28.8027 4.91003 28.2714 4.91003C26.8089 4.91003 25.6191 6.09982 25.6191 7.56233C25.6191 9.02484 26.8089 10.2146 28.2714 10.2146C29.6631 10.2146 30.6351 9.12399 30.6351 7.56233C30.6351 7.263 30.3925 7.02033 30.0931 7.02033H28.8306C28.5312 7.02033 28.2886 7.263 28.2886 7.56233C28.2886 7.86165 28.5312 8.10432 28.8306 8.10432H29.4861C29.3491 8.65057 28.9834 9.13064 28.2714 9.13064C27.4066 9.13064 26.7031 8.42713 26.7031 7.56233C26.7031 6.69752 27.4067 5.99402 28.2714 5.99402Z" fill="white"/>
<path d="M18.0924 6.54887C18.0924 5.64519 17.3293 4.91003 16.3914 4.91003H15.2699C15.2696 4.91003 15.2694 4.91003 15.2692 4.91003C15.269 4.91003 15.2688 4.91003 15.2686 4.91003C14.9692 4.91003 14.7266 5.1527 14.7266 5.45203V9.67256C14.7266 9.97188 14.9692 10.2145 15.2686 10.2145C15.568 10.2145 15.8105 9.97188 15.8105 9.67256V8.51609L17.1436 10.0306C17.3919 10.2583 17.6468 10.2746 17.9085 10.0794C18.1332 9.88169 18.155 9.53915 17.9573 9.31448L16.8997 8.11299C17.5901 7.90422 18.0924 7.28201 18.0924 6.54887ZM16.3913 7.1038C16.2554 7.1038 16.0261 7.10474 15.8105 7.10575V5.99402H16.3913C16.7258 5.99402 17.0083 6.2481 17.0083 6.54887C17.0083 6.84964 16.7258 7.1038 16.3913 7.1038Z" fill="white"/>
<path d="M31.9033 8.44722C32.2027 8.44722 32.4453 8.20455 32.4453 7.90523V5.45203C32.4453 5.1527 32.2027 4.91003 31.9033 4.91003C31.6039 4.91003 31.3613 5.1527 31.3613 5.45203V7.90523C31.3613 8.20455 31.604 8.44722 31.9033 8.44722Z" fill="white"/>
<path d="M31.3723 9.77818C31.4316 10.0639 31.7124 10.2593 32.0015 10.2056C32.2886 10.1524 32.4852 9.87227 32.4375 9.58414C32.3894 9.29284 32.1072 9.08963 31.8153 9.13848C31.5198 9.18799 31.3101 9.4816 31.3723 9.77818Z" fill="white"/>
<path d="M3.95435 26.6384C4.01614 26.6384 4.07908 26.6278 4.14044 26.6053L6.36022 25.7933C6.64141 25.6905 6.78594 25.3792 6.6831 25.0981C6.5802 24.817 6.26881 24.6725 5.98791 24.7753L3.76813 25.5873C3.48694 25.6901 3.34241 26.0014 3.44524 26.2825C3.5256 26.5022 3.73322 26.6384 3.95435 26.6384Z" fill="white"/>
</g>
<defs>
<clipPath id="clip0_1_201">
<rect width="37" height="37" fill="white" transform="translate(0 -0.000854492)"/>
</clipPath>
</defs>
</svg>
