<svg width="29" height="33" viewBox="0 0 29 33" fill="none" xmlns="http://www.w3.org/2000/svg">
<path d="M14.5 32.5C12.8455 32.5 11.5 31.3785 11.5 30C11.5 29.8674 11.5527 29.7402 11.6464 29.6464C11.7402 29.5527 11.8674 29.5 12 29.5H17C17.1326 29.5 17.2598 29.5527 17.3536 29.6464C17.4473 29.7402 17.5 29.8674 17.5 30C17.5 31.3785 16.1545 32.5 14.5 32.5ZM12.6145 30.5C12.8067 30.8237 13.0843 31.0883 13.4169 31.2647C13.7494 31.4411 14.1242 31.5225 14.5 31.5C14.8758 31.5225 15.2506 31.4411 15.5831 31.2647C15.9157 31.0883 16.1933 30.8237 16.3855 30.5H12.6145Z" fill="#7E50A7"/>
<path d="M16.5001 30.4979H12.5001C11.8373 30.4971 11.2019 30.2334 10.7332 29.7648C10.2645 29.2961 10.0009 28.6607 10.0001 27.9979V22.2694C9.9934 21.9078 9.91147 21.5516 9.75953 21.2235C9.60759 20.8953 9.38897 20.6024 9.11759 20.3634C8.28841 19.6089 7.62694 18.6887 7.17604 17.6624C6.72514 16.636 6.49485 15.5264 6.50009 14.4054C6.53388 12.3641 7.33812 10.4111 8.75152 8.93801C10.1649 7.46489 12.083 6.58057 14.1211 6.46238C15.7677 6.38311 17.3987 6.81484 18.7904 7.69845C20.1822 8.58205 21.2668 9.87432 21.8956 11.3982C22.5244 12.9222 22.6667 14.6032 22.303 16.2112C21.9394 17.8192 21.0875 19.2754 19.8641 20.3804C19.5964 20.6171 19.3813 20.9073 19.2325 21.2322C19.0837 21.5571 19.0045 21.9095 19.0001 22.2669V27.9979C18.9993 28.6607 18.7356 29.2961 18.267 29.7648C17.7983 30.2334 17.1629 30.4971 16.5001 30.4979ZM14.5026 7.45338C14.3916 7.45338 14.2798 7.45604 14.1671 7.46138C12.384 7.56508 10.706 8.33898 9.46958 9.62791C8.23314 10.9168 7.52962 12.6255 7.50009 14.4114C7.49563 15.3922 7.69722 16.3629 8.09179 17.2609C8.48636 18.1588 9.06512 18.9638 9.79059 19.6239C10.1649 19.9566 10.4658 20.3637 10.6741 20.8192C10.8823 21.2747 10.9934 21.7686 11.0001 22.2694V27.9979C11.0001 28.3957 11.1581 28.7772 11.4394 29.0585C11.7207 29.3398 12.1023 29.4979 12.5001 29.4979H16.5001C16.8979 29.4979 17.2794 29.3398 17.5607 29.0585C17.8421 28.7772 18.0001 28.3957 18.0001 27.9979V22.2669C18.0046 21.7696 18.1131 21.2788 18.3186 20.8261C18.5242 20.3733 18.8222 19.9685 19.1936 19.6379C20.2421 18.6899 20.9788 17.4465 21.3067 16.0716C21.6345 14.6966 21.5382 13.2546 21.0304 11.9355C20.5225 10.6163 19.6269 9.48202 18.4617 8.68192C17.2964 7.88182 15.9161 7.4535 14.5026 7.45338Z" fill="#7E50A7"/>
<path d="M18.5 25.5H10.5C10.3674 25.5 10.2402 25.4473 10.1464 25.3536C10.0527 25.2598 10 25.1326 10 25C10 24.8674 10.0527 24.7402 10.1464 24.6464C10.2402 24.5527 10.3674 24.5 10.5 24.5H18.5C18.6326 24.5 18.7598 24.5527 18.8536 24.6464C18.9473 24.7402 19 24.8674 19 25C19 25.1326 18.9473 25.2598 18.8536 25.3536C18.7598 25.4473 18.6326 25.5 18.5 25.5Z" fill="#7E50A7"/>
<path d="M14.5 5.5C14.3674 5.5 14.2402 5.44732 14.1464 5.35355C14.0527 5.25979 14 5.13261 14 5V1C14 0.867392 14.0527 0.740215 14.1464 0.646447C14.2402 0.552678 14.3674 0.5 14.5 0.5C14.6326 0.5 14.7598 0.552678 14.8536 0.646447C14.9473 0.740215 15 0.867392 15 1V5C15 5.13261 14.9473 5.25979 14.8536 5.35355C14.7598 5.44732 14.6326 5.5 14.5 5.5Z" fill="#7E50A7"/>
<path d="M9.50021 6.83847C9.41235 6.83855 9.32603 6.81549 9.24993 6.7716C9.17383 6.72771 9.11063 6.66455 9.0667 6.58847L7.0667 3.12397C7.03336 3.06708 7.01159 3.00416 7.00266 2.93883C6.99372 2.8735 6.9978 2.80704 7.01466 2.74329C7.03151 2.67954 7.06081 2.61976 7.10086 2.56738C7.14092 2.515 7.19094 2.47105 7.24804 2.43808C7.30515 2.40511 7.36821 2.38376 7.4336 2.37526C7.49899 2.36677 7.56541 2.37128 7.62905 2.38856C7.69269 2.40584 7.75228 2.43553 7.80439 2.47593C7.85651 2.51633 7.90011 2.56664 7.93271 2.62397L9.93271 6.08847C9.97657 6.16444 9.99967 6.25061 9.99969 6.33834C9.99972 6.42606 9.97666 6.51225 9.93283 6.58824C9.88901 6.66424 9.82596 6.72737 9.75003 6.77129C9.67409 6.81521 9.58793 6.83838 9.50021 6.83847Z" fill="#7E50A7"/>
<path d="M5.83858 10.4983C5.75079 10.4985 5.66452 10.4754 5.58858 10.4313L2.12408 8.43134C2.01018 8.36457 1.92731 8.25545 1.89356 8.1278C1.85982 8.00015 1.87793 7.86434 1.94394 7.75C2.00996 7.63565 2.11853 7.55206 2.24595 7.51747C2.37337 7.48287 2.5093 7.50008 2.62408 7.56534L6.08858 9.56534C6.1839 9.62038 6.25839 9.70533 6.3005 9.80701C6.34262 9.9087 6.35001 10.0214 6.32152 10.1278C6.29304 10.2341 6.23027 10.328 6.14295 10.395C6.05563 10.462 5.94864 10.4983 5.83858 10.4983Z" fill="#7E50A7"/>
<path d="M4.5 15.5H0.5C0.367392 15.5 0.240215 15.4473 0.146447 15.3536C0.0526784 15.2598 0 15.1326 0 15C0 14.8674 0.0526784 14.7402 0.146447 14.6464C0.240215 14.5527 0.367392 14.5 0.5 14.5H4.5C4.63261 14.5 4.75979 14.5527 4.85355 14.6464C4.94732 14.7402 5 14.8674 5 15C5 15.1326 4.94732 15.2598 4.85355 15.3536C4.75979 15.4473 4.63261 15.5 4.5 15.5Z" fill="#7E50A7"/>
<path d="M2.37693 22.5017C2.26687 22.5017 2.15988 22.4653 2.07256 22.3983C1.98525 22.3313 1.92248 22.2374 1.89399 22.1311C1.8655 22.0248 1.87289 21.912 1.91501 21.8103C1.95712 21.7086 2.03162 21.6237 2.12693 21.5687L5.59143 19.5687C5.64832 19.5353 5.71124 19.5135 5.77657 19.5046C5.8419 19.4957 5.90835 19.4998 5.9721 19.5166C6.03585 19.5335 6.09564 19.5628 6.14802 19.6028C6.2004 19.6429 6.24434 19.6929 6.27731 19.75C6.31028 19.8071 6.33163 19.8702 6.34013 19.9356C6.34863 20.0009 6.34411 20.0674 6.32684 20.131C6.30956 20.1946 6.27987 20.2542 6.23946 20.3063C6.19906 20.3585 6.14875 20.4021 6.09143 20.4347L2.62693 22.4347C2.551 22.4787 2.46473 22.5018 2.37693 22.5017Z" fill="#7E50A7"/>
<path d="M26.6236 22.5017C26.5358 22.5018 26.4496 22.4787 26.3736 22.4347L22.9091 20.4347C22.8518 20.4021 22.8015 20.3585 22.7611 20.3063C22.7207 20.2542 22.691 20.1946 22.6737 20.131C22.6564 20.0674 22.6519 20.0009 22.6604 19.9356C22.6689 19.8702 22.6903 19.8071 22.7232 19.75C22.7562 19.6929 22.8002 19.6429 22.8525 19.6028C22.9049 19.5628 22.9647 19.5335 23.0284 19.5166C23.0922 19.4998 23.1587 19.4957 23.224 19.5046C23.2893 19.5135 23.3522 19.5353 23.4091 19.5687L26.8736 21.5687C26.9689 21.6237 27.0434 21.7086 27.0855 21.8103C27.1277 21.912 27.135 22.0248 27.1066 22.1311C27.0781 22.2374 27.0153 22.3313 26.928 22.3983C26.8407 22.4653 26.7337 22.5017 26.6236 22.5017Z" fill="#7E50A7"/>
<path d="M28.5 15.5H24.5C24.3674 15.5 24.2402 15.4473 24.1464 15.3536C24.0527 15.2598 24 15.1326 24 15C24 14.8674 24.0527 14.7402 24.1464 14.6464C24.2402 14.5527 24.3674 14.5 24.5 14.5H28.5C28.6326 14.5 28.7598 14.5527 28.8536 14.6464C28.9473 14.7402 29 14.8674 29 15C29 15.1326 28.9473 15.2598 28.8536 15.3536C28.7598 15.4473 28.6326 15.5 28.5 15.5Z" fill="#7E50A7"/>
<path d="M23.1601 10.4983C23.0501 10.4983 22.9431 10.462 22.8558 10.395C22.7684 10.328 22.7057 10.2341 22.6772 10.1278C22.6487 10.0214 22.6561 9.9087 22.6982 9.80701C22.7403 9.70533 22.8148 9.62038 22.9101 9.56534L26.3746 7.56534C26.4894 7.50008 26.6253 7.48287 26.7528 7.51747C26.8802 7.55206 26.9888 7.63565 27.0548 7.75C27.1208 7.86434 27.1389 8.00015 27.1052 8.1278C27.0714 8.25545 26.9885 8.36457 26.8746 8.43134L23.4101 10.4313C23.3342 10.4754 23.2479 10.4985 23.1601 10.4983Z" fill="#7E50A7"/>
<path d="M19.4995 6.83847C19.4118 6.83838 19.3256 6.81521 19.2497 6.77129C19.1737 6.72737 19.1107 6.66424 19.0669 6.58824C19.023 6.51225 19 6.42606 19 6.33834C19 6.25061 19.0231 6.16444 19.067 6.08847L21.067 2.62397C21.0996 2.56664 21.1432 2.51633 21.1953 2.47593C21.2474 2.43553 21.307 2.40584 21.3706 2.38856C21.4343 2.37128 21.5007 2.36677 21.5661 2.37526C21.6315 2.38376 21.6945 2.40511 21.7516 2.43808C21.8088 2.47105 21.8588 2.515 21.8988 2.56738C21.9389 2.61976 21.9682 2.67954 21.985 2.74329C22.0019 2.80704 22.006 2.8735 21.997 2.93883C21.9881 3.00416 21.9663 3.06708 21.933 3.12397L19.933 6.58847C19.8891 6.66455 19.8259 6.72771 19.7498 6.7716C19.6737 6.81549 19.5873 6.83855 19.4995 6.83847Z" fill="#7E50A7"/>
<path d="M16.5 25.4992C16.3674 25.4992 16.2402 25.4465 16.1464 25.3527C16.0527 25.259 16 25.1318 16 24.9992V16.1172L14.5 13.1172L13 16.1172V24.9992C13 25.1318 12.9473 25.259 12.8536 25.3527C12.7598 25.4465 12.6326 25.4992 12.5 25.4992C12.3674 25.4992 12.2402 25.4465 12.1464 25.3527C12.0527 25.259 12 25.1318 12 24.9992V15.9992C11.9999 15.9216 12.0179 15.8451 12.0525 15.7757L14.0525 11.7757C14.0987 11.6982 14.1642 11.634 14.2427 11.5895C14.3211 11.5449 14.4098 11.5215 14.5 11.5215C14.5902 11.5215 14.6789 11.5449 14.7573 11.5895C14.8358 11.634 14.9013 11.6982 14.9475 11.7757L16.9475 15.7757C16.9821 15.8451 17.0001 15.9216 17 15.9992V24.9992C17 25.1318 16.9473 25.259 16.8536 25.3527C16.7598 25.4465 16.6326 25.4992 16.5 25.4992Z" fill="#7E50A7"/>
<path d="M16.5 25.5H12.5C12.3674 25.5 12.2402 25.4473 12.1464 25.3536C12.0527 25.2598 12 25.1326 12 25V16C12 15.8674 12.0527 15.7402 12.1464 15.6464C12.2402 15.5527 12.3674 15.5 12.5 15.5H16.5C16.6326 15.5 16.7598 15.5527 16.8536 15.6464C16.9473 15.7402 17 15.8674 17 16V25C17 25.1326 16.9473 25.2598 16.8536 25.3536C16.7598 25.4473 16.6326 25.5 16.5 25.5ZM13 24.5H16V16.5H13V24.5Z" fill="#7E50A7"/>
<path d="M14.5 25C14.3674 25 14.2402 24.9473 14.1464 24.8536C14.0527 24.7598 14 24.6326 14 24.5V16C14 15.8674 14.0527 15.7402 14.1464 15.6464C14.2402 15.5527 14.3674 15.5 14.5 15.5C14.6326 15.5 14.7598 15.5527 14.8536 15.6464C14.9473 15.7402 15 15.8674 15 16V24.5C15 24.6326 14.9473 24.7598 14.8536 24.8536C14.7598 24.9473 14.6326 25 14.5 25Z" fill="#7E50A7"/>
</svg>
