<svg width="19" height="20" viewBox="0 0 19 20" fill="none" xmlns="http://www.w3.org/2000/svg">
<g opacity="0.5">
<path d="M3.83777 13.6008C5.71278 15.8421 7.96989 17.6068 10.5461 18.8555C11.5269 19.3203 12.8386 19.8718 14.3 19.9663C14.3906 19.9703 14.4773 19.9742 14.5679 19.9742C15.5487 19.9742 16.3365 19.6355 16.9786 18.9382C16.9826 18.9343 16.9904 18.9264 16.9944 18.9185C17.2228 18.6428 17.4828 18.3946 17.7546 18.1307C17.9398 17.9535 18.1288 17.7683 18.31 17.5793C19.1491 16.7048 19.1491 15.5939 18.3022 14.747L15.9348 12.3796C15.533 11.9621 15.0524 11.7415 14.5482 11.7415C14.044 11.7415 13.5595 11.9621 13.1459 12.3757L11.7357 13.7859C11.6057 13.7111 11.4717 13.6441 11.3457 13.5811C11.1881 13.5023 11.0424 13.4274 10.9124 13.3447C9.62825 12.5293 8.46227 11.4658 7.34751 10.0989C6.78422 9.38592 6.40606 8.78717 6.14214 8.17661C6.51242 7.84179 6.85906 7.49121 7.19388 7.1485C7.31206 7.02639 7.43417 6.90428 7.55628 6.78217C7.9817 6.35674 8.21017 5.86436 8.21017 5.36409C8.21017 4.86382 7.98564 4.37144 7.55628 3.94601L6.38243 2.77216C6.24456 2.63429 6.11457 2.50036 5.98064 2.36249C5.72066 2.09463 5.44886 1.8189 5.181 1.57073C4.77527 1.17288 4.29864 0.964111 3.79444 0.964111C3.29417 0.964111 2.8136 1.17288 2.39211 1.57467L0.91889 3.0479C0.383172 3.58362 0.079861 4.23357 0.0168354 4.98594C-0.0580076 5.92738 0.115313 6.92792 0.564371 8.13722C1.25371 10.0083 2.29364 11.7454 3.83777 13.6008ZM0.977977 5.06866C1.02525 4.54476 1.22614 4.10752 1.60429 3.72936L3.06964 2.26402C3.29811 2.04343 3.55021 1.92919 3.79444 1.92919C4.03472 1.92919 4.27895 2.04343 4.50347 2.27189C4.76739 2.51612 5.01556 2.77216 5.28342 3.04396C5.41735 3.18183 5.55522 3.3197 5.69308 3.4615L6.86694 4.63536C7.11116 4.87958 7.23721 5.12774 7.23721 5.37197C7.23721 5.61619 7.11116 5.86436 6.86694 6.10858C6.74482 6.23069 6.62271 6.35674 6.5006 6.47886C6.13426 6.84913 5.79156 7.19971 5.41341 7.53454C5.40553 7.54242 5.40159 7.54635 5.39371 7.55423C5.06677 7.88118 5.11797 8.19237 5.19676 8.42871C5.2007 8.44053 5.20464 8.44841 5.20857 8.46023C5.51189 9.18896 5.93337 9.88224 6.5912 10.7095C7.77293 12.1669 9.01769 13.2974 10.3885 14.168C10.5579 14.2783 10.7391 14.3649 10.9085 14.4516C11.066 14.5304 11.2118 14.6052 11.3418 14.688C11.3575 14.6958 11.3693 14.7037 11.3851 14.7116C11.5151 14.7785 11.6411 14.8101 11.7672 14.8101C12.0823 14.8101 12.2871 14.6092 12.3541 14.5422L13.8273 13.069C14.0558 12.8405 14.304 12.7184 14.5482 12.7184C14.8476 12.7184 15.0918 12.9035 15.2454 13.069L17.6207 15.4403C18.0934 15.913 18.0894 16.4251 17.6089 16.9254C17.4434 17.1026 17.2701 17.272 17.085 17.4493C16.8092 17.7171 16.5217 17.9929 16.2617 18.304C15.8087 18.7925 15.269 19.021 14.5718 19.021C14.5049 19.021 14.434 19.017 14.367 19.0131C13.075 18.9304 11.8735 18.4262 10.9715 17.9968C8.52136 16.8111 6.37061 15.1291 4.5862 12.9941C3.11691 11.2255 2.1282 9.57893 1.4743 7.81421C1.06858 6.73096 0.914951 5.86042 0.977977 5.06866Z" fill="white"/>
</g>
</svg>
