<svg width="34" height="35" viewBox="0 0 34 35" fill="none" xmlns="http://www.w3.org/2000/svg">
<path d="M7.59318 10.9531H1.02244C0.457699 10.9531 0 11.4111 0 11.9756V33.8786C0 34.4433 0.457699 34.901 1.02244 34.901H7.59318C8.15791 34.901 8.61561 34.4433 8.61561 33.8786V11.9756C8.61561 11.4111 8.15791 10.9531 7.59318 10.9531ZM6.57074 32.8561H2.04487V12.998H6.57074V32.8561Z" fill="white"/>
<path d="M4.30807 0C1.93251 0 0 1.93251 0 4.30754C0 6.6831 1.93251 8.61535 4.30807 8.61535C6.68337 8.61535 8.61561 6.68284 8.61561 4.30754C8.61561 1.93251 6.68337 0 4.30807 0ZM4.30807 6.57048C3.06012 6.57048 2.04487 5.5555 2.04487 4.30754C2.04487 3.05985 3.06012 2.04487 4.30807 2.04487C5.55576 2.04487 6.57074 3.05985 6.57074 4.30754C6.57074 5.5555 5.55576 6.57048 4.30807 6.57048Z" fill="white"/>
<path d="M24.022 10.8047C22.4679 10.8047 20.9361 11.1793 19.5643 11.8801C19.5177 11.3585 19.0797 10.9493 18.5459 10.9493H11.9746C11.4101 10.9493 10.9521 11.4072 10.9521 11.9717V33.8747C10.9521 34.4394 11.4101 34.8971 11.9746 34.8971H18.5459C19.1106 34.8971 19.5683 34.4394 19.5683 33.8747V21.8281C19.5683 20.2785 20.8293 19.0177 22.3789 19.0177C23.9286 19.0177 25.189 20.2785 25.189 21.8281V33.8747C25.189 34.4394 25.647 34.8971 26.2115 34.8971H32.7825C33.3472 34.8971 33.8049 34.4394 33.8049 33.8747V20.5876C33.8049 15.1932 29.4164 10.8047 24.022 10.8047ZM31.76 32.8523H27.2342V21.8281C27.2342 19.1508 25.0562 16.9728 22.3792 16.9728C19.7017 16.9728 17.5234 19.1508 17.5234 21.8281V32.8523H12.9973V12.9941H17.5234V13.7495C17.5234 14.1428 17.7489 14.5012 18.1036 14.6713C18.458 14.8414 18.8787 14.793 19.1857 14.5472C20.5702 13.4367 22.2429 12.8496 24.022 12.8496C28.2888 12.8496 31.76 16.3208 31.76 20.5876V32.8523Z" fill="white"/>
</svg>
