<svg width="28" height="28" viewBox="0 0 28 28" fill="none" xmlns="http://www.w3.org/2000/svg">
<path d="M26.2806 19.7698C26.2342 19.7313 20.9878 15.9985 19.5711 16.2269C18.8878 16.3476 18.4975 16.814 17.7144 17.7467C17.5884 17.8972 17.2847 18.2569 17.0503 18.5133C16.5553 18.352 16.0725 18.1555 15.6056 17.9253C13.1955 16.7519 11.2481 14.8045 10.0747 12.3944C9.84451 11.9275 9.648 11.4447 9.48675 10.9497C9.744 10.7144 10.1045 10.4108 10.2585 10.2812C11.1869 9.5025 11.6524 9.11137 11.7731 8.42712C12.0208 7.0105 8.26875 1.76575 8.23025 1.7185C8.05938 1.47617 7.83684 1.27481 7.5787 1.12894C7.32055 0.983071 7.03324 0.896337 6.7375 0.875C5.21675 0.875 0.875 6.5065 0.875 7.45587C0.875 7.511 0.954625 13.1145 7.8645 20.1434C14.8855 27.0454 20.489 27.125 20.5441 27.125C21.4926 27.125 27.125 22.7832 27.125 21.2625C27.1034 20.9667 27.0165 20.6794 26.8705 20.4213C26.7245 20.1631 26.523 19.9406 26.2806 19.7698ZM20.447 25.3697C19.6875 25.305 14.98 24.6846 9.1 18.9088C3.29612 12.9999 2.6915 8.2845 2.63112 7.55388C3.77805 5.75369 5.16319 4.11689 6.74887 2.688C6.78387 2.723 6.83025 2.7755 6.88975 2.84375C8.10585 4.50383 9.15344 6.28099 10.017 8.14887C9.73618 8.43139 9.43935 8.69754 9.128 8.946C8.64517 9.3139 8.2018 9.73088 7.805 10.1903C7.73786 10.2845 7.69007 10.391 7.66438 10.5038C7.6387 10.6166 7.63564 10.7334 7.65537 10.8474C7.84055 11.6495 8.12416 12.4257 8.49975 13.1582C9.8454 15.9215 12.0783 18.1541 14.8418 19.4994C15.5742 19.8755 16.3504 20.1594 17.1526 20.3446C17.2666 20.3648 17.3835 20.362 17.4963 20.3363C17.6092 20.3106 17.7157 20.2625 17.8097 20.195C18.2707 19.7966 18.6892 19.3515 19.0584 18.8668C19.3331 18.5395 19.6998 18.1029 19.8389 17.9795C21.7115 18.8422 23.4926 19.8911 25.1554 21.1102C25.228 21.1715 25.2796 21.2188 25.3138 21.2494C23.8848 22.8356 22.2477 24.221 20.447 25.368V25.3697Z" fill="#7E50A7"/>
<path d="M20.125 13.125H21.875C21.8729 11.2691 21.1347 9.48986 19.8224 8.17755C18.5101 6.86525 16.7309 6.12708 14.875 6.125V7.875C16.267 7.87639 17.6015 8.42996 18.5858 9.41422C19.57 10.3985 20.1236 11.733 20.125 13.125Z" fill="#7E50A7"/>
<path d="M24.5 13.125H26.25C26.2465 10.1092 25.047 7.21797 22.9145 5.0855C20.782 2.95302 17.8908 1.75347 14.875 1.75V3.5C17.4268 3.50301 19.8732 4.51804 21.6776 6.32242C23.482 8.12681 24.497 10.5732 24.5 13.125Z" fill="#7E50A7"/>
</svg>
