<svg width="15" height="16" viewBox="0 0 15 16" fill="none" xmlns="http://www.w3.org/2000/svg">
<g opacity="0.5">
<path d="M0.978516 4.6875L1.8088 14.7105C1.8683 15.4333 2.48398 16 3.20955 16H10.8597C11.5853 16 12.201 15.4333 12.2605 14.7105L13.0907 4.6875H0.978516ZM4.69042 14.125C4.44505 14.125 4.23861 13.9341 4.22305 13.6855L3.7543 6.12303C3.73827 5.86441 3.93464 5.64194 4.19283 5.62591C4.46061 5.60713 4.67348 5.80581 4.68995 6.06444L5.1587 13.6269C5.1753 13.8948 4.96339 14.125 4.69042 14.125ZM7.50336 13.6562C7.50336 13.9153 7.2937 14.125 7.03461 14.125C6.77552 14.125 6.56586 13.9153 6.56586 13.6562V6.09375C6.56586 5.83466 6.77552 5.625 7.03461 5.625C7.2937 5.625 7.50336 5.83466 7.50336 6.09375V13.6562ZM10.3149 6.12306L9.84617 13.6856C9.83077 13.9316 9.62567 14.1367 9.34905 14.1241C9.09086 14.1081 8.89448 13.8856 8.91051 13.627L9.37926 6.06447C9.3953 5.80584 9.62189 5.61769 9.87639 5.62594C10.1346 5.64197 10.331 5.86444 10.3149 6.12306Z" fill="#383838"/>
<path d="M13.125 1.875H10.3125V1.40625C10.3125 0.630813 9.68169 0 8.90625 0H5.15625C4.38081 0 3.75 0.630813 3.75 1.40625V1.875H0.9375C0.419719 1.875 0 2.29472 0 2.8125C0 3.33022 0.419719 3.75 0.9375 3.75C5.24894 3.75 8.81372 3.75 13.125 3.75C13.6428 3.75 14.0625 3.33022 14.0625 2.8125C14.0625 2.29472 13.6428 1.875 13.125 1.875ZM9.375 1.875H4.6875V1.40625C4.6875 1.14762 4.89762 0.9375 5.15625 0.9375H8.90625C9.16488 0.9375 9.375 1.14762 9.375 1.40625V1.875Z" fill="#383838"/>
</g>
</svg>
