<svg width="18" height="18" viewBox="0 0 18 18" fill="none" xmlns="http://www.w3.org/2000/svg">
<g clip-path="url(#clip0_23_4537)">
<path d="M6.32146 14.1125L3.63606 15.5772C3.47847 15.6632 3.33685 15.7688 3.20508 15.8839C4.77074 17.204 6.79183 18.0005 9.00006 18.0005C11.192 18.0005 13.2002 17.2159 14.7614 15.9138C14.6174 15.7922 14.4612 15.6829 14.288 15.5966L11.4124 14.159C11.0409 13.9732 10.8062 13.5935 10.8062 13.1782V12.0499C10.887 11.9579 10.9794 11.8397 11.0782 11.7001C11.4701 11.1465 11.7666 10.5376 11.9721 9.89876C12.3409 9.78498 12.6126 9.44434 12.6126 9.03951V7.83521C12.6126 7.5703 12.4948 7.33358 12.3117 7.16785V5.42694C12.3117 5.42694 12.6693 2.71777 9.0004 2.71777C5.33145 2.71777 5.68908 5.42694 5.68908 5.42694V7.16785C5.50568 7.33358 5.38817 7.5703 5.38817 7.83521V9.03951C5.38817 9.35672 5.55493 9.63589 5.80455 9.79721C6.10546 11.1071 6.89338 12.0499 6.89338 12.0499V13.1503C6.89304 13.5511 6.67364 13.9202 6.32146 14.1125Z" fill="#7E50A7"/>
<path d="M9.15383 0.00134021C4.18413 -0.0835655 0.0862468 3.87644 0.00134109 8.84613C-0.0468853 11.664 1.20904 14.1965 3.20874 15.8807C3.33949 15.7666 3.47976 15.662 3.63564 15.5771L6.32104 14.1123C6.67323 13.9201 6.89262 13.5509 6.89262 13.1495V12.0491C6.89262 12.0491 6.10436 11.1063 5.80379 9.7964C5.55451 9.63508 5.38742 9.35625 5.38742 9.0387V7.8344C5.38742 7.56949 5.50527 7.33277 5.68832 7.16704V5.42613C5.68832 5.42613 5.3307 2.71696 8.99964 2.71696C12.6686 2.71696 12.311 5.42613 12.311 5.42613V7.16704C12.4944 7.33277 12.6119 7.56949 12.6119 7.8344V9.0387C12.6119 9.44353 12.3402 9.78417 11.9713 9.89794C11.7659 10.5368 11.4694 11.1457 11.0775 11.6993C10.9786 11.8389 10.8862 11.9571 10.8054 12.0491V13.1773C10.8054 13.5927 11.0401 13.9727 11.4116 14.1582L14.2872 15.5958C14.4598 15.6821 14.6156 15.7911 14.7593 15.9123C16.6985 14.295 17.9514 11.8769 17.9979 9.15383C18.0835 4.18413 14.1239 0.0862459 9.15383 0.00134021Z" fill="#7E50A7" fill-opacity="0.1"/>
</g>
<defs>
<clipPath id="clip0_23_4537">
<rect width="18" height="18" fill="white"/>
</clipPath>
</defs>
</svg>
