<svg width="18" height="18" viewBox="0 0 18 18" fill="none" xmlns="http://www.w3.org/2000/svg">
<path d="M1.75396 18C1.27162 18 0.858563 17.8281 0.514787 17.4843C0.171595 17.1411 0 16.7284 0 16.246V3.96833C0 3.48599 0.171595 3.07294 0.514787 2.72916C0.858563 2.38597 1.27162 2.21437 1.75396 2.21437H9.581L7.82704 3.96833H1.75396V16.246H14.0317V10.151L15.7856 8.39708V16.246C15.7856 16.7284 15.614 17.1411 15.2708 17.4843C14.9271 17.8281 14.514 18 14.0317 18H1.75396ZM11.5542 2.71864L12.8039 3.94641L7.01583 9.73447V10.9842H8.2436L14.0536 5.17418L15.3033 6.40195L8.98904 12.7381H5.26188V9.01096L11.5542 2.71864ZM15.3033 6.40195L11.5542 2.71864L13.7466 0.526188C14.0974 0.175396 14.5178 0 15.0077 0C15.4971 0 15.9099 0.175396 16.246 0.526188L17.4738 1.77588C17.81 2.11206 17.9781 2.52132 17.9781 3.00365C17.9781 3.48599 17.81 3.89525 17.4738 4.23142L15.3033 6.40195Z" fill="black"/>
</svg>
