<svg width="22" height="18" viewBox="0 0 22 18" fill="none" xmlns="http://www.w3.org/2000/svg">
<g clip-path="url(#clip0_23_5283)">
<path d="M8.47059 8.34059C7.30588 8.34059 6.35294 7.97 5.61176 7.22883C4.87059 6.48765 4.5 5.53471 4.5 4.37C4.5 3.2053 4.87059 2.25236 5.61176 1.51118C6.35294 0.770003 7.30588 0.399414 8.47059 0.399414C9.63529 0.399414 10.5882 0.770003 11.3294 1.51118C12.0706 2.25236 12.4412 3.2053 12.4412 4.37C12.4412 5.53471 12.0706 6.48765 11.3294 7.22883C10.5882 7.97 9.63529 8.34059 8.47059 8.34059ZM0 16.8377V14.3494C0 13.7318 0.154412 13.1759 0.463235 12.6818C0.772059 12.1877 1.21765 11.8082 1.8 11.5435C3.07059 10.9788 4.24853 10.5729 5.33382 10.3259C6.41912 10.0788 7.46471 9.9553 8.47059 9.9553H9.07941C8.97353 10.2024 8.89412 10.445 8.84118 10.6832C8.78823 10.9215 8.74412 11.2082 8.70882 11.5435H8.47059C7.44706 11.5435 6.44559 11.6538 5.46618 11.8744C4.48676 12.095 3.47647 12.4612 2.43529 12.9729C2.15294 13.1141 1.94118 13.3126 1.8 13.5685C1.65882 13.8244 1.58824 14.0847 1.58824 14.3494V15.2494H8.70882C8.79706 15.5671 8.90294 15.8538 9.02647 16.1097C9.15 16.3656 9.3 16.6082 9.47647 16.8377H0ZM15.5382 18.0024L15.2735 16.2553C14.9735 16.1671 14.6691 16.0391 14.3603 15.8715C14.0515 15.7038 13.7912 15.5141 13.5794 15.3024L12.1235 15.62L11.4618 14.5082L12.7059 13.3435C12.6706 13.1847 12.6529 12.9641 12.6529 12.6818C12.6529 12.3994 12.6706 12.1788 12.7059 12.02L11.4618 10.8553L12.1235 9.74353L13.5794 10.0612C13.7912 9.84941 14.0515 9.65971 14.3603 9.49206C14.6691 9.32441 14.9735 9.19647 15.2735 9.10824L15.5382 7.36118H16.9676L17.2324 9.10824C17.5324 9.19647 17.8368 9.32441 18.1456 9.49206C18.4544 9.65971 18.7147 9.84941 18.9265 10.0612L20.3824 9.74353L21.0441 10.8553L19.8 12.02C19.8353 12.1788 19.8529 12.3994 19.8529 12.6818C19.8529 12.9641 19.8353 13.1847 19.8 13.3435L21.0441 14.5082L20.3824 15.62L18.9265 15.3024C18.7147 15.5141 18.4544 15.7038 18.1456 15.8715C17.8368 16.0391 17.5324 16.1671 17.2324 16.2553L16.9676 18.0024H15.5382ZM16.2529 14.7994C16.8882 14.7994 17.4 14.6053 17.7882 14.2171C18.1765 13.8288 18.3706 13.3171 18.3706 12.6818C18.3706 12.0465 18.1765 11.5347 17.7882 11.1465C17.4 10.7582 16.8882 10.5641 16.2529 10.5641C15.6176 10.5641 15.1059 10.7582 14.7176 11.1465C14.3294 11.5347 14.1353 12.0465 14.1353 12.6818C14.1353 13.3171 14.3294 13.8288 14.7176 14.2171C15.1059 14.6053 15.6176 14.7994 16.2529 14.7994ZM8.47059 6.75236C9.15882 6.75236 9.72794 6.52736 10.1779 6.07736C10.6279 5.62736 10.8529 5.05824 10.8529 4.37C10.8529 3.68177 10.6279 3.11265 10.1779 2.66265C9.72794 2.21265 9.15882 1.98765 8.47059 1.98765C7.78235 1.98765 7.21323 2.21265 6.76323 2.66265C6.31323 3.11265 6.08823 3.68177 6.08823 4.37C6.08823 5.05824 6.31323 5.62736 6.76323 6.07736C7.21323 6.52736 7.78235 6.75236 8.47059 6.75236Z" fill="#1A1A1A"/>
</g>
<defs>
<clipPath id="clip0_23_5283">
<rect width="21.1765" height="18" fill="white"/>
</clipPath>
</defs>
</svg>
