<svg width="18" height="18" viewBox="0 0 18 18" fill="none" xmlns="http://www.w3.org/2000/svg">
<path d="M8.99032 6.17579e-05C8.87197 0.0012264 8.75501 0.025799 8.64614 0.0724157C8.53726 0.119032 8.43861 0.186771 8.35582 0.271726C8.27304 0.356682 8.20774 0.457249 8.16368 0.567578C8.11961 0.677908 8.09764 0.795843 8.09902 0.914711V8.14896C8.09909 8.38893 8.19404 8.61907 8.363 8.78873C8.53195 8.95839 8.76108 9.05365 8.99999 9.05365C9.23889 9.05365 9.46802 8.95839 9.63698 8.78873C9.80593 8.61907 9.90089 8.38893 9.90095 8.14896V0.914711C9.90235 0.794207 9.87976 0.674617 9.83449 0.563011C9.78922 0.451404 9.7222 0.349986 9.63736 0.264771C9.55252 0.179556 9.45157 0.112277 9.34045 0.0668101C9.22934 0.0213435 9.11029 -0.00134653 8.99032 6.17579e-05ZM14.2414 1.81348C14.2121 1.81263 14.1828 1.81322 14.1535 1.81524C13.9756 1.83042 13.8061 1.89844 13.6667 2.01061C13.5274 2.12278 13.4244 2.27401 13.3709 2.44515C13.3173 2.61628 13.3157 2.79959 13.3662 2.97166C13.4166 3.14373 13.5169 3.29683 13.6542 3.41149C15.2134 4.74137 16.1998 6.72075 16.1998 8.94351C16.1998 12.957 12.9912 16.1919 9.00438 16.1919C5.01754 16.1919 1.80192 12.957 1.80193 8.94351C1.80193 6.73361 2.77579 4.76767 4.31936 3.43796C4.40929 3.36087 4.48321 3.2667 4.53692 3.1609C4.59063 3.05511 4.62306 2.93973 4.63237 2.82135C4.64168 2.70296 4.62768 2.58395 4.59117 2.471C4.55467 2.35804 4.49637 2.25342 4.4196 2.1631C4.34284 2.07278 4.24911 1.99853 4.14378 1.94459C4.03845 1.89065 3.92357 1.85801 3.8057 1.84867C3.68784 1.83932 3.56929 1.85342 3.45684 1.89009C3.34438 1.92676 3.24022 1.9853 3.1503 2.06241C1.22345 3.72231 8.46992e-06 6.19647 0 8.94351C-8.09572e-06 13.9326 4.04305 18 9.00438 18C13.9657 18 18 13.9326 18 8.94351C18 6.18045 16.7644 3.69611 14.818 2.03594C14.658 1.8958 14.4537 1.817 14.2414 1.81348H14.2414Z" fill="#1A1A1A"/>
</svg>
