<svg width="92" height="92" viewBox="0 0 92 92" fill="none" xmlns="http://www.w3.org/2000/svg">
<path opacity="0.2" d="M92 92V0L0 92H92Z" fill="#7E50A7"/>
<path d="M73.7943 19.0203C73.6912 18.6207 73.3796 18.3092 72.9801 18.2061C63.7277 15.8201 53.9979 16.9994 45.5833 21.5257C43.734 22.5205 41.9852 23.6573 40.3484 24.9215C35.665 23.2511 30.4553 24.4038 26.9082 27.9509L19.8189 35.0398C19.3768 35.4823 19.3768 36.1996 19.8189 36.6421L27.7069 44.5298C27.7069 44.5302 27.7074 44.5302 27.7074 44.5307L28.7247 45.5476L27.7888 52.4241C27.741 52.775 27.8596 53.1277 28.1101 53.3781L28.934 54.2021L22.1663 61.0105C21.7252 61.4543 21.7274 62.1716 22.1712 62.6123C22.615 63.0535 23.3323 63.0513 23.7731 62.6079L30.5359 55.8039L36.1968 61.4653L26.6582 70.9619C26.2148 71.4036 26.213 72.1209 26.6542 72.5643C26.8759 72.7864 27.1666 72.8979 27.4574 72.8979C27.7463 72.8979 28.0353 72.7877 28.2565 72.5678L37.7992 63.0672L38.6222 63.8907C38.8364 64.1044 39.1249 64.2222 39.4231 64.2222C39.474 64.2222 39.5249 64.2191 39.5763 64.212L46.4528 63.2761L47.4701 64.2934C47.4701 64.2934 47.4701 64.2938 47.4705 64.2938L55.3582 72.1819C55.5794 72.4032 55.8693 72.5134 56.1591 72.5134C56.4494 72.5134 56.7392 72.4032 56.9605 72.1819L64.0494 65.0926C67.5965 61.5454 68.7497 56.3358 67.0788 51.6524C68.3431 50.0155 69.4798 48.2663 70.4746 46.4175C75.0014 38.0024 76.1803 28.2726 73.7943 19.0203V19.0203ZM28.0366 41.6557L22.2221 35.8412L28.5101 29.5532C31.0983 26.9646 34.7605 25.922 38.2452 26.6716C33.706 30.7343 30.196 35.8545 28.0366 41.6557ZM39.8272 61.891L30.1093 52.1732L30.7372 47.5601L44.4403 61.2631L39.8272 61.891ZM62.4476 63.4902L56.1591 69.7782L50.3451 63.9637C56.1463 61.8043 61.2661 58.2944 65.3287 53.7551C66.0783 57.2399 65.0358 60.9016 62.4476 63.4902V63.4902ZM48.7069 62.1446L48.5719 62.1911L29.8093 43.4284L29.8557 43.2934C35.7844 26.0619 54.0975 16.0382 71.7618 20.2385C75.9617 37.9024 65.9389 56.2159 48.7069 62.1446Z" fill="#7E50A7"/>
<path d="M61.1598 29.4523L46.2917 33.4362C45.9009 33.5411 45.5956 33.8464 45.4907 34.2376C45.3859 34.6283 45.4978 35.0456 45.7837 35.3319L47.9927 37.5404L43.5415 41.9912C43.0994 42.4337 43.0994 43.151 43.5415 43.5935C43.984 44.0355 44.7013 44.0355 45.1438 43.5935L50.3955 38.3414C50.838 37.8993 50.838 37.182 50.3955 36.7395L48.7732 35.1173L59.8514 32.149L56.883 43.2266L55.2608 41.6044C55.0484 41.392 54.7603 41.273 54.4599 41.273C54.1594 41.273 53.8709 41.392 53.6585 41.6044L44.619 50.6443C44.1765 51.0868 44.1765 51.8041 44.619 52.2466C44.8403 52.4679 45.1301 52.5781 45.4199 52.5781C45.7098 52.5781 45.9996 52.4679 46.2209 52.2466L54.4594 44.0076L56.668 46.2162C56.9543 46.5025 57.3716 46.614 57.7623 46.5096C58.1535 46.4047 58.4588 46.0994 58.5632 45.7086L62.5471 30.84C62.652 30.4493 62.5405 30.032 62.2542 29.7457C61.9679 29.4594 61.5506 29.3475 61.1598 29.4523V29.4523Z" fill="#7E50A7"/>
<path d="M27.8737 64.1265C27.4316 63.684 26.7143 63.684 26.2718 64.1265L17.3319 73.0665C16.8894 73.5085 16.8894 74.2258 17.3319 74.6683C17.5531 74.8896 17.843 75.0002 18.1328 75.0002C18.4227 75.0002 18.7129 74.8896 18.9337 74.6683L27.8737 65.7284C28.3162 65.2863 28.3162 64.569 27.8737 64.1265V64.1265Z" fill="#7E50A7"/>
<path d="M19.8516 66.0598C20.1494 66.0598 20.4414 65.9399 20.6525 65.7279C20.8631 65.5173 20.9844 65.2261 20.9844 64.927C20.9844 64.6292 20.8631 64.3371 20.6525 64.1265C20.4414 63.9154 20.1494 63.7942 19.8516 63.7942C19.5524 63.7942 19.2613 63.9154 19.0506 64.1265C18.84 64.3371 18.7188 64.6292 18.7188 64.927C18.7188 65.2261 18.84 65.5173 19.0506 65.7279C19.2613 65.9399 19.5533 66.0598 19.8516 66.0598Z" fill="#7E50A7"/>
<path d="M39.8177 45.7148L39.808 45.7232C39.342 46.1414 39.3035 46.8578 39.7217 47.3233C39.9452 47.5724 40.2545 47.6994 40.5651 47.6994C40.8346 47.6994 41.105 47.6038 41.3213 47.4091L41.3311 47.4007C41.7966 46.9826 41.8355 46.2666 41.4174 45.8011C40.9992 45.3351 40.2832 45.2966 39.8177 45.7148V45.7148Z" fill="#7E50A7"/>
</svg>
