<svg width="90" height="66" viewBox="0 0 90 66" fill="none" xmlns="http://www.w3.org/2000/svg">
<circle opacity="0.2" cx="57" cy="33" r="33" fill="#FFAE1A"/>
<path d="M12.2383 7.14453C8.87758 7.14453 6.14453 9.87758 6.14453 13.2383C6.14453 16.599 8.87758 19.332 12.2383 19.332C15.599 19.332 18.332 16.599 18.332 13.2383C18.332 9.87758 15.599 7.14453 12.2383 7.14453ZM12.2383 17.3008C9.99781 17.3008 8.17578 15.4788 8.17578 13.2383C8.17578 10.9978 9.99781 9.17578 12.2383 9.17578C14.4788 9.17578 16.3008 10.9978 16.3008 13.2383C16.3008 15.4788 14.4788 17.3008 12.2383 17.3008Z" fill="#FFAE1A"/>
<path d="M57.6089 49.4677L56.1729 48.0316L48.7659 55.4385L47.4527 54.1253L46.0166 55.5614L48.7659 58.3107L57.6089 49.4677Z" fill="#FFAE1A"/>
<path d="M34.5469 12.1871H36.5781V14.2184H34.5469V12.1871Z" fill="#FFAE1A"/>
<path d="M46.7344 12.1871H48.7656V14.2184H46.7344V12.1871Z" fill="#FFAE1A"/>
<path d="M42.6719 12.1871H44.7031V14.2184H42.6719V12.1871Z" fill="#FFAE1A"/>
<path d="M38.6094 12.1871H40.6406V14.2184H38.6094V12.1871Z" fill="#FFAE1A"/>
<path d="M23.375 37.5777H39.625C41.3048 37.5777 42.6719 36.2107 42.6719 34.5309V33.5152H55.875C59.7943 33.5152 62.9844 30.3262 62.9844 26.4059V19.2965C62.9844 15.3762 59.7943 12.1871 55.875 12.1871H52.8281V11.1715C52.8281 9.49164 51.4611 8.12461 49.7812 8.12461H33.5312C31.8514 8.12461 30.4844 9.49164 30.4844 11.1715V12.1871H24.4262V10.4321L21.7602 9.70391C21.6728 9.47031 21.5753 9.23773 21.4697 9.0082L22.8418 6.60523L18.8727 2.63617L16.4708 4.00727C16.2402 3.90164 16.0087 3.80414 15.7751 3.7168L15.0459 1.05078H9.4325L8.70328 3.7168C8.46969 3.80414 8.23812 3.90063 8.00859 4.00727L5.60563 2.63617L1.63656 6.60523L3.00766 9.0082C2.90203 9.23773 2.80453 9.47031 2.71719 9.70391L0.0511718 10.4321V16.0445L2.71719 16.7737C2.80453 17.0073 2.90203 17.2398 3.00766 17.4694L1.63555 19.8723L5.60461 23.8404L8.00758 22.4693C8.23711 22.5749 8.46867 22.6724 8.70227 22.7598L9.43148 25.4258H15.0448L15.7741 22.7598C16.0066 22.6724 16.2392 22.5749 16.4698 22.4693L18.8717 23.8394L22.8408 19.8713L21.4687 17.4684C21.5743 17.2388 21.6718 17.0062 21.7591 16.7727L24.4252 16.0434V14.2184H30.4844V15.234C30.4844 16.9138 31.8514 18.2809 33.5312 18.2809H49.7812C51.4611 18.2809 52.8281 16.9138 52.8281 15.234V14.2184H55.875C58.6751 14.2184 60.9531 16.4964 60.9531 19.2965V26.4059C60.9531 29.2059 58.6751 31.484 55.875 31.484H42.6719V30.4684C42.6719 28.7885 41.3048 27.4215 39.625 27.4215H23.375C21.6952 27.4215 20.3281 28.7885 20.3281 30.4684V31.484H7.125C3.2057 31.484 0.015625 34.6741 0.015625 38.5934V46.7184C0.015625 50.6377 3.2057 53.8277 7.125 53.8277H10.1719V54.8434C10.1719 56.5232 11.5389 57.8902 13.2188 57.8902H29.4688C31.1486 57.8902 32.5156 56.5232 32.5156 54.8434V53.8277H40.6924C41.2073 59.5132 45.995 63.984 51.8125 63.984C57.9723 63.984 62.9844 58.9719 62.9844 52.8121C62.9844 46.6523 57.9723 41.6402 51.8125 41.6402C45.995 41.6402 41.2073 46.111 40.6924 51.7965H32.5156V50.7809C32.5156 49.101 31.1486 47.734 29.4688 47.734H13.2188C11.5389 47.734 10.1719 49.101 10.1719 50.7809V51.7965H7.125C4.32492 51.7965 2.04688 49.5184 2.04688 46.7184V38.5934C2.04688 35.7933 4.32492 33.5152 7.125 33.5152H20.3281V34.5309C20.3281 36.2107 21.6952 37.5777 23.375 37.5777ZM22.3949 14.4946L20.1677 15.104L20.0041 15.6372C19.8579 16.1074 19.6629 16.5756 19.4232 17.0286L19.1612 17.5222L20.3088 19.5321L18.5335 21.3084L16.5226 20.1618L16.03 20.4228C15.578 20.6625 15.1098 20.8575 14.6386 21.0027L14.1064 21.1673L13.496 23.3945H10.9844L10.374 21.1673L9.8418 21.0027C9.37258 20.8575 8.90438 20.6635 8.45039 20.4228L7.9568 20.1618L5.94688 21.3084L4.16953 19.5321L5.31719 17.5222L5.05516 17.0286C4.81547 16.5756 4.61945 16.1074 4.47422 15.6372L4.3107 15.104L2.08344 14.4946V11.982L4.3107 11.3736L4.47523 10.8404C4.62047 10.3702 4.81547 9.90195 5.05516 9.45L5.31719 8.95539L4.16953 6.94547L5.94484 5.16914L7.95477 6.31578L8.44836 6.05477C8.90438 5.81406 9.37258 5.61805 9.83977 5.47383L10.372 5.3093L10.9823 3.08203H13.494L14.1044 5.3093L14.6366 5.47383C15.1058 5.61906 15.574 5.81406 16.028 6.05477L16.5205 6.31578L18.5315 5.16914L20.3068 6.94547L19.1591 8.95539L19.4212 9.44898C19.6609 9.90094 19.8569 10.3691 20.0011 10.8394L20.1656 11.3726L22.3929 11.9809V14.4946H22.3949ZM50.7969 15.234C50.7969 15.7936 50.3419 16.2496 49.7812 16.2496H33.5312C32.9706 16.2496 32.5156 15.7936 32.5156 15.234V11.1715C32.5156 10.6119 32.9706 10.1559 33.5312 10.1559H49.7812C50.3419 10.1559 50.7969 10.6119 50.7969 11.1715V15.234ZM51.8125 43.6715C56.853 43.6715 60.9531 47.7716 60.9531 52.8121C60.9531 57.8527 56.853 61.9527 51.8125 61.9527C46.772 61.9527 42.6719 57.8527 42.6719 52.8121C42.6719 47.7716 46.772 43.6715 51.8125 43.6715ZM12.2031 50.7809C12.2031 50.2202 12.6581 49.7652 13.2188 49.7652H29.4688C30.0294 49.7652 30.4844 50.2202 30.4844 50.7809V54.8434C30.4844 55.404 30.0294 55.859 29.4688 55.859H13.2188C12.6581 55.859 12.2031 55.404 12.2031 54.8434V50.7809ZM22.3594 30.4684C22.3594 29.9088 22.8144 29.4527 23.375 29.4527H39.625C40.1856 29.4527 40.6406 29.9088 40.6406 30.4684V34.5309C40.6406 35.0915 40.1856 35.5465 39.625 35.5465H23.375C22.8144 35.5465 22.3594 35.0915 22.3594 34.5309V30.4684Z" fill="#FFAE1A"/>
<path d="M32.5156 31.484H34.5469V33.5152H32.5156V31.484Z" fill="#FFAE1A"/>
<path d="M28.4531 31.484H30.4844V33.5152H28.4531V31.484Z" fill="#FFAE1A"/>
<path d="M24.3906 31.484H26.4219V33.5152H24.3906V31.484Z" fill="#FFAE1A"/>
<path d="M36.5781 31.484H38.6094V33.5152H36.5781V31.484Z" fill="#FFAE1A"/>
<path d="M18.2969 51.7965H20.3281V53.8277H18.2969V51.7965Z" fill="#FFAE1A"/>
<path d="M26.4219 51.7965H28.4531V53.8277H26.4219V51.7965Z" fill="#FFAE1A"/>
<path d="M22.3594 51.7965H24.3906V53.8277H22.3594V51.7965Z" fill="#FFAE1A"/>
<path d="M14.2344 51.7965H16.2656V53.8277H14.2344V51.7965Z" fill="#FFAE1A"/>
</svg>
