<svg width="48" height="48" viewBox="0 0 48 48" fill="none" xmlns="http://www.w3.org/2000/svg">
<path d="M46.6869 1.97704C46.6028 1.65088 46.3485 1.3966 46.0223 1.31244C38.47 -0.635143 30.528 0.327451 23.6594 4.02215C22.15 4.83412 20.7225 5.76204 19.3865 6.79399C15.5635 5.43046 11.3112 6.37138 8.41579 9.26675L2.62903 15.0532C2.26819 15.4143 2.26819 15.9999 2.62903 16.3611L9.06775 22.7994C9.06775 22.7998 9.06811 22.7998 9.06811 22.8001L9.89851 23.6302L9.13457 29.2432C9.09556 29.5296 9.19236 29.8175 9.3968 30.0219L10.0694 30.6945L4.54518 36.2519C4.18507 36.6142 4.18688 37.1997 4.54916 37.5594C4.91144 37.9195 5.49694 37.9177 5.8567 37.5558L11.3769 32.002L15.9977 36.6232L8.21171 44.3749C7.84979 44.7354 7.84834 45.3209 8.20846 45.6828C8.38942 45.8641 8.62673 45.9551 8.86403 45.9551C9.0999 45.9551 9.33576 45.8652 9.51636 45.6857L17.3056 37.9307L17.9774 38.6029C18.1523 38.7774 18.3878 38.8735 18.6312 38.8735C18.6727 38.8735 18.7143 38.8709 18.7562 38.8652L24.3692 38.1012L25.1996 38.9316C25.1996 38.9316 25.1996 38.932 25.2 38.932L31.6383 45.3707C31.8189 45.5513 32.0555 45.6412 32.2921 45.6412C32.529 45.6412 32.7656 45.5513 32.9462 45.3707L38.7326 39.5839C41.628 36.6886 42.5693 32.4362 41.2054 28.6133C42.2373 27.2772 43.1652 25.8494 43.9772 24.3403C47.6723 17.4714 48.6345 9.52934 46.6869 1.97704ZM9.33684 20.4534L4.5907 15.7073L9.72333 10.5747C11.836 8.46164 14.8253 7.61066 17.6697 8.22253C13.9645 11.5387 11.0995 15.7181 9.33684 20.4534ZM18.961 36.9707L11.0287 29.0384L11.5412 25.2729L22.7265 36.4581L18.961 36.9707ZM37.4251 38.276L32.2921 43.4087L27.5463 38.6625C32.2816 36.8999 36.4607 34.0349 39.7768 30.3297C40.3887 33.1741 39.5377 36.163 37.4251 38.276ZM26.2091 37.1776L26.099 37.2156L10.7838 21.9004L10.8217 21.7902C15.6611 7.7248 30.6093 -0.457072 45.0279 2.97142C48.4561 17.3897 40.2749 32.3383 26.2091 37.1776Z" fill="white"/>
<path d="M36.3744 10.4938L24.2381 13.7457C23.9192 13.8313 23.67 14.0805 23.5844 14.3998C23.4988 14.7187 23.5901 15.0593 23.8235 15.293L25.6266 17.0958L21.9933 20.7287C21.6324 21.0899 21.6324 21.6754 21.9933 22.0366C22.3545 22.3974 22.94 22.3974 23.3012 22.0366L27.5879 17.7495C27.9491 17.3887 27.9491 16.8032 27.5879 16.442L26.2637 15.1178L35.3063 12.6949L32.8834 21.7372L31.5593 20.413C31.3859 20.2396 31.1507 20.1425 30.9055 20.1425C30.6602 20.1425 30.4247 20.2396 30.2514 20.413L22.8728 27.7919C22.5116 28.1531 22.5116 28.7386 22.8728 29.0998C23.0534 29.2804 23.29 29.3704 23.5266 29.3704C23.7632 29.3704 23.9997 29.2804 24.1803 29.0998L30.9051 22.3747L32.7079 24.1774C32.9416 24.4111 33.2822 24.5021 33.6011 24.4169C33.9204 24.3313 34.1696 24.0821 34.2549 23.7631L37.5068 11.6265C37.5924 11.3076 37.5013 10.967 37.2676 10.7333C37.0339 10.4996 36.6933 10.4082 36.3744 10.4938Z" fill="white"/>
<path d="M9.20385 38.7951C8.84302 38.4339 8.25751 38.4339 7.89632 38.7951L0.599024 46.0924C0.237825 46.4533 0.237825 47.0388 0.599024 47.4C0.779623 47.5806 1.01621 47.6709 1.25279 47.6709C1.48938 47.6709 1.72632 47.5806 1.90656 47.4L9.20385 40.1027C9.56505 39.7418 9.56505 39.1563 9.20385 38.7951Z" fill="white"/>
<path d="M2.65514 40.3736C2.89822 40.3736 3.13661 40.2757 3.30891 40.1027C3.48084 39.9307 3.5798 39.6931 3.5798 39.4489C3.5798 39.2058 3.48084 38.9674 3.30891 38.7955C3.13661 38.6232 2.89822 38.5242 2.65514 38.5242C2.41097 38.5242 2.1733 38.6232 2.00137 38.7955C1.82944 38.9674 1.73047 39.2058 1.73047 39.4489C1.73047 39.6931 1.82944 39.9307 2.00137 40.1027C2.1733 40.2757 2.41169 40.3736 2.65514 40.3736Z" fill="white"/>
<path d="M18.9538 23.7671L18.9459 23.774C18.5655 24.1153 18.5341 24.7001 18.8754 25.08C19.0578 25.2834 19.3103 25.3871 19.5639 25.3871C19.7838 25.3871 20.0045 25.309 20.1812 25.1501L20.1891 25.1433C20.5691 24.8019 20.6009 24.2175 20.2595 23.8375C19.9182 23.4572 19.3338 23.4258 18.9538 23.7671Z" fill="white"/>
</svg>
