<svg width="52" height="52" viewBox="0 0 52 52" fill="none" xmlns="http://www.w3.org/2000/svg">
<path d="M9.90628 4.93854C7.18269 4.93854 4.96777 7.15346 4.96777 9.87705C4.96777 12.6006 7.18269 14.8156 9.90628 14.8156C12.6299 14.8156 14.8448 12.6006 14.8448 9.87705C14.8448 7.15346 12.6299 4.93854 9.90628 4.93854ZM9.90628 13.1694C8.09056 13.1694 6.61394 11.6928 6.61394 9.87705C6.61394 8.06132 8.09056 6.58471 9.90628 6.58471C11.722 6.58471 13.1986 8.06132 13.1986 9.87705C13.1986 11.6928 11.722 13.1694 9.90628 13.1694Z" fill="white"/>
<path d="M46.675 39.2378L45.5111 38.074L39.5084 44.0767L38.4441 43.0125L37.2803 44.1763L39.5084 46.4044L46.675 39.2378Z" fill="white"/>
<path d="M27.9854 9.02545H29.6315V10.6716H27.9854V9.02545Z" fill="white"/>
<path d="M37.8623 9.02545H39.5085V10.6716H37.8623V9.02545Z" fill="white"/>
<path d="M34.5693 9.02545H36.2155V10.6716H34.5693V9.02545Z" fill="white"/>
<path d="M31.2773 9.02545H32.9235V10.6716H31.2773V9.02545Z" fill="white"/>
<path d="M18.9309 29.6022H32.1003C33.4617 29.6022 34.5696 28.4944 34.5696 27.133V26.3099H45.2697C48.4459 26.3099 51.0312 23.7254 51.0312 20.5483V14.7867C51.0312 11.6096 48.4459 9.02512 45.2697 9.02512H42.8004V8.20204C42.8004 6.84066 41.6925 5.73278 40.3311 5.73278H27.1618C25.8004 5.73278 24.6925 6.84066 24.6925 8.20204V9.02512H19.7828V7.60283L17.6222 7.01268C17.5515 6.82337 17.4724 6.63489 17.3868 6.44887L18.4988 4.50145L15.2822 1.28484L13.3356 2.396C13.1488 2.3104 12.9611 2.23138 12.7718 2.1606L12.1808 0H7.63164L7.04067 2.1606C6.85136 2.23138 6.66369 2.30958 6.47768 2.396L4.53026 1.28484L1.31364 4.50145L2.42481 6.44887C2.33921 6.63489 2.26019 6.82337 2.18941 7.01268L0.0288079 7.60283V12.1512L2.18941 12.7422C2.26019 12.9315 2.33921 13.12 2.42481 13.306L1.31282 15.2534L4.52943 18.4692L6.47685 17.358C6.66287 17.4436 6.85053 17.5226 7.03984 17.5934L7.63082 19.754H12.18L12.771 17.5934C12.9595 17.5226 13.148 17.4436 13.3348 17.358L15.2814 18.4684L18.498 15.2526L17.386 13.3052C17.4716 13.1191 17.5506 12.9307 17.6214 12.7414L19.782 12.1504V10.6713H24.6925V11.4944C24.6925 12.8558 25.8004 13.9636 27.1618 13.9636H40.3311C41.6925 13.9636 42.8004 12.8558 42.8004 11.4944V10.6713H45.2697C47.5389 10.6713 49.3851 12.5175 49.3851 14.7867V20.5483C49.3851 22.8176 47.5389 24.6637 45.2697 24.6637H34.5696V23.8406C34.5696 22.4793 33.4617 21.3714 32.1003 21.3714H18.9309C17.5696 21.3714 16.4617 22.4793 16.4617 23.8406V24.6637H5.76159C2.58531 24.6637 0 27.249 0 30.4253V37.01C0 40.1863 2.58531 42.7716 5.76159 42.7716H8.23085V43.5947C8.23085 44.9561 9.33872 46.0639 10.7001 46.0639H23.8695C25.2308 46.0639 26.3387 44.9561 26.3387 43.5947V42.7716H32.9654C33.3827 47.3792 37.2627 51.0024 41.9773 51.0024C46.9693 51.0024 51.0312 46.9405 51.0312 41.9485C51.0312 36.9565 46.9693 32.8946 41.9773 32.8946C37.2627 32.8946 33.3827 36.5178 32.9654 41.1254H26.3387V40.3023C26.3387 38.941 25.2308 37.8331 23.8695 37.8331H10.7001C9.33872 37.8331 8.23085 38.941 8.23085 40.3023V41.1254H5.76159C3.49235 41.1254 1.64617 39.2792 1.64617 37.01V30.4253C1.64617 28.1561 3.49235 26.3099 5.76159 26.3099H16.4617V27.133C16.4617 28.4944 17.5696 29.6022 18.9309 29.6022ZM18.1367 10.8952L16.3316 11.389L16.1991 11.8211C16.0806 12.2022 15.9226 12.5817 15.7283 12.9488L15.516 13.3488L16.4461 14.9777L15.0073 16.4172L13.3776 15.488L12.9784 15.6995C12.6121 15.8938 12.2327 16.0518 11.8508 16.1695L11.4195 16.3028L10.9248 18.1079H8.88931L8.39464 16.3028L7.96334 16.1695C7.58308 16.0518 7.20364 15.8946 6.83572 15.6995L6.4357 15.488L4.80681 16.4172L3.36642 14.9777L4.2965 13.3488L4.08415 12.9488C3.8899 12.5817 3.73104 12.2022 3.61334 11.8211L3.48083 11.389L1.6758 10.8952V8.85886L3.48083 8.36583L3.61416 7.93371C3.73187 7.55262 3.8899 7.17318 4.08415 6.80691L4.2965 6.40607L3.36642 4.77718L4.80517 3.33761L6.43405 4.26687L6.83407 4.05534C7.20364 3.86027 7.58308 3.70141 7.9617 3.58453L8.39299 3.45119L8.88767 1.64617H10.9232L11.4178 3.45119L11.8491 3.58453C12.2294 3.70223 12.6088 3.86027 12.9768 4.05534L13.3759 4.26687L15.0057 3.33761L16.4444 4.77718L15.5143 6.40607L15.7267 6.80609C15.9209 7.17236 16.0798 7.5518 16.1967 7.93289L16.33 8.36501L18.135 8.85804V10.8952H18.1367ZM41.1542 11.4944C41.1542 11.9479 40.7855 12.3175 40.3311 12.3175H27.1618C26.7075 12.3175 26.3387 11.9479 26.3387 11.4944V8.20204C26.3387 7.74852 26.7075 7.37895 27.1618 7.37895H40.3311C40.7855 7.37895 41.1542 7.74852 41.1542 8.20204V11.4944ZM41.9773 34.5407C46.0623 34.5407 49.3851 37.8635 49.3851 41.9485C49.3851 46.0335 46.0623 49.3563 41.9773 49.3563C37.8923 49.3563 34.5696 46.0335 34.5696 41.9485C34.5696 37.8635 37.8923 34.5407 41.9773 34.5407ZM9.87702 40.3023C9.87702 39.848 10.2458 39.4793 10.7001 39.4793H23.8695C24.3238 39.4793 24.6925 39.848 24.6925 40.3023V43.5947C24.6925 44.049 24.3238 44.4178 23.8695 44.4178H10.7001C10.2458 44.4178 9.87702 44.049 9.87702 43.5947V40.3023ZM18.1079 23.8406C18.1079 23.3871 18.4766 23.0176 18.9309 23.0176H32.1003C32.5546 23.0176 32.9234 23.3871 32.9234 23.8406V27.133C32.9234 27.5873 32.5546 27.9561 32.1003 27.9561H18.9309C18.4766 27.9561 18.1079 27.5873 18.1079 27.133V23.8406Z" fill="white"/>
<path d="M26.3389 24.6641H27.985V26.3102H26.3389V24.6641Z" fill="white"/>
<path d="M23.0459 24.6641H24.6921V26.3102H23.0459V24.6641Z" fill="white"/>
<path d="M19.7539 24.6641H21.4001V26.3102H19.7539V24.6641Z" fill="white"/>
<path d="M29.6309 24.6641H31.277V26.3102H29.6309V24.6641Z" fill="white"/>
<path d="M14.8154 41.1257H16.4616V42.7719H14.8154V41.1257Z" fill="white"/>
<path d="M21.4004 41.1257H23.0466V42.7719H21.4004V41.1257Z" fill="white"/>
<path d="M18.1074 41.1257H19.7536V42.7719H18.1074V41.1257Z" fill="white"/>
<path d="M11.5234 41.1257H13.1696V42.7719H11.5234V41.1257Z" fill="white"/>
</svg>
