<svg width="11" height="9" viewBox="0 0 11 9" fill="none" xmlns="http://www.w3.org/2000/svg">
<g opacity="0.3">
<path d="M6.86563 4.21766L7.4904 3.5929C7.53586 3.76297 7.5625 3.94077 7.5625 4.12502C7.5625 5.26232 6.6373 6.18752 5.5 6.18752C5.31575 6.18752 5.13795 6.16088 4.96788 6.11542L5.59264 5.49065C6.27576 5.44408 6.81905 4.90078 6.86563 4.21766ZM10.9567 3.95804C10.9144 3.88199 10.3147 2.83123 9.14255 1.94075L8.64231 2.44099C9.49704 3.06945 10.0386 3.80241 10.2518 4.12554C9.8444 4.74592 8.24613 6.87502 5.5 6.87502C5.08819 6.87502 4.70525 6.82234 4.34491 6.73829L3.78005 7.30316C4.29937 7.4624 4.87016 7.56252 5.5 7.56252C9.09846 7.56252 10.8825 4.42546 10.9567 4.292C11.0144 4.1881 11.0144 4.06194 10.9567 3.95804ZM9.52428 0.586803L1.96178 8.1493C1.89466 8.21642 1.80666 8.25002 1.71875 8.25002C1.63084 8.25002 1.54284 8.21642 1.47572 8.1493C1.3414 8.01498 1.3414 7.79747 1.47572 7.66324L2.43788 6.70108C0.882406 5.76204 0.0920391 4.37974 0.0433125 4.292C-0.0144375 4.1881 -0.0144375 4.06186 0.0433125 3.95796C0.117477 3.82458 1.90154 0.687521 5.5 0.687521C6.43045 0.687521 7.23637 0.899787 7.92533 1.21363L9.03822 0.10074C9.17254 -0.0335801 9.39005 -0.0335801 9.52428 0.10074C9.65852 0.235061 9.6586 0.452568 9.52428 0.586803ZM2.95049 6.18847L3.82078 5.31818C3.58041 4.98096 3.4375 4.56975 3.4375 4.12502C3.4375 2.98772 4.3627 2.06252 5.5 2.06252C5.94473 2.06252 6.35594 2.20544 6.69316 2.44572L7.3969 1.74197C6.84088 1.51931 6.20907 1.37502 5.5 1.37502C2.75387 1.37502 1.1556 3.50412 0.748258 4.12451C1.00693 4.51655 1.75046 5.50896 2.95049 6.18847ZM4.31982 4.81905L6.19403 2.94484C5.98959 2.8241 5.7542 2.75002 5.5 2.75002C4.74186 2.75002 4.125 3.36688 4.125 4.12502C4.125 4.37922 4.19908 4.61461 4.31982 4.81905Z" fill="black"/>
</g>
</svg>
