<svg width="36" height="36" viewBox="0 0 36 36" fill="none" xmlns="http://www.w3.org/2000/svg">
<path opacity="0.2" fill-rule="evenodd" clip-rule="evenodd" d="M2.51162 7.95345C2.51162 4.948 4.948 2.51162 7.95345 2.51162H21.3487C22.0423 2.51162 22.6045 1.94937 22.6045 1.25581C22.6045 0.56225 22.0423 0 21.3487 0H7.95345C3.56088 0 0 3.56088 0 7.95345V28.0464C0 32.439 3.56088 35.9998 7.95345 35.9998H28.0464C32.439 35.9998 35.9998 32.439 35.9998 28.0464V14.6511C35.9998 13.9575 35.4376 13.3953 34.744 13.3953C34.0505 13.3953 33.4882 13.9575 33.4882 14.6511V20.5268C33.4127 20.4663 33.3342 20.4089 33.2528 20.3546L29.2662 17.6968C26.6097 15.9258 23.0725 16.2761 20.8149 18.5337L15.1849 24.1637C12.9273 26.4214 9.39013 26.7716 6.73369 25.0006L2.51162 22.1859V7.95345ZM30.9766 1.25581C30.9766 0.56225 30.4143 0 29.7208 0C29.0272 0 28.465 0.56225 28.465 1.25581V5.02323H24.6975C24.004 5.02323 23.4417 5.58548 23.4417 6.27904C23.4417 6.9726 24.004 7.53485 24.6975 7.53485H28.465V11.3023C28.465 11.9958 29.0272 12.5581 29.7208 12.5581C30.4143 12.5581 30.9766 11.9958 30.9766 11.3023V7.53485H34.744C35.4376 7.53485 35.9998 6.9726 35.9998 6.27904C35.9998 5.58548 35.4376 5.02323 34.744 5.02323H30.9766V1.25581ZM12.1395 16.3255C14.4513 16.3255 16.3255 14.4513 16.3255 12.1395C16.3255 9.8276 14.4513 7.95345 12.1395 7.95345C9.8276 7.95345 7.95345 9.8276 7.95345 12.1395C7.95345 14.4513 9.8276 16.3255 12.1395 16.3255Z" fill="black"/>
</svg>
