<svg width="49" height="49" viewBox="0 0 49 49" fill="none" xmlns="http://www.w3.org/2000/svg">
<path d="M40.8336 17.9667H42.4669C44.271 17.9667 45.7336 16.5041 45.7336 14.7V8.085C47.7875 7.66575 49.1902 5.75938 48.9796 3.67375C48.7689 1.58813 47.0131 0.000833416 44.9169 0.000833416C42.8207 0.000833416 41.0649 1.58813 40.8542 3.67375C40.6436 5.75938 42.0463 7.66575 44.1002 8.085V14.7C44.1002 15.6021 43.369 16.3333 42.4669 16.3333H40.8336V11.6416C40.833 10.3523 39.8333 9.28407 38.5469 9.19812C36.043 9.03478 29.8086 8.33735 26.0151 5.42022C25.8042 5.258 25.5684 5.13087 25.3169 5.04373V0.816667C25.3169 0.365634 24.9513 0 24.5002 0C24.0492 0 23.6836 0.365634 23.6836 0.816667V5.04373C23.4311 5.13038 23.1945 5.25754 22.9829 5.42022C19.1919 8.33735 12.9542 9.03397 10.4536 9.19812C9.16716 9.28407 8.16747 10.3523 8.1669 11.6416V16.3333H6.53357C5.6315 16.3333 4.90023 15.6021 4.90023 14.7V8.085C6.95412 7.66575 8.35691 5.75938 8.14622 3.67375C7.93553 1.58813 6.17981 0.000833416 4.08357 0.000833416C1.98733 0.000833416 0.231601 1.58813 0.0209102 3.67375C-0.189781 5.75938 1.21301 7.66575 3.2669 8.085V14.7C3.2669 16.5041 4.72944 17.9667 6.53357 17.9667H8.1669V20.0671C8.16887 21.277 8.25456 22.4853 8.42333 23.6833H0.8169C0.365867 23.6833 0.00023283 24.049 0.00023283 24.5C0.00023283 24.951 0.365867 25.3167 0.8169 25.3167H8.70835C9.10832 27.2881 9.73563 29.2065 10.5777 31.0333H6.53357C4.72944 31.0333 3.2669 32.4959 3.2669 34.3V40.915C1.21301 41.3342 -0.189781 43.2406 0.0209102 45.3262C0.231601 47.4119 1.98733 48.9992 4.08357 48.9992C6.17981 48.9992 7.93553 47.4119 8.14622 45.3262C8.35691 43.2406 6.95412 41.3342 4.90023 40.915V34.3C4.90023 33.3979 5.6315 32.6667 6.53357 32.6667H11.4066C11.7578 33.3037 12.1285 33.9317 12.5344 34.545C15.244 38.6197 19.0402 41.8543 23.4933 43.8828C23.5545 43.9105 23.6207 43.9228 23.6836 43.9457V48.1833C23.6836 48.6344 24.0492 49 24.5002 49C24.9513 49 25.3169 48.6344 25.3169 48.1833V43.9457C25.3806 43.9228 25.4459 43.9105 25.508 43.882C30.636 41.5408 34.8717 37.6075 37.5857 32.6667H42.4669C43.369 32.6667 44.1002 33.3979 44.1002 34.3V40.915C42.0463 41.3342 40.6436 43.2406 40.8542 45.3262C41.0649 47.4119 42.8207 48.9992 44.9169 48.9992C47.0131 48.9992 48.7689 47.4119 48.9796 45.3262C49.1902 43.2406 47.7875 41.3342 45.7336 40.915V34.3C45.7336 32.4959 44.271 31.0333 42.4669 31.0333H38.4113C39.2552 29.2064 39.8855 27.2881 40.2897 25.3167H48.1836C48.6346 25.3167 49.0002 24.951 49.0002 24.5C49.0002 24.049 48.6346 23.6833 48.1836 23.6833H40.5755C40.7455 22.4854 40.8317 21.2771 40.8336 20.0671V17.9667ZM42.4669 4.08333C42.4669 2.73024 43.5638 1.63333 44.9169 1.63333C46.27 1.63333 47.3669 2.73024 47.3669 4.08333C47.3669 5.43643 46.27 6.53333 44.9169 6.53333C43.5638 6.53333 42.4669 5.43643 42.4669 4.08333ZM4.08357 6.53333C2.73047 6.53333 1.63357 5.43643 1.63357 4.08333C1.63357 2.73024 2.73047 1.63333 4.08357 1.63333C5.43666 1.63333 6.53357 2.73024 6.53357 4.08333C6.53357 4.73311 6.27544 5.35628 5.81598 5.81574C5.35651 6.27521 4.73335 6.53333 4.08357 6.53333ZM6.53357 44.9167C6.53357 46.2698 5.43666 47.3667 4.08357 47.3667C2.73047 47.3667 1.63357 46.2698 1.63357 44.9167C1.63357 43.5636 2.73047 42.4667 4.08357 42.4667C4.73335 42.4667 5.35651 42.7248 5.81598 43.1843C6.27544 43.6437 6.53357 44.2669 6.53357 44.9167ZM44.9169 42.4667C46.27 42.4667 47.3669 43.5636 47.3669 44.9167C47.3669 46.2698 46.27 47.3667 44.9169 47.3667C43.5638 47.3667 42.4669 46.2698 42.4669 44.9167C42.4669 43.5636 43.5638 42.4667 44.9169 42.4667ZM39.2002 20.0671C39.1851 29.6784 33.5723 38.4 24.831 42.3956C24.6201 42.4892 24.3795 42.4892 24.1687 42.3956C15.4174 38.4116 9.80025 29.6826 9.80023 20.0671V11.6416C9.79909 11.2128 10.1297 10.8562 10.5573 10.8249C13.8525 10.6093 19.9775 9.78775 23.9784 6.71137C24.285 6.4708 24.7163 6.4708 25.0229 6.71137C29.0246 9.78775 35.1496 10.6093 38.4432 10.8249C38.8708 10.8562 39.2014 11.2128 39.2002 11.6416V20.0671Z" fill="#7E50A7"/>
<path d="M36.1231 12.2485C33.1055 11.8851 28.787 11.0096 25.348 8.9116C24.828 8.59197 24.1725 8.59197 23.6526 8.9116C20.2152 11.0104 15.8942 11.8851 12.8775 12.2493C12.0552 12.3476 11.4356 13.044 11.4336 13.872V20.0656C11.4277 24.5713 12.7565 28.9777 15.2523 32.7289C17.3955 35.9467 20.3137 38.5737 23.7383 40.368C24.2154 40.6162 24.7835 40.6162 25.2606 40.368C32.8341 36.4318 37.5808 28.601 37.5669 20.0656V13.872C37.5654 13.0436 36.9456 12.3468 36.1231 12.2485ZM35.9336 20.0656C35.9461 27.9923 31.5378 35.2645 24.5044 38.92H24.4937C21.313 37.2531 18.6027 34.8129 16.6121 31.824C14.2948 28.3408 13.0612 24.2492 13.0669 20.0656L13.0727 13.872C16.2519 13.4882 20.8155 12.558 24.497 10.3065C28.1859 12.5588 32.7494 13.4915 35.9303 13.872L35.9336 20.0656Z" fill="#7E50A7"/>
<path d="M20.9944 27.1871C20.6739 26.8776 20.1646 26.882 19.8495 27.1971C19.5345 27.5121 19.5301 28.0214 19.8396 28.3419L23.1063 31.6085C23.2594 31.7617 23.4671 31.8478 23.6837 31.8478C23.7418 31.8479 23.7999 31.8419 23.8568 31.8299C24.128 31.7702 24.3507 31.5776 24.4489 31.3178L29.3489 18.2511C29.451 17.9778 29.3995 17.6707 29.2138 17.4455C29.0281 17.2204 28.7364 17.1114 28.4486 17.1597C28.1608 17.208 27.9206 17.4061 27.8184 17.6795L23.3643 29.5612L20.9944 27.1871Z" fill="#7E50A7"/>
</svg>
