<svg width="38" height="52" viewBox="0 0 38 52" fill="none" xmlns="http://www.w3.org/2000/svg">
<path d="M31.6972 32.894H6.30265C5.58009 32.894 4.88701 32.6074 4.3754 32.0972C3.86378 31.587 3.57539 30.8947 3.57346 30.1721V28.5083C3.56934 28.3396 3.6238 28.1747 3.72758 28.0417C3.83136 27.9086 3.97804 27.8156 4.14265 27.7786C13.9281 25.6259 24.0645 25.6259 33.8499 27.7786C34.0159 27.8142 34.1643 27.9065 34.2695 28.0397C34.3747 28.1729 34.4302 28.3386 34.4264 28.5083V30.1721C34.4245 30.8947 34.1361 31.587 33.6245 32.0972C33.1129 32.6074 32.4198 32.894 31.6972 32.894ZM5.03292 29.0994V30.1721C5.03292 30.3385 5.06581 30.5033 5.12971 30.6569C5.19361 30.8105 5.28725 30.95 5.40525 31.0674C5.52326 31.1847 5.66329 31.2775 5.8173 31.3405C5.97131 31.4035 6.13625 31.4355 6.30265 31.4345H31.6972C31.8636 31.4355 32.0286 31.4035 32.1826 31.3405C32.3366 31.2775 32.4766 31.1847 32.5946 31.0674C32.7126 30.95 32.8063 30.8105 32.8702 30.6569C32.9341 30.5033 32.967 30.3385 32.967 30.1721V29.0994C23.7576 27.151 14.2423 27.151 5.03292 29.0994Z" fill="#FFAE1A"/>
<path d="M30.2158 28.5774C30.0223 28.5774 29.8366 28.5005 29.6998 28.3637C29.5629 28.2268 29.4861 28.0412 29.4861 27.8477V22.3528C29.4861 17.5658 29.2963 12.7204 28.9242 7.94796L28.8804 7.45175C28.7598 5.95069 28.0803 4.54951 26.9764 3.52529C25.8725 2.50106 24.4244 1.92835 22.9185 1.9204H15.0812C13.5776 1.92804 12.1315 2.49872 11.0279 3.51991C9.92433 4.5411 9.24337 5.9387 9.11931 7.43715L9.08282 7.81661C8.69606 12.6693 8.50633 17.595 8.50633 22.455V27.8404C8.50633 28.0339 8.42945 28.2195 8.2926 28.3564C8.15575 28.4932 7.97014 28.5701 7.7766 28.5701C7.58307 28.5701 7.39746 28.4932 7.26061 28.3564C7.12376 28.2195 7.04688 28.0339 7.04688 27.8404V22.455C7.04688 17.5512 7.2439 12.589 7.63066 7.69986V7.3204C7.78621 5.45108 8.63845 3.70844 10.0184 2.43793C11.3984 1.16742 13.2054 0.461797 15.0812 0.460938H22.9185C24.7892 0.469096 26.589 1.17798 27.9628 2.44778C29.3366 3.71757 30.1847 5.45608 30.3398 7.3204L30.3763 7.81661C30.7558 12.6255 30.9455 17.5147 30.9455 22.3382V27.8477C30.9455 28.0412 30.8686 28.2268 30.7318 28.3637C30.5949 28.5005 30.4093 28.5774 30.2158 28.5774Z" fill="#FFAE1A"/>
<path d="M33.6965 29.2418C33.503 29.2418 33.3174 29.1649 33.1805 29.028C33.0437 28.8912 32.9668 28.7056 32.9668 28.5121V18.3469C32.9668 18.1534 33.0437 17.9678 33.1805 17.8309C33.3174 17.6941 33.503 17.6172 33.6965 17.6172H37.1919C37.3855 17.6172 37.5711 17.6941 37.7079 17.8309C37.8448 17.9678 37.9217 18.1534 37.9217 18.3469C37.9217 18.5405 37.8448 18.7261 37.7079 18.8629C37.5711 18.9998 37.3855 19.0766 37.1919 19.0766H34.4263V28.5121C34.4263 28.7056 34.3494 28.8912 34.2125 29.028C34.0757 29.1649 33.8901 29.2418 33.6965 29.2418Z" fill="#FFAE1A"/>
<path d="M4.30326 29.2418C4.10972 29.2418 3.92411 29.1649 3.78726 29.028C3.65041 28.8912 3.57353 28.7056 3.57353 28.5121V19.0766H0.807855C0.614318 19.0766 0.428709 18.9998 0.291858 18.8629C0.155007 18.7261 0.078125 18.5405 0.078125 18.3469C0.078125 18.1534 0.155007 17.9678 0.291858 17.8309C0.428709 17.6941 0.614318 17.6172 0.807855 17.6172H4.30326C4.4968 17.6172 4.68241 17.6941 4.81926 17.8309C4.95611 17.9678 5.03299 18.1534 5.03299 18.3469V28.5121C5.03299 28.7056 4.95611 28.8912 4.81926 29.028C4.68241 29.1649 4.4968 29.2418 4.30326 29.2418Z" fill="#FFAE1A"/>
<path d="M21.0437 36.4361H16.9572C16.5508 36.4361 16.161 36.2747 15.8736 35.9873C15.5863 35.6999 15.4248 35.3101 15.4248 34.9037V32.1672C15.4248 31.9737 15.5017 31.7881 15.6385 31.6512C15.7754 31.5144 15.961 31.4375 16.1545 31.4375H21.8464C22.04 31.4375 22.2256 31.5144 22.3624 31.6512C22.4993 31.7881 22.5762 31.9737 22.5762 32.1672V34.9037C22.5762 35.3101 22.4147 35.6999 22.1273 35.9873C21.8399 36.2747 21.4502 36.4361 21.0437 36.4361ZM16.8843 32.897V34.9037C16.8843 34.9133 16.8862 34.9228 16.8898 34.9316C16.8935 34.9405 16.8989 34.9485 16.9056 34.9553C16.9124 34.9621 16.9205 34.9675 16.9293 34.9711C16.9382 34.9748 16.9477 34.9767 16.9572 34.9767H21.0437C21.0533 34.9767 21.0628 34.9748 21.0717 34.9711C21.0805 34.9675 21.0885 34.9621 21.0953 34.9553C21.1021 34.9485 21.1075 34.9405 21.1111 34.9316C21.1148 34.9228 21.1167 34.9133 21.1167 34.9037V32.897H16.8843Z" fill="#FFAE1A"/>
<path d="M19.0002 46.4333C18.8067 46.4333 18.6211 46.3564 18.4842 46.2196C18.3474 46.0827 18.2705 45.8971 18.2705 45.7036V35.7063C18.2705 35.5128 18.3474 35.3271 18.4842 35.1903C18.6211 35.0534 18.8067 34.9766 19.0002 34.9766C19.1938 34.9766 19.3794 35.0534 19.5162 35.1903C19.6531 35.3271 19.73 35.5128 19.73 35.7063V45.7036C19.73 45.8971 19.6531 46.0827 19.5162 46.2196C19.3794 46.3564 19.1938 46.4333 19.0002 46.4333Z" fill="#FFAE1A"/>
<path d="M31.077 46.4327C30.8835 46.4327 30.6979 46.3558 30.561 46.2189C30.4242 46.0821 30.3473 45.8965 30.3473 45.703V43.1197L18.7811 39.5367C18.6896 39.508 18.6046 39.4615 18.5311 39.3999C18.4575 39.3383 18.3968 39.2629 18.3524 39.1778C18.308 39.0928 18.2808 38.9998 18.2724 38.9043C18.2639 38.8087 18.2744 38.7124 18.3031 38.6209C18.3319 38.5294 18.3783 38.4444 18.4399 38.3709C18.5015 38.2974 18.577 38.2367 18.662 38.1923C18.7471 38.1479 18.84 38.1207 18.9356 38.1122C19.0311 38.1038 19.1274 38.1142 19.2189 38.143L31.2886 41.8792C31.4438 41.926 31.5789 42.0232 31.6727 42.1553C31.7665 42.2874 31.8137 42.447 31.8068 42.6089V45.703C31.8068 45.8965 31.7299 46.0821 31.593 46.2189C31.4562 46.3558 31.2706 46.4327 31.077 46.4327Z" fill="#FFAE1A"/>
<path d="M6.92278 46.4327C6.72924 46.4327 6.54363 46.3558 6.40678 46.2189C6.26993 46.0821 6.19305 45.8965 6.19305 45.703V42.5797C6.18613 42.4178 6.23329 42.2582 6.3271 42.1261C6.42091 41.994 6.55603 41.8968 6.71116 41.85L18.7809 38.143C18.8724 38.1142 18.9687 38.1038 19.0642 38.1122C19.1598 38.1207 19.2527 38.1479 19.3378 38.1923C19.4228 38.2367 19.4983 38.2974 19.5599 38.3709C19.6215 38.4444 19.6679 38.5294 19.6967 38.6209C19.7254 38.7124 19.7359 38.8087 19.7274 38.9043C19.719 38.9998 19.6918 39.0928 19.6474 39.1778C19.603 39.2629 19.5423 39.3383 19.4688 39.3999C19.3952 39.4615 19.3102 39.508 19.2187 39.5367L7.65251 43.1197V45.703C7.65251 45.7988 7.63363 45.8937 7.59696 45.9822C7.56029 46.0707 7.50654 46.1512 7.43877 46.2189C7.37101 46.2867 7.29057 46.3405 7.20203 46.3771C7.1135 46.4138 7.01861 46.4327 6.92278 46.4327Z" fill="#FFAE1A"/>
<path d="M31.4161 51.5822C30.7652 51.5822 30.1289 51.3891 29.5877 51.0275C29.0464 50.6659 28.6246 50.1519 28.3755 49.5505C28.1264 48.9492 28.0613 48.2874 28.1882 47.649C28.3152 47.0106 28.6287 46.4242 29.0889 45.9639C29.5492 45.5037 30.1356 45.1902 30.774 45.0632C31.4124 44.9363 32.0742 45.0014 32.6755 45.2505C33.2769 45.4996 33.7909 45.9214 34.1525 46.4627C34.5141 47.0039 34.7072 47.6402 34.7072 48.2911C34.7072 49.1639 34.3604 50.001 33.7432 50.6182C33.126 51.2354 32.2889 51.5822 31.4161 51.5822ZM31.4161 46.4741C31.0538 46.4741 30.6997 46.5815 30.3985 46.7827C30.0973 46.984 29.8625 47.2701 29.7239 47.6047C29.5853 47.9394 29.549 48.3077 29.6197 48.663C29.6903 49.0183 29.8648 49.3447 30.1209 49.6008C30.3771 49.857 30.7034 50.0314 31.0587 50.1021C31.414 50.1728 31.7823 50.1365 32.117 49.9979C32.4517 49.8592 32.7378 49.6245 32.939 49.3233C33.1403 49.0221 33.2477 48.6679 33.2477 48.3057C33.2477 48.0651 33.2003 47.827 33.1083 47.6047C33.0162 47.3825 32.8813 47.1806 32.7112 47.0105C32.5412 46.8404 32.3392 46.7055 32.117 46.6135C31.8948 46.5214 31.6566 46.4741 31.4161 46.4741Z" fill="#FFAE1A"/>
<path d="M19.3389 51.5822C18.688 51.5822 18.0517 51.3891 17.5105 51.0275C16.9693 50.6659 16.5475 50.1519 16.2984 49.5505C16.0493 48.9492 15.9841 48.2874 16.1111 47.649C16.2381 47.0106 16.5515 46.4242 17.0118 45.9639C17.4721 45.5037 18.0585 45.1902 18.6969 45.0632C19.3353 44.9363 19.997 45.0014 20.5984 45.2505C21.1997 45.4996 21.7137 45.9214 22.0754 46.4627C22.437 47.0039 22.63 47.6402 22.63 48.2911C22.63 49.1639 22.2833 50.001 21.6661 50.6182C21.0489 51.2354 20.2118 51.5822 19.3389 51.5822ZM19.3389 46.4741C18.9767 46.4741 18.6225 46.5815 18.3213 46.7827C18.0201 46.984 17.7854 47.2701 17.6467 47.6047C17.5081 47.9394 17.4718 48.3077 17.5425 48.663C17.6132 49.0183 17.7876 49.3447 18.0438 49.6008C18.2999 49.857 18.6263 50.0314 18.9816 50.1021C19.3369 50.1728 19.7052 50.1365 20.0399 49.9979C20.3746 49.8592 20.6606 49.6245 20.8619 49.3233C21.0631 49.0221 21.1706 48.6679 21.1706 48.3057C21.1686 47.8205 20.975 47.3557 20.632 47.0126C20.2889 46.6696 19.8241 46.476 19.3389 46.4741Z" fill="#FFAE1A"/>
<path d="M7.26189 51.582C6.61225 51.5763 5.97885 51.3784 5.44149 51.0133C4.90413 50.6481 4.48685 50.1322 4.24222 49.5303C3.9976 48.9285 3.93657 48.2677 4.06684 47.6312C4.1971 46.9947 4.51283 46.411 4.97423 45.9537C5.43564 45.4963 6.02209 45.1858 6.65968 45.0611C7.29728 44.9365 7.95751 45.0034 8.55717 45.2533C9.15684 45.5032 9.66912 45.925 10.0295 46.4656C10.3898 47.0062 10.5821 47.6413 10.5822 48.291C10.5812 48.7253 10.4945 49.1553 10.3269 49.556C10.1594 49.9568 9.91429 50.3205 9.60578 50.6263C9.29727 50.9321 8.9314 51.174 8.52917 51.338C8.12693 51.502 7.69627 51.5849 7.26189 51.582ZM7.26189 46.4739C6.90031 46.4797 6.54853 46.5924 6.25089 46.7978C5.95324 47.0031 5.72306 47.292 5.58934 47.628C5.45562 47.964 5.42435 48.3321 5.49948 48.6858C5.5746 49.0396 5.75276 49.3631 6.0115 49.6158C6.27023 49.8684 6.59796 50.0388 6.95339 50.1055C7.30881 50.1722 7.67603 50.1322 8.00874 49.9905C8.34146 49.8488 8.62479 49.6118 8.82303 49.3094C9.02127 49.0069 9.12554 48.6526 9.1227 48.291C9.11985 48.0495 9.06945 47.8109 8.97438 47.5889C8.87932 47.3669 8.74145 47.1657 8.56866 46.997C8.39586 46.8283 8.19152 46.6952 7.9673 46.6055C7.74309 46.5157 7.50339 46.471 7.26189 46.4739Z" fill="#FFAE1A"/>
<path d="M19.0002 18.3682C18.8067 18.3682 18.6211 18.2913 18.4842 18.1545C18.3474 18.0176 18.2705 17.832 18.2705 17.6385V17.2809C18.2842 16.619 18.4654 15.9713 18.7972 15.3983C19.1289 14.8254 19.6005 14.3458 20.1678 14.0044C20.5556 13.7592 20.8565 13.3983 21.028 12.9727C21.1995 12.5471 21.233 12.0784 21.1237 11.6328C21.0291 11.2449 20.8301 10.8903 20.5485 10.6073C20.2668 10.3244 19.9131 10.1238 19.5256 10.0274C19.1998 9.94725 18.8599 9.94307 18.5322 10.0152C18.2044 10.0873 17.8977 10.2338 17.6356 10.4433C17.3809 10.6464 17.1746 10.9038 17.032 11.1966C16.8893 11.4895 16.8138 11.8106 16.811 12.1363C16.811 12.3299 16.7341 12.5155 16.5973 12.6523C16.4604 12.7892 16.2748 12.8661 16.0813 12.8661C15.8878 12.8661 15.7021 12.7892 15.5653 12.6523C15.4284 12.5155 15.3516 12.3299 15.3516 12.1363C15.3512 11.5882 15.4744 11.0471 15.7119 10.5532C15.9494 10.0592 16.2952 9.62509 16.7235 9.28308C17.1541 8.93157 17.6593 8.6831 18.2006 8.55663C18.7419 8.43016 19.3049 8.42904 19.8467 8.55335C20.5448 8.72003 21.1782 9.0889 21.6678 9.6138C22.1573 10.1387 22.4811 10.7963 22.5987 11.5043C22.7163 12.2124 22.6225 12.9394 22.329 13.5943C22.0355 14.2493 21.5553 14.8032 20.9486 15.1866C20.5824 15.4013 20.2778 15.7069 20.0644 16.0738C19.8509 16.4407 19.7357 16.8565 19.7299 17.2809V17.6385C19.7299 17.832 19.6531 18.0176 19.5162 18.1545C19.3794 18.2913 19.1937 18.3682 19.0002 18.3682Z" fill="#FFAE1A"/>
<path d="M19.0002 21.0457C18.8067 21.0457 18.6211 20.9689 18.4842 20.832C18.3474 20.6952 18.2705 20.5095 18.2705 20.316V19.8782C18.2705 19.6846 18.3474 19.499 18.4842 19.3622C18.6211 19.2253 18.8067 19.1484 19.0002 19.1484C19.1938 19.1484 19.3794 19.2253 19.5162 19.3622C19.6531 19.499 19.73 19.6846 19.73 19.8782V20.316C19.73 20.5095 19.6531 20.6952 19.5162 20.832C19.3794 20.9689 19.1938 21.0457 19.0002 21.0457Z" fill="#FFAE1A"/>
</svg>
