<svg width="27" height="27" viewBox="0 0 27 27" fill="none" xmlns="http://www.w3.org/2000/svg">
<g clip-path="url(#clip0_23_9448)">
<path d="M26.209 1.58203H20.6191V0.791016C20.6191 0.354164 20.265 0 19.8281 0H7.17188C6.73502 0 6.38086 0.354164 6.38086 0.791016V1.58203H0.791016C0.354164 1.58203 0 1.9362 0 2.37305V15.082C0 15.5189 0.354164 15.873 0.791016 15.873H6.38086V18.3069C4.9429 18.8683 4.41018 20.6298 5.3104 21.8968L8.74299 26.6708C8.8916 26.8775 9.13064 27 9.38524 27H22.9922C23.429 27 23.7832 26.6458 23.7832 26.209V19.7185C23.7832 18.0549 22.127 16.9369 20.6191 17.4851V15.873H26.209C26.6458 15.873 27 15.5189 27 15.082V2.37305C27 1.9362 26.6458 1.58203 26.209 1.58203ZM7.96289 1.58203H19.0371V16.5075C18.3996 16.2814 17.6809 16.3345 17.0699 16.6847C16.4658 15.7596 15.3191 15.3788 14.2947 15.7402C14.2969 13.2971 14.3425 13.1539 14.1602 12.6464C15.1322 12.4646 15.8704 11.6104 15.8704 10.5864C15.8704 9.43059 14.93 8.49023 13.7742 8.49023H13.2389C12.9481 8.49023 12.7116 8.25367 12.7116 7.96289C12.7116 7.67211 12.9481 7.43555 13.2389 7.43555H15.0846C15.5215 7.43555 15.8756 7.08138 15.8756 6.64453C15.8756 6.20768 15.5215 5.85352 15.0846 5.85352H14.291V5.58984C14.291 5.15299 13.9369 4.79883 13.5 4.79883C13.0631 4.79883 12.709 5.15299 12.709 5.58984V5.92102C11.8015 6.15669 11.1296 6.98277 11.1296 7.96289C11.1296 9.126 12.0759 10.0723 13.239 10.0723H13.7742C14.0577 10.0723 14.2884 10.3029 14.2884 10.5864C14.2884 10.8699 14.0577 11.1006 13.7742 11.1006C13.7679 11.1006 11.9735 11.1012 11.966 11.1012C10.6253 11.1012 9.54044 12.1862 9.54123 13.5277C9.54271 15.157 9.54302 17.7454 9.54302 19.6593C9.30182 19.3852 8.98404 18.585 7.96289 18.2587V1.58203ZM1.58203 14.291V3.16406H6.38086V4.79883H4.00781C3.57096 4.79883 3.2168 5.15299 3.2168 5.58984C3.2168 6.0267 3.57096 6.38086 4.00781 6.38086H6.38086V7.96289H4.00781C3.57096 7.96289 3.2168 8.31705 3.2168 8.75391C3.2168 9.19076 3.57096 9.54492 4.00781 9.54492H6.38086V11.127H4.00781C3.57096 11.127 3.2168 11.4811 3.2168 11.918C3.2168 12.3548 3.57096 12.709 4.00781 12.709H6.38086V14.291H1.58203ZM21.3909 18.9277C21.835 18.9173 22.2012 19.2736 22.2012 19.7185V25.418H9.79077L6.59749 20.9768C6.34653 20.6237 6.42421 20.1293 6.78417 19.8736C7.14366 19.6178 7.63757 19.709 7.88716 20.0601L9.6891 22.5962C10.1338 23.222 11.1247 22.9069 11.1249 22.1381C11.1249 22.0806 11.126 16.3568 11.1234 13.5264C11.1231 13.0604 11.4998 12.6831 11.9661 12.6831C12.379 12.6831 12.7149 13.0191 12.7149 13.4316C12.713 15.1093 12.7091 19.8133 12.7091 19.8232C12.7087 20.26 13.0625 20.6145 13.4994 20.6149H13.5001C13.9366 20.6149 14.2907 20.2612 14.2911 19.8246C14.2916 19.2297 14.2922 18.5863 14.2928 17.9447C14.3106 17.5242 14.6573 17.1874 15.0821 17.1874C15.5183 17.1874 15.8732 17.5422 15.8732 17.9784V19.8281C15.8732 20.265 16.2273 20.6191 16.6642 20.6191C17.101 20.6191 17.4552 20.265 17.4552 19.8281V18.7445C17.4552 18.3083 17.81 17.9535 18.2462 17.9535C18.6824 17.9535 19.0372 18.3083 19.0372 18.7445V19.8281C19.0372 20.265 19.3914 20.6191 19.8282 20.6191C20.2651 20.6191 20.6192 20.265 20.6192 19.8281C20.6192 19.8228 20.6192 19.7452 20.6192 19.7505C20.6191 19.3067 20.9653 18.9376 21.3909 18.9277ZM25.418 14.291H20.6191V12.709H22.9922C23.429 12.709 23.7832 12.3548 23.7832 11.918C23.7832 11.4811 23.429 11.127 22.9922 11.127H20.6191V9.54492H22.9922C23.429 9.54492 23.7832 9.19076 23.7832 8.75391C23.7832 8.31705 23.429 7.96289 22.9922 7.96289H20.6191V6.38086H22.9922C23.429 6.38086 23.7832 6.0267 23.7832 5.58984C23.7832 5.15299 23.429 4.79883 22.9922 4.79883H20.6191V3.16406H25.418V14.291Z" fill="white"/>
</g>
<defs>
<clipPath id="clip0_23_9448">
<rect width="27" height="27" fill="white"/>
</clipPath>
</defs>
</svg>
