<svg width="31" height="22" viewBox="0 0 31 22" fill="none" xmlns="http://www.w3.org/2000/svg">
<path d="M20.3088 0.601562C15.6664 0.601562 11.5798 3.49369 10.1418 7.79797C10.0112 8.1892 10.2304 8.6095 10.6321 8.73767C11.0307 8.86584 11.4638 8.65123 11.5951 8.26C12.8269 4.5705 16.3292 2.09196 20.3088 2.09196C25.3622 2.09196 29.4732 6.10338 29.4732 11.0344C29.4732 15.9654 25.3622 19.9768 20.3088 19.9768C16.3178 19.9768 12.8132 17.4893 11.5859 13.7864C11.4561 13.3952 11.03 13.1806 10.6245 13.3065C10.2235 13.4332 10.0036 13.8527 10.1326 14.2447C11.5638 18.5646 15.6526 21.4672 20.3088 21.4672C26.2045 21.4672 31.0005 16.7873 31.0005 11.0344C31.0005 5.28143 26.2045 0.601562 20.3088 0.601562Z" fill="#009CC8"/>
<path d="M18.9482 14.295C18.687 14.6147 18.7404 15.0871 19.0673 15.342C19.3942 15.5976 19.8791 15.5447 20.1411 15.2257L23.1958 11.4997C23.2355 11.4498 23.36 11.2806 23.3593 11.0325C23.3585 10.7866 23.2363 10.6189 23.1958 10.569L20.1411 6.84297C19.8768 6.52104 19.3972 6.46962 19.0673 6.72672C18.7382 6.98381 18.6847 7.45254 18.9482 7.77372L21.0109 10.2895H0.888693C0.466371 10.2895 0.125 10.6234 0.125 11.0347C0.125 11.4461 0.466371 11.7799 0.888693 11.7799H21.0109L18.9482 14.295Z" fill="#009CC8"/>
</svg>
