<svg width="21" height="21" viewBox="0 0 21 21" fill="none" xmlns="http://www.w3.org/2000/svg">
<path d="M20.5687 0.00183282C16.4693 -0.0716672 11.7942 2.07121 8.83493 5.39533C6.00693 5.44871 3.25331 6.60808 1.22593 8.63546C1.10781 8.75183 1.06581 8.92596 1.11743 9.08346C1.16993 9.24183 1.30643 9.35646 1.47093 9.38008L4.84318 9.86308L4.42668 10.3295C4.27181 10.5027 4.27968 10.7661 4.44418 10.9306L10.0678 16.5542C10.1527 16.6391 10.2647 16.682 10.3776 16.682C10.4817 16.682 10.5858 16.6452 10.6689 16.5708L11.1353 16.1543L11.6183 19.5266C11.6419 19.6911 11.7714 19.8118 11.9281 19.8643C11.9683 19.8775 12.0103 19.8836 12.0532 19.8836C12.1774 19.8836 12.3043 19.8293 12.3918 19.7427C14.3912 17.7433 15.5506 14.9897 15.6039 12.1617C18.9316 9.19633 21.0919 4.52296 20.9966 0.428833C20.9904 0.196083 20.8023 0.00795782 20.5687 0.00183282ZM16.5367 7.55483C16.1106 7.98096 15.5506 8.19446 14.9897 8.19446C14.4288 8.19446 13.8688 7.98096 13.4427 7.55483C12.5904 6.70171 12.5904 5.31396 13.4427 4.46083C14.2958 3.60771 15.6836 3.60771 16.5367 4.46083C17.3898 5.31396 17.3898 6.70258 16.5367 7.55483Z" fill="#7E50A7"/>
<path d="M2.38355 14.7911C1.4473 15.7273 0.161925 19.9571 0.0184252 20.4357C-0.0279498 20.5897 0.0149252 20.7568 0.1278 20.8706C0.2118 20.9546 0.322925 20.9992 0.43755 20.9992C0.47955 20.9992 0.52155 20.9931 0.56355 20.9808C1.04218 20.8373 5.27192 19.552 6.20817 18.6157C7.26255 17.5613 7.26255 15.8455 6.20817 14.7911C5.15293 13.7367 3.43793 13.7376 2.38355 14.7911Z" fill="#7E50A7"/>
</svg>
