<svg width="38" height="47" viewBox="0 0 38 47" fill="none" xmlns="http://www.w3.org/2000/svg">
<path d="M21.3545 0.0197601C19.2555 0.284504 17.0997 0.92746 15.0195 1.92025L13.7525 2.52539L13.2703 2.32683C11.2753 1.52314 8.64673 1.75006 6.68006 2.90359C3.68276 4.66226 1.19604 9.05893 0.250525 14.2876C-0.0236753 15.8005 -0.0804065 18.6465 0.118153 20.1971C0.458539 22.7406 1.19604 24.9058 2.34958 26.7212L2.80343 27.4304L2.8507 30.2669C2.89798 33.3682 2.97362 33.9261 3.59766 35.8833C4.68501 39.2872 7.05826 42.4074 10.0556 44.3646C17.4968 49.2057 27.3869 47.1917 32.2942 39.845C34.327 36.791 35.0551 33.9734 35.0645 29.0945V27.3547L35.4617 26.7307C37.5323 23.4403 38.44 18.0886 37.6647 13.6163C37.1825 10.827 36.0384 8.1985 34.2325 5.73069C33.5044 4.72844 31.481 2.75231 30.5733 2.15663C29.6845 1.57041 28.3703 0.908546 27.5004 0.624893C26.0916 0.152134 25.3541 0.0386696 23.4819 0.0103035C22.4986 -0.00860596 21.5342 0.000850677 21.3545 0.0197601ZM24.3802 1.1922C27.2073 1.48531 29.4292 2.51593 31.4999 4.50152C34.1663 7.05442 35.9155 10.3921 36.5395 14.1458C37.069 17.3228 36.5395 21.6911 35.3009 24.4047L35.0835 24.8775L35.074 20.1971L35.0645 15.5074L35.4427 15.1386C35.8588 14.732 35.9439 14.3349 35.6602 14.0324C35.386 13.7298 35.1118 13.8243 34.3365 14.5146C32.4738 16.1503 30.318 17.1998 27.7273 17.7482C24.8624 18.3439 20.4941 18.0224 17.3739 16.9729C15.6247 16.3867 14.1875 15.5641 13.0434 14.4767C11.7764 13.2665 10.9822 11.9049 10.6701 10.3732C10.5756 9.89098 10.4432 9.43713 10.377 9.36149C10.2258 9.18184 9.68681 9.1913 9.52607 9.38986C9.3086 9.63569 9.44097 10.8649 9.7719 11.7064C9.82863 11.8482 9.64898 11.8671 7.72013 11.8955C5.65889 11.9238 5.60216 11.9333 5.06322 12.1791C4.3068 12.5384 3.55039 13.2854 3.17218 14.0418L2.86961 14.6659L2.82234 19.8662L2.77506 25.0666L2.47249 24.3952C0.780016 20.6132 0.75165 15.3277 2.40631 10.846C4.15552 6.11836 6.63278 3.51818 9.80027 3.07379C10.916 2.9225 12.9772 3.2818 13.3176 3.70728C13.5162 3.93421 13.7998 3.85857 15.0195 3.24398C18.2154 1.62714 21.5342 0.899094 24.3802 1.1922ZM10.8214 13.7582C12.8638 16.6325 16.192 18.3534 20.9763 19.0152C22.6877 19.2516 25.5432 19.2989 26.7912 19.1192C29.2307 18.7694 31.6985 17.8995 33.3437 16.7838C33.5706 16.6325 33.7692 16.5096 33.7975 16.5096C33.8826 16.5096 33.8259 31.5245 33.7408 32.3754C32.9088 40.2611 26.101 46.1705 18.2816 45.7923C10.6323 45.4141 4.67555 39.6276 4.05151 31.9689C3.98533 31.1935 3.95696 27.8653 3.97587 22.8919L4.00424 15.0441L4.22171 14.5997C4.46754 14.1175 5.1294 13.4461 5.54543 13.2759C6.0371 13.0774 6.56659 13.0301 8.43872 13.049L10.3298 13.0585L10.8214 13.7582Z" fill="#7E50A7"/>
<path d="M11.2385 22.9924C11.1061 23.0113 10.6807 23.0775 10.293 23.1342C9.23401 23.2855 8.32631 23.5692 8.21285 23.7961C8.06156 24.0703 8.1372 24.354 8.40195 24.5525C8.62887 24.7133 8.6667 24.7133 9.65949 24.4769C10.2173 24.3445 10.6901 24.25 10.709 24.2689C10.7374 24.2878 10.709 24.4863 10.6428 24.7038C10.3403 25.8384 11.4749 26.9447 12.6284 26.6232C13.0823 26.4908 13.6496 25.9424 13.7536 25.5264C13.7914 25.394 13.7914 25.0537 13.763 24.7795L13.7158 24.2783L14.2736 24.4107C14.5856 24.4863 14.9922 24.6093 15.1813 24.6849C15.6068 24.8645 15.9094 24.8078 16.1079 24.5053C16.3065 24.2121 16.1647 23.8434 15.7675 23.6448C15.1719 23.3328 13.7252 23.0397 12.5811 22.9924C11.976 22.9641 11.3709 22.9641 11.2385 22.9924Z" fill="#7E50A7"/>
<path d="M24.4746 23.0331C23.34 23.1938 22.1013 23.5153 21.9028 23.7139C21.6664 23.9502 21.7137 24.3379 22.0162 24.5554C22.2432 24.7161 22.281 24.7161 23.2738 24.4797C23.8316 24.3474 24.3044 24.2528 24.3233 24.2717C24.3517 24.2906 24.3233 24.4892 24.2571 24.7067C24.1248 25.2172 24.2949 25.8035 24.7015 26.21C25.439 26.9475 26.6587 26.7963 27.1882 25.898C27.3963 25.5293 27.4246 25.4063 27.3773 24.8674L27.3301 24.2623L27.5854 24.319C27.7177 24.3568 28.1621 24.4892 28.5592 24.6121C29.3629 24.8769 29.4953 24.8674 29.7317 24.4987C29.9397 24.1866 29.8073 23.8652 29.3818 23.6477C28.4363 23.156 25.9023 22.8345 24.4746 23.0331Z" fill="#7E50A7"/>
<path d="M22.3446 35.705C22.2406 35.7523 21.9475 35.9603 21.6922 36.1777C20.6616 37.0382 19.7539 37.3691 18.6098 37.284C17.7116 37.2273 16.993 36.9153 16.1515 36.225C15.3667 35.5821 15.0263 35.5348 14.7332 36.0076C14.6197 36.1872 14.5724 36.3952 14.6008 36.5087C14.7521 37.0098 16.0096 37.9553 17.0497 38.3524C17.825 38.6456 19.3568 38.7212 20.2172 38.5037C21.1722 38.2673 21.9948 37.8135 22.6472 37.1705C23.328 36.5087 23.3752 36.3007 22.9687 35.8846C22.6661 35.5915 22.6377 35.5821 22.3446 35.705Z" fill="#7E50A7"/>
</svg>
