<svg width="21" height="15" viewBox="0 0 21 15" fill="none" xmlns="http://www.w3.org/2000/svg">
<path d="M19.1354 0H1.73958C1.27838 0.000517985 0.836207 0.183961 0.510084 0.510084C0.183961 0.836207 0.000517985 1.27838 0 1.73958V12.8729C0.000517985 13.3341 0.183961 13.7763 0.510084 14.1024C0.836207 14.4285 1.27838 14.612 1.73958 14.6125H19.1354C19.5966 14.612 20.0388 14.4285 20.3649 14.1024C20.691 13.7763 20.8745 13.3341 20.875 12.8729V1.73958C20.8745 1.27838 20.691 0.836207 20.3649 0.510084C20.0388 0.183961 19.5966 0.000517985 19.1354 0ZM19.1354 13.9167H1.73958C1.46286 13.9163 1.19757 13.8063 1.0019 13.6106C0.806225 13.4149 0.696156 13.1496 0.695833 12.8729V2.34683L5.39071 5.09898C5.47019 5.14372 5.56407 5.15546 5.65212 5.13167C5.74017 5.10788 5.81536 5.05047 5.8615 4.97179C5.90764 4.8931 5.92103 4.79945 5.8988 4.71099C5.87656 4.62253 5.82048 4.54634 5.74263 4.49882L0.713229 1.55049C0.75771 1.31066 0.884662 1.09394 1.0721 0.937859C1.25954 0.781775 1.49567 0.696158 1.73958 0.695833H19.1354C19.3793 0.696158 19.6155 0.781775 19.8029 0.937859C19.9903 1.09394 20.1173 1.31066 20.1618 1.55049L15.1324 4.49869C15.0921 4.52136 15.0568 4.55182 15.0284 4.58829C15 4.62477 14.9792 4.66652 14.9672 4.71113C14.9551 4.75574 14.9521 4.8023 14.9582 4.84809C14.9643 4.89389 14.9795 4.938 15.0029 4.97786C15.0263 5.01772 15.0574 5.05252 15.0943 5.08024C15.1313 5.10796 15.1734 5.12803 15.2182 5.13929C15.263 5.15056 15.3097 5.15278 15.3553 5.14584C15.401 5.13889 15.4449 5.12292 15.4843 5.09885L20.1792 2.34683V12.8729C20.1788 13.1496 20.0688 13.4149 19.8731 13.6106C19.6774 13.8063 19.4121 13.9163 19.1354 13.9167ZM10.4375 3.13125C9.78143 3.13134 9.13462 3.28605 8.54952 3.58282C7.96441 3.8796 7.45748 4.31008 7.06983 4.83938C6.68218 5.36867 6.42473 5.98187 6.31834 6.62926C6.21196 7.27664 6.25964 7.93999 6.45752 8.5655C6.6554 9.19101 6.99791 9.76109 7.45728 10.2295C7.91664 10.6979 8.47993 11.0515 9.10147 11.2615C9.72301 11.4715 10.3853 11.5322 11.0346 11.4384C11.684 11.3447 12.3021 11.0992 12.8388 10.722C12.9143 10.6688 12.9655 10.5879 12.9813 10.4969C12.997 10.406 12.976 10.3125 12.9229 10.2371C12.8697 10.1617 12.7888 10.1104 12.6979 10.0946C12.6069 10.0789 12.5135 10.0999 12.438 10.153C11.8005 10.6011 11.0311 10.8222 10.253 10.781C9.47488 10.7397 8.73314 10.4384 8.14661 9.92546C7.56009 9.41249 7.16272 8.71748 7.01819 7.9518C6.87366 7.18612 6.99032 6.39409 7.34949 5.7026C7.70865 5.01111 8.28953 4.4602 8.99905 4.13812C9.70858 3.81605 10.5057 3.74145 11.2626 3.9263C12.0196 4.11114 12.6926 4.54472 13.1738 5.15756C13.655 5.77041 13.9166 6.52705 13.9167 7.30625V8.00208C13.9167 8.18663 13.8434 8.36362 13.7129 8.49411C13.5824 8.62461 13.4054 8.69792 13.2208 8.69792C13.0363 8.69792 12.8593 8.62461 12.7288 8.49411C12.5983 8.36362 12.525 8.18663 12.525 8.00208V5.56667C12.525 5.47439 12.4883 5.3859 12.4231 5.32065C12.3579 5.2554 12.2694 5.21875 12.1771 5.21875C12.0848 5.21875 11.9963 5.2554 11.9311 5.32065C11.8658 5.3859 11.8292 5.47439 11.8292 5.56667V5.75198C11.521 5.47563 11.1376 5.29715 10.7277 5.23922C10.3178 5.18129 9.89999 5.24653 9.52728 5.42664C9.15457 5.60676 8.84383 5.89361 8.63454 6.25075C8.42525 6.60789 8.32686 7.01919 8.35189 7.43238C8.37692 7.84557 8.52422 8.24199 8.77509 8.57127C9.02595 8.90054 9.36904 9.14779 9.76076 9.2816C10.1525 9.41541 10.5751 9.42974 10.975 9.32277C11.3749 9.2158 11.734 8.99235 12.0066 8.68083C12.1567 8.94972 12.3919 9.16118 12.6752 9.28206C12.9585 9.40294 13.2738 9.4264 13.5719 9.34877C13.8699 9.27114 14.1338 9.09681 14.3221 8.8531C14.5104 8.60939 14.6126 8.31008 14.6125 8.00208V7.30625C14.6113 6.19935 14.171 5.13815 13.3883 4.35545C12.6056 3.57276 11.5444 3.13249 10.4375 3.13125ZM10.4375 8.69792C10.1623 8.69792 9.89319 8.6163 9.66433 8.46338C9.43547 8.31046 9.2571 8.09311 9.15177 7.83882C9.04644 7.58452 9.01888 7.30471 9.07257 7.03475C9.12627 6.76479 9.25881 6.51682 9.45344 6.32219C9.64807 6.12757 9.89604 5.99502 10.166 5.94132C10.436 5.88763 10.7158 5.91519 10.9701 6.02052C11.2244 6.12585 11.4417 6.30422 11.5946 6.53308C11.7475 6.76194 11.8292 7.031 11.8292 7.30625C11.8288 7.67522 11.682 8.02895 11.4211 8.28985C11.1602 8.55075 10.8065 8.6975 10.4375 8.69792Z" fill="white"/>
</svg>
