<?xml version="1.0" encoding="UTF-8"?><svg id="Layer_2" xmlns="http://www.w3.org/2000/svg" viewBox="0 0 675.046 102.8369"><g id="Components"><g id="_51851f96-8fc6-4877-8f7e-3f2e87665d16_1"><path d="m99.1723,22.3621h14.9916v7.8314h.3356c1.4544-3.2444,8.167-8.9502,18.5716-8.9502,13.5371,0,27.9693,10.069,27.9693,30.2069s-14.4322,30.2069-27.9693,30.2069c-10.4046,0-17.1172-5.7057-18.5716-8.9502h-.3356v29.0881h-14.9916V22.3621Zm30.8781,45.8697c8.3908,0,16.2222-5.9295,16.2222-16.7816s-7.8314-16.7816-16.2222-16.7816-16.2222,5.8176-16.2222,16.7816,7.8314,16.7816,16.2222,16.7816Z" style="fill:#7e52a1;"/><path d="m223.369,80.5382h-14.9916v-7.9433c-3.2444,5.1464-9.0621,9.0621-17.7885,9.0621-11.9709,0-22.0398-7.3839-22.0398-25.0605V22.3621h14.9916v31.7731c0,8.5027,4.587,14.0965,12.4184,14.0965,7.7195,0,12.4184-5.5939,12.4184-14.0965v-31.7731h14.9916v58.1762Z" style="fill:#7e52a1;"/><path d="m233.6703,22.3621h14.9916v15.1034c2.0138-8.9502,7.7195-16.2222,18.236-16.2222,1.3425,0,2.5732.1119,3.9157.4475v14.3203c-1.3425-.2238-2.4613-.3356-3.8038-.3356-11.2996,0-18.3479,7.8314-18.3479,19.4666v25.3961h-14.9916V22.3621Z" style="fill:#7e52a1;"/><path d="m278.2061,22.3621h14.9916v7.8314h.3356c1.4544-3.2444,8.167-8.9502,18.5716-8.9502,13.5371,0,27.9693,10.069,27.9693,30.2069s-14.4322,30.2069-27.9693,30.2069c-10.4046,0-17.1172-5.7057-18.5716-8.9502h-.3356v29.0881h-14.9916V22.3621Zm30.8781,45.8697c8.3908,0,16.2222-5.9295,16.2222-16.7816s-7.8314-16.7816-16.2222-16.7816-16.2222,5.8176-16.2222,16.7816,7.8314,16.7816,16.2222,16.7816Z" style="fill:#7e52a1;"/><path d="m347.5829,1.1054h14.9916v79.4329h-14.9916V1.1054Z" style="fill:#7e52a1;"/><path d="m370.0745,51.4502c0-19.5785,14.544-30.2069,29.4237-30.2069,14.7678,0,31.5494,10.4046,28.3049,36.0245h-43.5203c2.1257,7.9433,9.0621,12.0827,17.7885,12.0827,5.7057,0,10.7402-1.5663,14.9916-5.2582l6.8245,7.272c-4.8107,6.0414-13.2015,10.2927-23.4942,10.2927-15.9984,0-30.3187-10.8521-30.3187-30.2069Zm44.4153-5.1464c-.895-8.2789-7.8314-12.4184-14.8797-12.4184-6.9364,0-13.649,4.0276-15.5509,12.4184h30.4306Z" style="fill:#7e52a1;"/><path d="m435.794,66.218l5.9295-1.6782c1.79,7.272,7.1601,11.1877,13.9847,11.1877,6.2651,0,12.5303-3.1326,12.5303-10.4046,0-5.9295-4.0276-8.6145-11.6352-11.859l-4.4751-1.79c-9.6214-3.9157-13.5371-9.5096-13.5371-15.8866,0-8.6145,7.272-14.544,16.8935-14.544,8.7264,0,15.3272,4.8107,17.341,12.1946l-5.482,1.79c-1.9019-4.9226-5.482-8.167-11.6352-8.167-5.5939,0-10.4046,2.9088-10.4046,8.7264,0,4.3632,2.6851,7.7195,9.5096,10.5165l3.9157,1.5663c10.069,4.1395,16.3341,8.0552,16.3341,17.4529,0,11.2996-9.7333,16.3341-19.3548,16.3341-10.6283,0-18.1241-5.9295-19.9142-15.4391Z" style="fill:#7e52a1;"/><path d="m488.8325,70.693V28.0678h-7.4958v-5.7057h7.4958V7.4824h6.8245v14.8797h11.2996v5.7057h-11.2996v41.1708c0,3.8038,1.9019,5.8176,5.8176,5.8176,1.3425,0,3.1326-.2238,5.2582-1.1188v5.5939c-2.0138,1.3425-4.4751,1.6782-6.7126,1.6782-6.7126,0-11.1877-3.2444-11.1877-10.5165Z" style="fill:#7e52a1;"/><path d="m511.8725,51.4502c0-19.8023,14.3203-30.2069,28.8643-30.2069,10.964,0,19.9142,6.0414,23.2705,13.5371h.3356v-12.4184h6.8245v58.1762h-6.8245v-12.4184h-.3356c-3.3563,7.4958-12.3065,13.5371-23.2705,13.5371-14.544,0-28.8643-10.4046-28.8643-30.2069Zm29.7594,23.9417c11.4115,0,22.9348-7.9433,22.9348-23.9417s-11.5234-23.9417-22.9348-23.9417-22.9348,7.8314-22.9348,23.9417,11.5234,23.9417,22.9348,23.9417Z" style="fill:#7e52a1;"/><path d="m584.1581,22.3621h6.8245v58.1762h-6.8245V22.3621Z" style="fill:#7e52a1;"/><path d="m603.9604,22.3621h6.8245v13.5371c2.3494-7.8314,8.167-14.6559,18.9073-14.6559,1.3425,0,2.2375.1119,3.0207.3356v6.377c-.895-.2238-1.6782-.3356-2.9088-.3356-10.6283,0-19.0191,8.3908-19.0191,22.0398v30.8781h-6.8245V22.3621Z" style="fill:#7e52a1;"/><path d="m635.7771,66.218l5.9295-1.6782c1.79,7.272,7.1601,11.1877,13.9847,11.1877,6.2651,0,12.5303-3.1326,12.5303-10.4046,0-5.9295-4.0276-8.6145-11.6352-11.859l-4.4751-1.79c-9.6214-3.9157-13.5371-9.5096-13.5371-15.8866,0-8.6145,7.272-14.544,16.8935-14.544,8.7264,0,15.3272,4.8107,17.341,12.1946l-5.482,1.79c-1.9019-4.9226-5.482-8.167-11.6352-8.167-5.5939,0-10.4046,2.9088-10.4046,8.7264,0,4.3632,2.6851,7.7195,9.5096,10.5165l3.9157,1.5663c10.069,4.1395,16.3341,8.0552,16.3341,17.4529,0,11.2996-9.7333,16.3341-19.3548,16.3341-10.6283,0-18.1241-5.9295-19.9142-15.4391Z" style="fill:#7e52a1;"/><g><path d="m.0069,68.5574C.0069,49.6254,16.7756,34.278,37.4609,34.278h1.0856v34.2795H.0069Z" style="fill:#1b437b;"/><path d="m38.5396,68.5574c0,18.932-16.7687,34.2795-37.454,34.2795H0v-34.2795h38.5396Z" style="fill:#0d9cc8;"/><path d="m77.0857,34.2795C77.0857,15.3474,60.3169,0,39.6317,0h-1.0856v34.2795h38.5396Z" style="fill:#7e52a1;"/><path d="m77.0857,34.2795c0,18.932-16.7687,34.2795-37.454,34.2795h-1.0856v-34.2795h38.5396Z" style="fill:#fbad20;"/></g></g></g></svg>