<svg width="123" height="123" viewBox="0 0 123 123" fill="none" xmlns="http://www.w3.org/2000/svg">
<g opacity="0.1">
<path fill-rule="evenodd" clip-rule="evenodd" d="M32.1005 105.57C37.7126 109.304 44.0851 111.992 50.9322 113.375V122.84H71.9078V113.375C78.745 111.992 85.1175 109.304 90.7296 105.57L97.4284 112.268L112.258 97.4383L105.56 90.7395C109.294 85.1179 111.992 78.7549 113.365 71.9078H122.84V61.415V50.9322H113.365C111.992 44.0851 109.294 37.7225 105.56 32.1005L112.258 25.4017L97.4284 10.5717L90.7296 17.2705C85.1179 13.5359 78.745 10.8484 71.9078 9.46521V0H50.9322V9.46521C44.0851 10.8484 37.7126 13.5359 32.1005 17.2705L25.4017 10.5717L10.5717 25.4017L17.2705 32.1005C13.5359 37.7221 10.8385 44.0851 9.4652 50.9322H0V61.415V71.9078H9.4652C10.8385 78.7549 13.5359 85.1175 17.2705 90.7395L10.5717 97.4383L25.4017 112.268L32.1005 105.57ZM61.415 95.7586C53.4912 95.7586 46.1898 93.0711 40.3704 88.5559C32.2884 82.2722 27.0814 72.4513 27.0814 61.415C27.0814 42.4549 42.4549 27.0814 61.415 27.0814C80.3851 27.0814 95.7586 42.4549 95.7586 61.415C95.7586 72.4513 90.5516 82.2722 82.4597 88.5559C76.6502 93.0711 69.3488 95.7586 61.415 95.7586Z" fill="#7E50A7"/>
</g>
<circle cx="62.7857" cy="60.7661" r="38.7349" fill="white"/>
<g clip-path="url(#clip0_23_2010)">
<path d="M64.5544 64.397C65.0914 64.397 65.5267 63.9617 65.5267 63.4247V60.6931C65.5267 58.9443 66.4756 57.3509 67.9846 56.4981C68.719 56.9818 69.5972 57.2643 70.5404 57.2643C71.4842 57.2643 72.3628 56.9815 73.0974 56.4972C74.6056 57.3494 75.5541 58.9431 75.5541 60.693V63.4246C75.5541 63.9616 75.9894 64.3969 76.5264 64.3969C77.0633 64.3969 77.4987 63.9616 77.4987 63.4246V60.693C77.4987 58.409 76.3498 56.3155 74.4901 55.0725C74.9391 54.3563 75.1998 53.5106 75.1998 52.6048C75.1998 50.0355 73.1096 47.9453 70.5403 47.9453C67.9711 47.9453 65.8809 50.0355 65.8809 52.6048C65.8809 53.5111 66.1419 54.3573 66.5914 55.0736C64.7312 56.3171 63.582 58.4101 63.582 60.693V63.4246C63.5821 63.9617 64.0175 64.397 64.5544 64.397ZM70.5404 49.8901C72.0374 49.8901 73.2552 51.108 73.2552 52.6049C73.2552 54.1018 72.0373 55.3198 70.5404 55.3198C69.0434 55.3198 67.8256 54.1018 67.8256 52.6049C67.8256 51.108 69.0434 49.8901 70.5404 49.8901Z" fill="#1A1A1A"/>
<path d="M79.6437 79.511C79.5142 78.5782 78.9139 77.6979 77.9969 77.0957C77.3215 76.6523 76.1701 76.1596 74.5213 76.3311L65.6929 77.2474C65.9473 75.5442 64.8634 73.4319 62.3813 72.4835L59.7482 71.4775C57.6342 70.669 55.2217 70.7427 52.1673 70.8361C51.0707 70.8696 49.8279 70.9075 48.4856 70.9075H46.8247V70.4157C46.8247 69.1698 45.7708 68.1562 44.4753 68.1562H40.6111C39.3156 68.1563 38.2617 69.1699 38.2617 70.4158V83.1465C38.2617 84.3908 39.3156 85.4031 40.6111 85.4031H44.4753C45.7708 85.4031 46.8247 84.3908 46.8247 83.1465V83.0975L53.8544 85.8128C53.8746 85.8206 53.8949 85.8277 53.9155 85.8342C54.31 85.9571 54.8584 86.0062 55.4827 86.0062C57.0315 86.0062 59.0469 85.7042 60.3353 85.4787L77.0171 82.5672C79.0749 82.209 79.8191 80.7742 79.6437 79.511ZM44.88 83.1465C44.88 83.2941 44.7138 83.4585 44.4753 83.4585H40.6111C40.3726 83.4585 40.2064 83.2941 40.2064 83.1465V70.4158C40.2064 70.248 40.3955 70.1009 40.6111 70.1009H44.4753C44.6909 70.1009 44.88 70.248 44.88 70.4158V83.1465ZM76.6832 80.6515L60.0007 83.5631C57.0372 84.0816 55.0957 84.145 54.519 83.9849L46.8248 81.0129V72.8522H48.4858C49.8577 72.8522 51.1164 72.8137 52.2269 72.7798C55.1743 72.6896 57.3039 72.6247 59.0541 73.2939L61.6875 74.3C63.4067 74.9569 63.9772 76.3732 63.7279 77.1431C63.4976 77.8545 62.5727 78.0689 61.2542 77.7163L54.81 75.9935C54.2914 75.855 53.7583 76.163 53.6196 76.6817C53.4809 77.2005 53.7891 77.7335 54.3078 77.8721L60.7519 79.5949C61.349 79.7545 61.8877 79.8252 62.3707 79.8252C63.1481 79.8252 63.7799 79.6412 64.2767 79.3494L74.7225 78.2652C76.5142 78.0792 77.6131 79.0243 77.7177 79.7783C77.7952 80.3376 77.1982 80.5618 76.6832 80.6515Z" fill="#1A1A1A"/>
<path fill-rule="evenodd" clip-rule="evenodd" d="M62.203 66.2784C63.7993 67.3406 65.6119 68.1051 67.5595 68.4985V71.1908H73.5258V68.4985C75.4706 68.1051 77.2832 67.3406 78.8795 66.2784L80.785 68.1838L85.0032 63.9655L83.0978 62.0601C84.1601 60.4611 84.9273 58.6512 85.318 56.7036H88.0131V53.719V50.7372H85.318C84.9273 48.7896 84.1601 46.9798 83.0978 45.3807L85.0032 43.4753L80.785 39.257L78.8795 41.1624C77.2833 40.1002 75.4706 39.3357 73.5258 38.9423V36.25H67.5595V38.9423C65.6119 39.3357 63.7993 40.1002 62.203 41.1624L60.2976 39.257L56.0793 43.4753L57.9847 45.3807C56.9224 46.9797 56.1552 48.7896 55.7646 50.7372H53.0723V53.719V56.7036H55.7646C56.1552 58.6512 56.9224 60.461 57.9847 62.0601L56.0793 63.9655L60.2976 68.1838L62.203 66.2784ZM70.5413 63.4877C68.2874 63.4877 66.2106 62.7233 64.5553 61.439C62.2564 59.6516 60.7753 56.8582 60.7753 53.719C60.7753 48.3259 65.1482 43.9531 70.5413 43.9531C75.9371 43.9531 80.31 48.3259 80.31 53.719C80.31 56.8582 78.8289 59.6516 76.5272 61.439C74.8748 62.7233 72.7979 63.4877 70.5413 63.4877Z" fill="#7E50A7"/>
</g>
<defs>
<clipPath id="clip0_23_2010">
<rect width="49.7512" height="49.7512" fill="white" transform="translate(38.2617 36.25)"/>
</clipPath>
</defs>
</svg>
