<svg width="81" height="81" viewBox="0 0 81 81" fill="none" xmlns="http://www.w3.org/2000/svg">
<path d="M35.0876 62.5113C35.0126 62.5113 26.5876 60.0112 21.8875 55.3237C17.1875 50.6362 17.25 42.5987 17.25 42.5112C17.2527 42.2162 17.1509 41.9299 16.9628 41.7027C16.7747 41.4756 16.5123 41.3222 16.222 41.2699C15.9317 41.2175 15.6323 41.2695 15.3767 41.4166C15.121 41.5637 14.9256 41.7964 14.825 42.0737L1.07496 78.3238C0.989604 78.5558 0.97492 78.8078 1.03277 79.0481C1.09062 79.2884 1.2184 79.5061 1.39996 79.6738C1.63049 79.8897 1.93417 80.0102 2.24997 80.0113C2.43105 80.0123 2.61018 79.9739 2.77497 79.8988L35.2751 64.8988C35.5259 64.8017 35.7386 64.6263 35.8818 64.3987C36.025 64.171 36.091 63.9033 36.0699 63.6352C36.0489 63.3671 35.9419 63.113 35.7649 62.9105C35.588 62.708 35.3504 62.568 35.0876 62.5113ZM11.65 57.5112C12.6814 62.1884 14.9031 66.5199 18.1 70.0863L10.6625 73.4988L8.63749 65.4363L11.65 57.5112ZM7.08749 69.5238L8.33749 74.5238L4.49998 76.3488L7.08749 69.5238ZM20.4875 68.9738C16.3192 64.5078 13.8469 58.7229 13.5 52.6237L15.375 47.6237C16.0389 51.1623 17.68 54.4445 20.1125 57.0987C23.3839 60.0703 27.206 62.3721 31.3626 63.8738L20.4875 68.9738Z" fill="#7E50A7"/>
<path d="M15.8378 15.4113L14.7503 21.0238C14.7072 21.2664 14.7366 21.5163 14.835 21.7421C14.9334 21.968 15.0963 22.1597 15.3033 22.2933C15.5104 22.4268 15.7522 22.4962 15.9985 22.4928C16.2449 22.4893 16.4847 22.4131 16.6878 22.2738L21.0004 19.2988L25.2879 22.2863C25.4969 22.4322 25.7455 22.5107 26.0004 22.5113C26.2399 22.5107 26.4742 22.4413 26.6754 22.3113C26.8784 22.1788 27.0385 21.99 27.1362 21.7681C27.2338 21.5461 27.2648 21.3006 27.2254 21.0613L26.1629 15.4488L29.3879 12.1363C29.5532 11.9719 29.6693 11.7646 29.723 11.5377C29.7767 11.3109 29.7659 11.0735 29.6917 10.8525C29.6176 10.6314 29.4832 10.4355 29.3036 10.2869C29.124 10.1382 28.9064 10.0428 28.6754 10.0113L24.2254 9.3863L22.1504 4.52378C22.0543 4.29829 21.8941 4.10602 21.6896 3.97087C21.4852 3.83573 21.2455 3.76367 21.0004 3.76367C20.7553 3.76367 20.5156 3.83573 20.3111 3.97087C20.1066 4.10602 19.9464 4.29829 19.8504 4.52378L17.7754 9.3863L13.3253 10.0113C13.0943 10.0428 12.8767 10.1382 12.6971 10.2869C12.5175 10.4355 12.3831 10.6314 12.309 10.8525C12.2349 11.0735 12.2241 11.3109 12.2777 11.5377C12.3314 11.7646 12.4475 11.9719 12.6128 12.1363L15.8378 15.4113ZM18.8254 11.7488C19.0285 11.7118 19.2192 11.6251 19.3806 11.4964C19.542 11.3677 19.6691 11.2011 19.7504 11.0113L21.0004 8.18629L22.2504 11.0113C22.335 11.2058 22.4678 11.3756 22.6362 11.5046C22.8046 11.6336 23.003 11.7176 23.2129 11.7488L25.9129 12.1488L23.9629 14.1238C23.8207 14.268 23.7157 14.4446 23.6569 14.6384C23.5981 14.8322 23.5873 15.0374 23.6254 15.2363L24.2379 18.4863L21.7379 16.7488C21.5286 16.6037 21.28 16.5259 21.0254 16.5259C20.7707 16.5259 20.5221 16.6037 20.3129 16.7488L17.8129 18.4863L18.4254 15.2363C18.4634 15.0374 18.4526 14.8322 18.3938 14.6384C18.335 14.4446 18.23 14.268 18.0879 14.1238L16.1253 12.1488L18.8254 11.7488Z" fill="#FFAE1A"/>
<path d="M79.9252 56.8851L75.4752 56.2601L73.4002 51.3851C73.3042 51.1596 73.1439 50.9673 72.9395 50.8322C72.735 50.6971 72.4953 50.625 72.2502 50.625C72.0051 50.625 71.7654 50.6971 71.561 50.8322C71.3565 50.9673 71.1963 51.1596 71.1002 51.3851L69.0252 56.2601L64.5752 56.9101C64.3467 56.9433 64.1319 57.0391 63.9545 57.187C63.7772 57.3348 63.6442 57.5289 63.5704 57.7477C63.4966 57.9664 63.4849 58.2014 63.5365 58.4264C63.5881 58.6515 63.701 58.8578 63.8627 59.0226L67.0877 62.2977L66.0002 67.8852C65.957 68.1277 65.9865 68.3776 66.0849 68.6034C66.1833 68.8293 66.3462 69.021 66.5532 69.1546C66.7602 69.2881 67.0021 69.3576 67.2484 69.3541C67.4947 69.3506 67.7345 69.2745 67.9377 69.1352L72.2502 66.1602L76.5377 69.1477C76.7467 69.2936 76.9953 69.3721 77.2502 69.3727C77.4897 69.3721 77.724 69.3026 77.9252 69.1727C78.1283 69.0401 78.2884 68.8514 78.386 68.6294C78.4837 68.4075 78.5147 68.1619 78.4752 67.9227L77.4127 62.3102L80.6377 59.0351C80.7995 58.8703 80.9124 58.664 80.9639 58.4389C81.0155 58.2139 81.0038 57.9789 80.93 57.7602C80.8562 57.5414 80.7233 57.3473 80.5459 57.1995C80.3686 57.0517 80.1537 56.9558 79.9252 56.9226V56.8851ZM75.1752 60.9851C75.0331 61.1294 74.9281 61.306 74.8693 61.4998C74.8105 61.6936 74.7997 61.8987 74.8377 62.0976L75.4502 65.3477L72.9502 63.6102C72.741 63.465 72.4924 63.3872 72.2377 63.3872C71.9831 63.3872 71.7345 63.465 71.5252 63.6102L69.0252 65.3477L69.6377 62.0976C69.6758 61.8987 69.6649 61.6936 69.6062 61.4998C69.5474 61.306 69.4424 61.1294 69.3002 60.9851L67.3752 59.0101L70.0752 58.6101C70.285 58.579 70.4835 58.4949 70.6519 58.3659C70.8203 58.2369 70.953 58.0671 71.0377 57.8726L72.2502 55.0101L73.5002 57.8351C73.5849 58.0296 73.7177 58.1994 73.8861 58.3284C74.0544 58.4574 74.2529 58.5415 74.4627 58.5726L77.1627 58.9726L75.1752 60.9851Z" fill="#FFAE1A"/>
<path d="M39.2505 11.1601L44.9006 13.6602L47.4006 19.3102C47.4966 19.5357 47.6569 19.7279 47.8613 19.8631C48.0658 19.9982 48.3055 20.0703 48.5506 20.0703C48.7957 20.0703 49.0354 19.9982 49.2398 19.8631C49.4443 19.7279 49.6045 19.5357 49.7006 19.3102L52.2006 13.6602L57.8506 11.1601C58.0761 11.0641 58.2684 10.9039 58.4035 10.6994C58.5387 10.4949 58.6107 10.2552 58.6107 10.0101C58.6107 9.76505 58.5387 9.52536 58.4035 9.32089C58.2684 9.11642 58.0761 8.95619 57.8506 8.86014L52.2006 6.36013L49.6506 0.760105C49.5545 0.534617 49.3943 0.342344 49.1898 0.207199C48.9854 0.0720534 48.7457 0 48.5006 0C48.2555 0 48.0158 0.0720534 47.8113 0.207199C47.6069 0.342344 47.4466 0.534617 47.3506 0.760105L44.8506 6.41013L39.2005 8.91014C38.975 9.00619 38.7828 9.16642 38.6476 9.37089C38.5125 9.57536 38.4404 9.81505 38.4404 10.0601C38.4404 10.3052 38.5125 10.5449 38.6476 10.7494C38.7828 10.9539 38.975 11.1141 39.2005 11.2101L39.2505 11.1601ZM46.3506 8.51014C46.636 8.37531 46.8657 8.14555 47.0006 7.86013L48.5006 4.39762L50.0006 7.86013C50.1354 8.14555 50.3652 8.37531 50.6506 8.51014L54.1131 10.0101L50.6506 11.5101C50.3652 11.645 50.1354 11.8747 50.0006 12.1601L48.5006 15.6227L47.0006 12.1601C46.8657 11.8747 46.636 11.645 46.3506 11.5101L42.888 10.0101L46.3506 8.51014Z" fill="#00407C"/>
<path d="M71.3504 38.759C71.5759 38.6629 71.7682 38.5027 71.9033 38.2982C72.0385 38.0938 72.1105 37.8541 72.1105 37.609C72.1105 37.3639 72.0385 37.1242 71.9033 36.9197C71.7682 36.7153 71.5759 36.555 71.3504 36.459L65.7004 33.959L63.2004 28.3089C63.1043 28.0834 62.9441 27.8912 62.7396 27.756C62.5352 27.6209 62.2955 27.5488 62.0504 27.5488C61.8053 27.5488 61.5656 27.6209 61.3611 27.756C61.1567 27.8912 60.9964 28.0834 60.9004 28.3089L58.4004 33.959L52.7503 36.459C52.5249 36.555 52.3326 36.7153 52.1974 36.9197C52.0623 37.1242 51.9902 37.3639 51.9902 37.609C51.9902 37.8541 52.0623 38.0938 52.1974 38.2982C52.3326 38.5027 52.5249 38.6629 52.7503 38.759L58.5004 41.259L61.0004 46.909C61.0964 47.1345 61.2567 47.3268 61.4611 47.4619C61.6656 47.5971 61.9053 47.6691 62.1504 47.6691C62.3955 47.6691 62.6352 47.5971 62.8396 47.4619C63.0441 47.3268 63.2043 47.1345 63.3004 46.909L65.8004 41.259L71.3504 38.759ZM63.6004 39.759L62.1004 43.2215L60.5879 39.759C60.4621 39.4746 60.2348 39.2473 59.9504 39.1215L56.4879 37.609L59.9504 36.109C60.237 35.9801 60.4646 35.7481 60.5879 35.459L62.1004 31.9964L63.6004 35.459C63.7266 35.7503 63.959 35.9827 64.2504 36.109L67.7129 37.609L64.2504 39.1715C63.9613 39.2947 63.7292 39.5223 63.6004 39.809V39.759Z" fill="#009CC8"/>
<path d="M19.4127 46.2615C19.5245 46.2797 19.6385 46.2797 19.7502 46.2615C20.0308 46.2719 20.3067 46.1875 20.5334 46.022C20.7602 45.8565 20.9246 45.6194 21.0002 45.349C22.6352 38.6532 23.0585 31.7189 22.2503 24.874C22.2138 24.5424 22.0471 24.239 21.7869 24.0303C21.5267 23.8217 21.1943 23.725 20.8627 23.7615C20.5312 23.7979 20.2278 23.9646 20.0191 24.2248C19.8105 24.485 19.7138 24.8174 19.7502 25.149C20.4678 31.6806 20.0449 38.2872 18.5002 44.674C18.4494 44.8382 18.433 45.011 18.452 45.1818C18.471 45.3526 18.525 45.5176 18.6106 45.6666C18.6962 45.8156 18.8117 45.9453 18.9497 46.0477C19.0877 46.15 19.2453 46.2228 19.4127 46.2615Z" fill="#7E50A7"/>
<path d="M58.5006 53.8964C58.5358 53.5685 58.4399 53.2399 58.2338 52.9824C58.0278 52.7248 57.7283 52.5591 57.4006 52.5214C45.8256 51.2714 34.5505 58.6464 34.0755 58.9714C33.8547 59.1198 33.6869 59.3347 33.5966 59.585C33.5064 59.8352 33.4983 60.1078 33.5736 60.3629C33.6489 60.6181 33.8036 60.8426 34.0153 61.0037C34.227 61.1649 34.4845 61.2543 34.7505 61.259C34.9963 61.2618 35.2367 61.1875 35.438 61.0465C35.5505 60.9715 46.4381 53.8089 57.1131 54.9964C57.2765 55.0156 57.4421 55.0023 57.6003 54.9573C57.7585 54.9124 57.9063 54.8366 58.0352 54.7345C58.1641 54.6323 58.2716 54.5056 58.3515 54.3618C58.4313 54.218 58.482 54.0599 58.5006 53.8964Z" fill="#7E50A7"/>
<path d="M21.4123 49.686C21.6416 49.8943 21.94 50.0102 22.2498 50.011C22.4243 50.0105 22.5967 49.9736 22.756 49.9026C22.9153 49.8315 23.058 49.7279 23.1748 49.5985C23.6999 49.0235 35.9999 35.3484 37.2499 18.8608C37.263 18.6967 37.2437 18.5315 37.193 18.3749C37.1423 18.2182 37.0613 18.073 36.9545 17.9477C36.8477 17.8223 36.7173 17.7192 36.5706 17.6442C36.424 17.5693 36.2641 17.524 36.0999 17.5108C35.9357 17.4977 35.7706 17.517 35.6139 17.5677C35.4572 17.6184 35.3121 17.6994 35.1867 17.8062C35.0614 17.913 34.9583 18.0435 34.8833 18.1901C34.8084 18.3367 34.763 18.4967 34.7499 18.6608C33.4999 34.2859 21.4498 47.786 21.3248 47.9235C21.1033 48.169 20.9881 48.4924 21.0045 48.8228C21.0209 49.1531 21.1675 49.4635 21.4123 49.686Z" fill="#7E50A7"/>
<path d="M49.5755 43.7598C40.5129 45.0099 32.9379 52.5099 32.6129 52.8599C32.4958 52.9761 32.4028 53.1143 32.3393 53.2667C32.2758 53.419 32.2432 53.5824 32.2432 53.7474C32.2432 53.9124 32.2758 54.0758 32.3393 54.2281C32.4028 54.3804 32.4958 54.5187 32.6129 54.6349C32.7291 54.7521 32.8674 54.845 33.0197 54.9085C33.172 54.972 33.3354 55.0046 33.5004 55.0046C33.6654 55.0046 33.8288 54.972 33.9811 54.9085C34.1335 54.845 34.2717 54.7521 34.3879 54.6349C34.4504 54.5599 41.7004 47.4099 49.9255 46.2349C50.0896 46.2119 50.2477 46.1568 50.3905 46.0727C50.5334 45.9887 50.6583 45.8773 50.7581 45.745C50.8579 45.6127 50.9307 45.462 50.9723 45.3015C51.0139 45.1411 51.0235 44.974 51.0005 44.8099C50.9775 44.6457 50.9224 44.4877 50.8384 44.3448C50.7543 44.202 50.643 44.077 50.5106 43.9772C50.3783 43.8774 50.2276 43.8046 50.0672 43.763C49.9067 43.7214 49.7396 43.7119 49.5755 43.7348V43.7598Z" fill="#7E50A7"/>
<path d="M54.675 29.5713C54.618 29.4167 54.5309 29.2749 54.4189 29.154C54.3069 29.0332 54.172 28.9357 54.0222 28.8672C53.8723 28.7986 53.7104 28.7604 53.5457 28.7547C53.381 28.7489 53.2168 28.7758 53.0625 28.8338C42.9 32.6463 26.9999 49.6839 26.3374 50.4089C26.1722 50.587 26.0625 50.8093 26.0217 51.0487C25.9809 51.2882 26.0107 51.5343 26.1075 51.7571C26.2043 51.9798 26.3639 52.1696 26.5667 52.3031C26.7696 52.4366 27.007 52.5081 27.2499 52.5089C27.4213 52.5084 27.5908 52.4726 27.7477 52.4037C27.9047 52.3349 28.0459 52.2346 28.1624 52.1089C28.3249 51.9339 44.325 34.7838 53.9375 31.1838C54.0921 31.1268 54.2339 31.0397 54.3548 30.9277C54.4756 30.8157 54.5731 30.6808 54.6417 30.531C54.7102 30.3811 54.7484 30.2192 54.7542 30.0545C54.7599 29.8898 54.733 29.7256 54.675 29.5713Z" fill="#7E50A7"/>
<path d="M31 55.0107H28.5V57.5108H31V55.0107Z" fill="#7E50A7"/>
<path d="M24.75 52.5107H22.25V55.0108H24.75V52.5107Z" fill="#7E50A7"/>
<path d="M68.863 24.6469C68.9798 24.7628 69.1183 24.8544 69.2706 24.9166C69.4229 24.9788 69.586 25.0104 69.7505 25.0094H69.9505C70.1451 24.9769 70.3292 24.8988 70.4878 24.7814C70.6464 24.6641 70.775 24.5109 70.863 24.3344L73.363 19.3344C73.4995 19.0617 73.5316 18.7486 73.4534 18.4539C73.3751 18.1593 73.1918 17.9034 72.938 17.7344L69.188 15.2344C68.9839 15.1 68.7449 15.0283 68.5005 15.0283C68.2561 15.0283 68.0171 15.1 67.813 15.2344L64.063 17.7344C63.9074 17.8352 63.7763 17.9694 63.679 18.1273C63.5817 18.2851 63.5207 18.4626 63.5005 18.6469C63.4818 18.832 63.5046 19.0189 63.5673 19.1941C63.63 19.3693 63.731 19.5282 63.863 19.6594L68.863 24.6469ZM68.5005 17.7594L70.638 19.1844L69.388 21.6844L66.688 18.9969L68.5005 17.7594Z" fill="#7E50A7"/>
<path d="M46.7504 72.76L41.7504 69.0099C41.5098 68.828 41.2116 68.7391 40.9106 68.7598C40.6097 68.7805 40.3264 68.9093 40.1129 69.1224L37.6129 71.6225C37.4958 71.7387 37.4028 71.8769 37.3393 72.0292C37.2758 72.1816 37.2432 72.3449 37.2432 72.51C37.2432 72.675 37.2758 72.8384 37.3393 72.9907C37.4028 73.143 37.4958 73.2813 37.6129 73.3975L41.3629 77.1475C41.4797 77.2633 41.6182 77.355 41.7705 77.4172C41.9228 77.4794 42.0859 77.5109 42.2504 77.51C42.4964 77.5145 42.7374 77.44 42.9379 77.2975L46.6879 74.7975C46.8599 74.6842 47.0012 74.5303 47.0993 74.3493C47.1975 74.1683 47.2494 73.9658 47.2505 73.76C47.2505 73.5659 47.2053 73.3745 47.1185 73.2009C47.0317 73.0274 46.9057 72.8764 46.7504 72.76ZM42.4129 74.6475L40.2629 72.51L41.1129 71.66L43.8379 73.76L42.4129 74.6475Z" fill="#00407C"/>
<path d="M8.63775 35.5718C8.74163 35.7779 8.90056 35.9513 9.09692 36.0726C9.29329 36.194 9.51942 36.2586 9.75026 36.2593C9.8499 36.2713 9.95062 36.2713 10.0503 36.2593L15.0503 35.0093C15.2325 34.9649 15.4024 34.88 15.5474 34.761C15.6924 34.642 15.8087 34.4919 15.8878 34.3218C15.9697 34.1522 16.0122 33.9663 16.0122 33.778C16.0122 33.5897 15.9697 33.4038 15.8878 33.2343L13.3878 28.2342C13.272 27.9634 13.0643 27.7421 12.8013 27.6095C12.5383 27.4769 12.2369 27.4414 11.9503 27.5092L6.95025 28.7592C6.76801 28.8037 6.59811 28.8885 6.45313 29.0075C6.30815 29.1265 6.19182 29.2767 6.11274 29.4468C6.03083 29.6163 5.98828 29.8022 5.98828 29.9905C5.98828 30.1788 6.03083 30.3647 6.11274 30.5343L8.63775 35.5718ZM11.5753 30.2093L12.9378 32.9218L10.4378 33.5593L9.06276 30.8468L11.5753 30.2093Z" fill="#00407C"/>
<path d="M56 70.0107C55.6685 70.0107 55.3505 70.1424 55.1161 70.3769C54.8817 70.6113 54.75 70.9292 54.75 71.2607V73.7608C54.75 74.0923 54.8817 74.4102 55.1161 74.6446C55.3505 74.8791 55.6685 75.0108 56 75.0108C56.3315 75.0108 56.6495 74.8791 56.8839 74.6446C57.1183 74.4102 57.25 74.0923 57.25 73.7608V71.2607C57.25 70.9292 57.1183 70.6113 56.8839 70.3769C56.6495 70.1424 56.3315 70.0107 56 70.0107Z" fill="#009CC8"/>
<path d="M56 62.5107C55.6685 62.5107 55.3505 62.6424 55.1161 62.8769C54.8817 63.1113 54.75 63.4292 54.75 63.7607V66.2608C54.75 66.5923 54.8817 66.9102 55.1161 67.1446C55.3505 67.3791 55.6685 67.5108 56 67.5108C56.3315 67.5108 56.6495 67.3791 56.8839 67.1446C57.1183 66.9102 57.25 66.5923 57.25 66.2608V63.7607C57.25 63.4292 57.1183 63.1113 56.8839 62.8769C56.6495 62.6424 56.3315 62.5107 56 62.5107Z" fill="#009CC8"/>
<path d="M53.5 67.5107H51C50.6685 67.5107 50.3505 67.6424 50.1161 67.8769C49.8817 68.1113 49.75 68.4292 49.75 68.7607C49.75 69.0923 49.8817 69.4102 50.1161 69.6446C50.3505 69.8791 50.6685 70.0108 51 70.0108H53.5C53.8315 70.0108 54.1495 69.8791 54.3839 69.6446C54.6183 69.4102 54.75 69.0923 54.75 68.7607C54.75 68.4292 54.6183 68.1113 54.3839 67.8769C54.1495 67.6424 53.8315 67.5107 53.5 67.5107Z" fill="#009CC8"/>
<path d="M61 67.5107H58.5C58.1685 67.5107 57.8505 67.6424 57.6161 67.8769C57.3817 68.1113 57.25 68.4292 57.25 68.7607C57.25 69.0923 57.3817 69.4102 57.6161 69.6446C57.8505 69.8791 58.1685 70.0108 58.5 70.0108H61C61.3315 70.0108 61.6495 69.8791 61.8839 69.6446C62.1183 69.4102 62.25 69.0923 62.25 68.7607C62.25 68.4292 62.1183 68.1113 61.8839 67.8769C61.6495 67.6424 61.3315 67.5107 61 67.5107Z" fill="#009CC8"/>
<path d="M74.75 7.51074C74.4185 7.51074 74.1005 7.64244 73.8661 7.87686C73.6317 8.11128 73.5 8.42923 73.5 8.76075V11.2608C73.5 11.5923 73.6317 11.9102 73.8661 12.1446C74.1005 12.3791 74.4185 12.5108 74.75 12.5108C75.0815 12.5108 75.3995 12.3791 75.6339 12.1446C75.8683 11.9102 76 11.5923 76 11.2608V8.76075C76 8.42923 75.8683 8.11128 75.6339 7.87686C75.3995 7.64244 75.0815 7.51074 74.75 7.51074Z" fill="#009CC8"/>
<path d="M74.75 5.01076C75.0815 5.01076 75.3995 4.87907 75.6339 4.64464C75.8683 4.41022 76 4.09228 76 3.76076V1.26075C76 0.929225 75.8683 0.611282 75.6339 0.37686C75.3995 0.142439 75.0815 0.0107422 74.75 0.0107422C74.4185 0.0107422 74.1005 0.142439 73.8661 0.37686C73.6317 0.611282 73.5 0.929225 73.5 1.26075V3.76076C73.5 4.09228 73.6317 4.41022 73.8661 4.64464C74.1005 4.87907 74.4185 5.01076 74.75 5.01076Z" fill="#009CC8"/>
<path d="M69.75 7.51075H72.25C72.5815 7.51075 72.8995 7.37906 73.1339 7.14463C73.3683 6.91021 73.5 6.59227 73.5 6.26075C73.5 5.92923 73.3683 5.61128 73.1339 5.37686C72.8995 5.14244 72.5815 5.01074 72.25 5.01074H69.75C69.4185 5.01074 69.1005 5.14244 68.8661 5.37686C68.6317 5.61128 68.5 5.92923 68.5 6.26075C68.5 6.59227 68.6317 6.91021 68.8661 7.14463C69.1005 7.37906 69.4185 7.51075 69.75 7.51075Z" fill="#009CC8"/>
<path d="M77.25 7.51075H79.75C80.0815 7.51075 80.3995 7.37906 80.6339 7.14463C80.8683 6.91021 81 6.59227 81 6.26075C81 5.92923 80.8683 5.61128 80.6339 5.37686C80.3995 5.14244 80.0815 5.01074 79.75 5.01074H77.25C76.9185 5.01074 76.6005 5.14244 76.3661 5.37686C76.1317 5.61128 76 5.92923 76 6.26075C76 6.59227 76.1317 6.91021 76.3661 7.14463C76.6005 7.37906 76.9185 7.51075 77.25 7.51075Z" fill="#009CC8"/>
</svg>
