<svg width="33" height="33" viewBox="0 0 33 33" fill="none" xmlns="http://www.w3.org/2000/svg">
<g opacity="0.3">
<path d="M31.083 17.9609C30.6962 17.9609 30.3253 18.1146 30.0518 18.3881C29.7783 18.6616 29.6247 19.0325 29.6247 19.4193V25.5632C29.6235 26.6408 29.1949 27.6739 28.433 28.4359C27.671 29.1979 26.6379 29.6264 25.5603 29.6276H7.43905C6.36147 29.6264 5.32835 29.1979 4.56638 28.4359C3.80441 27.6739 3.37583 26.6408 3.37467 25.5632V19.4193C3.37467 19.0325 3.22103 18.6616 2.94754 18.3881C2.67405 18.1146 2.30312 17.9609 1.91634 17.9609C1.52957 17.9609 1.15863 18.1146 0.885144 18.3881C0.611653 18.6616 0.458008 19.0325 0.458008 19.4193V25.5632C0.459938 27.4141 1.19606 29.1887 2.50484 30.4974C3.81362 31.8062 5.58815 32.5423 7.43905 32.5443H25.5603C27.4112 32.5423 29.1857 31.8062 30.4945 30.4974C31.8033 29.1887 32.5394 27.4141 32.5413 25.5632V19.4193C32.5413 19.0325 32.3877 18.6616 32.1142 18.3881C31.8407 18.1146 31.4698 17.9609 31.083 17.9609Z" fill="#1A1A1A"/>
<path d="M8.78102 11.7L15.0416 5.43938V23.794C15.0416 24.1807 15.1953 24.5517 15.4688 24.8252C15.7423 25.0986 16.1132 25.2523 16.5 25.2523C16.8868 25.2523 17.2577 25.0986 17.5312 24.8252C17.8047 24.5517 17.9583 24.1807 17.9583 23.794V5.43938L24.2189 11.7C24.494 11.9656 24.8624 12.1126 25.2447 12.1093C25.6271 12.106 25.9929 11.9526 26.2633 11.6822C26.5336 11.4118 26.687 11.0461 26.6903 10.6637C26.6937 10.2813 26.5467 9.91296 26.281 9.63792L17.531 0.887918C17.2575 0.614522 16.8867 0.460938 16.5 0.460938C16.1133 0.460938 15.7424 0.614522 15.4689 0.887918L6.71894 9.63792C6.4533 9.91296 6.3063 10.2813 6.30963 10.6637C6.31295 11.0461 6.46632 11.4118 6.73671 11.6822C7.00709 11.9526 7.37286 12.106 7.75523 12.1093C8.1376 12.1126 8.50598 11.9656 8.78102 11.7Z" fill="#1A1A1A"/>
</g>
</svg>
