<svg width="32" height="32" viewBox="0 0 32 32" fill="none" xmlns="http://www.w3.org/2000/svg">
<path d="M15.4921 0.511681C12.3496 3.54344 10.4426 8.67787 10.7174 13.4097C8.62792 15.5796 7.42734 18.5263 7.42734 21.5798C7.42603 21.7564 7.52552 21.9192 7.68301 21.9989C7.84181 22.0786 8.03093 22.0622 8.1726 21.9561L11.0759 19.7803L11.1134 20.4451C11.1273 20.6922 11.3315 20.8847 11.5793 20.8847L20.0493 20.8847C20.1771 20.8847 20.2937 20.8326 20.3787 20.7476C20.4571 20.6692 20.5079 20.5631 20.5145 20.4445L20.552 19.7796L23.4553 21.9554C23.597 22.0615 23.7854 22.0549 23.9429 21.9765C23.9831 21.9561 24.0193 21.9291 24.0516 21.8968C24.1452 21.8032 24.1999 21.6668 24.2005 21.5357C24.2005 18.5243 23 15.5776 20.9105 13.4077C21.1833 8.66865 19.2908 3.52236 16.1358 0.511022C15.9559 0.340358 15.6726 0.340358 15.4921 0.511681V0.511681ZM18.1436 9.23599C18.1436 9.87779 17.8827 10.4603 17.4603 10.8827C17.0379 11.305 16.4554 11.566 15.8136 11.566C14.5294 11.5653 13.4843 10.5203 13.4836 9.23599C13.4836 7.95106 14.5287 6.90599 15.8136 6.90599C17.0985 6.90599 18.1443 7.95172 18.1436 9.23599Z" fill="#FFAE1A"/>
<path d="M12.9332 25.3452C12.9332 26.7553 15.1505 30.9086 15.4029 31.3771C15.484 31.528 15.6421 31.6216 15.8128 31.6222C15.9393 31.6222 16.0566 31.5722 16.1429 31.4858C16.1745 31.4542 16.2015 31.418 16.2239 31.3771C16.4763 30.9086 18.6936 26.7553 18.6936 25.3452C18.6936 23.7572 17.4015 22.465 15.8134 22.465C14.2247 22.4657 12.9339 23.7578 12.9332 25.3452V25.3452Z" fill="#FFAE1A"/>
</svg>
