<svg width="22" height="22" viewBox="0 0 22 22" fill="none" xmlns="http://www.w3.org/2000/svg">
<g opacity="0.1">
<path d="M14.3 13.2H7.7C5.65783 13.2 3.69931 14.0112 2.25528 15.4552C0.811248 16.8993 0 18.8578 0 20.9C0 21.1917 0.115892 21.4715 0.322183 21.6778C0.528473 21.8841 0.808262 22 1.1 22H20.9C21.1917 22 21.4715 21.8841 21.6778 21.6778C21.8841 21.4715 22 21.1917 22 20.9C22 18.8578 21.1888 16.8993 19.7447 15.4552C18.3007 14.0112 16.3422 13.2 14.3 13.2Z" fill="#1A1A1A"/>
<path d="M11.0002 12.1C14.3415 12.1 17.0502 9.39132 17.0502 6.05C17.0502 2.70868 14.3415 0 11.0002 0C7.65887 0 4.9502 2.70868 4.9502 6.05C4.9502 9.39132 7.65887 12.1 11.0002 12.1Z" fill="#1A1A1A"/>
</g>
</svg>
