<svg width="20" height="18" viewBox="0 0 20 18" fill="none" xmlns="http://www.w3.org/2000/svg">
<path d="M19.7423 14.8804L11.5386 1.2752C11.2154 0.739219 10.6259 0.40625 9.99998 0.40625C9.37408 0.40625 8.78451 0.739219 8.46127 1.27523L0.257634 14.8804C-0.076389 15.4343 -0.0862718 16.1284 0.231814 16.6917C0.549978 17.255 1.14943 17.6049 1.79631 17.6049H18.2036C18.8505 17.6049 19.45 17.255 19.7682 16.6916C20.0863 16.1283 20.0764 15.4343 19.7423 14.8804ZM18.6344 16.0514C18.5468 16.2064 18.3817 16.3028 18.2036 16.3028H1.79631C1.61822 16.3028 1.45318 16.2064 1.36564 16.0514C1.27806 15.8963 1.2808 15.7052 1.37271 15.5528L9.57642 1.94762C9.66541 1.80008 9.82771 1.7084 10 1.7084C10.1723 1.7084 10.3346 1.80008 10.4236 1.94762L18.6272 15.5528C18.7192 15.7053 18.7219 15.8963 18.6344 16.0514Z" fill="#FFAE1A"/>
<path d="M10.0059 5.76562C9.51059 5.76562 9.12402 6.03141 9.12402 6.50258C9.12402 7.94016 9.29312 10.0059 9.29312 11.4436C9.29316 11.818 9.61937 11.9751 10.0059 11.9751C10.2959 11.9751 10.7066 11.818 10.7066 11.4436C10.7066 10.006 10.8757 7.9402 10.8757 6.50258C10.8757 6.03145 10.4771 5.76562 10.0059 5.76562Z" fill="#FFAE1A"/>
<path d="M10.0181 12.8047C9.4866 12.8047 9.08789 13.2275 9.08789 13.7349C9.08789 14.2302 9.48656 14.6652 10.0181 14.6652C10.5134 14.6652 10.9363 14.2302 10.9363 13.7349C10.9363 13.2275 10.5134 12.8047 10.0181 12.8047Z" fill="#FFAE1A"/>
</svg>
