<svg width="18" height="16" viewBox="0 0 18 16" fill="none" xmlns="http://www.w3.org/2000/svg">
<path d="M17.0771 14.6792L17.0771 14.6792C17.3566 14.1951 17.3565 13.6112 17.0771 13.1271L17.0771 13.127L10.2608 1.3209C10.2608 1.3209 10.2608 1.32089 10.2608 1.32088C9.9813 0.836726 9.47555 0.544805 8.9166 0.544805C8.35761 0.544805 7.85188 0.836742 7.57238 1.3209L0.756069 13.127L0.756057 13.1271C0.476582 13.6112 0.476582 14.1951 0.756057 14.6792C1.03556 15.1633 1.54129 15.4553 2.10031 15.4553H15.7328C16.2918 15.4553 16.7975 15.1633 17.0771 14.6792ZM17.1159 13.1046L17.5489 12.8546L17.1159 13.1046C17.4056 13.6064 17.4056 14.1997 17.1159 14.7016C16.8261 15.2033 16.3122 15.5 15.7328 15.5H2.10031C1.52083 15.5 1.00705 15.2034 0.717301 14.7015C0.427569 14.1997 0.427562 13.6064 0.717307 13.1046L7.53356 1.29846C7.82327 0.796682 8.33712 0.5 8.91657 0.5C9.49605 0.5 10.0099 0.796678 10.2996 1.29846L17.1159 13.1046Z" fill="#383838" stroke="#FFAE1A"/>
<path d="M8.89453 9.93975V5.71582H8.9393V9.93975H8.89453Z" fill="#383838" stroke="#FFAE1A"/>
<path d="M8.71973 12.1819C8.71973 12.074 8.80833 11.9854 8.91626 11.9854C9.0242 11.9854 9.1128 12.074 9.1128 12.1819C9.1128 12.2898 9.02418 12.3784 8.91626 12.3784C8.80833 12.3784 8.71973 12.2898 8.71973 12.1819Z" fill="#383838" stroke="#FFAE1A"/>
</svg>
