<svg width="39" height="39" viewBox="0 0 39 39" fill="none" xmlns="http://www.w3.org/2000/svg">
<g clip-path="url(#clip0_23_3227)">
<path d="M38.3783 30.1171L23.4715 4.2978C22.6426 2.86212 21.1579 2.00488 19.5 2.00488C17.8421 2.00488 16.3574 2.86212 15.5285 4.2978L0.621733 30.117C-0.207244 31.5529 -0.207244 33.2672 0.621733 34.703C1.45071 36.1387 2.9353 36.9959 4.59325 36.9959H34.4067C36.0646 36.9959 37.5493 36.1387 38.3783 34.703C39.2073 33.2672 39.2073 31.5529 38.3783 30.1171ZM36.3995 33.5606C35.9835 34.2811 35.2386 34.7111 34.4067 34.7111H4.59325C3.7613 34.7111 3.01634 34.2811 2.60045 33.5606C2.18455 32.8402 2.18455 31.9801 2.60045 31.2596L17.5073 5.4403C17.9232 4.71987 18.6682 4.28981 19.5001 4.28981C20.3319 4.28981 21.0769 4.71987 21.4928 5.4403L36.3996 31.2596C36.8154 31.9801 36.8154 32.8402 36.3995 33.5606Z" fill="#7E50A7"/>
<path d="M20.6423 13.4072H18.3574V24.8316H20.6423V13.4072Z" fill="#7E50A7"/>
<path d="M19.4998 27.1172C18.6599 27.1172 17.9766 27.8005 17.9766 28.6405C17.9766 29.4804 18.6599 30.1638 19.4998 30.1638C20.3397 30.1638 21.0231 29.4804 21.0231 28.6405C21.0231 27.8005 20.3398 27.1172 19.4998 27.1172Z" fill="#7E50A7"/>
</g>
<defs>
<clipPath id="clip0_23_3227">
<rect width="39" height="39" fill="white"/>
</clipPath>
</defs>
</svg>
