<svg width="15" height="20" viewBox="0 0 15 20" fill="none" xmlns="http://www.w3.org/2000/svg">
<path d="M12.1429 7.14286V4.79286C12.141 3.52229 11.6354 2.30431 10.737 1.40588C9.83855 0.507456 8.62057 0.00188932 7.35 0H6.93571C5.66515 0.00188932 4.44717 0.507456 3.54874 1.40588C2.65031 2.30431 2.14475 3.52229 2.14286 4.79286V7.14286C1.57454 7.14286 1.02949 7.36862 0.627628 7.77049C0.225765 8.17235 0 8.71739 0 9.28571V15.9286C0.00188842 17.0078 0.431448 18.0423 1.19458 18.8054C1.95771 19.5686 2.9922 19.9981 4.07143 20H10.2143C11.2935 19.9981 12.328 19.5686 13.0911 18.8054C13.8543 18.0423 14.2838 17.0078 14.2857 15.9286V9.28571C14.2857 8.71739 14.0599 8.17235 13.6581 7.77049C13.2562 7.36862 12.7112 7.14286 12.1429 7.14286ZM3.57143 4.79286C3.57143 3.90059 3.92588 3.04487 4.55681 2.41395C5.18773 1.78302 6.04345 1.42857 6.93571 1.42857H7.35C8.24226 1.42857 9.09798 1.78302 9.72891 2.41395C10.3598 3.04487 10.7143 3.90059 10.7143 4.79286V7.14286H3.57143V4.79286ZM12.8571 15.9286C12.8571 16.6295 12.5787 17.3017 12.0831 17.7974C11.5874 18.293 10.9152 18.5714 10.2143 18.5714H4.07143C3.3705 18.5714 2.69828 18.293 2.20265 17.7974C1.70701 17.3017 1.42857 16.6295 1.42857 15.9286V9.28571C1.42857 9.09627 1.50383 8.91459 1.63778 8.78064C1.77174 8.64668 1.95342 8.57143 2.14286 8.57143H12.1429C12.3323 8.57143 12.514 8.64668 12.6479 8.78064C12.7819 8.91459 12.8571 9.09627 12.8571 9.28571V15.9286Z" fill="#FFAE1A"/>
<path d="M7.8577 13.3689V15.7117C7.8577 15.9012 7.78245 16.0829 7.64849 16.2168C7.51454 16.3508 7.33286 16.426 7.14342 16.426C6.95398 16.426 6.77229 16.3508 6.63834 16.2168C6.50438 16.0829 6.42913 15.9012 6.42913 15.7117V13.3689C6.15678 13.2116 5.94393 12.9689 5.82359 12.6784C5.70324 12.3878 5.68213 12.0657 5.76352 11.762C5.84491 11.4582 6.02426 11.1898 6.27376 10.9983C6.52325 10.8069 6.82894 10.7031 7.14342 10.7031C7.45789 10.7031 7.76358 10.8069 8.01308 10.9983C8.26257 11.1898 8.44192 11.4582 8.52331 11.762C8.6047 12.0657 8.58359 12.3878 8.46324 12.6784C8.3429 12.9689 8.13005 13.2116 7.8577 13.3689Z" fill="#FFAE1A"/>
</svg>
