<svg width="31" height="22" viewBox="0 0 31 22" fill="none" xmlns="http://www.w3.org/2000/svg">
<path d="M20.3088 0.309814C15.6664 0.309814 11.5798 3.2737 10.1418 7.68479C10.0112 8.08573 10.2304 8.51645 10.6321 8.64781C11.0307 8.77917 11.4638 8.55922 11.5951 8.15828C12.8269 4.37724 16.3292 1.8372 20.3088 1.8372C25.3622 1.8372 29.4732 5.94816 29.4732 11.0015C29.4732 16.0549 25.3622 20.1658 20.3088 20.1658C16.3178 20.1658 12.8132 17.6166 11.5859 13.8218C11.4561 13.4209 11.03 13.2009 10.6245 13.33C10.2235 13.4598 10.0036 13.8898 10.1326 14.2915C11.5638 18.7186 15.6526 21.6932 20.3088 21.6932C26.2046 21.6932 31.0005 16.8972 31.0005 11.0015C31.0005 5.1058 26.2046 0.309814 20.3088 0.309814Z" fill="white"/>
<path d="M18.9482 14.3431C18.687 14.6707 18.7404 15.1549 19.0673 15.4161C19.3942 15.678 19.8791 15.6238 20.1411 15.297L23.1958 11.4785C23.2355 11.4273 23.36 11.254 23.3593 10.9997C23.3585 10.7476 23.2363 10.5758 23.1958 10.5246L20.1411 6.70617C19.8768 6.37626 19.3972 6.32356 19.0673 6.58704C18.7382 6.85051 18.6847 7.33087 18.9482 7.66002L21.0109 10.2383H0.888693C0.466371 10.2383 0.125 10.5804 0.125 11.0019C0.125 11.4235 0.466371 11.7656 0.888693 11.7656H21.0109L18.9482 14.3431Z" fill="white"/>
</svg>
