<svg width="22" height="22" viewBox="0 0 22 22" fill="none" xmlns="http://www.w3.org/2000/svg">
<g clip-path="url(#clip0_1746_6898)">
<path d="M19.6987 16.3574C19.3178 16.0741 18.7795 16.1532 18.4962 16.534C18.3404 16.7434 18.1737 16.9488 18.0007 17.1446C17.6864 17.5001 17.7197 18.0432 18.0753 18.3576C18.2389 18.5022 18.4419 18.5731 18.6442 18.5731C18.8819 18.5731 19.1185 18.475 19.2884 18.2829C19.4933 18.0512 19.6907 17.8079 19.8752 17.5598C20.1585 17.1791 20.0795 16.6407 19.6987 16.3574Z" fill="#00407C"/>
<path d="M21.1357 12.3245C20.6722 12.2236 20.2141 12.5177 20.1132 12.9814C20.0576 13.2365 19.9905 13.4921 19.9135 13.7412C19.7734 14.1947 20.0274 14.6758 20.4809 14.8159C20.5654 14.842 20.6508 14.8544 20.7349 14.8544C21.1018 14.8544 21.4416 14.6175 21.5557 14.2485C21.647 13.953 21.7267 13.6496 21.7926 13.347C21.8935 12.8833 21.5994 12.4255 21.1357 12.3245Z" fill="#00407C"/>
<path d="M15.5596 19.1092C15.3314 19.2365 15.0952 19.3556 14.8575 19.4629C14.4249 19.6583 14.2326 20.1673 14.4279 20.5998C14.5715 20.9176 14.8842 21.1057 15.2116 21.1057C15.3299 21.1057 15.4501 21.0812 15.5648 21.0294C15.8468 20.902 16.1269 20.7608 16.3975 20.6098C16.8119 20.3785 16.9603 19.8549 16.7288 19.4405C16.4975 19.0262 15.974 18.8778 15.5596 19.1092Z" fill="#00407C"/>
<path d="M10.1413 4.125V10.644L6.98997 13.7953C6.65438 14.1309 6.65438 14.675 6.98997 15.0106C7.15781 15.1785 7.37768 15.2623 7.59768 15.2623C7.81759 15.2623 8.03755 15.1784 8.20539 15.0106L11.6083 11.6077C11.7695 11.4465 11.86 11.2279 11.86 11V4.125C11.86 3.65037 11.4753 3.26562 11.0006 3.26562C10.526 3.26562 10.1413 3.65037 10.1413 4.125Z" fill="#00407C"/>
<path d="M21.1406 1.84766C20.666 1.84766 20.2812 2.2324 20.2812 2.70703V5.09334C18.281 1.95628 14.7877 0 11 0C8.0618 0 5.29947 1.14421 3.2218 3.2218C1.14421 5.29947 0 8.0618 0 11C0 13.9382 1.14421 16.7005 3.2218 18.7782C5.29947 20.8558 8.0618 22 11 22C11.0073 22 11.0143 21.9991 11.0215 21.9989C11.0287 21.9991 11.0357 22 11.043 22C11.3527 22 11.6655 21.9869 11.9727 21.9612C12.4456 21.9216 12.797 21.5061 12.7574 21.0332C12.7177 20.5602 12.3028 20.2087 11.8293 20.2485C11.5696 20.2702 11.305 20.2812 11.043 20.2812C11.0357 20.2812 11.0287 20.2822 11.0215 20.2823C11.0143 20.2822 11.0073 20.2812 11 20.2812C5.88229 20.2812 1.71875 16.1177 1.71875 11C1.71875 5.88229 5.88229 1.71875 11 1.71875C14.2982 1.71875 17.3317 3.47673 18.9894 6.27344H16.6265C16.1518 6.27344 15.7671 6.65818 15.7671 7.13281C15.7671 7.60745 16.1518 7.99219 16.6265 7.99219H19.25C19.7734 7.99219 20.263 7.84511 20.6799 7.5903C20.7067 7.575 20.7325 7.55855 20.757 7.5408C21.505 7.04877 22 6.20241 22 5.24219V2.70703C22 2.2324 21.6153 1.84766 21.1406 1.84766Z" fill="#00407C"/>
</g>
<defs>
<clipPath id="clip0_1746_6898">
<rect width="22" height="22" fill="white"/>
</clipPath>
</defs>
</svg>
