<svg width="15" height="14" viewBox="0 0 15 14" fill="none" xmlns="http://www.w3.org/2000/svg">
<path d="M13.9286 5.3568H1.07171V4.28539C1.07171 4.00124 1.18459 3.72872 1.38552 3.52779C1.58644 3.32687 1.85896 3.21399 2.14312 3.21399H12.8572C13.1413 3.21399 13.4139 3.32687 13.6148 3.52779C13.8157 3.72872 13.9286 4.00124 13.9286 4.28539V5.3568ZM13.9286 6.42821V11.7852C13.9286 12.0694 13.8157 12.3419 13.6148 12.5428C13.4139 12.7438 13.1413 12.8566 12.8572 12.8566H2.14312C1.85896 12.8566 1.58644 12.7438 1.38552 12.5428C1.18459 12.3419 1.07171 12.0694 1.07171 11.7852V6.42821H13.9286ZM12.8572 2.14258H2.14312C1.57481 2.14258 1.02977 2.36834 0.627917 2.77019C0.226062 3.17205 0.000301361 3.71708 0.000301361 4.28539V11.7852C0.000301361 12.3536 0.226062 12.8986 0.627917 13.3004C1.02977 13.7023 1.57481 13.9281 2.14312 13.9281H12.8572C13.4255 13.9281 13.9705 13.7023 14.3724 13.3004C14.7742 12.8986 15 12.3536 15 11.7852V4.28539C15 3.71708 14.7742 3.17205 14.3724 2.77019C13.9705 2.36834 13.4255 2.14258 12.8572 2.14258Z" fill="#7E50A7"/>
<path d="M9.64344 1.07141V2.14281H5.35781V1.07141H9.64344ZM9.64344 0H5.35781C5.07365 0 4.80114 0.11288 4.60021 0.313808C4.39928 0.514736 4.2864 0.787252 4.2864 1.07141V2.14281C4.2864 2.42697 4.39928 2.69949 4.60021 2.90041C4.80114 3.10134 5.07365 3.21422 5.35781 3.21422H9.64344C9.92759 3.21422 10.2001 3.10134 10.401 2.90041C10.602 2.69949 10.7148 2.42697 10.7148 2.14281V1.07141C10.7148 0.787252 10.602 0.514736 10.401 0.313808C10.2001 0.11288 9.92759 0 9.64344 0Z" fill="#7E50A7"/>
</svg>
