<svg width="17" height="17" viewBox="0 0 17 17" fill="none" xmlns="http://www.w3.org/2000/svg">
<path d="M8.43642 10.2971C8.43625 11.2553 7.65934 12.032 6.70108 12.0318C5.74283 12.0317 4.96614 11.2547 4.96631 10.2965C4.96648 9.33835 5.74323 8.56172 6.70137 8.56172C6.93933 8.56172 7.13223 8.36883 7.13223 8.13086C7.13223 7.89289 6.93933 7.7 6.70137 7.7L6.70133 7.7C5.26744 7.70099 4.10528 8.86314 4.1043 10.297V10.2971C4.1043 11.7313 5.26698 12.894 6.70122 12.894C8.13547 12.894 9.29814 11.7313 9.29814 10.2971C9.29814 10.0591 9.10525 9.86621 8.86728 9.86621C8.62932 9.86621 8.43642 10.0591 8.43642 10.2971ZM8.43642 10.2971L8.48642 10.2971M8.43642 10.2971L8.48642 10.2971M8.48642 10.2971C8.48625 11.2829 7.68694 12.082 6.70107 12.0818C5.7152 12.0817 4.91613 11.2824 4.91631 10.2965C4.91648 9.31073 5.71561 8.51172 6.70137 8.51172C6.91172 8.51172 7.08223 8.34121 7.08223 8.13086C7.08223 7.92051 6.91172 7.75 6.70137 7.75L4.1543 10.2971C4.1543 11.7037 5.29459 12.844 6.70122 12.844C8.10785 12.844 9.24814 11.7037 9.24814 10.2971C9.24814 10.0867 9.07764 9.91621 8.86728 9.91621C8.65693 9.91621 8.48642 10.0867 8.48642 10.2971Z" fill="#7E50A7" stroke="#7E50A7" stroke-width="0.1"/>
<path d="M2.75078 11.0028L1.95391 10.863M2.75078 11.0028C2.89659 11.0283 3.0144 11.1361 3.05283 11.279C3.13773 11.5945 3.26351 11.8976 3.42695 12.1805L1.95391 10.863M2.75078 11.0028L2.75941 10.9535M2.75078 11.0028L2.75942 10.9535L2.75941 10.9535M1.95391 10.863C1.84293 10.8437 1.7619 10.7474 1.76172 10.6348L1.95391 10.863ZM3.44967 12.6194C3.5464 12.482 3.55447 12.3009 3.47025 12.1555C3.30898 11.8763 3.18489 11.5773 3.10112 11.266L3.44967 12.6194ZM3.44967 12.6194L2.98451 13.2823M3.44967 12.6194L2.98451 13.2823M2.75941 10.9535L1.96254 10.8138L1.96249 10.8138C1.87543 10.7986 1.81186 10.7231 1.81172 10.6347M2.75941 10.9535L1.81172 10.6347M1.81172 10.6347L1.81172 9.95832L1.81172 9.95827C1.81163 9.86975 1.87526 9.79399 1.9625 9.77877L1.96254 9.77876L2.75941 9.63902L2.75942 9.63902L2.75078 9.58977M1.81172 10.6347L3.42695 8.41116C3.26345 8.69434 3.13768 8.99768 3.05283 9.3135C3.0144 9.45647 2.89659 9.56422 2.75078 9.58977M2.75078 9.58977L1.95391 9.72952L2.75078 9.58977ZM10.4226 13.2827L10.4225 13.2826L9.95736 12.6197L9.95731 12.6197L9.99824 12.5909C9.9127 12.4695 9.90561 12.3093 9.98008 12.1808L10.4226 13.2827ZM10.4226 13.2827C10.4737 13.3552 10.4651 13.4539 10.4024 13.5165L10.4023 13.5165M10.4226 13.2827L10.4023 13.5165M10.4023 13.5165L9.92421 13.9946L9.92416 13.9947M10.4023 13.5165L9.92416 13.9947M9.92416 13.9947C9.86164 14.0574 9.76309 14.066 9.69065 14.0152L9.69063 14.0151L9.92416 13.9947ZM7.22027 15.0366L7.2203 15.0364L7.36179 14.2402C7.36179 14.2402 7.3618 14.2402 7.3618 14.2401C7.39073 14.0752 7.51262 13.942 7.67432 13.8985M7.22027 15.0366L7.6873 13.9468M7.22027 15.0366C7.20508 15.1238 7.12931 15.1874 7.04077 15.1873H7.04072M7.22027 15.0366L7.04072 15.1873M7.67432 13.8985L7.6873 13.9468M7.67432 13.8985C7.67432 13.8985 7.67431 13.8985 7.6743 13.8985L7.6873 13.9468M7.67432 13.8985C7.98561 13.8147 8.28462 13.6906 8.56376 13.5294M7.6873 13.9468C8.0028 13.8618 8.30585 13.7361 8.58877 13.5727M8.56376 13.5294C8.56375 13.5294 8.56373 13.5294 8.56371 13.5294L8.58877 13.5727M8.56376 13.5294C8.70918 13.4452 8.8903 13.4532 9.02769 13.5499M8.56376 13.5294L8.58877 13.5727M8.58877 13.5727L9.02769 13.5499M9.02769 13.5499C9.0277 13.55 9.02771 13.55 9.02772 13.55L8.99893 13.5908L9.02765 13.5499L9.02769 13.5499ZM7.04072 15.1873H6.36426H6.36421M7.04072 15.1873H6.36421M6.36421 15.1873C6.27568 15.1874 6.19992 15.1238 6.18471 15.0365L6.1847 15.0365M6.36421 15.1873L6.1847 15.0365M6.1847 15.0365L6.04495 14.2396M6.1847 15.0365L3.71689 14.0143M3.71689 14.0143L3.71696 14.0143L4.37873 13.5494C4.51612 13.4526 4.69725 13.4446 4.84267 13.5288C5.12197 13.69 5.42108 13.8141 5.73244 13.8979C5.89416 13.9414 6.01605 14.0747 6.04495 14.2396M3.71689 14.0143C3.64446 14.0654 3.54576 14.0569 3.48315 13.9941L3.48311 13.9941M3.71689 14.0143L3.48311 13.9941M6.04495 14.2396L5.9957 14.2483M6.04495 14.2396L6.04495 14.2396L5.9957 14.2483M5.9957 14.2483C5.97016 14.1025 5.8624 13.9847 5.71943 13.9462M5.9957 14.2483L5.71943 13.9462M5.71943 13.9462C5.40388 13.8612 5.10074 13.7355 4.81768 13.5721L5.71943 13.9462ZM3.48311 13.9941L3.00498 13.5159L3.00497 13.5159M3.48311 13.9941L3.00497 13.5159M3.00497 13.5159C2.94236 13.4534 2.93372 13.3549 2.98448 13.2824M3.00497 13.5159L2.98448 13.2824M2.98471 7.31125L2.98474 7.3113L3.44967 7.97222C3.54641 8.10962 3.55447 8.29078 3.47022 8.43622L2.98471 7.31125ZM2.98471 7.31125C2.93365 7.23882 2.94219 7.14012 3.00495 7.07751L3.00499 7.07747M2.98471 7.31125L3.00499 7.07747M3.00499 7.07747L3.4834 6.59905L3.48342 6.59903M3.00499 7.07747L3.48342 6.59903M3.48342 6.59903C3.54598 6.53641 3.64453 6.52788 3.71693 6.57881L3.71698 6.57884M3.48342 6.59903L3.71698 6.57884M3.71698 6.57884L4.3799 7.04403C4.37992 7.04404 4.37993 7.04405 4.37995 7.04406M3.71698 6.57884L4.37995 7.04406M5.33708 5.4081L5.33708 5.40809C5.37818 5.1737 5.60149 5.017 5.83588 5.0581C6.07027 5.0992 6.22697 5.32251 6.18587 5.5569L6.13662 5.54827L6.18587 5.5569L6.04612 6.35377L6.04612 6.35378L5.99688 6.34514L5.33708 5.4081ZM5.33708 5.4081L5.2432 5.94417C5.04306 6.01174 4.84787 6.09312 4.65899 6.18769L4.21334 5.87505C4.21333 5.87504 4.21331 5.87503 4.2133 5.87502C3.79839 5.5831 3.23357 5.63232 2.87541 5.9916C2.87538 5.99162 2.87536 5.99165 2.87533 5.99168L2.39562 6.46816L2.39554 6.46825M5.33708 5.4081L2.39554 6.46825M4.37995 7.04406L4.37997 7.04408L4.40869 7.00315L4.37995 7.04406ZM2.39554 6.46825C2.03652 6.82659 1.98744 7.39129 2.27922 7.80623L2.59187 8.25188C2.49726 8.44083 2.41588 8.63614 2.34834 8.83639L1.81227 8.93027L1.81225 8.93027M2.39554 6.46825L1.81225 8.93027M1.81225 8.93027C1.31318 9.01791 0.949385 9.45168 0.950001 9.95838M1.81225 8.93027L0.950001 9.95838M2.27921 12.7872L2.27923 12.7872L2.59301 12.3415C2.49842 12.1526 2.41705 11.9574 2.34951 11.7573L1.81348 11.6631L2.27921 12.7872ZM2.27921 12.7872C1.98752 13.2022 2.03673 13.7669 2.39584 14.1252L2.87417 14.6032C2.87419 14.6032 2.87421 14.6032 2.87423 14.6033C3.23252 14.9624 3.79728 15.0114 4.21217 14.7195L4.1834 14.6786L4.21217 14.7195L4.65639 14.4069C4.84527 14.5015 5.04045 14.5828 5.24056 14.6504L5.33444 15.1865L5.33444 15.1865M2.27921 12.7872L5.33444 15.1865M5.33444 15.1865C5.42208 15.6864 5.8569 16.0505 6.3644 16.049M5.33444 15.1865L6.3644 16.049M2.98448 13.2824L2.98451 13.2823M2.98448 13.2824L2.98451 13.2823M0.950001 9.95838L0.950001 10.6348V10.6348H1L0.950001 9.95838ZM6.3644 16.049H7.04066H6.3644ZM8.16323 14.6492L8.06908 15.1853L8.16323 14.6492ZM8.16323 14.6492C8.36337 14.5817 8.5586 14.5003 8.74747 14.4057L9.1934 14.7184C9.60836 15.0102 10.1731 14.961 10.5314 14.6018L8.16323 14.6492ZM10.3059 11.2663C10.2221 11.5776 10.098 11.8766 9.93678 12.1558L10.5314 14.6017L11.0097 14.1234C11.3688 13.7651 11.418 13.2004 11.1264 12.7854L11.1264 12.7854L10.814 12.3412C10.9086 12.1523 10.9899 11.9571 11.0575 11.757L11.5936 11.6628C11.5936 11.6628 11.5936 11.6628 11.5936 11.6628C11.828 11.6217 11.9847 11.3984 11.9436 11.164C11.9025 10.9297 11.6792 10.773 11.4448 10.8141L10.6476 10.9538C10.4827 10.9827 10.3494 11.1046 10.3059 11.2663Z" fill="#7E50A7" stroke="#7E50A7" stroke-width="0.1"/>
<mask id="path-3-outside-1_1247_3891" maskUnits="userSpaceOnUse" x="5.85156" y="0" width="11" height="11" fill="black">
<rect fill="white" x="5.85156" width="11" height="11"/>
<path d="M15.2864 4.45703L14.888 4.38731C14.8382 4.24363 14.7795 4.10321 14.7122 3.9669L14.9466 3.63672C15.188 3.29336 15.1474 2.82605 14.8502 2.52959L14.4729 2.15137C14.1763 1.85359 13.7082 1.81275 13.3646 2.05469L13.0332 2.28701C12.8969 2.21969 12.7565 2.16098 12.6128 2.11123L12.5442 1.71455C12.4721 1.30094 12.1127 0.999327 11.6929 1H11.16C10.7401 0.999474 10.3809 1.30123 10.3089 1.71484L10.2389 2.11328C10.0952 2.16303 9.95478 2.22174 9.81846 2.28906L9.48711 2.05469C9.14375 1.81322 8.67644 1.85392 8.37998 2.15108L8.00322 2.52842C7.70545 2.82502 7.66461 3.29304 7.90654 3.63672L8.13887 3.96807C8.07154 4.10439 8.01283 4.24481 7.96309 4.38848L7.56611 4.45703C7.15262 4.52916 6.85104 4.88837 6.85156 5.30811V5.84102C6.85074 6.26096 7.15241 6.62052 7.56611 6.69268L7.96426 6.7624C8.01401 6.90608 8.07272 7.04649 8.14004 7.18281L7.90742 7.51416C7.66593 7.8574 7.70636 8.32463 8.00322 8.62129L8.37998 8.99805C8.6765 9.29538 9.14399 9.33607 9.4874 9.09443L9.81963 8.86211C9.95598 8.9294 10.0964 8.98811 10.24 9.03789L10.3101 9.43633C10.3822 9.84982 10.7414 10.1514 11.1611 10.1509H11.694C12.1139 10.1509 12.4728 9.84862 12.5442 9.43486L12.614 9.03672C12.7576 8.98697 12.8981 8.92826 13.0344 8.86094L13.3646 9.09473C13.7082 9.33678 14.1763 9.29594 14.4729 8.99805L14.8499 8.621C15.1469 8.3246 15.1877 7.85755 14.9466 7.51416L14.7137 7.18164C14.781 7.04529 14.8397 6.9049 14.8895 6.76123L15.2879 6.69121C15.7005 6.61867 16.0013 6.26023 16.0013 5.84131V5.3084C16.0019 4.88846 15.7002 4.52904 15.2864 4.45703ZM15.2396 5.84219C15.2396 5.8919 15.2038 5.93441 15.1549 5.94297L14.5268 6.05313C14.3809 6.07867 14.2631 6.18643 14.2247 6.3294C14.1596 6.57127 14.0631 6.80359 13.9379 7.02051C13.8634 7.14906 13.8705 7.3092 13.9561 7.43066L14.3226 7.95332C14.3512 7.99401 14.3464 8.04944 14.3111 8.08457L13.9344 8.46133C13.8988 8.49546 13.8441 8.49939 13.804 8.4707L13.2805 8.10449C13.159 8.01895 12.9989 8.01186 12.8703 8.08633C12.6534 8.2116 12.4211 8.30802 12.1792 8.37315C12.0365 8.41205 11.9293 8.53006 11.9041 8.67578L11.7939 9.30391C11.7854 9.35286 11.7429 9.3886 11.6932 9.38857H11.16C11.1102 9.3886 11.0677 9.35286 11.0592 9.30391L10.9487 8.67578C10.9232 8.52997 10.8154 8.41217 10.6725 8.37373C10.4305 8.30857 10.1981 8.21216 9.98106 8.08691C9.8525 8.01244 9.69236 8.01953 9.5709 8.10508L9.04971 8.4707C9.00901 8.49936 8.95358 8.49452 8.91846 8.45928L8.5417 8.08252C8.50646 8.04739 8.50162 7.99196 8.53027 7.95127L8.89678 7.42861C8.98233 7.30715 8.98942 7.14701 8.91494 7.01846C8.78964 6.80157 8.69322 6.56922 8.62813 6.32734C8.58913 6.18479 8.47115 6.07765 8.32549 6.05254L7.69736 5.94238C7.64841 5.93383 7.61267 5.89132 7.6127 5.8416L7.61299 5.3084C7.61296 5.25868 7.6487 5.21617 7.69766 5.20762L8.32549 5.09717C8.4713 5.07162 8.5891 4.96387 8.62754 4.8209C8.69267 4.57902 8.78908 4.3467 8.91436 4.12979C8.98883 4.00123 8.98174 3.84109 8.89619 3.71963L8.53057 3.19727C8.50192 3.15657 8.50675 3.10114 8.54199 3.06602L8.91904 2.68897C8.95417 2.65372 9.0096 2.64889 9.05029 2.67754L9.57266 3.04404C9.69412 3.12956 9.85426 3.13668 9.98281 3.06221C10.1997 2.93693 10.4321 2.84052 10.6739 2.77539C10.8169 2.73695 10.9246 2.61915 10.9502 2.47334L11.0604 1.84522C11.0693 1.79714 11.1111 1.76216 11.16 1.76172H11.6929C11.7426 1.76169 11.7851 1.79743 11.7937 1.84639L11.9038 2.47451C11.9294 2.62032 12.0371 2.73813 12.1801 2.77656C12.422 2.84166 12.6543 2.93808 12.8712 3.06338C12.9997 3.13785 13.1599 3.13076 13.2813 3.04522L13.804 2.67871C13.8447 2.65006 13.9001 2.65489 13.9353 2.69014L14.3123 3.06719C14.3466 3.10246 14.3509 3.15707 14.3226 3.19727L13.9561 3.7208C13.8705 3.84227 13.8634 4.0024 13.9379 4.13096C14.0631 4.34787 14.1596 4.5802 14.2247 4.82207C14.2631 4.96504 14.3809 5.07279 14.5268 5.09834L15.1549 5.2085C15.2038 5.21705 15.2396 5.25956 15.2396 5.30928V5.84219Z"/>
</mask>
<path d="M15.2864 4.45703L14.888 4.38731C14.8382 4.24363 14.7795 4.10321 14.7122 3.9669L14.9466 3.63672C15.188 3.29336 15.1474 2.82605 14.8502 2.52959L14.4729 2.15137C14.1763 1.85359 13.7082 1.81275 13.3646 2.05469L13.0332 2.28701C12.8969 2.21969 12.7565 2.16098 12.6128 2.11123L12.5442 1.71455C12.4721 1.30094 12.1127 0.999327 11.6929 1H11.16C10.7401 0.999474 10.3809 1.30123 10.3089 1.71484L10.2389 2.11328C10.0952 2.16303 9.95478 2.22174 9.81846 2.28906L9.48711 2.05469C9.14375 1.81322 8.67644 1.85392 8.37998 2.15108L8.00322 2.52842C7.70545 2.82502 7.66461 3.29304 7.90654 3.63672L8.13887 3.96807C8.07154 4.10439 8.01283 4.24481 7.96309 4.38848L7.56611 4.45703C7.15262 4.52916 6.85104 4.88837 6.85156 5.30811V5.84102C6.85074 6.26096 7.15241 6.62052 7.56611 6.69268L7.96426 6.7624C8.01401 6.90608 8.07272 7.04649 8.14004 7.18281L7.90742 7.51416C7.66593 7.8574 7.70636 8.32463 8.00322 8.62129L8.37998 8.99805C8.6765 9.29538 9.14399 9.33607 9.4874 9.09443L9.81963 8.86211C9.95598 8.9294 10.0964 8.98811 10.24 9.03789L10.3101 9.43633C10.3822 9.84982 10.7414 10.1514 11.1611 10.1509H11.694C12.1139 10.1509 12.4728 9.84862 12.5442 9.43486L12.614 9.03672C12.7576 8.98697 12.8981 8.92826 13.0344 8.86094L13.3646 9.09473C13.7082 9.33678 14.1763 9.29594 14.4729 8.99805L14.8499 8.621C15.1469 8.3246 15.1877 7.85755 14.9466 7.51416L14.7137 7.18164C14.781 7.04529 14.8397 6.9049 14.8895 6.76123L15.2879 6.69121C15.7005 6.61867 16.0013 6.26023 16.0013 5.84131V5.3084C16.0019 4.88846 15.7002 4.52904 15.2864 4.45703ZM15.2396 5.84219C15.2396 5.8919 15.2038 5.93441 15.1549 5.94297L14.5268 6.05313C14.3809 6.07867 14.2631 6.18643 14.2247 6.3294C14.1596 6.57127 14.0631 6.80359 13.9379 7.02051C13.8634 7.14906 13.8705 7.3092 13.9561 7.43066L14.3226 7.95332C14.3512 7.99401 14.3464 8.04944 14.3111 8.08457L13.9344 8.46133C13.8988 8.49546 13.8441 8.49939 13.804 8.4707L13.2805 8.10449C13.159 8.01895 12.9989 8.01186 12.8703 8.08633C12.6534 8.2116 12.4211 8.30802 12.1792 8.37315C12.0365 8.41205 11.9293 8.53006 11.9041 8.67578L11.7939 9.30391C11.7854 9.35286 11.7429 9.3886 11.6932 9.38857H11.16C11.1102 9.3886 11.0677 9.35286 11.0592 9.30391L10.9487 8.67578C10.9232 8.52997 10.8154 8.41217 10.6725 8.37373C10.4305 8.30857 10.1981 8.21216 9.98106 8.08691C9.8525 8.01244 9.69236 8.01953 9.5709 8.10508L9.04971 8.4707C9.00901 8.49936 8.95358 8.49452 8.91846 8.45928L8.5417 8.08252C8.50646 8.04739 8.50162 7.99196 8.53027 7.95127L8.89678 7.42861C8.98233 7.30715 8.98942 7.14701 8.91494 7.01846C8.78964 6.80157 8.69322 6.56922 8.62813 6.32734C8.58913 6.18479 8.47115 6.07765 8.32549 6.05254L7.69736 5.94238C7.64841 5.93383 7.61267 5.89132 7.6127 5.8416L7.61299 5.3084C7.61296 5.25868 7.6487 5.21617 7.69766 5.20762L8.32549 5.09717C8.4713 5.07162 8.5891 4.96387 8.62754 4.8209C8.69267 4.57902 8.78908 4.3467 8.91436 4.12979C8.98883 4.00123 8.98174 3.84109 8.89619 3.71963L8.53057 3.19727C8.50192 3.15657 8.50675 3.10114 8.54199 3.06602L8.91904 2.68897C8.95417 2.65372 9.0096 2.64889 9.05029 2.67754L9.57266 3.04404C9.69412 3.12956 9.85426 3.13668 9.98281 3.06221C10.1997 2.93693 10.4321 2.84052 10.6739 2.77539C10.8169 2.73695 10.9246 2.61915 10.9502 2.47334L11.0604 1.84522C11.0693 1.79714 11.1111 1.76216 11.16 1.76172H11.6929C11.7426 1.76169 11.7851 1.79743 11.7937 1.84639L11.9038 2.47451C11.9294 2.62032 12.0371 2.73813 12.1801 2.77656C12.422 2.84166 12.6543 2.93808 12.8712 3.06338C12.9997 3.13785 13.1599 3.13076 13.2813 3.04522L13.804 2.67871C13.8447 2.65006 13.9001 2.65489 13.9353 2.69014L14.3123 3.06719C14.3466 3.10246 14.3509 3.15707 14.3226 3.19727L13.9561 3.7208C13.8705 3.84227 13.8634 4.0024 13.9379 4.13096C14.0631 4.34787 14.1596 4.5802 14.2247 4.82207C14.2631 4.96504 14.3809 5.07279 14.5268 5.09834L15.1549 5.2085C15.2038 5.21705 15.2396 5.25956 15.2396 5.30928V5.84219Z" fill="#7E50A7"/>
<path d="M15.2864 4.45703L14.888 4.38731C14.8382 4.24363 14.7795 4.10321 14.7122 3.9669L14.9466 3.63672C15.188 3.29336 15.1474 2.82605 14.8502 2.52959L14.4729 2.15137C14.1763 1.85359 13.7082 1.81275 13.3646 2.05469L13.0332 2.28701C12.8969 2.21969 12.7565 2.16098 12.6128 2.11123L12.5442 1.71455C12.4721 1.30094 12.1127 0.999327 11.6929 1H11.16C10.7401 0.999474 10.3809 1.30123 10.3089 1.71484L10.2389 2.11328C10.0952 2.16303 9.95478 2.22174 9.81846 2.28906L9.48711 2.05469C9.14375 1.81322 8.67644 1.85392 8.37998 2.15108L8.00322 2.52842C7.70545 2.82502 7.66461 3.29304 7.90654 3.63672L8.13887 3.96807C8.07154 4.10439 8.01283 4.24481 7.96309 4.38848L7.56611 4.45703C7.15262 4.52916 6.85104 4.88837 6.85156 5.30811V5.84102C6.85074 6.26096 7.15241 6.62052 7.56611 6.69268L7.96426 6.7624C8.01401 6.90608 8.07272 7.04649 8.14004 7.18281L7.90742 7.51416C7.66593 7.8574 7.70636 8.32463 8.00322 8.62129L8.37998 8.99805C8.6765 9.29538 9.14399 9.33607 9.4874 9.09443L9.81963 8.86211C9.95598 8.9294 10.0964 8.98811 10.24 9.03789L10.3101 9.43633C10.3822 9.84982 10.7414 10.1514 11.1611 10.1509H11.694C12.1139 10.1509 12.4728 9.84862 12.5442 9.43486L12.614 9.03672C12.7576 8.98697 12.8981 8.92826 13.0344 8.86094L13.3646 9.09473C13.7082 9.33678 14.1763 9.29594 14.4729 8.99805L14.8499 8.621C15.1469 8.3246 15.1877 7.85755 14.9466 7.51416L14.7137 7.18164C14.781 7.04529 14.8397 6.9049 14.8895 6.76123L15.2879 6.69121C15.7005 6.61867 16.0013 6.26023 16.0013 5.84131V5.3084C16.0019 4.88846 15.7002 4.52904 15.2864 4.45703ZM15.2396 5.84219C15.2396 5.8919 15.2038 5.93441 15.1549 5.94297L14.5268 6.05313C14.3809 6.07867 14.2631 6.18643 14.2247 6.3294C14.1596 6.57127 14.0631 6.80359 13.9379 7.02051C13.8634 7.14906 13.8705 7.3092 13.9561 7.43066L14.3226 7.95332C14.3512 7.99401 14.3464 8.04944 14.3111 8.08457L13.9344 8.46133C13.8988 8.49546 13.8441 8.49939 13.804 8.4707L13.2805 8.10449C13.159 8.01895 12.9989 8.01186 12.8703 8.08633C12.6534 8.2116 12.4211 8.30802 12.1792 8.37315C12.0365 8.41205 11.9293 8.53006 11.9041 8.67578L11.7939 9.30391C11.7854 9.35286 11.7429 9.3886 11.6932 9.38857H11.16C11.1102 9.3886 11.0677 9.35286 11.0592 9.30391L10.9487 8.67578C10.9232 8.52997 10.8154 8.41217 10.6725 8.37373C10.4305 8.30857 10.1981 8.21216 9.98106 8.08691C9.8525 8.01244 9.69236 8.01953 9.5709 8.10508L9.04971 8.4707C9.00901 8.49936 8.95358 8.49452 8.91846 8.45928L8.5417 8.08252C8.50646 8.04739 8.50162 7.99196 8.53027 7.95127L8.89678 7.42861C8.98233 7.30715 8.98942 7.14701 8.91494 7.01846C8.78964 6.80157 8.69322 6.56922 8.62813 6.32734C8.58913 6.18479 8.47115 6.07765 8.32549 6.05254L7.69736 5.94238C7.64841 5.93383 7.61267 5.89132 7.6127 5.8416L7.61299 5.3084C7.61296 5.25868 7.6487 5.21617 7.69766 5.20762L8.32549 5.09717C8.4713 5.07162 8.5891 4.96387 8.62754 4.8209C8.69267 4.57902 8.78908 4.3467 8.91436 4.12979C8.98883 4.00123 8.98174 3.84109 8.89619 3.71963L8.53057 3.19727C8.50192 3.15657 8.50675 3.10114 8.54199 3.06602L8.91904 2.68897C8.95417 2.65372 9.0096 2.64889 9.05029 2.67754L9.57266 3.04404C9.69412 3.12956 9.85426 3.13668 9.98281 3.06221C10.1997 2.93693 10.4321 2.84052 10.6739 2.77539C10.8169 2.73695 10.9246 2.61915 10.9502 2.47334L11.0604 1.84522C11.0693 1.79714 11.1111 1.76216 11.16 1.76172H11.6929C11.7426 1.76169 11.7851 1.79743 11.7937 1.84639L11.9038 2.47451C11.9294 2.62032 12.0371 2.73813 12.1801 2.77656C12.422 2.84166 12.6543 2.93808 12.8712 3.06338C12.9997 3.13785 13.1599 3.13076 13.2813 3.04522L13.804 2.67871C13.8447 2.65006 13.9001 2.65489 13.9353 2.69014L14.3123 3.06719C14.3466 3.10246 14.3509 3.15707 14.3226 3.19727L13.9561 3.7208C13.8705 3.84227 13.8634 4.0024 13.9379 4.13096C14.0631 4.34787 14.1596 4.5802 14.2247 4.82207C14.2631 4.96504 14.3809 5.07279 14.5268 5.09834L15.1549 5.2085C15.2038 5.21705 15.2396 5.25956 15.2396 5.30928V5.84219Z" stroke="#7E50A7" stroke-width="0.2" mask="url(#path-3-outside-1_1247_3891)"/>
<path d="M9.55547 5.57549L9.55547 5.57554C9.55664 6.60759 10.393 7.44394 11.425 7.44512H11.4251C12.4577 7.44512 13.2947 6.60804 13.2947 5.57549C13.2947 4.54293 12.4577 3.70586 11.4251 3.70586C10.3925 3.70586 9.55547 4.54293 9.55547 5.57549ZM11.3751 4.56739V4.56758H11.4251C11.9818 4.56758 12.433 5.01883 12.433 5.57549C12.433 6.13214 11.9818 6.5834 11.4251 6.5834C10.8684 6.5834 10.4172 6.13214 10.4172 5.57549V5.57548C10.4171 5.0353 10.8414 4.59405 11.3751 4.56739Z" fill="#7E50A7" stroke="#7E50A7" stroke-width="0.1"/>
</svg>
