<svg width="20" height="19" viewBox="0 0 20 19" fill="none" xmlns="http://www.w3.org/2000/svg">
<path d="M9.99953 0C9.77544 5.38487e-05 9.56054 0.0890978 9.40208 0.247554C9.24363 0.406011 9.15458 0.620909 9.15453 0.845V10.4849L5.92301 7.25339C5.84454 7.17493 5.75137 7.11269 5.64884 7.07023C5.54631 7.02777 5.43642 7.00592 5.32545 7.00593C5.10133 7.00595 4.88639 7.095 4.72793 7.25349C4.56946 7.41198 4.48045 7.62693 4.48047 7.85106C4.48049 8.07518 4.56954 8.29011 4.72803 8.44858L9.40194 13.1219C9.56046 13.2803 9.77541 13.3693 9.99953 13.3693C10.2236 13.3693 10.4386 13.2803 10.5971 13.1219L15.271 8.44777C15.4295 8.2893 15.5186 8.07437 15.5186 7.85024C15.5186 7.62612 15.4296 7.41117 15.2711 7.25268C15.1127 7.09419 14.8977 7.00514 14.6736 7.00512C14.4495 7.0051 14.2345 7.09411 14.076 7.25258L10.8445 10.4849V0.845C10.8445 0.620909 10.7554 0.406011 10.597 0.247554C10.4385 0.0890978 10.2236 5.38487e-05 9.99953 0V0Z" fill="#7E50A7"/>
<path d="M1.70437 11.1738C1.48027 11.1738 1.26534 11.2629 1.10687 11.4213C0.948401 11.5798 0.859375 11.7947 0.859375 12.0188V14.8033C0.860397 15.7256 1.22725 16.6099 1.87946 17.2621C2.53166 17.9143 3.41594 18.2812 4.3383 18.2822H15.6617C16.5841 18.2812 17.4683 17.9143 18.1205 17.2621C18.7727 16.6099 19.1396 15.7256 19.1406 14.8033V12.0188C19.1406 11.9079 19.1188 11.798 19.0763 11.6955C19.0338 11.5929 18.9716 11.4998 18.8931 11.4213C18.8147 11.3429 18.7215 11.2806 18.619 11.2382C18.5165 11.1957 18.4066 11.1738 18.2956 11.1738C18.1847 11.1738 18.0748 11.1957 17.9723 11.2382C17.8697 11.2806 17.7766 11.3429 17.6981 11.4213C17.6197 11.4998 17.5574 11.5929 17.5149 11.6955C17.4725 11.798 17.4506 11.9079 17.4506 12.0188V14.8033C17.4501 15.2776 17.2614 15.7323 16.9261 16.0676C16.5907 16.403 16.136 16.5917 15.6617 16.5922H4.3383C3.86401 16.5917 3.4093 16.403 3.07393 16.0676C2.73856 15.7323 2.54991 15.2776 2.54937 14.8033V12.0188C2.5494 11.9079 2.52756 11.798 2.48511 11.6954C2.44265 11.5929 2.38041 11.4997 2.30194 11.4213C2.22347 11.3428 2.13031 11.2806 2.02777 11.2381C1.92524 11.1956 1.81535 11.1738 1.70437 11.1738V11.1738Z" fill="#7E50A7"/>
</svg>
