<svg width="11" height="12" viewBox="0 0 11 12" fill="none" xmlns="http://www.w3.org/2000/svg">
<g opacity="0.5">
<path d="M0.734375 3.67969L1.35709 10.6987C1.40171 11.2049 1.86348 11.6017 2.40765 11.6017H8.14527C8.68944 11.6017 9.1512 11.2049 9.19583 10.6987L9.81852 3.67969H0.734375ZM3.5183 10.2887C3.33427 10.2887 3.17945 10.155 3.16777 9.98093L2.81621 4.68498C2.80419 4.50386 2.95147 4.34807 3.14511 4.33685C3.34595 4.32369 3.5056 4.46283 3.51795 4.64394L3.86952 9.9399C3.88196 10.1274 3.72303 10.2887 3.5183 10.2887ZM5.62801 9.96042C5.62801 10.1419 5.47077 10.2887 5.27644 10.2887C5.08212 10.2887 4.92488 10.1419 4.92488 9.96042V4.66447C4.92488 4.48303 5.08212 4.33621 5.27644 4.33621C5.47077 4.33621 5.62801 4.48303 5.62801 4.66447V9.96042ZM7.73668 4.685L7.38512 9.98095C7.37356 10.1533 7.21974 10.2969 7.01227 10.2881C6.81863 10.2768 6.67135 10.121 6.68337 9.93992L7.03494 4.64397C7.04696 4.46285 7.21691 4.33109 7.40778 4.33687C7.60142 4.34809 7.7487 4.50389 7.73668 4.685Z" fill="#383838"/>
<path d="M9.84375 1.72711H7.73438V1.39885C7.73438 0.855815 7.26127 0.414062 6.67969 0.414062H3.86719C3.28561 0.414062 2.8125 0.855815 2.8125 1.39885V1.72711H0.703125C0.314789 1.72711 0 2.02103 0 2.38363C0 2.74619 0.314789 3.04015 0.703125 3.04015C3.9367 3.04015 6.61029 3.04015 9.84375 3.04015C10.2321 3.04015 10.5469 2.74619 10.5469 2.38363C10.5469 2.02103 10.2321 1.72711 9.84375 1.72711ZM7.03125 1.72711H3.51562V1.39885C3.51562 1.21773 3.67322 1.07059 3.86719 1.07059H6.67969C6.87366 1.07059 7.03125 1.21773 7.03125 1.39885V1.72711Z" fill="#383838"/>
</g>
</svg>
