<svg width="22" height="22" viewBox="0 0 22 22" fill="none" xmlns="http://www.w3.org/2000/svg">
<path d="M3.6935 21.7719L6.27224 21.485C6.82049 21.4236 7.33165 21.1779 7.72207 20.7882L18.7842 9.73079L21.0769 7.43845C21.5327 6.98259 21.7887 6.36439 21.7887 5.7198C21.7887 5.07521 21.5327 4.45701 21.0769 4.00115L18.7842 1.70881C18.3283 1.25308 17.71 0.99707 17.0653 0.99707C16.4207 0.99707 15.8024 1.25308 15.3464 1.70881L13.0538 4.00115L1.99163 15.0585C1.60168 15.4491 1.35595 15.9605 1.29467 16.509L1.01103 19.0898C0.973217 19.4293 1.0074 19.773 1.11135 20.0984C1.2153 20.4238 1.38668 20.7237 1.61432 20.9784C1.84196 21.2332 2.12075 21.4371 2.4325 21.5769C2.74425 21.7167 3.08197 21.7892 3.42363 21.7897C3.51384 21.7885 3.60392 21.7826 3.6935 21.7719ZM16.4899 2.85457C16.6419 2.70266 16.848 2.61733 17.0629 2.61733C17.2778 2.61733 17.4839 2.70266 17.6359 2.85457L19.9285 5.14691C20.0805 5.29887 20.1658 5.50494 20.1658 5.7198C20.1658 5.93466 20.0805 6.14073 19.9285 6.29268L18.2088 8.01214L14.7702 4.57403L16.4899 2.85457Z" fill="#FFAE1A"/>
</svg>
