<svg width="8" height="7" viewBox="0 0 8 7" fill="none" xmlns="http://www.w3.org/2000/svg">
<path d="M3.36295 5.96846C3.30611 5.96846 3.25283 5.95884 3.20309 5.9396C3.15336 5.92067 3.10718 5.8883 3.06455 5.84249L1.23147 3.87282C1.15332 3.78885 1.11594 3.67998 1.11935 3.54623C1.12305 3.41278 1.16397 3.30406 1.24213 3.22008C1.32028 3.13611 1.41975 3.09412 1.54054 3.09412C1.66132 3.09412 1.76079 3.13611 1.83894 3.22008L3.36295 4.85766L6.97582 0.975577C7.05397 0.891599 7.15529 0.849609 7.27977 0.849609C7.40396 0.849609 7.50514 0.891599 7.58329 0.975577C7.66145 1.05955 7.70052 1.16827 7.70052 1.30172C7.70052 1.43547 7.66145 1.54434 7.58329 1.62832L3.66136 5.84249C3.61873 5.8883 3.57255 5.92067 3.52281 5.9396C3.47308 5.95884 3.41979 5.96846 3.36295 5.96846Z" fill="#8F8F8F" fill-opacity="0.2"/>
<path d="M3.20309 5.9396C3.15336 5.92067 3.10718 5.8883 3.06455 5.84249L1.23147 3.87282C1.15332 3.78885 1.11594 3.67998 1.11935 3.54623L3.36295 4.71087L3.43126 4.78427L6.97582 0.975577C7.05397 0.891599 7.15529 0.849609 7.27977 0.849609C7.40396 0.849609 7.50514 0.891599 7.58329 0.975577C7.66145 1.05955 7.70052 1.16827 7.70052 1.30172C7.70052 1.43547 7.66145 1.54434 7.58329 1.62832L3.66136 5.84249C3.61873 5.8883 3.57255 5.92067 3.52281 5.9396M3.20309 5.9396L3.16702 6.03287C3.1671 6.0329 3.16718 6.03293 3.16726 6.03296C3.16735 6.033 3.16743 6.03303 3.16751 6.03306L3.20309 5.9396ZM3.20309 5.9396C3.25283 5.95884 3.30611 5.96846 3.36295 5.96846C3.41979 5.96846 3.47308 5.95884 3.52281 5.9396M3.52281 5.9396L3.55839 6.03306C3.55848 6.03303 3.55856 6.033 3.55864 6.03296C3.55873 6.03293 3.55881 6.0329 3.55889 6.03287L3.52281 5.9396Z" stroke="#8F8F8F" stroke-opacity="0.2" stroke-width="0.2"/>
</svg>
