<svg width="15" height="15" viewBox="0 0 15 15" fill="none" xmlns="http://www.w3.org/2000/svg">
<path d="M11.5062 7.5C11.5043 6.8697 11.4367 6.24131 11.3047 5.625H12.9922C12.9053 5.36792 12.8003 5.1173 12.6781 4.875H11.1078C10.8126 3.88878 10.3548 2.95879 9.75312 2.12344C9.36874 1.96181 8.96796 1.84236 8.55781 1.76719C9.38203 2.65277 10.0042 3.70673 10.3812 4.85625H7.85469V1.6875H7.15156V4.86094H4.625C5.00285 3.70933 5.62664 2.65369 6.45312 1.76719C6.04474 1.84111 5.64554 1.95898 5.2625 2.11875C4.65849 2.9506 4.19748 3.87738 3.89844 4.86094H2.31875C2.19433 5.10766 2.0878 5.363 2 5.625H3.70156C3.56951 6.24131 3.50196 6.8697 3.5 7.5C3.5013 8.18943 3.57991 8.87653 3.73437 9.54844H2.075C2.17197 9.81119 2.2879 10.0665 2.42187 10.3125H3.93594C4.22291 11.2105 4.64835 12.0582 5.19687 12.825C5.58967 12.9935 6.00002 13.1177 6.42031 13.1953C5.65527 12.3608 5.06692 11.3802 4.69062 10.3125H7.15625V13.2844H7.85937V10.3125H10.3156C9.93805 11.3807 9.34807 12.3613 8.58125 13.1953C9.00352 13.115 9.41546 12.9876 9.80937 12.8156C10.357 12.0517 10.7824 11.2073 11.0703 10.3125H12.5703C12.7037 10.0711 12.8196 9.82045 12.9172 9.5625H11.2531C11.4149 8.88673 11.4999 8.19484 11.5062 7.5ZM7.15156 9.54844H4.46094C4.13092 8.25836 4.11645 6.90779 4.41875 5.61094H7.15156V9.54844ZM10.5453 9.54844H7.85469V5.625H10.5875C10.7222 6.24081 10.7882 6.86965 10.7844 7.5C10.7882 8.18999 10.7079 8.87787 10.5453 9.54844Z" fill="#7E50A7"/>
<path d="M7.5 0C6.01664 0 4.56659 0.439867 3.33323 1.26398C2.09986 2.08809 1.13856 3.25943 0.570907 4.62987C0.00324961 6.00032 -0.145275 7.50832 0.144114 8.96317C0.433503 10.418 1.14781 11.7544 2.1967 12.8033C3.2456 13.8522 4.58197 14.5665 6.03682 14.8559C7.49168 15.1453 8.99968 14.9968 10.3701 14.4291C11.7406 13.8614 12.9119 12.9001 13.736 11.6668C14.5601 10.4334 15 8.98336 15 7.5C15 5.51087 14.2098 3.60322 12.8033 2.1967C11.3968 0.790176 9.48913 0 7.5 0ZM7.5 14.0625C6.20206 14.0625 4.93327 13.6776 3.85407 12.9565C2.77488 12.2354 1.93374 11.2105 1.43704 10.0114C0.940344 8.81222 0.810384 7.49272 1.0636 6.21972C1.31682 4.94672 1.94183 3.77739 2.85961 2.85961C3.7774 1.94183 4.94672 1.31681 6.21972 1.0636C7.49272 0.810381 8.81222 0.94034 10.0114 1.43704C11.2105 1.93374 12.2354 2.77487 12.9565 3.85407C13.6776 4.93327 14.0625 6.20206 14.0625 7.5C14.0625 9.24048 13.3711 10.9097 12.1404 12.1404C10.9097 13.3711 9.24048 14.0625 7.5 14.0625Z" fill="#7E50A7"/>
</svg>
