<svg width="15" height="15" viewBox="0 0 15 15" fill="none" xmlns="http://www.w3.org/2000/svg">
<g clip-path="url(#clip0_1746_6210)">
<path d="M7.5 15C5.49668 15 3.61324 14.2199 2.19668 12.8033C0.780117 11.3868 0 9.50332 0 7.5C0 5.49668 0.780147 3.61327 2.19668 2.19668C3.61321 0.780088 5.49668 0 7.5 0C9.50332 0 11.3868 0.780117 12.8033 2.19668C14.2199 3.61324 15 5.49668 15 7.5C15 9.50332 14.2199 11.3867 12.8033 12.8033C11.3868 14.2199 9.50332 15 7.5 15ZM7.5 0.9375C3.88143 0.9375 0.9375 3.88143 0.9375 7.5C0.9375 11.1186 3.88143 14.0625 7.5 14.0625C11.1186 14.0625 14.0625 11.1186 14.0625 7.5C14.0625 3.88143 11.1186 0.9375 7.5 0.9375Z" fill="#7E50A7"/>
<path d="M7.5 7.03125C6.85383 7.03125 6.32812 6.50555 6.32812 5.85938C6.32812 5.2132 6.85383 4.6875 7.5 4.6875C8.14617 4.6875 8.67188 5.2132 8.67188 5.85938C8.67188 6.11824 8.88173 6.32812 9.14062 6.32812C9.39952 6.32812 9.60938 6.11824 9.60938 5.85938C9.60938 4.85739 8.90689 4.01695 7.96875 3.80314V3.28125C7.96875 3.02238 7.7589 2.8125 7.5 2.8125C7.2411 2.8125 7.03125 3.02238 7.03125 3.28125V3.80314C6.09311 4.01695 5.39062 4.85739 5.39062 5.85938C5.39062 7.02249 6.33688 7.96875 7.5 7.96875C8.14617 7.96875 8.67188 8.49445 8.67188 9.14062C8.67188 9.7868 8.14617 10.3125 7.5 10.3125C6.85383 10.3125 6.32812 9.7868 6.32812 9.14062C6.32812 8.88176 6.11827 8.67188 5.85938 8.67188C5.60048 8.67188 5.39062 8.88176 5.39062 9.14062C5.39062 10.1426 6.09311 10.983 7.03125 11.1969V11.7188C7.03125 11.9776 7.2411 12.1875 7.5 12.1875C7.7589 12.1875 7.96875 11.9776 7.96875 11.7188V11.1969C8.90689 10.983 9.60938 10.1426 9.60938 9.14062C9.60938 7.97751 8.66312 7.03125 7.5 7.03125Z" fill="#7E50A7"/>
</g>
<defs>
<clipPath id="clip0_1746_6210">
<rect width="15" height="15" fill="white"/>
</clipPath>
</defs>
</svg>
