<svg width="19" height="24" viewBox="0 0 19 24" fill="none" xmlns="http://www.w3.org/2000/svg">
<path fill-rule="evenodd" clip-rule="evenodd" d="M3.5625 9.6V6C3.5625 4.4087 4.18806 2.88258 5.30155 1.75736C6.41505 0.632141 7.92528 0 9.5 0C11.0747 0 12.5849 0.632141 13.6984 1.75736C14.8119 2.88258 15.4375 4.4087 15.4375 6C15.4375 6.66 14.9031 7.2 14.25 7.2C13.5969 7.2 13.0625 6.66 13.0625 6C13.0625 5.04522 12.6872 4.12955 12.0191 3.45442C11.351 2.77928 10.4448 2.4 9.5 2.4C8.55517 2.4 7.64903 2.77928 6.98093 3.45442C6.31283 4.12955 5.9375 5.04522 5.9375 6V9.6H16.625C17.2549 9.6 17.859 9.85286 18.3044 10.3029C18.7498 10.753 19 11.3635 19 12V21.6C19 22.2365 18.7498 22.847 18.3044 23.2971C17.859 23.7471 17.2549 24 16.625 24H2.375C1.74511 24 1.14102 23.7471 0.695621 23.2971C0.250222 22.847 0 22.2365 0 21.6V12C0 11.3635 0.250222 10.753 0.695621 10.3029C1.14102 9.85286 1.74511 9.6 2.375 9.6H3.5625ZM2.375 12V21.6H16.625V12H2.375ZM11.875 14.4H14.25V19.2H11.875V14.4Z" fill="#FEB730"/>
</svg>
