<svg width="19" height="20" viewBox="0 0 19 20" fill="none" xmlns="http://www.w3.org/2000/svg">
<path d="M17.5781 9.47579C17.5781 2.8808 17.5965 3.30095 17.5351 3.14924C17.6667 2.82412 17.4855 2.46127 17.1531 2.36631L8.95003 0.0225586C8.84484 -0.00751952 8.73331 -0.00751952 8.62812 0.0225586L0.425 2.36631C0.173398 2.43814 0 2.66806 0 2.9297C0 3.19134 0.173398 3.42123 0.424961 3.4931L3.51562 4.37611C3.51562 4.40263 3.51562 4.42712 3.51562 4.44998C3.51562 4.64853 3.51562 4.71384 3.51562 4.71275C3.51562 5.0358 3.51562 5.71193 3.51562 7.03122C3.51562 9.30771 4.69015 11.285 6.40117 12.2546L6.07792 12.9011C4.49656 12.9915 3.01902 13.6653 1.88402 14.8212C0.669101 16.0586 0 17.6896 0 19.4141C0 19.7377 0.262343 20 0.585937 20H16.9922C17.3158 20 17.5781 19.7377 17.5781 19.4141C17.5781 17.6897 16.909 16.0586 15.6941 14.8213C14.5592 13.6654 13.0816 12.9921 11.5004 12.9015L11.1769 12.2546C12.888 11.285 14.0625 9.30774 14.0625 7.03126C14.0625 6.88677 14.0625 4.41537 14.0625 4.37615L16.4062 3.7065V9.47579C15.7242 9.71767 15.2344 10.369 15.2344 11.1328V12.3047C15.2344 12.6283 15.4967 12.8906 15.8203 12.8906H18.164C18.4876 12.8906 18.75 12.6283 18.75 12.3047V11.1328C18.75 10.369 18.2601 9.71763 17.5781 9.47579ZM8.20312 18.8281H1.20328C1.48074 16.2536 3.565 14.2227 6.13796 14.0718L8.20312 17.1696V18.8281ZM7.12144 13.4345L7.48417 12.709C7.90163 12.8275 8.33882 12.8906 8.78905 12.8906C9.23929 12.8906 9.67644 12.8275 10.0939 12.709L10.4566 13.4345L8.78905 15.9359L7.12144 13.4345ZM11.4401 14.0719C14.0131 14.2227 16.0974 16.2536 16.3748 18.8281H9.37499V17.1696L11.4401 14.0719ZM8.78905 11.7188C6.80124 11.7188 5.13941 10.0942 4.76609 7.94583C6.00351 8.4979 7.38663 8.78907 8.78905 8.78907C10.1914 8.78907 11.5745 8.49794 12.812 7.94595C12.4387 10.0942 10.7768 11.7188 8.78905 11.7188ZM12.8778 6.36986C12.8437 6.53915 12.7434 6.68181 12.6029 6.75079C11.4493 7.31759 10.1305 7.61716 8.78905 7.61716C7.44749 7.61716 6.12867 7.31751 4.97511 6.75064C4.78402 6.65677 4.6875 6.43943 4.6875 6.24161V4.71091C8.93987 5.92587 8.67183 5.85935 8.78905 5.85935C8.90624 5.85935 8.63737 5.92615 12.8906 4.71091C12.8906 6.39283 12.8953 6.28388 12.8778 6.36986ZM8.78905 4.66408L2.71879 2.9297L8.78905 1.19529L14.8593 2.92967L8.78905 4.66408ZM17.5781 11.7188H16.4062V11.1328C16.4062 10.8097 16.6691 10.5469 16.9922 10.5469C17.3153 10.5469 17.5781 10.8097 17.5781 11.1328V11.7188Z" fill="#FFAE1A"/>
</svg>
