<svg width="17" height="20" viewBox="0 0 17 20" fill="none" xmlns="http://www.w3.org/2000/svg">
<path d="M8.46991 9.63409C7.14636 9.63409 6.00043 9.15939 5.06384 8.22281C4.12756 7.28638 3.65271 6.14059 3.65271 4.81689C3.65271 3.49365 4.12741 2.34772 5.064 1.41098C6.00058 0.474701 7.14651 0 8.46991 0C9.79361 0 10.9394 0.474701 11.8758 1.41113C12.8123 2.34756 13.2871 3.4935 13.2871 4.81689C13.2871 6.14059 12.8123 7.28653 11.8758 8.22296C10.9391 9.15924 9.79315 9.63409 8.46991 9.63409ZM11.047 2.23984C10.3284 1.5213 9.48553 1.17203 8.46991 1.17203C7.45444 1.17203 6.61139 1.5213 5.8927 2.23984C5.17416 2.95853 4.82474 3.80157 4.82474 4.81689C4.82474 5.83252 5.17416 6.67542 5.8927 7.3941C6.61139 8.11279 7.45444 8.46207 8.46991 8.46207C9.48523 8.46207 10.3281 8.11264 11.047 7.3941C11.7657 6.67557 12.1151 5.83252 12.1151 4.81689C12.1151 3.80157 11.7657 2.95853 11.047 2.23984Z" fill="#FFAE1A"/>
<path d="M0.0418396 15.3784C0.0688477 14.9887 0.123474 14.5636 0.203888 14.1147C0.285065 13.6624 0.389587 13.2348 0.514709 12.8441C0.644104 12.4402 0.819733 12.0413 1.03717 11.6591C1.26254 11.2623 1.52744 10.9169 1.82468 10.6326C2.1355 10.3352 2.51605 10.0961 2.95612 9.92169C3.39465 9.7482 3.88065 9.66031 4.40051 9.66031C4.60468 9.66031 4.80212 9.74408 5.18344 9.99234C5.41812 10.1454 5.69263 10.3224 5.99902 10.5182C6.26102 10.6851 6.61594 10.8415 7.05432 10.9831C7.48203 11.1215 7.91629 11.1917 8.34506 11.1917C8.77353 11.1917 9.20779 11.1215 9.6358 10.9831C10.0737 10.8416 10.4288 10.6852 10.6903 10.5183C10.9938 10.3244 11.2685 10.1474 11.5067 9.99219C11.8877 9.74393 12.0851 9.66016 12.2893 9.66016C12.8093 9.66016 13.2952 9.7482 13.7336 9.92184C14.1733 10.0959 14.554 10.3351 14.8651 10.6328C15.1624 10.9172 15.4273 11.2625 15.6525 11.6591C15.8696 12.0413 16.0454 12.44 16.1748 12.8442C16.2998 13.235 16.4043 13.6624 16.4855 14.1147C16.566 14.563 16.6205 14.9882 16.6475 15.3788C16.6741 15.7608 16.6875 16.1583 16.6875 16.5599C16.6875 17.6039 16.3556 18.4491 15.7012 19.0724C15.0548 19.6875 14.1997 19.9994 13.1595 19.9994H3.52939C2.4895 19.9994 1.6344 19.6875 0.987885 19.0724C0.333282 18.4495 0.00140381 17.604 0.00140381 16.5597C0.0015564 16.1567 0.0151367 15.7592 0.0418396 15.3784ZM1.79599 18.2232C2.22308 18.6297 2.7901 18.8273 3.52954 18.8273H13.1595C13.8991 18.8273 14.4661 18.6297 14.8931 18.2234C15.3119 17.8247 15.5155 17.2804 15.5155 16.5599C15.5155 16.1851 15.5031 15.8151 15.4784 15.4599C15.4543 15.1114 15.405 14.7285 15.3319 14.3217C15.2597 13.92 15.1679 13.5429 15.0586 13.2016C14.9538 12.8743 14.8108 12.5502 14.6335 12.238C14.4643 11.9404 14.2696 11.6852 14.0547 11.4795C13.8538 11.287 13.6005 11.1296 13.302 11.0115C13.026 10.9022 12.7158 10.8424 12.379 10.8334C12.338 10.8552 12.2649 10.8969 12.1465 10.9741C11.9055 11.1311 11.6278 11.3102 11.3208 11.5063C10.9748 11.727 10.5289 11.9262 9.99622 12.0982C9.45163 12.2743 8.89621 12.3637 8.34491 12.3637C7.79361 12.3637 7.23804 12.2743 6.69376 12.0984C6.16061 11.9261 5.7149 11.727 5.36838 11.506C5.0542 11.3052 4.78427 11.1313 4.54333 10.9741C4.42493 10.897 4.35184 10.8552 4.31079 10.8334C3.97388 10.8424 3.66367 10.9022 3.38748 11.0115C3.08917 11.1296 2.83588 11.2872 2.63492 11.4795C2.42007 11.685 2.22537 11.9403 2.05615 12.2381C1.87869 12.5502 1.73557 12.8744 1.63089 13.2014C1.52148 13.5432 1.42947 13.9201 1.35745 14.3216C1.28452 14.7291 1.23508 15.1121 1.21097 15.46V15.4603C1.1861 15.8142 1.17358 16.1841 1.17343 16.5599C1.17358 17.2805 1.37714 17.8247 1.79599 18.2232Z" fill="#FFAE1A"/>
</svg>
