<svg width="14" height="14" viewBox="0 0 14 14" fill="none" xmlns="http://www.w3.org/2000/svg">
<path d="M3.13074 4.375H0V14H3.13074V4.375Z" fill="#FFAE1A"/>
<path d="M11.6585 4.48787C11.6252 4.47737 11.5937 4.466 11.5587 4.45637C11.5167 4.44675 11.4747 4.43887 11.4319 4.43187C11.2656 4.39862 11.0836 4.375 10.8701 4.375C9.04486 4.375 7.88724 5.70237 7.50574 6.21512V4.375H4.375V14H7.50574V8.74999C7.50574 8.74999 9.87174 5.45475 10.8701 7.87499C10.8701 10.0354 10.8701 14 10.8701 14H14V7.50487C14 6.05062 13.0034 4.83875 11.6585 4.48787Z" fill="#FFAE1A"/>
<path d="M1.53125 3.06249C2.37693 3.06249 3.06249 2.37693 3.06249 1.53125C3.06249 0.685562 2.37693 0 1.53125 0C0.685562 0 0 0.685562 0 1.53125C0 2.37693 0.685562 3.06249 1.53125 3.06249Z" fill="#FFAE1A"/>
</svg>
