<svg width="27" height="19" viewBox="0 0 27 19" fill="none" xmlns="http://www.w3.org/2000/svg">
<path d="M7.88516 6.57069C7.88516 7.29613 7.2964 7.88489 6.57097 7.88489H1.31419C0.588759 7.88489 0 7.29613 0 6.57069V1.31392C0 0.588484 0.588759 -0.000274658 1.31419 -0.000274658H6.57097C7.2964 -0.000274658 7.88516 0.588484 7.88516 1.31392V6.57069ZM11.8277 2.62811H24.9697C25.6951 2.62811 26.2839 3.21687 26.2839 3.94231C26.2839 4.66774 25.6951 5.2565 24.9697 5.2565H11.8277C11.1023 5.2565 10.5135 4.66774 10.5135 3.94231C10.5135 3.21687 11.1023 2.62811 11.8277 2.62811ZM2.62839 5.2565V2.62811H5.25677V5.2565H2.62839ZM7.88516 17.0842C7.88516 17.8097 7.2964 18.3984 6.57097 18.3984H1.31419C0.588759 18.3984 0 17.8097 0 17.0842V11.8275C0 11.102 0.588759 10.5133 1.31419 10.5133H6.57097C7.2964 10.5133 7.88516 11.102 7.88516 11.8275V17.0842ZM2.62839 15.7701V13.1417H5.25677V15.7701H2.62839ZM11.8277 13.1417H24.9697C25.6951 13.1417 26.2839 13.7304 26.2839 14.4559C26.2839 15.1813 25.6951 15.7701 24.9697 15.7701H11.8277C11.1023 15.7701 10.5135 15.1813 10.5135 14.4559C10.5135 13.7304 11.1023 13.1417 11.8277 13.1417Z" fill="#7E50A7"/>
</svg>
