<svg width="27" height="19" viewBox="0 0 27 19" fill="none" xmlns="http://www.w3.org/2000/svg">
<path d="M7.88516 7.17226C7.88516 7.89769 7.2964 8.48645 6.57097 8.48645H1.31419C0.588759 8.48645 0 7.89769 0 7.17226V1.91548C0 1.19005 0.588759 0.601288 1.31419 0.601288H6.57097C7.2964 0.601288 7.88516 1.19005 7.88516 1.91548V7.17226ZM11.8277 3.22968H24.9697C25.6951 3.22968 26.2839 3.81843 26.2839 4.54387C26.2839 5.2693 25.6951 5.85806 24.9697 5.85806H11.8277C11.1023 5.85806 10.5135 5.2693 10.5135 4.54387C10.5135 3.81843 11.1023 3.22968 11.8277 3.22968ZM2.62839 5.85806V3.22968H5.25677V5.85806H2.62839ZM7.88516 17.6858C7.88516 18.4112 7.2964 19 6.57097 19H1.31419C0.588759 19 0 18.4112 0 17.6858V12.429C0 11.7036 0.588759 11.1148 1.31419 11.1148H6.57097C7.2964 11.1148 7.88516 11.7036 7.88516 12.429V17.6858ZM2.62839 16.3716V13.7432H5.25677V16.3716H2.62839ZM11.8277 13.7432H24.9697C25.6951 13.7432 26.2839 14.332 26.2839 15.0574C26.2839 15.7829 25.6951 16.3716 24.9697 16.3716H11.8277C11.1023 16.3716 10.5135 15.7829 10.5135 15.0574C10.5135 14.332 11.1023 13.7432 11.8277 13.7432Z" fill="#7E50A7"/>
</svg>
