<svg width="18" height="18" viewBox="0 0 18 18" fill="none" xmlns="http://www.w3.org/2000/svg">
<path d="M8.65736 5.94707e-05C8.5434 0.00118098 8.43077 0.0248435 8.32593 0.0697338C8.22109 0.114624 8.12609 0.179854 8.04637 0.261663C7.96665 0.343472 7.90377 0.440314 7.86134 0.546558C7.8189 0.652802 7.79774 0.766369 7.79907 0.880835V7.84717C7.79914 8.07824 7.89057 8.29987 8.05327 8.46324C8.21597 8.62661 8.43661 8.71835 8.66667 8.71835C8.89673 8.71835 9.11737 8.62661 9.28007 8.46324C9.44277 8.29987 9.53421 8.07824 9.53427 7.84717V0.880835C9.53562 0.764793 9.51386 0.649633 9.47027 0.54216C9.42668 0.434687 9.36214 0.337025 9.28044 0.254965C9.19874 0.172906 9.10153 0.108119 8.99453 0.0643358C8.88753 0.020553 8.77289 -0.00129666 8.65736 5.94707e-05V5.94707e-05ZM13.714 1.74632C13.6858 1.7455 13.6575 1.74606 13.6293 1.74802C13.458 1.76263 13.2948 1.82813 13.1606 1.93615C13.0264 2.04416 12.9272 2.1898 12.8757 2.35459C12.8241 2.51939 12.8225 2.69591 12.8711 2.8616C12.9197 3.0273 13.0163 3.17473 13.1486 3.28515C14.65 4.56577 15.5998 6.47185 15.5998 8.61228C15.5998 12.4771 12.5101 15.5922 8.6709 15.5922C4.83172 15.5922 1.73519 12.4771 1.73519 8.61228C1.7352 6.48423 2.67299 4.5911 4.15939 3.31064C4.24599 3.2364 4.31718 3.14571 4.36889 3.04384C4.42061 2.94196 4.45184 2.83086 4.46081 2.71686C4.46977 2.60286 4.45629 2.48825 4.42114 2.37948C4.38598 2.27071 4.32984 2.16997 4.25592 2.08299C4.182 1.99602 4.09175 1.92451 3.99032 1.87257C3.88888 1.82063 3.77826 1.7892 3.66476 1.7802C3.55126 1.7712 3.4371 1.78477 3.32881 1.82009C3.22053 1.8554 3.12022 1.91178 3.03363 1.98603C1.17814 3.58445 8.15624e-06 5.96698 0 8.61228C-7.7959e-06 13.4166 3.89331 17.3334 8.6709 17.3334C13.4485 17.3334 17.3334 13.4166 17.3333 8.61228C17.3333 5.95155 16.1436 3.55922 14.2692 1.96054C14.1151 1.82558 13.9184 1.74971 13.714 1.74632H13.714Z" fill="#FFAE1A"/>
</svg>
