<svg width="148" height="26" viewBox="0 0 148 26" fill="none" xmlns="http://www.w3.org/2000/svg">
<path d="M13.328 7.576C13.328 8.552 13.104 9.448 12.656 10.264C12.208 11.064 11.52 11.712 10.592 12.208C9.664 12.704 8.512 12.952 7.136 12.952H4.592V19H0.488V2.152H7.136C8.48 2.152 9.616 2.384 10.544 2.848C11.472 3.312 12.168 3.952 12.632 4.768C13.096 5.584 13.328 6.52 13.328 7.576ZM6.824 9.688C7.608 9.688 8.192 9.504 8.576 9.136C8.96 8.768 9.152 8.248 9.152 7.576C9.152 6.904 8.96 6.384 8.576 6.016C8.192 5.648 7.608 5.464 6.824 5.464H4.592V9.688H6.824ZM28.6886 5.608V19H24.5846V17.176C24.1686 17.768 23.6006 18.248 22.8806 18.616C22.1766 18.968 21.3926 19.144 20.5286 19.144C19.5046 19.144 18.6006 18.92 17.8166 18.472C17.0326 18.008 16.4246 17.344 15.9926 16.48C15.5606 15.616 15.3446 14.6 15.3446 13.432V5.608H19.4246V12.88C19.4246 13.776 19.6566 14.472 20.1206 14.968C20.5846 15.464 21.2086 15.712 21.9926 15.712C22.7926 15.712 23.4246 15.464 23.8886 14.968C24.3526 14.472 24.5846 13.776 24.5846 12.88V5.608H28.6886ZM35.7404 7.84C36.2204 7.104 36.8204 6.528 37.5404 6.112C38.2604 5.68 39.0604 5.464 39.9404 5.464V9.808H38.8124C37.7884 9.808 37.0204 10.032 36.5084 10.48C35.9964 10.912 35.7404 11.68 35.7404 12.784V19H31.6364V5.608H35.7404V7.84ZM46.0061 7.504C46.4061 6.88 46.9581 6.376 47.6621 5.992C48.3661 5.608 49.1901 5.416 50.1341 5.416C51.2381 5.416 52.2381 5.696 53.1341 6.256C54.0301 6.816 54.7341 7.616 55.2461 8.656C55.7741 9.696 56.0381 10.904 56.0381 12.28C56.0381 13.656 55.7741 14.872 55.2461 15.928C54.7341 16.968 54.0301 17.776 53.1341 18.352C52.2381 18.912 51.2381 19.192 50.1341 19.192C49.2061 19.192 48.3821 19 47.6621 18.616C46.9581 18.232 46.4061 17.736 46.0061 17.128V25.384H41.9021V5.608H46.0061V7.504ZM51.8621 12.28C51.8621 11.256 51.5741 10.456 50.9981 9.88C50.4381 9.288 49.7421 8.992 48.9101 8.992C48.0941 8.992 47.3981 9.288 46.8221 9.88C46.2621 10.472 45.9821 11.28 45.9821 12.304C45.9821 13.328 46.2621 14.136 46.8221 14.728C47.3981 15.32 48.0941 15.616 48.9101 15.616C49.7261 15.616 50.4221 15.32 50.9981 14.728C51.5741 14.12 51.8621 13.304 51.8621 12.28ZM62.2951 1.24V19H58.1911V1.24H62.2951ZM77.8932 12.088C77.8932 12.472 77.8693 12.872 77.8213 13.288H68.5333C68.5973 14.12 68.8613 14.76 69.3253 15.208C69.8053 15.64 70.3893 15.856 71.0773 15.856C72.1013 15.856 72.8133 15.424 73.2133 14.56H77.5813C77.3573 15.44 76.9493 16.232 76.3573 16.936C75.7813 17.64 75.0533 18.192 74.1733 18.592C73.2933 18.992 72.3093 19.192 71.2213 19.192C69.9093 19.192 68.7413 18.912 67.7173 18.352C66.6933 17.792 65.8933 16.992 65.3173 15.952C64.7413 14.912 64.4533 13.696 64.4533 12.304C64.4533 10.912 64.7333 9.696 65.2933 8.656C65.8693 7.616 66.6693 6.816 67.6933 6.256C68.7173 5.696 69.8933 5.416 71.2213 5.416C72.5173 5.416 73.6693 5.688 74.6773 6.232C75.6853 6.776 76.4693 7.552 77.0293 8.56C77.6053 9.568 77.8932 10.744 77.8932 12.088ZM73.6933 11.008C73.6933 10.304 73.4533 9.744 72.9733 9.328C72.4933 8.912 71.8933 8.704 71.1733 8.704C70.4853 8.704 69.9013 8.904 69.4213 9.304C68.9573 9.704 68.6693 10.272 68.5573 11.008H73.6933ZM90.6643 19.168C89.5603 19.168 88.5843 18.976 87.7363 18.592C86.9043 18.208 86.2483 17.672 85.7683 16.984C85.2883 16.296 85.0323 15.528 85.0003 14.68H86.7763C86.8563 15.496 87.2163 16.216 87.8563 16.84C88.4963 17.448 89.4323 17.752 90.6643 17.752C91.8003 17.752 92.6963 17.464 93.3523 16.888C94.0243 16.296 94.3603 15.552 94.3603 14.656C94.3603 13.936 94.1763 13.36 93.8083 12.928C93.4403 12.48 92.9843 12.152 92.4403 11.944C91.8963 11.72 91.1443 11.48 90.1843 11.224C89.0643 10.92 88.1763 10.624 87.5203 10.336C86.8643 10.048 86.3043 9.6 85.8403 8.992C85.3763 8.384 85.1443 7.56 85.1443 6.52C85.1443 5.656 85.3683 4.888 85.8163 4.216C86.2643 3.528 86.8963 2.992 87.7123 2.608C88.5283 2.224 89.4643 2.032 90.5203 2.032C92.0723 2.032 93.3203 2.416 94.2643 3.184C95.2243 3.936 95.7763 4.912 95.9203 6.112H94.0963C93.9843 5.424 93.6083 4.816 92.9683 4.288C92.3283 3.744 91.4643 3.472 90.3763 3.472C89.3683 3.472 88.5283 3.744 87.8563 4.288C87.1843 4.816 86.8483 5.544 86.8483 6.472C86.8483 7.176 87.0323 7.744 87.4003 8.176C87.7683 8.608 88.2243 8.936 88.7683 9.16C89.3283 9.384 90.0803 9.624 91.0243 9.88C92.1123 10.184 92.9923 10.488 93.6643 10.792C94.3363 11.08 94.9043 11.528 95.3683 12.136C95.8323 12.744 96.0643 13.56 96.0643 14.584C96.0643 15.368 95.8563 16.112 95.4403 16.816C95.0243 17.52 94.4083 18.088 93.5923 18.52C92.7763 18.952 91.8003 19.168 90.6643 19.168ZM101.495 7.312V15.448C101.495 16.248 101.647 16.8 101.951 17.104C102.255 17.408 102.791 17.56 103.559 17.56H105.095V19H103.295C102.111 19 101.231 18.728 100.655 18.184C100.079 17.624 99.7906 16.712 99.7906 15.448V7.312H97.9666V5.896H99.7906V2.608H101.495V5.896H105.095V7.312H101.495ZM107.097 12.424C107.097 11.08 107.361 9.904 107.889 8.896C108.433 7.872 109.177 7.088 110.121 6.544C111.081 5.984 112.161 5.704 113.361 5.704C114.609 5.704 115.681 5.992 116.577 6.568C117.489 7.144 118.145 7.88 118.545 8.776V5.896H120.225V19H118.545V16.096C118.129 16.992 117.465 17.736 116.553 18.328C115.657 18.904 114.585 19.192 113.337 19.192C112.153 19.192 111.081 18.912 110.121 18.352C109.177 17.792 108.433 17 107.889 15.976C107.361 14.952 107.097 13.768 107.097 12.424ZM118.545 12.448C118.545 11.392 118.329 10.464 117.897 9.664C117.465 8.864 116.873 8.248 116.121 7.816C115.385 7.384 114.569 7.168 113.673 7.168C112.745 7.168 111.913 7.376 111.177 7.792C110.441 8.208 109.857 8.816 109.425 9.616C109.009 10.4 108.801 11.336 108.801 12.424C108.801 13.496 109.009 14.44 109.425 15.256C109.857 16.056 110.441 16.672 111.177 17.104C111.913 17.52 112.745 17.728 113.673 17.728C114.569 17.728 115.385 17.512 116.121 17.08C116.873 16.648 117.465 16.032 117.897 15.232C118.329 14.432 118.545 13.504 118.545 12.448ZM124.901 3.424C124.565 3.424 124.277 3.304 124.037 3.064C123.797 2.824 123.677 2.528 123.677 2.176C123.677 1.824 123.797 1.536 124.037 1.312C124.277 1.072 124.565 0.951999 124.901 0.951999C125.237 0.951999 125.525 1.072 125.765 1.312C126.005 1.536 126.125 1.824 126.125 2.176C126.125 2.528 126.005 2.824 125.765 3.064C125.525 3.304 125.237 3.424 124.901 3.424ZM125.741 5.896V19H124.061V5.896H125.741ZM131.225 8.224C131.593 7.408 132.153 6.776 132.905 6.328C133.673 5.88 134.609 5.656 135.713 5.656V7.408H135.257C134.041 7.408 133.065 7.736 132.329 8.392C131.593 9.048 131.225 10.144 131.225 11.68V19H129.545V5.896H131.225V8.224ZM142.752 19.192C141.248 19.192 140.016 18.848 139.056 18.16C138.112 17.456 137.584 16.504 137.472 15.304H139.2C139.28 16.04 139.624 16.64 140.232 17.104C140.856 17.552 141.688 17.776 142.728 17.776C143.64 17.776 144.352 17.56 144.864 17.128C145.392 16.696 145.656 16.16 145.656 15.52C145.656 15.072 145.512 14.704 145.224 14.416C144.936 14.128 144.568 13.904 144.12 13.744C143.688 13.568 143.096 13.384 142.344 13.192C141.368 12.936 140.576 12.68 139.968 12.424C139.36 12.168 138.84 11.792 138.408 11.296C137.992 10.784 137.784 10.104 137.784 9.256C137.784 8.616 137.976 8.024 138.36 7.48C138.744 6.936 139.288 6.504 139.992 6.184C140.696 5.864 141.496 5.704 142.392 5.704C143.8 5.704 144.936 6.064 145.8 6.784C146.664 7.488 147.128 8.464 147.192 9.712H145.512C145.464 8.944 145.16 8.328 144.6 7.864C144.056 7.384 143.304 7.144 142.344 7.144C141.496 7.144 140.808 7.344 140.28 7.744C139.752 8.144 139.488 8.64 139.488 9.232C139.488 9.744 139.64 10.168 139.944 10.504C140.264 10.824 140.656 11.08 141.12 11.272C141.584 11.448 142.208 11.648 142.992 11.872C143.936 12.128 144.688 12.376 145.248 12.616C145.808 12.856 146.288 13.208 146.688 13.672C147.088 14.136 147.296 14.752 147.312 15.52C147.312 16.224 147.12 16.856 146.736 17.416C146.352 17.96 145.816 18.392 145.128 18.712C144.44 19.032 143.648 19.192 142.752 19.192Z" fill="#FBFAFF"/>
</svg>
