<svg width="65" height="40" viewBox="0 0 65 40" fill="none" xmlns="http://www.w3.org/2000/svg">
<path d="M3.66 7.24V3.72H5.52C6.88 3.72 7.46 4.4 7.46 5.48C7.46 6.56 6.88 7.24 5.52 7.24H3.66ZM10.94 5.48C10.94 2.9 9.22 0.96 5.78 0.96H0.24V15H3.66V9.96H5.78C9.36 9.96 10.94 7.8 10.94 5.48ZM23.7405 3.84H20.3205V9.9C20.3205 11.42 19.4805 12.26 18.1605 12.26C16.8805 12.26 16.0205 11.42 16.0205 9.9V3.84H12.6205V10.36C12.6205 13.34 14.3605 15.12 16.9405 15.12C18.4405 15.12 19.6405 14.44 20.3205 13.48V15H23.7405V3.84ZM29.617 9.82C29.617 7.9 30.557 7.34 32.177 7.34H33.117V3.72C31.617 3.72 30.397 4.52 29.617 5.7V3.84H26.197V15H29.617V9.82ZM38.1717 5.42V3.84H34.7517V20.32H38.1717V13.44C38.7917 14.38 39.9717 15.16 41.6117 15.16C44.3517 15.16 46.5317 12.92 46.5317 9.4C46.5317 5.88 44.3517 3.68 41.6117 3.68C39.9717 3.68 38.7917 4.44 38.1717 5.42ZM43.0517 9.4C43.0517 11.18 41.8917 12.18 40.5917 12.18C39.3117 12.18 38.1517 11.2 38.1517 9.42C38.1517 7.64 39.3117 6.66 40.5917 6.66C41.8917 6.66 43.0517 7.62 43.0517 9.4ZM48.3259 15H51.7459V0.2H48.3259V15ZM59.1444 6.42C60.2844 6.42 61.2444 7.12 61.2444 8.34H56.9644C57.1644 7.1 58.0244 6.42 59.1444 6.42ZM64.4844 11.3H60.8444C60.5644 11.9 60.0244 12.38 59.0644 12.38C57.9644 12.38 57.0644 11.7 56.9444 10.24H64.6844C64.7244 9.9 64.7444 9.56 64.7444 9.24C64.7444 5.84 62.4444 3.68 59.1844 3.68C55.8644 3.68 53.5444 5.88 53.5444 9.42C53.5444 12.96 55.9044 15.16 59.1844 15.16C61.9644 15.16 63.9444 13.48 64.4844 11.3ZM9.34 35.32C9.34 30.12 1.66 32.6 1.66 28.56C1.66 26.94 3.02 26.04 4.66 26.06C6.6 26.08 7.54 27.28 7.7 28.26H9.22C8.98 26.34 7.38 24.86 4.72 24.86C2.02 24.86 0.24 26.44 0.24 28.6C0.24 33.86 7.92 31.26 7.92 35.38C7.92 36.82 6.78 37.96 4.84 37.96C2.58 37.96 1.72 36.56 1.6 35.4H0.12C0.2 37.54 2.04 39.14 4.84 39.14C7.8 39.14 9.34 37.22 9.34 35.32ZM12.4453 36.04C12.4453 38.22 13.4653 39 15.3653 39H16.8653V37.8H15.5853C14.3253 37.8 13.8653 37.38 13.8653 36.04V29.26H16.8653V28.08H13.8653V25.34H12.4453V28.08H10.9253V29.26H12.4453V36.04ZM18.5342 33.52C18.5342 36.94 20.7542 39.16 23.7342 39.16C25.9142 39.16 27.4342 37.98 28.0742 36.58V39H29.4742V28.08H28.0742V30.48C27.4542 29.1 25.9542 27.92 23.7542 27.92C20.7542 27.92 18.5342 30.1 18.5342 33.52ZM28.0742 33.54C28.0742 36.26 26.2542 37.94 24.0142 37.94C21.7142 37.94 19.9542 36.28 19.9542 33.52C19.9542 30.74 21.7142 29.14 24.0142 29.14C26.2542 29.14 28.0742 30.82 28.0742 33.54ZM32.6703 39H34.0703V28.08H32.6703V39ZM33.3703 26.02C33.9303 26.02 34.3903 25.58 34.3903 24.98C34.3903 24.38 33.9303 23.96 33.3703 23.96C32.8103 23.96 32.3503 24.38 32.3503 24.98C32.3503 25.58 32.8103 26.02 33.3703 26.02ZM38.6406 32.9C38.6406 30.16 40.1806 29.34 42.0006 29.34H42.3806V27.88C40.5006 27.88 39.2406 28.68 38.6406 30.02V28.08H37.2406V39H38.6406V32.9ZM52.0467 36.1C51.9867 32.24 45.5267 33.82 45.5267 30.86C45.5267 29.9 46.4467 29.12 47.9067 29.12C49.5667 29.12 50.4667 30.04 50.5467 31.26H51.9467C51.8267 29.16 50.2867 27.92 47.9467 27.92C45.6467 27.92 44.1067 29.26 44.1067 30.88C44.1067 34.98 50.6667 33.4 50.6667 36.1C50.6667 37.14 49.7867 37.98 48.2267 37.98C46.4467 37.98 45.4067 37.12 45.2867 35.92H43.8467C44.0267 37.92 45.7667 39.16 48.2467 39.16C50.5067 39.16 52.0467 37.86 52.0467 36.1Z" fill="#FBFAFF"/>
</svg>
