<svg width="18" height="24" viewBox="0 0 18 24" fill="none" xmlns="http://www.w3.org/2000/svg">
<path d="M9.72556 1.0665C8.80999 1.20803 7.70422 1.56188 6.88595 1.97323L6.46133 2.18554L6.05883 2.044C5.67403 1.9113 5.62537 1.90688 4.97076 1.90246C4.2321 1.90246 4.03749 1.94227 3.48018 2.19438C2.31249 2.7163 1.29961 4.02111 0.61403 5.8788C-0.173277 8.01072 -0.204239 10.3859 0.525568 12.3365C0.662684 12.6992 0.680376 12.8009 0.680376 13.1503C0.680376 13.8138 0.852876 14.4905 1.16249 15.0346C1.27749 15.2336 1.29518 15.3221 1.32172 15.7688C1.49422 18.6173 3.04672 21.0101 5.51922 22.2265C8.57114 23.7215 12.229 23.0049 14.4936 20.4617C14.8563 20.0592 15.3517 19.3338 15.5817 18.8694C16.0461 17.9449 16.3779 16.6667 16.3823 15.7998C16.3823 15.5742 16.4 15.5167 16.5415 15.3353C16.745 15.0699 16.9706 14.5967 17.0944 14.1765C17.1829 13.8934 17.1961 13.7342 17.2006 13.0486C17.2094 12.3276 17.2183 12.2171 17.3244 11.8765C17.7181 10.585 17.8552 9.06341 17.6871 7.7763C17.435 5.87438 16.5858 4.14496 15.2367 2.80919C14.2725 1.85381 13.2154 1.2965 11.9681 1.07977C11.3665 0.978035 10.3315 0.973612 9.72556 1.0665ZM12.0123 1.66361C13.5692 1.97765 14.8386 2.89765 15.8692 4.46342C16.7627 5.81688 17.1829 7.24553 17.1873 8.93514C17.1917 9.73572 17.1475 10.1648 16.9971 10.8946L16.8998 11.3546L16.7184 11.0051C16.6167 10.8149 16.5017 10.6115 16.4619 10.5496C16.3911 10.4523 16.3823 10.3196 16.3823 9.36861V8.2938L16.5813 8.10361C16.7184 7.97091 16.5813 8.00337 16.5813 7.92375C16.5813 7.78222 16.5106 7.65776 16.3823 7.65776C16.1346 7.78752 16.2584 7.63918 16.0594 7.81168C15.595 8.21418 15.0775 8.55476 14.5998 8.78034L14.2194 8.96168L13.6533 8.91303C12.5652 8.82899 11.1675 8.77591 9.35845 8.75822L7.53172 8.7361L7.30172 8.62111C6.89037 8.41322 6.32422 8.01515 6.02787 7.7188C5.41749 7.10841 5.30665 7.0329 5.16953 6.16598C5.11203 5.80328 4.61665 5.82982 4.61665 6.19251C4.61665 6.30751 4.43999 5.94957 4.55941 6.46707L4.58153 6.5688H3.69249C2.90961 6.5688 2.77249 6.57765 2.5248 6.66168C2.01172 6.82976 1.61807 7.21899 1.41903 7.74976C1.33057 7.98861 1.32172 8.11245 1.29961 9.42168L1.27749 10.8371L1.07845 11.2351L0.883837 11.6332L0.826337 11.4342C0.55653 10.5363 0.485761 8.91303 0.67153 7.85149C0.95903 6.17515 1.67999 4.54303 2.56461 3.56553C3.32095 2.734 4.33384 2.31823 5.29364 2.45092C5.6696 2.504 6.14729 2.64996 6.25787 2.74726C6.29326 2.78265 6.3596 2.80919 6.40383 2.80919C6.44364 2.80919 6.74883 2.67207 7.08499 2.50842C8.81883 1.65034 10.5217 1.35842 12.0123 1.66361ZM5.0548 7.42245C5.32018 7.82053 5.78018 8.29822 6.15614 8.57245L6.43479 8.77591L6.28883 8.79803C6.20922 8.8113 5.82441 8.83341 5.43518 8.84668C4.2321 8.89091 3.74999 8.94841 3.34749 9.08553C2.89634 9.24034 2.44961 9.5013 2.11788 9.80649L1.86576 10.0365L1.88345 9.01918C1.89672 7.92668 1.90114 7.91341 2.17095 7.55514C2.30364 7.3738 2.60441 7.19688 2.85211 7.14822C2.95826 7.12611 3.44922 7.10841 3.94018 7.10399L4.83364 7.09957L5.0548 7.42245ZM15.8515 9.26688C15.8515 9.5588 15.8383 9.79764 15.825 9.79764C15.8117 9.79764 15.7233 9.74014 15.6348 9.66937C15.5463 9.5986 15.3606 9.47476 15.219 9.3863L14.9625 9.23149L15.2854 9.05457C15.4623 8.95726 15.6481 8.84668 15.6967 8.80687C15.7454 8.77149 15.7984 8.7361 15.8206 8.7361C15.8383 8.7361 15.8515 8.97495 15.8515 9.26688ZM5.60326 11.5846C5.83768 11.6465 6.05883 11.7084 6.09422 11.7305C6.1296 11.7482 5.91287 11.7703 5.59883 11.7703C4.73634 11.7792 3.86499 11.9915 3.8296 12.1994C3.80307 12.3453 3.86499 12.5001 3.96672 12.5355C4.03749 12.5621 4.20999 12.5444 4.51076 12.4692C5.05037 12.3365 5.07691 12.3365 5.01499 12.4471C4.94864 12.5753 4.96191 12.9248 5.0371 13.0663C5.19191 13.3759 5.58114 13.5528 5.8996 13.4688C6.33749 13.3494 6.58518 12.8849 6.43037 12.478C6.39056 12.3674 6.39499 12.363 6.50999 12.3896C6.82403 12.4603 7.23979 12.6107 7.25749 12.6638C7.30172 12.7744 7.1646 12.9955 6.93903 13.1636C6.62941 13.398 6.10307 13.6324 5.59441 13.7651C5.04595 13.9067 4.3471 13.8934 3.94018 13.7386C3.20595 13.4555 2.85211 12.8407 3.10864 12.3011C3.44922 11.5978 4.48422 11.3015 5.60326 11.5846ZM13.9629 11.6067C14.2813 11.7305 14.5467 11.934 14.7236 12.1817C14.8386 12.3453 14.8563 12.4073 14.8563 12.6726C14.8563 12.938 14.8386 12.9999 14.7236 13.1636C14.4052 13.6148 13.9496 13.8271 13.2198 13.8536C12.804 13.8713 12.6713 13.858 12.3042 13.7607C11.8354 13.6413 11.2471 13.3803 10.9552 13.168C10.7384 13.0088 10.619 12.8053 10.6411 12.6373C10.6544 12.5311 10.6854 12.5134 10.964 12.4426C11.3931 12.3409 11.4417 12.3409 11.3842 12.4471C11.3179 12.5753 11.3311 12.9248 11.4063 13.0663C11.5611 13.3759 11.9504 13.5528 12.2688 13.4688C12.7067 13.3494 12.9544 12.8849 12.7996 12.478C12.7598 12.3674 12.7642 12.363 12.8792 12.3896C12.9456 12.4028 13.1623 12.4692 13.3613 12.5311C13.7063 12.6373 13.724 12.6417 13.8346 12.5709C13.9584 12.4869 13.985 12.3365 13.9054 12.1861C13.8125 12.0136 13.0384 11.8101 12.2733 11.7615C12.0256 11.7438 11.8309 11.7217 11.8398 11.7128C11.8486 11.704 12.0433 11.6465 12.2733 11.589C12.8173 11.443 13.5604 11.4519 13.9629 11.6067ZM9.72999 14.5348C10.1723 14.6674 10.6765 14.9505 11.4683 15.499C12.2733 16.0607 12.6846 16.2907 13.1756 16.4588C13.4808 16.5605 13.6046 16.5782 14.0602 16.5826C14.6661 16.5871 15.0421 16.4986 15.5331 16.2288C15.6834 16.1492 15.8073 16.0961 15.8073 16.1182C15.8073 16.1403 15.7675 16.3924 15.7188 16.6755C15.4888 18.0113 14.8608 19.2542 13.9054 20.2538C13.3967 20.7846 12.9765 21.1251 12.4236 21.4569C10.0573 22.8678 7.07172 22.7484 4.8071 21.1517C4.31172 20.8023 3.51999 20.0105 3.17057 19.5151C2.66191 18.7898 2.25941 17.8963 2.05595 17.0249C1.96749 16.6446 1.87018 15.9457 1.90999 15.9457C1.91884 15.9457 2.0073 16.0032 2.10903 16.074C2.6398 16.4367 3.13961 16.5871 3.82076 16.5826C4.67883 16.5826 5.1521 16.3836 6.40826 15.5034C7.42999 14.7869 7.89441 14.548 8.50037 14.4419C8.80556 14.3844 9.38499 14.4286 9.72999 14.5348Z" fill="#7E50A7"/>
<path d="M16.1602 8.5V13.1166" stroke="#7E50A7"/>
<path d="M10.3757 17.7817C10.3005 17.8392 10.1324 17.9674 10.0042 18.0692C9.62819 18.3611 9.36281 18.454 8.84089 18.454C8.43396 18.4584 8.37646 18.4451 8.11108 18.3213C7.95185 18.2461 7.69531 18.0824 7.53608 17.9542C7.20877 17.6888 7.05396 17.6667 6.90358 17.8701C6.78416 18.0294 6.82839 18.1753 7.07166 18.4053C7.52281 18.8388 8.058 19.0599 8.70819 19.0909C9.46896 19.1219 10.1103 18.9007 10.5968 18.4363C10.8976 18.1488 10.933 17.9807 10.7428 17.7949C10.6101 17.6578 10.5482 17.6578 10.3757 17.7817Z" fill="#7E50A7"/>
<path d="M15.0064 2.72908C11.1701 -0.467685 7.50435 1.57492 6.35019 2.72908C3.58029 1.34428 1.62301 3.48198 1.15646 5.03716C-0.228537 9.65381 0.964097 13.1163 1.73354 14.2705C1.73354 19.8104 5.19603 21.9649 6.92727 22.3497C13.8522 23.7347 15.9682 17.9278 16.1606 14.8512C17.5071 11.9647 18.4689 5.61433 15.0064 2.72908Z" stroke="#7E50A7"/>
<path d="M4.61719 5.61719C5.19427 6.77135 7.04093 9.19509 9.81092 9.65676C12.5809 10.1184 15.5817 8.69495 16.7359 7.92551" stroke="#7E50A7"/>
<path d="M1.73047 11.3823V9.07395C1.73047 8.30451 2.07672 6.76562 3.46171 6.76562H5.19296" stroke="#7E50A7"/>
</svg>
