<svg width="37" height="47" viewBox="0 0 37 47" fill="none" xmlns="http://www.w3.org/2000/svg">
<path d="M20.2644 0.537956C18.3566 0.83287 16.0526 1.57015 14.3477 2.42724L13.463 2.86961L12.6243 2.57469C11.8225 2.29821 11.7211 2.289 10.3572 2.27978C8.81809 2.27978 8.41259 2.36272 7.25137 2.88804C4.81835 3.97552 2.70788 6.69424 1.2794 10.565C-0.361044 15.0071 -0.425556 19.9561 1.09508 24.0203C1.38078 24.776 1.41764 24.988 1.41764 25.7161C1.41764 27.0985 1.77707 28.5085 2.42219 29.6421C2.6618 30.0568 2.69867 30.2411 2.75396 31.1719C3.11339 37.107 6.3482 42.0929 11.4999 44.6273C17.859 47.7423 25.4806 46.2493 30.1992 40.9501C30.9549 40.1115 31.9871 38.6 32.4663 37.6323C33.434 35.7062 34.1252 33.0428 34.1344 31.2364C34.1344 30.7664 34.1713 30.6466 34.4662 30.2688C34.8902 29.7158 35.3602 28.7297 35.6182 27.8542C35.8025 27.2644 35.8302 26.9326 35.8394 25.5041C35.8578 24.0019 35.8763 23.7715 36.0974 23.0619C36.9177 20.3708 37.2034 17.2005 36.8532 14.5186C36.3278 10.5557 34.5584 6.95229 31.7475 4.16906C29.7384 2.17841 27.5358 1.01719 24.9369 0.565605C23.6835 0.353638 21.527 0.344421 20.2644 0.537956ZM25.029 1.78212C28.2731 2.43645 30.9181 4.35338 33.0654 7.61584C34.927 10.4359 35.8025 13.4127 35.8117 16.9332C35.821 18.6013 35.7288 19.4953 35.4155 21.0159L35.2127 21.9744L34.8349 21.2463C34.6229 20.85 34.3833 20.4261 34.3003 20.2971C34.1529 20.0943 34.1344 19.8178 34.1344 17.8364V15.5969L34.5492 15.2006C34.8349 14.9241 34.9639 14.7214 34.9639 14.5555C34.9639 14.2606 34.669 13.938 34.4017 13.938C34.3003 13.938 33.8764 14.2329 33.4617 14.5924C32.494 15.431 31.4157 16.1406 30.4204 16.6107L29.6278 16.9885L28.4482 16.8871C26.181 16.712 23.2688 16.6014 19.4994 16.5646L15.6932 16.5185L15.214 16.2789C14.3569 15.8457 13.1773 15.0163 12.5598 14.3988C11.288 13.127 10.5968 11.763 10.3111 9.95671C10.1913 9.20099 9.15908 9.25629 9.15908 10.012C9.15908 10.2516 9.25124 10.7124 9.50007 11.7907L9.54615 12.0027H7.69374C6.06251 12.0027 5.77681 12.0211 5.26072 12.1962C4.19166 12.5464 3.37144 13.3574 2.95672 14.4633C2.7724 14.961 2.75396 15.219 2.70788 17.947L2.6618 20.8961L2.24708 21.7255L1.84158 22.555L1.72177 22.1403C1.1596 20.2694 1.01214 16.8871 1.39921 14.6753C1.99825 11.1824 3.50046 7.78173 5.34366 5.745C6.91959 4.01239 9.03006 3.14608 11.0299 3.42257C11.8133 3.53316 12.8086 3.83728 13.039 4.04004C13.1127 4.11377 13.251 4.16906 13.3431 4.16906C13.4261 4.16906 14.062 3.88337 14.7624 3.54237C18.3751 1.75447 21.9232 1.14621 25.029 1.78212ZM10.5323 13.7813C11.0852 14.6108 12.0437 15.6061 12.8271 16.1775L13.4077 16.6014L13.1035 16.6475C12.9376 16.6752 12.1358 16.7212 11.3248 16.7489C8.81809 16.8411 7.81355 16.9609 6.97489 17.2466C6.03486 17.5691 5.10404 18.1129 4.41284 18.7488L3.88753 19.228L3.9244 17.1083C3.95204 14.832 3.96126 14.8043 4.52344 14.0578C4.79992 13.68 5.4266 13.3113 5.9427 13.21C6.16388 13.1639 7.18686 13.127 8.20984 13.1178L10.0715 13.1086L10.5323 13.7813ZM33.0285 17.6244C33.0285 18.2327 33.0009 18.7303 32.9732 18.7303C32.9456 18.7303 32.7613 18.6105 32.5769 18.4631C32.3926 18.3156 32.0055 18.0576 31.7106 17.8732L31.1761 17.5507L31.8489 17.182C32.2175 16.9793 32.6046 16.7489 32.706 16.666C32.8073 16.5922 32.9179 16.5185 32.964 16.5185C33.0009 16.5185 33.0285 17.0162 33.0285 17.6244ZM11.675 22.4536C12.1635 22.5826 12.6243 22.7116 12.698 22.7577C12.7718 22.7946 12.3202 22.8407 11.6658 22.8407C9.86871 22.8591 8.05316 23.3015 7.97943 23.7346C7.92414 24.0388 8.05316 24.3613 8.26513 24.435C8.41259 24.4903 8.77201 24.4535 9.3987 24.2968C10.5231 24.0203 10.5783 24.0203 10.4493 24.2507C10.3111 24.518 10.3387 25.246 10.4954 25.541C10.818 26.1861 11.629 26.5547 12.2925 26.3796C13.2049 26.1308 13.721 25.1631 13.3984 24.3152C13.3155 24.0848 13.3247 24.0756 13.5643 24.1309C14.2187 24.2784 15.085 24.5917 15.1218 24.7023C15.214 24.9327 14.9283 25.3935 14.4583 25.7437C13.8132 26.2322 12.7165 26.7206 11.6566 26.9971C10.5138 27.292 9.05771 27.2644 8.20984 26.9418C6.67998 26.352 5.9427 25.0709 6.47723 23.9466C7.18686 22.4812 9.3434 21.8638 11.675 22.4536ZM29.0933 22.4997C29.7568 22.7577 30.3098 23.1817 30.6784 23.6978C30.9181 24.0388 30.9549 24.1678 30.9549 24.7207C30.9549 25.2737 30.9181 25.4027 30.6784 25.7437C30.0149 26.6837 29.0656 27.1261 27.545 27.1814C26.6787 27.2183 26.4022 27.1906 25.6373 26.9879C24.6604 26.739 23.4347 26.1953 22.8264 25.7529C22.3748 25.4212 22.126 24.9972 22.1721 24.647C22.1997 24.4258 22.2642 24.389 22.8448 24.2415C23.7388 24.0295 23.8402 24.0295 23.7204 24.2507C23.5821 24.518 23.6098 25.246 23.7664 25.541C24.089 26.1861 24.9 26.5547 25.5636 26.3796C26.4759 26.1308 26.992 25.1631 26.6695 24.3152C26.5865 24.0848 26.5958 24.0756 26.8354 24.1309C26.9736 24.1586 27.4252 24.2968 27.8399 24.4258C28.5588 24.647 28.5956 24.6562 28.826 24.5088C29.0841 24.3337 29.1394 24.0203 28.9735 23.707C28.7799 23.3476 27.1671 22.9236 25.5728 22.8222C25.0567 22.7854 24.6512 22.7393 24.6696 22.7209C24.688 22.7024 25.0935 22.5826 25.5728 22.4628C26.7063 22.1587 28.2546 22.1771 29.0933 22.4997ZM20.2736 28.6007C21.1952 28.8771 22.2458 29.467 23.8955 30.6098C25.5728 31.7802 26.4299 32.2594 27.4528 32.6096C28.0887 32.8216 28.3468 32.8585 29.296 32.8677C30.5586 32.8769 31.342 32.6926 32.365 32.1304C32.6783 31.9645 32.9364 31.8539 32.9364 31.9C32.9364 31.9461 32.8534 32.4714 32.752 33.0612C32.2728 35.8444 30.9641 38.4341 28.9735 40.517C27.9136 41.6229 27.0381 42.3325 25.8861 43.0237C20.9556 45.9636 14.7348 45.7148 10.0162 42.3878C8.98398 41.6597 7.33431 40.0101 6.60625 38.9779C5.54641 37.4665 4.70776 35.6048 4.28382 33.7893C4.0995 32.9967 3.89675 31.5406 3.97969 31.5406C3.99812 31.5406 4.18244 31.6604 4.39441 31.8078C5.50033 32.5635 6.54174 32.8769 7.961 32.8677C9.74891 32.8677 10.735 32.453 13.3524 30.619C15.4813 29.126 16.4489 28.6283 17.7115 28.4071C18.3474 28.2873 19.5547 28.3795 20.2736 28.6007Z" fill="#7E50A7"/>
<path d="M21.6203 35.3401C21.4636 35.4599 21.1134 35.7272 20.8461 35.9391C20.0628 36.5474 19.5098 36.7409 18.4223 36.7409C17.5745 36.7501 17.4547 36.7225 16.9017 36.4644C16.5699 36.3078 16.0354 35.9668 15.7036 35.6995C15.0216 35.1466 14.6991 35.1005 14.3857 35.5244C14.1369 35.8562 14.2291 36.1603 14.7359 36.6395C15.676 37.5427 16.7911 38.0035 18.1459 38.068C19.731 38.1325 21.0673 37.6717 22.0811 36.7041C22.7078 36.105 22.7815 35.7548 22.3852 35.3677C22.1087 35.082 21.9797 35.082 21.6203 35.3401Z" fill="#7E50A7"/>
</svg>
