<svg width="159" height="28" viewBox="0 0 159 28" fill="none" xmlns="http://www.w3.org/2000/svg">
<path d="M0.59375 18.9482C0.59375 14.3506 4.32085 10.6235 8.91847 10.6235L9.15976 10.6235L9.15976 18.9482L0.59375 18.9482Z" fill="white"/>
<path d="M9.16016 18.9482C9.16016 23.5459 5.43305 27.273 0.835437 27.273L0.594144 27.273L0.594144 18.9482L9.16016 18.9482Z" fill="#99B3CB"/>
<path d="M17.7266 10.6289C17.7266 6.03129 13.9995 2.30419 9.40184 2.30419L9.16055 2.30419L9.16055 10.6289L17.7266 10.6289Z" fill="white"/>
<path d="M17.7266 10.6289C17.7266 15.2265 13.9995 18.9536 9.40184 18.9536L9.16055 18.9536L9.16055 10.6289L17.7266 10.6289Z" fill="white" fill-opacity="0.6"/>
<path d="M28.8326 7.40256C29.2522 6.81189 29.8274 6.32226 30.5579 5.93367C31.304 5.52953 32.1512 5.32746 33.0993 5.32746C34.203 5.32746 35.1978 5.59947 36.0838 6.14351C36.9853 6.68754 37.6925 7.46473 38.2055 8.47508C38.734 9.46989 38.9982 10.6279 38.9982 11.9491C38.9982 13.2704 38.734 14.4439 38.2055 15.4698C37.6925 16.4802 36.9853 17.2651 36.0838 17.8247C35.1978 18.3843 34.203 18.6641 33.0993 18.6641C32.1512 18.6641 31.3118 18.4698 30.5812 18.0812C29.8662 17.6926 29.2833 17.2029 28.8326 16.6123V24.6096H25.5684V5.5373H28.8326V7.40256ZM35.6641 11.9491C35.6641 11.1719 35.5009 10.5036 35.1744 9.94397C34.8636 9.36885 34.4439 8.93363 33.9154 8.63829C33.4025 8.34296 32.8429 8.19529 32.2367 8.19529C31.646 8.19529 31.0864 8.35073 30.5579 8.66161C30.045 8.95694 29.6253 9.39217 29.2989 9.96729C28.988 10.5424 28.8326 11.2186 28.8326 11.9958C28.8326 12.773 28.988 13.4491 29.2989 14.0242C29.6253 14.5994 30.045 15.0423 30.5579 15.3532C31.0864 15.6486 31.646 15.7962 32.2367 15.7962C32.8429 15.7962 33.4025 15.6408 33.9154 15.3299C34.4439 15.019 34.8636 14.576 35.1744 14.0009C35.5009 13.4258 35.6641 12.7419 35.6641 11.9491Z" fill="white"/>
<path d="M53.0981 5.5373V18.4542H49.8105V16.8221C49.3909 17.3817 48.8391 17.8247 48.1551 18.1511C47.4867 18.462 46.7562 18.6174 45.9634 18.6174C44.9531 18.6174 44.0593 18.4076 43.2821 17.9879C42.5049 17.5527 41.891 16.9232 41.4402 16.0993C41.005 15.26 40.7874 14.2652 40.7874 13.1149V5.5373H44.0516V12.6486C44.0516 13.6745 44.308 14.4672 44.821 15.0268C45.3339 15.5708 46.0334 15.8429 46.9194 15.8429C47.8209 15.8429 48.5282 15.5708 49.0411 15.0268C49.5541 14.4672 49.8105 13.6745 49.8105 12.6486V5.5373H53.0981Z" fill="white"/>
<path d="M59.1166 7.54245C59.5363 6.85852 60.0803 6.32226 60.7487 5.93367C61.4327 5.54507 62.2099 5.35077 63.0803 5.35077V8.77819H62.2176C61.1917 8.77819 60.4145 9.01912 59.886 9.50098C59.3731 9.98283 59.1166 10.8222 59.1166 12.0191V18.4542H55.8524V5.5373H59.1166V7.54245Z" fill="white"/>
<path d="M68.0768 7.40256C68.4965 6.81189 69.0716 6.32226 69.8022 5.93367C70.5483 5.52953 71.3954 5.32746 72.3436 5.32746C73.4472 5.32746 74.442 5.59947 75.328 6.14351C76.2295 6.68754 76.9368 7.46473 77.4497 8.47508C77.9782 9.46989 78.2425 10.6279 78.2425 11.9491C78.2425 13.2704 77.9782 14.4439 77.4497 15.4698C76.9368 16.4802 76.2295 17.2651 75.328 17.8247C74.442 18.3843 73.4472 18.6641 72.3436 18.6641C71.3954 18.6641 70.556 18.4698 69.8255 18.0812C69.1105 17.6926 68.5276 17.2029 68.0768 16.6123V24.6096H64.8126V5.5373H68.0768V7.40256ZM74.9083 11.9491C74.9083 11.1719 74.7451 10.5036 74.4187 9.94397C74.1078 9.36885 73.6881 8.93363 73.1596 8.63829C72.6467 8.34296 72.0871 8.19529 71.4809 8.19529C70.8902 8.19529 70.3307 8.35073 69.8022 8.66161C69.2892 8.95694 68.8695 9.39217 68.5431 9.96729C68.2322 10.5424 68.0768 11.2186 68.0768 11.9958C68.0768 12.773 68.2322 13.4491 68.5431 14.0242C68.8695 14.5994 69.2892 15.0423 69.8022 15.3532C70.3307 15.6486 70.8902 15.7962 71.4809 15.7962C72.0871 15.7962 72.6467 15.6408 73.1596 15.3299C73.6881 15.019 74.1078 14.576 74.4187 14.0009C74.7451 13.4258 74.9083 12.7419 74.9083 11.9491Z" fill="white"/>
<path d="M83.4124 1.20057V18.4542H80.1482V1.20057H83.4124Z" fill="white"/>
<path d="M98.1787 11.716C98.1787 12.1823 98.1476 12.602 98.0854 12.975H88.6426C88.7203 13.9077 89.0467 14.6382 89.6218 15.1667C90.1969 15.6952 90.9042 15.9594 91.7436 15.9594C92.956 15.9594 93.8187 15.4387 94.3316 14.3973H97.8523C97.4792 15.6408 96.7642 16.6667 95.7072 17.475C94.6503 18.2677 93.3523 18.6641 91.8135 18.6641C90.57 18.6641 89.4508 18.392 88.456 17.848C87.4768 17.2884 86.7074 16.5035 86.1478 15.4931C85.6037 14.4828 85.3317 13.317 85.3317 11.9958C85.3317 10.659 85.6037 9.48543 86.1478 8.47508C86.6918 7.46473 87.4535 6.68754 88.4327 6.14351C89.412 5.59947 90.5389 5.32746 91.8135 5.32746C93.0415 5.32746 94.1373 5.5917 95.101 6.12019C96.0803 6.64868 96.8342 7.40256 97.3626 8.38182C97.9067 9.34554 98.1787 10.4569 98.1787 11.716ZM94.7979 10.7833C94.7824 9.94397 94.4793 9.27559 93.8886 8.77819C93.2979 8.26524 92.5751 8.00877 91.7202 8.00877C90.912 8.00877 90.228 8.25747 89.6684 8.75487C89.1244 9.23673 88.7902 9.91289 88.6659 10.7833H94.7979Z" fill="white"/>
<path d="M104.805 18.6641C103.825 18.6641 102.947 18.5009 102.17 18.1744C101.393 17.8325 100.779 17.3662 100.328 16.7755C99.8773 16.1693 99.6286 15.4776 99.582 14.7004H101.774C101.836 15.3377 102.131 15.8584 102.66 16.2625C103.204 16.6667 103.911 16.8688 104.781 16.8688C105.59 16.8688 106.227 16.69 106.693 16.3325C107.16 15.975 107.393 15.5242 107.393 14.9802C107.393 14.4206 107.144 14.0087 106.647 13.7444C106.149 13.4647 105.38 13.1926 104.338 12.9284C103.39 12.6797 102.613 12.431 102.007 12.1823C101.416 11.918 100.903 11.5372 100.468 11.0398C100.048 10.5269 99.8385 9.85848 99.8385 9.03466C99.8385 8.38182 100.033 7.78338 100.421 7.23935C100.81 6.69531 101.362 6.26786 102.077 5.95698C102.792 5.63056 103.608 5.46735 104.525 5.46735C105.939 5.46735 107.082 5.82486 107.952 6.53987C108.823 7.25489 109.289 8.23415 109.351 9.47766H107.23C107.183 8.80927 106.911 8.27301 106.414 7.86887C105.932 7.46473 105.279 7.26266 104.455 7.26266C103.693 7.26266 103.087 7.42587 102.636 7.75229C102.186 8.07871 101.96 8.50617 101.96 9.03466C101.96 9.45434 102.092 9.80408 102.357 10.0839C102.636 10.3481 102.978 10.5657 103.382 10.7367C103.802 10.8921 104.377 11.0709 105.108 11.273C106.025 11.5217 106.771 11.7704 107.346 12.0191C107.921 12.2522 108.411 12.6097 108.815 13.0916C109.235 13.5735 109.452 14.203 109.468 14.9802C109.468 15.6796 109.274 16.3092 108.885 16.8688C108.496 17.4283 107.945 17.8713 107.23 18.1977C106.53 18.5086 105.722 18.6641 104.805 18.6641Z" fill="white"/>
<path d="M114.585 7.42587V14.9569C114.585 15.5786 114.717 16.0216 114.981 16.2859C115.245 16.5346 115.704 16.6589 116.357 16.6589H117.919V18.4542H116.007C114.826 18.4542 113.94 18.1822 113.349 17.6382C112.758 17.0941 112.463 16.2004 112.463 14.9569V7.42587H110.808V5.67719H112.463V2.45962H114.585V5.67719H117.919V7.42587H114.585Z" fill="white"/>
<path d="M119.231 12.0191C119.231 10.7134 119.495 9.57092 120.023 8.59166C120.552 7.59686 121.275 6.82744 122.192 6.2834C123.124 5.73937 124.158 5.46735 125.293 5.46735C126.412 5.46735 127.383 5.70828 128.207 6.19014C129.031 6.672 129.645 7.27821 130.049 8.00877V5.67719H132.194V18.4542H130.049V16.076C129.629 16.8221 129 17.4439 128.161 17.9413C127.337 18.4231 126.373 18.6641 125.269 18.6641C124.135 18.6641 123.109 18.3843 122.192 17.8247C121.275 17.2651 120.552 16.4802 120.023 15.4698C119.495 14.4595 119.231 13.3092 119.231 12.0191ZM130.049 12.0424C130.049 11.0787 129.855 10.2393 129.466 9.52429C129.078 8.80927 128.549 8.26524 127.881 7.89219C127.228 7.50359 126.505 7.30929 125.712 7.30929C124.92 7.30929 124.197 7.49582 123.544 7.86887C122.891 8.24192 122.37 8.78596 121.982 9.50098C121.593 10.216 121.399 11.0554 121.399 12.0191C121.399 12.9983 121.593 13.8532 121.982 14.5838C122.37 15.2988 122.891 15.8506 123.544 16.2392C124.197 16.6123 124.92 16.7988 125.712 16.7988C126.505 16.7988 127.228 16.6123 127.881 16.2392C128.549 15.8506 129.078 15.2988 129.466 14.5838C129.855 13.8532 130.049 13.0061 130.049 12.0424Z" fill="white"/>
<path d="M136.409 3.60209C136.005 3.60209 135.663 3.4622 135.383 3.18241C135.104 2.90262 134.964 2.56065 134.964 2.15651C134.964 1.75237 135.104 1.41041 135.383 1.13062C135.663 0.850832 136.005 0.710938 136.409 0.710938C136.798 0.710938 137.124 0.850832 137.388 1.13062C137.668 1.41041 137.808 1.75237 137.808 2.15651C137.808 2.56065 137.668 2.90262 137.388 3.18241C137.124 3.4622 136.798 3.60209 136.409 3.60209ZM137.435 5.67719V18.4542H135.313V5.67719H137.435Z" fill="white"/>
<path d="M142.707 7.75229C143.08 7.02173 143.608 6.45438 144.292 6.05024C144.992 5.6461 145.839 5.44404 146.834 5.44404V7.63572H146.274C143.896 7.63572 142.707 8.92585 142.707 11.5061V18.4542H140.585V5.67719H142.707V7.75229Z" fill="white"/>
<path d="M153.34 18.6641C152.36 18.6641 151.482 18.5009 150.705 18.1744C149.928 17.8325 149.314 17.3662 148.863 16.7755C148.412 16.1693 148.164 15.4776 148.117 14.7004H150.309C150.371 15.3377 150.666 15.8584 151.195 16.2625C151.739 16.6667 152.446 16.8688 153.316 16.8688C154.125 16.8688 154.762 16.69 155.228 16.3325C155.695 15.975 155.928 15.5242 155.928 14.9802C155.928 14.4206 155.679 14.0087 155.182 13.7444C154.684 13.4647 153.915 13.1926 152.873 12.9284C151.925 12.6797 151.148 12.431 150.542 12.1823C149.951 11.918 149.438 11.5372 149.003 11.0398C148.583 10.5269 148.373 9.85848 148.373 9.03466C148.373 8.38182 148.568 7.78338 148.956 7.23935C149.345 6.69531 149.897 6.26786 150.612 5.95698C151.327 5.63056 152.143 5.46735 153.06 5.46735C154.474 5.46735 155.617 5.82486 156.487 6.53987C157.358 7.25489 157.824 8.23415 157.886 9.47766H155.765C155.718 8.80927 155.446 8.27301 154.949 7.86887C154.467 7.46473 153.814 7.26266 152.99 7.26266C152.228 7.26266 151.622 7.42587 151.171 7.75229C150.721 8.07871 150.495 8.50617 150.495 9.03466C150.495 9.45434 150.627 9.80408 150.892 10.0839C151.171 10.3481 151.513 10.5657 151.917 10.7367C152.337 10.8921 152.912 11.0709 153.643 11.273C154.56 11.5217 155.306 11.7704 155.881 12.0191C156.456 12.2522 156.946 12.6097 157.35 13.0916C157.77 13.5735 157.987 14.203 158.003 14.9802C158.003 15.6796 157.809 16.3092 157.42 16.8688C157.031 17.4283 156.48 17.8713 155.765 18.1977C155.065 18.5086 154.257 18.6641 153.34 18.6641Z" fill="white"/>
</svg>
