<svg width="26" height="29" viewBox="0 0 26 29" fill="none" xmlns="http://www.w3.org/2000/svg">
<path d="M25.0693 20.66L23.3593 18.2C23.1259 17.8656 23.0003 17.4678 22.9993 17.06V10C22.9993 7.34784 21.9458 4.8043 20.0704 2.92893C18.195 1.05357 15.6515 0 12.9993 0C10.3472 0 7.80364 1.05357 5.92828 2.92893C4.05291 4.8043 2.99935 7.34784 2.99935 10V17.06C2.99838 17.4678 2.87277 17.8656 2.63935 18.2L0.929347 20.66C0.670426 20.9469 0.500164 21.3026 0.439149 21.6842C0.378134 22.0658 0.42898 22.4569 0.585539 22.8102C0.742097 23.1636 0.997662 23.464 1.32133 23.6751C1.645 23.8862 2.0229 23.9991 2.40935 24H8.09935C8.32886 25.1303 8.94208 26.1465 9.83509 26.8764C10.7281 27.6063 11.846 28.005 12.9993 28.005C14.1527 28.005 15.2706 27.6063 16.1636 26.8764C17.0566 26.1465 17.6698 25.1303 17.8993 24H23.5893C23.9758 23.9991 24.3537 23.8862 24.6774 23.6751C25.001 23.464 25.2566 23.1636 25.4132 22.8102C25.5697 22.4569 25.6206 22.0658 25.5595 21.6842C25.4985 21.3026 25.3283 20.9469 25.0693 20.66ZM12.9993 26C12.3804 25.9983 11.7771 25.8051 11.2723 25.4471C10.7674 25.089 10.3857 24.5835 10.1793 24H15.8193C15.613 24.5835 15.2313 25.089 14.7264 25.4471C14.2215 25.8051 13.6183 25.9983 12.9993 26ZM2.40935 22C2.45455 21.9581 2.49481 21.9111 2.52935 21.86L4.27935 19.34C4.74619 18.6712 4.99742 17.8756 4.99935 17.06V10C4.99935 7.87827 5.8422 5.84344 7.34249 4.34315C8.84278 2.84285 10.8776 2 12.9993 2C15.1211 2 17.1559 2.84285 18.6562 4.34315C20.1565 5.84344 20.9993 7.87827 20.9993 10V17.06C21.0013 17.8756 21.2525 18.6712 21.7193 19.34L23.4693 21.86C23.5039 21.9111 23.5441 21.9581 23.5893 22H2.40935Z" fill="black"/>
</svg>
