<svg width="14" height="14" viewBox="0 0 14 14" fill="none" xmlns="http://www.w3.org/2000/svg">
<path d="M13.8647 2.93534L11.0647 0.135341C11.0211 0.0920898 10.9693 0.0578713 10.9125 0.0346479C10.8556 0.0114244 10.7947 -0.000347283 10.7333 7.8e-06H1.4C1.0287 7.8e-06 0.672601 0.147507 0.41005 0.410058C0.147499 0.672609 0 1.0287 0 1.40001V12.6C0 12.9713 0.147499 13.3274 0.41005 13.5899C0.672601 13.8525 1.0287 14 1.4 14H12.6C12.9713 14 13.3274 13.8525 13.5899 13.5899C13.8525 13.3274 14 12.9713 14 12.6V3.26667C14.0003 3.20526 13.9886 3.14437 13.9654 3.08752C13.9421 3.03066 13.9079 2.97894 13.8647 2.93534ZM8.86666 0.933341V3.73334H5.13333V0.933341H8.86666ZM3.26666 13.0667V9.8C3.26666 9.67624 3.31583 9.55754 3.40335 9.47002C3.49087 9.3825 3.60956 9.33334 3.73333 9.33334H10.2667C10.3904 9.33334 10.5091 9.3825 10.5966 9.47002C10.6842 9.55754 10.7333 9.67624 10.7333 9.8V13.0667H3.26666ZM13.0667 12.6C13.0667 12.7238 13.0175 12.8425 12.93 12.93C12.8425 13.0175 12.7238 13.0667 12.6 13.0667H11.6667V9.8C11.6667 9.4287 11.5192 9.0726 11.2566 8.81005C10.9941 8.5475 10.638 8.4 10.2667 8.4H3.73333C3.36203 8.4 3.00593 8.5475 2.74338 8.81005C2.48083 9.0726 2.33333 9.4287 2.33333 9.8V13.0667H1.4C1.27623 13.0667 1.15753 13.0175 1.07002 12.93C0.982499 12.8425 0.933333 12.7238 0.933333 12.6V1.40001C0.933333 1.27624 0.982499 1.15754 1.07002 1.07002C1.15753 0.982507 1.27623 0.933341 1.4 0.933341H4.2V3.73334C4.2 3.98087 4.29833 4.21827 4.47336 4.3933C4.6484 4.56834 4.8858 4.66667 5.13333 4.66667H8.86666C9.1142 4.66667 9.35159 4.56834 9.52663 4.3933C9.70166 4.21827 9.79999 3.98087 9.79999 3.73334V0.933341H10.542L13.0667 3.45801V12.6Z" fill="#00407C"/>
</svg>
