<svg width="23" height="27" viewBox="0 0 23 27" fill="none" xmlns="http://www.w3.org/2000/svg">
<path d="M6.52341 7.48095H4.74217C3.99999 7.33251 2.51562 7.57001 2.51562 9.7075V18.6128C2.8125 21.1363 5.00936 26.094 11.4218 25.7378C17.8343 25.3815 19.4374 20.2456 19.4374 17.7222V8.81603" stroke="#00C27C" stroke-width="1.5"/>
<path d="M2.51768 15.4889C-0.502017 10.5024 0.499991 3.50244 4.74318 2.57747C5.18896 2.2806 6.52584 1.86498 8.30709 2.57747C9.79147 1.38891 13.4065 0.250902 17.6587 2.57747C23 5.5 21.6665 11.4811 19.8852 14.5983" stroke="#00C27C" stroke-width="1.5"/>
<path d="M6.07812 6.13281C6.52343 8.80467 13.2031 14.1484 19.8827 8.35936" stroke="#00C27C" stroke-width="1.5"/>
<circle cx="7.89062" cy="13.8906" r="0.890619" fill="#00C27C"/>
<circle cx="14.8906" cy="13.8906" r="0.890619" fill="#00C27C"/>
<path d="M5 14C5.74074 13.2454 7.77778 12.1889 10 14" stroke="#00C27C"/>
<path d="M12 14C12.7407 13.2454 14.7778 12.1889 17 14" stroke="#00C27C"/>
<path d="M8.30469 20.3828C9.04687 21.2734 11.0656 22.5203 13.2031 20.3828" stroke="#00C27C" stroke-width="1.5"/>
</svg>
