<svg width="88" height="88" viewBox="0 0 88 88" fill="none" xmlns="http://www.w3.org/2000/svg">
<g opacity="0.1">
<path fill-rule="evenodd" clip-rule="evenodd" d="M22.9961 75.6278C27.0165 78.3031 31.5816 80.2284 36.4867 81.2193V88H51.5133V81.2193C56.4112 80.2284 60.9764 78.3031 64.9968 75.6278L69.7957 80.4267L80.4195 69.8028L75.6207 65.0039C78.296 60.9767 80.2284 56.4183 81.2122 51.5133H88V43.9964V36.4867H81.2122C80.2284 31.5816 78.296 27.0236 75.6207 22.9961L80.4195 18.1972L69.7957 7.57335L64.9968 12.3722C60.9767 9.69685 56.4112 7.77158 51.5133 6.78068V0H36.4867V6.78068C31.5816 7.77158 27.0165 9.69685 22.9961 12.3722L18.1972 7.57335L7.57335 18.1972L12.3722 22.9961C9.69685 27.0233 7.76448 31.5816 6.78067 36.4867H0V43.9964V51.5133H6.78067C7.76448 56.4183 9.69685 60.9764 12.3722 65.0039L7.57335 69.8028L18.1972 80.4267L22.9961 75.6278ZM43.9964 68.5994C38.32 68.5994 33.0894 66.6742 28.9205 63.4396C23.1307 58.9381 19.4006 51.9026 19.4006 43.9964C19.4006 30.4138 30.4138 19.4006 43.9964 19.4006C57.5862 19.4006 68.5994 30.4138 68.5994 43.9964C68.5994 51.9026 64.8693 58.9381 59.0724 63.4396C54.9106 66.6742 49.68 68.5994 43.9964 68.5994Z" fill="#7E50A7"/>
</g>
<circle cx="44.0418" cy="43.5379" r="27.7489" fill="white"/>
<path fill-rule="evenodd" clip-rule="evenodd" d="M36.4284 56.5017H52.2975C52.577 56.5017 52.804 56.2747 52.804 55.9952C52.804 55.7157 52.577 55.4886 52.2975 55.4886H36.4284C36.1489 55.4886 35.9219 55.7157 35.9219 55.9952C35.9219 56.2747 36.1489 56.5017 36.4284 56.5017ZM51.7881 52.6719H36.9373C36.6578 52.6719 36.4307 52.8989 36.4307 53.1784C36.4307 53.4579 36.6578 53.685 36.9373 53.685H51.7881C52.0676 53.685 52.2946 53.4579 52.2946 53.1784C52.2946 52.8989 52.0676 52.6719 51.7881 52.6719Z" fill="black"/>
<path fill-rule="evenodd" clip-rule="evenodd" d="M40.5135 32.8533H50.2357C50.5152 32.8533 50.7422 32.6262 50.7422 32.3467C50.7422 32.0672 50.5152 31.8402 50.2357 31.8402H40.5135C40.234 31.8402 40.0069 32.0672 40.0069 32.3467C40.0069 32.6262 40.234 32.8533 40.5135 32.8533ZM50.2357 29.0234H38.573C38.2934 29.0234 38.0664 29.2507 38.0664 29.53C38.0664 29.8095 38.2934 30.0365 38.573 30.0365H50.2357C50.5152 30.0365 50.7422 29.8095 50.7422 29.53C50.7422 29.2507 50.5152 29.0234 50.2357 29.0234Z" fill="black"/>
<path fill-rule="evenodd" clip-rule="evenodd" d="M38.9978 42.6464V29.5196C38.9978 28.6805 38.3174 28 37.4782 28H36.6876C35.8484 28 35.168 28.6805 35.168 29.5196V42.6464C35.168 42.9259 35.395 43.153 35.6745 43.153C35.954 43.153 36.1811 42.9259 36.1811 42.6464V29.5196C36.1811 29.2401 36.4081 29.0131 36.6876 29.0131H37.4782C37.7577 29.0131 37.9847 29.2401 37.9847 29.5196V42.6464C37.9847 42.9259 38.2118 43.153 38.4913 43.153C38.7708 43.153 38.9978 42.9259 38.9978 42.6464Z" fill="black"/>
<path fill-rule="evenodd" clip-rule="evenodd" d="M53.5564 42.6464V29.5196C53.5564 28.6805 52.8759 28 52.0368 28H51.2462C50.407 28 49.7266 28.6805 49.7266 29.5196V42.6464C49.7266 42.9259 49.9536 43.153 50.2331 43.153C50.5126 43.153 50.7397 42.9259 50.7397 42.6464V29.5196C50.7397 29.2401 50.9667 29.0131 51.2462 29.0131H52.0368C52.3163 29.0131 52.5433 29.2401 52.5433 29.5196V42.6464C52.5433 42.9259 52.7703 43.153 53.0499 43.153C53.3294 43.153 53.5564 42.9259 53.5564 42.6464Z" fill="black"/>
<path fill-rule="evenodd" clip-rule="evenodd" d="M56.7316 43.6602C56.7316 43.2573 56.5715 42.8708 56.2865 42.5857C56.0016 42.3007 55.6149 42.1406 55.2119 42.1406H33.5196C33.1166 42.1406 32.7302 42.3007 32.445 42.5857C32.1601 42.8706 32 43.2573 32 43.6602V44.5686C32 44.9716 32.1601 45.3581 32.445 45.6432C32.73 45.9279 33.1167 46.0882 33.5196 46.0882H55.2119C56.0511 46.0882 56.7316 45.4078 56.7316 44.5686L56.7316 43.6602ZM55.7185 43.6602V44.5686C55.7185 44.8481 55.4914 45.0751 55.2119 45.0751H33.5196C33.3853 45.0751 33.2566 45.0218 33.1616 44.9266C33.0664 44.8316 33.013 44.7027 33.013 44.5686V43.6602C33.013 43.5261 33.0664 43.3972 33.1616 43.3023C33.2566 43.2071 33.3853 43.1537 33.5196 43.1537H55.2119C55.3462 43.1537 55.4749 43.2071 55.5699 43.3023C55.6651 43.3972 55.7185 43.5261 55.7185 43.6602Z" fill="#7E50A7"/>
<path fill-rule="evenodd" clip-rule="evenodd" d="M41.8438 32.3425V42.6448C41.8438 42.9243 42.0708 43.1513 42.3503 43.1513C42.6298 43.1513 42.8568 42.9243 42.8568 42.6448V32.3425C42.8568 32.063 42.6298 31.8359 42.3503 31.8359C42.0708 31.8359 41.8438 32.063 41.8438 32.3425Z" fill="#7E50A7"/>
<path fill-rule="evenodd" clip-rule="evenodd" d="M45.8711 32.3425V42.6448C45.8711 42.9243 46.0981 43.1513 46.3776 43.1513C46.6571 43.1513 46.8842 42.9243 46.8842 42.6448V32.3425C46.8842 32.063 46.6571 31.8359 46.3776 31.8359C46.0981 31.8359 45.8711 32.063 45.8711 32.3425Z" fill="#7E50A7"/>
<path fill-rule="evenodd" clip-rule="evenodd" d="M34.2584 45.5214C34.2584 45.5214 33.1987 55.067 32.8296 58.3905C32.7819 58.8202 32.9194 59.2496 33.2079 59.5714C33.4963 59.8936 33.9081 60.0777 34.3402 60.0777H34.9377C35.6728 60.0777 36.3024 59.5515 36.4333 58.8285C36.9776 55.8166 38.8125 45.667 38.8125 45.667C38.8625 45.392 38.6796 45.1284 38.4044 45.0788C38.1292 45.0289 37.8655 45.2118 37.8157 45.487C37.8157 45.487 35.9811 55.6365 35.4363 58.648C35.3926 58.889 35.183 59.0643 34.9379 59.0643H34.3404C34.1962 59.0643 34.0591 59.0028 33.9628 58.8954C33.8669 58.7884 33.821 58.645 33.8368 58.5019C33.8368 58.5017 35.2654 45.6327 35.2654 45.6327C35.2963 45.3548 35.0958 45.1042 34.8178 45.0735C34.5399 45.0425 34.2894 45.2431 34.2586 45.521L34.2584 45.5214Z" fill="black"/>
<path fill-rule="evenodd" clip-rule="evenodd" d="M53.4656 45.6322L54.8941 58.5013C54.9099 58.6449 54.864 58.7881 54.7681 58.895C54.6718 59.0025 54.5347 59.064 54.3905 59.064H53.793C53.5479 59.064 53.338 58.8887 53.2946 58.6477L50.9152 45.4867C50.8654 45.2115 50.6018 45.0286 50.3266 45.0785C50.0514 45.1283 49.8684 45.392 49.9184 45.6667C49.9184 45.6667 51.753 55.8162 52.2976 58.8282C52.4285 59.5512 53.0581 60.0774 53.7933 60.0774H54.3907C54.8228 60.0774 55.2346 59.8933 55.523 59.5711C55.8113 59.2493 55.9488 58.8197 55.9013 58.3902L54.4726 45.5211C54.4418 45.2431 54.1912 45.0425 53.9133 45.0735C53.6354 45.1043 53.4348 45.3548 53.4658 45.6328L53.4656 45.6322Z" fill="black"/>
</svg>
