<svg width="22" height="22" viewBox="0 0 22 22" fill="none" xmlns="http://www.w3.org/2000/svg">
<path d="M9.1665 22C7.27185 22 5.729 20.4582 5.729 18.5625C5.729 18.183 6.037 17.875 6.4165 17.875C6.79601 17.875 7.104 18.183 7.104 18.5625C7.104 19.7002 8.02985 20.625 9.1665 20.625C10.3032 20.625 11.229 19.7002 11.229 18.5625C11.229 18.183 11.537 17.875 11.9165 17.875C12.296 17.875 12.604 18.183 12.604 18.5625C12.604 20.4582 11.0613 22 9.1665 22Z" fill="white"/>
<path d="M16.7291 19.25H1.60411C0.719559 19.25 0 18.5304 0 17.6459C0 17.1764 0.204437 16.732 0.560944 16.4267C0.583939 16.4065 0.608612 16.3882 0.634293 16.3716C1.97992 15.1973 2.75 13.508 2.75 11.7241V9.16661C2.75 5.6284 5.62924 2.75 9.16661 2.75C9.31331 2.75 9.47192 2.75269 9.61862 2.77753C9.99342 2.8398 10.2465 3.19463 10.1841 3.56859C10.1218 3.94255 9.76062 4.19566 9.39304 4.13322C9.31969 4.12131 9.23912 4.125 9.16661 4.125C6.38741 4.125 4.125 6.3864 4.125 9.16661V11.7241C4.125 13.9388 3.15417 16.0344 1.46396 17.4725C1.4502 17.4836 1.43828 17.4937 1.42351 17.5037C1.39883 17.5349 1.375 17.5826 1.375 17.6459C1.375 17.7704 1.47957 17.875 1.60411 17.875H16.7291C16.8538 17.875 16.9584 17.7704 16.9584 17.6459C16.9584 17.5816 16.9346 17.5349 16.9089 17.5037C16.8951 17.4937 16.8832 17.4836 16.8694 17.4725C15.1782 16.0334 14.2084 13.9388 14.2084 11.7241V10.7251C14.2084 10.3456 14.5164 10.0376 14.8959 10.0376C15.2754 10.0376 15.5834 10.3456 15.5834 10.7251V11.7241C15.5834 13.509 16.3543 15.1992 17.7018 16.3745C17.7265 16.3909 17.7503 16.4084 17.7723 16.4277C18.129 16.732 18.3334 17.1764 18.3334 17.6459C18.3334 18.5304 17.6138 19.25 16.7291 19.25Z" fill="white"/>
<path d="M15.5834 9.16661C13.0561 9.16661 11 7.11066 11 4.58339C11 2.05612 13.0561 0 15.5834 0C18.1107 0 20.1666 2.05612 20.1666 4.58339C20.1666 7.11066 18.1107 9.16661 15.5834 9.16661ZM15.5834 1.375C13.8141 1.375 12.375 2.81412 12.375 4.58339C12.375 6.35249 13.8141 7.79161 15.5834 7.79161C17.3525 7.79161 18.7916 6.35249 18.7916 4.58339C18.7916 2.81412 17.3525 1.375 15.5834 1.375Z" fill="white"/>
</svg>
