<svg width="24" height="22" viewBox="0 0 24 22" fill="none" xmlns="http://www.w3.org/2000/svg">
<path d="M19.6497 22H3.92699C2.88609 21.9981 1.88837 21.5837 1.15234 20.8477C0.416308 20.1116 0.00194744 19.1139 0 18.073L0 8.6497C-1.82738e-06 7.60752 0.413498 6.60791 1.14974 5.87029C1.88598 5.13266 2.88481 4.71729 3.92699 4.71534H19.6497C20.6919 4.71729 21.6907 5.13266 22.4269 5.87029C23.1632 6.60791 23.5767 7.60752 23.5767 8.6497V18.073C23.5747 19.1139 23.1604 20.1116 22.4243 20.8477C21.6883 21.5837 20.6906 21.9981 19.6497 22ZM3.92699 6.29203C3.3017 6.29203 2.70202 6.54043 2.25987 6.98257C1.81772 7.42472 1.56932 8.02441 1.56932 8.6497V18.073C1.56932 18.3826 1.63031 18.6892 1.74879 18.9752C1.86727 19.2613 2.04094 19.5212 2.25987 19.7401C2.4788 19.9591 2.73871 20.1327 3.02475 20.2512C3.3108 20.3697 3.61738 20.4307 3.92699 20.4307H19.6497C19.9593 20.4307 20.2659 20.3697 20.5519 20.2512C20.838 20.1327 21.0979 19.9591 21.3168 19.7401C21.5358 19.5212 21.7094 19.2613 21.8279 18.9752C21.9464 18.6892 22.0074 18.3826 22.0074 18.073V8.6497C22.0074 8.02441 21.759 7.42472 21.3168 6.98257C20.8747 6.54043 20.275 6.29203 19.6497 6.29203H3.92699ZM16.5037 3.13865V2.35767C16.5037 1.73238 16.2553 1.13269 15.8131 0.690545C15.371 0.248397 14.7713 0 14.146 0H9.43068C8.80538 0 8.2057 0.248397 7.76355 0.690545C7.3214 1.13269 7.07301 1.73238 7.07301 2.35767V3.13865C7.06239 3.24808 7.07478 3.35852 7.10938 3.46288C7.14399 3.56724 7.20004 3.66321 7.27393 3.74462C7.34783 3.82603 7.43793 3.89108 7.53846 3.9356C7.63899 3.98012 7.74772 4.00312 7.85767 4.00312C7.96762 4.00312 8.07635 3.98012 8.17688 3.9356C8.27741 3.89108 8.36751 3.82603 8.44141 3.74462C8.5153 3.66321 8.57135 3.56724 8.60595 3.46288C8.64056 3.35852 8.65295 3.24808 8.64233 3.13865V2.35767C8.64233 2.14859 8.72539 1.94807 8.87323 1.80022C9.02108 1.65238 9.22159 1.56932 9.43068 1.56932H14.146C14.3551 1.56932 14.5556 1.65238 14.7035 1.80022C14.8513 1.94807 14.9344 2.14859 14.9344 2.35767V3.13865C14.9237 3.24808 14.9361 3.35852 14.9707 3.46288C15.0053 3.56724 15.0614 3.66321 15.1353 3.74462C15.2092 3.82603 15.2993 3.89108 15.3998 3.9356C15.5003 3.98012 15.6091 4.00312 15.719 4.00312C15.829 4.00312 15.9377 3.98012 16.0382 3.9356C16.1388 3.89108 16.2289 3.82603 16.3028 3.74462C16.3767 3.66321 16.4327 3.56724 16.4673 3.46288C16.5019 3.35852 16.5143 3.24808 16.5037 3.13865ZM13.9987 13.2103L19.1561 10.919C19.3515 10.834 19.5051 10.6748 19.5832 10.4765C19.6612 10.2783 19.6573 10.0571 19.5723 9.86169C19.4873 9.66628 19.3282 9.51265 19.1299 9.43458C18.9316 9.35652 18.7105 9.36041 18.5151 9.44541L13.3577 11.7368C12.8554 11.9595 12.312 12.0746 11.7626 12.0746C11.2131 12.0746 10.6697 11.9595 10.1674 11.7368L5.03215 9.52646C4.9354 9.48437 4.8313 9.46175 4.7258 9.45989C4.62031 9.45803 4.51548 9.47697 4.4173 9.51563C4.21903 9.59369 4.05988 9.74733 3.97488 9.94273C3.88988 10.1381 3.88599 10.3593 3.96405 10.5576C4.04212 10.7559 4.19575 10.915 4.39116 11L9.57803 13.2103C10.2751 13.515 11.0276 13.6723 11.7883 13.6723C12.5491 13.6723 13.3016 13.515 13.9987 13.2103Z" fill="#7E50A7"/>
</svg>
