<svg width="31" height="30" viewBox="0 0 31 30" fill="none" xmlns="http://www.w3.org/2000/svg">
<path d="M15.1975 0.308602C12.2469 3.15533 10.4563 7.97638 10.7143 12.4194C8.75234 14.4568 7.62504 17.2237 7.62504 20.0909C7.6238 20.2567 7.71722 20.4095 7.8651 20.4844C8.01421 20.5593 8.19178 20.5438 8.32481 20.4442L11.0509 18.4012L11.0861 19.0255C11.0991 19.2575 11.2909 19.4381 11.5236 19.4381L19.4766 19.4381C19.5966 19.4381 19.7061 19.3893 19.7859 19.3094C19.8596 19.2358 19.9072 19.1362 19.9134 19.0248L19.9487 18.4005L22.6747 20.4436C22.8078 20.5432 22.9847 20.537 23.1326 20.4634C23.1703 20.4442 23.2044 20.4188 23.2347 20.3885C23.3225 20.3006 23.3739 20.1726 23.3745 20.0494C23.3745 17.2219 22.2472 14.455 20.2853 12.4175C20.5414 7.96772 18.7644 3.13553 15.802 0.307983C15.6331 0.147734 15.3671 0.147735 15.1975 0.308602ZM17.6873 8.50043C17.6873 9.10307 17.4422 9.65001 17.0456 10.0466C16.649 10.4432 16.1021 10.6882 15.4995 10.6882C14.2936 10.6876 13.3123 9.70631 13.3117 8.50043C13.3117 7.29393 14.293 6.31264 15.4995 6.31265C16.706 6.31265 17.6879 7.29455 17.6873 8.50043Z" fill="#00407C"/>
<path d="M12.7961 23.6256C12.7961 24.9497 14.8781 28.8495 15.1151 29.2894C15.1912 29.4311 15.3397 29.5189 15.4999 29.5196C15.6187 29.5196 15.7288 29.4725 15.8099 29.3915C15.8396 29.3618 15.865 29.3278 15.886 29.2894C16.123 28.8495 18.205 24.9497 18.205 23.6256C18.205 22.1345 16.9916 20.9212 15.5005 20.9212C14.0088 20.9218 12.7967 22.1352 12.7961 23.6256Z" fill="#00407C"/>
</svg>
