<svg width="44" height="44" viewBox="0 0 44 44" fill="none" xmlns="http://www.w3.org/2000/svg">
<path d="M32.6558 15.1872C32.0615 12.8117 30.6906 10.7028 28.7609 9.19544C26.8311 7.68807 24.4531 6.86861 22.0044 6.86719C19.5557 6.86577 17.1767 7.68246 15.2451 9.18759C13.3136 10.6927 11.9403 12.8 11.3433 15.1748C8.52705 15.4391 5.92086 16.7781 4.06608 18.9137C2.2113 21.0493 1.25049 23.8174 1.38322 26.6429C1.51596 29.4684 2.73204 32.1341 4.77886 34.0864C6.82569 36.0388 9.54592 37.1276 12.3745 37.1267H16.4995C16.8642 37.1267 17.2139 36.9818 17.4718 36.7239C17.7297 36.4661 17.8745 36.1163 17.8745 35.7517C17.8745 35.387 17.7297 35.0373 17.4718 34.7794C17.2139 34.5215 16.8642 34.3767 16.4995 34.3767H12.3745C11.2911 34.3798 10.2177 34.1696 9.21556 33.7579C8.21342 33.3462 7.30217 32.7412 6.53385 31.9773C4.98216 30.4347 4.10685 28.3388 4.10047 26.1507C4.09409 23.9627 4.95716 21.8617 6.49982 20.3101C8.04249 18.7584 10.1384 17.8831 12.3264 17.8767C12.6792 17.9032 13.0293 17.7978 13.3088 17.5808C13.5883 17.3639 13.7772 17.0508 13.8389 16.7024C14.1189 14.739 15.0978 12.9425 16.5959 11.6429C18.0941 10.3433 20.0108 9.62773 21.994 9.62773C23.9773 9.62773 25.894 10.3433 27.3921 11.6429C28.8902 12.9425 29.8692 14.739 30.1492 16.7024C30.2211 17.0387 30.4075 17.3396 30.6766 17.5538C30.9456 17.7679 31.2807 17.8821 31.6245 17.8767C33.8126 17.8767 35.911 18.7459 37.4582 20.293C39.0053 21.8402 39.8745 23.9386 39.8745 26.1267C39.8745 28.3147 39.0053 30.4131 37.4582 31.9603C35.911 33.5075 33.8126 34.3767 31.6245 34.3767H27.4995C27.1349 34.3767 26.7851 34.5215 26.5273 34.7794C26.2694 35.0373 26.1245 35.387 26.1245 35.7517C26.1245 36.1163 26.2694 36.4661 26.5273 36.7239C26.7851 36.9818 27.1349 37.1267 27.4995 37.1267H31.6245C34.4324 37.0973 37.1228 35.9952 39.1443 34.0461C41.1658 32.0971 42.3654 29.4487 42.4973 26.6438C42.6291 23.8388 41.6832 21.0896 39.8535 18.9595C38.0237 16.8295 35.4486 15.4798 32.6558 15.1872Z" fill="white"/>
<path d="M27.9026 27.0968C28.1619 27.3473 28.5092 27.4859 28.8698 27.4828C29.2303 27.4796 29.5751 27.335 29.8301 27.0801C30.085 26.8251 30.2296 26.4803 30.2328 26.1198C30.2359 25.7592 30.0973 25.4119 29.8468 25.1526L22.9718 18.2776C22.714 18.0198 22.3643 17.875 21.9997 17.875C21.6351 17.875 21.2854 18.0198 21.0276 18.2776L14.1526 25.1526C13.9021 25.4119 13.7635 25.7592 13.7667 26.1198C13.7698 26.4803 13.9144 26.8251 14.1693 27.0801C14.4243 27.335 14.7691 27.4796 15.1297 27.4828C15.4902 27.4859 15.8375 27.3473 16.0968 27.0968L20.6247 22.569V39.8747C20.6247 40.2394 20.7696 40.5891 21.0274 40.847C21.2853 41.1048 21.635 41.2497 21.9997 41.2497C22.3644 41.2497 22.7141 41.1048 22.972 40.847C23.2298 40.5891 23.3747 40.2394 23.3747 39.8747V22.569L27.9026 27.0968Z" fill="white"/>
</svg>
