<svg width="64" height="64" viewBox="0 0 64 64" fill="none" xmlns="http://www.w3.org/2000/svg">
<path d="M55.5693 23.8945H25.8193C25.3016 23.8945 24.8818 24.3143 24.8818 24.832C24.8818 25.3498 25.3016 25.7695 25.8193 25.7695H55.5693C56.0871 25.7695 56.5068 25.3498 56.5068 24.832C56.5068 24.3143 56.0871 23.8945 55.5693 23.8945Z" fill="#7E50A7"/>
<path d="M55.5693 31.0625H25.8193C25.3016 31.0625 24.8818 31.4822 24.8818 32C24.8818 32.5178 25.3016 32.9375 25.8193 32.9375H55.5693C56.0871 32.9375 56.5068 32.5178 56.5068 32C56.5068 31.4822 56.0871 31.0625 55.5693 31.0625Z" fill="#7E50A7"/>
<path d="M55.5693 38.2266H25.8193C25.3016 38.2266 24.8818 38.6463 24.8818 39.1641C24.8818 39.6818 25.3016 40.1016 25.8193 40.1016H55.5693C56.0871 40.1016 56.5068 39.6818 56.5068 39.1641C56.5068 38.6463 56.0871 38.2266 55.5693 38.2266Z" fill="#7E50A7"/>
<path d="M58.5472 15.6953H22.8414C19.8348 15.6953 17.3887 18.1413 17.3887 21.1481V43.6002C17.3887 46.6068 19.8347 49.0529 22.8414 49.0529H47.8678C48.1354 49.0529 48.384 49.1733 48.55 49.3834L56.6319 59.6151C56.9504 60.0183 57.4152 60.2381 57.9018 60.2381C58.0827 60.2381 58.2667 60.2077 58.4472 60.1449C59.113 59.9137 59.5433 59.3088 59.5433 58.6039V48.9598C62.0714 48.4876 63.9999 46.2524 63.9999 43.6002V21.1479C63.9999 18.1413 61.5539 15.6953 58.5472 15.6953ZM62.1249 43.6002C62.1249 45.5473 60.5408 47.1517 58.5937 47.1764C58.0807 47.1831 57.6682 47.6008 57.6682 48.1139V57.9021L50.0214 48.2212C49.4978 47.5581 48.7128 47.1778 47.8678 47.1778H22.8414C20.8687 47.1778 19.2637 45.5728 19.2637 43.6001V21.1479C19.2637 19.1752 20.8685 17.5702 22.8414 17.5702H58.5472C60.5199 17.5702 62.1249 19.1752 62.1249 21.1479V43.6002Z" fill="#7E50A7"/>
<path d="M13.8118 31.197C13.1705 31.288 12.5962 31.6181 12.1947 32.1264L5.75462 40.2796V32.1083C5.75462 31.5951 5.34212 31.1774 4.82912 31.1707C3.20025 31.15 1.875 29.8079 1.875 28.1789V8.63375C1.875 6.98338 3.21775 5.64062 4.86812 5.64062H35.951C37.6014 5.64062 38.9441 6.98338 38.9441 8.63375V12.2502C38.9441 12.768 39.3639 13.1877 39.8816 13.1877C40.3994 13.1877 40.8191 12.768 40.8191 12.2502V8.63375C40.8191 5.9495 38.6353 3.76562 35.951 3.76562H4.86812C2.18387 3.76562 0 5.9495 0 8.63375V28.1789C0 30.5122 1.67138 32.4836 3.87975 32.9444V41.2401C3.87975 41.9061 4.28625 42.4778 4.9155 42.6963C5.08613 42.7555 5.25987 42.7842 5.43087 42.7842C5.8905 42.7842 6.32987 42.5765 6.63075 42.1956L13.6663 33.2886C13.7677 33.16 13.9131 33.0765 14.0754 33.0534C14.588 32.9806 14.9446 32.506 14.8717 31.9934C14.799 31.4808 14.3251 31.1239 13.8118 31.197Z" fill="#7E50A7"/>
</svg>
