<svg width="56" height="64" viewBox="0 0 56 64" fill="none" xmlns="http://www.w3.org/2000/svg">
<path d="M37.9672 10.4209L29.7514 2.35732C28.6087 1.32182 26.8671 1.32182 25.7243 2.35732L17.5085 10.4209" stroke="#7E50A7" stroke-width="2" stroke-miterlimit="10" stroke-linecap="round" stroke-linejoin="round"/>
<path d="M53.5648 25.726L49.7078 29.5762" stroke="#7E50A7" stroke-width="2" stroke-miterlimit="10" stroke-linecap="round" stroke-linejoin="round"/>
<path d="M32.3867 46.8737L54.4747 59.0117" stroke="#00407C" stroke-width="2" stroke-miterlimit="10" stroke-linecap="round" stroke-linejoin="round"/>
<path d="M5.76693 29.5762L1.90991 25.726" stroke="#7E50A7" stroke-width="2" stroke-miterlimit="10" stroke-linecap="round" stroke-linejoin="round"/>
<path d="M23.0879 46.8737L1 59.0117" stroke="#00407C" stroke-width="2" stroke-miterlimit="10" stroke-linecap="round" stroke-linejoin="round"/>
<path d="M41.6375 62.0078H51.4759C53.1319 62.0078 54.4744 60.6653 54.4744 59.0093V27.9005C54.4744 27.0846 54.1464 26.3028 53.564 25.7313L49.707 21.9457" stroke="#00407C" stroke-width="2" stroke-miterlimit="10" stroke-linecap="round" stroke-linejoin="round"/>
<path d="M1 42.2801V59.0093C1 60.6653 2.34249 62.0078 3.99854 62.0078H37.6638" stroke="#00407C" stroke-width="2" stroke-miterlimit="10" stroke-linecap="round" stroke-linejoin="round"/>
<path d="M5.76741 21.9454L1.91039 25.731C1.32815 26.3025 1 27.0843 1 27.9002V38.3057" stroke="#7E50A7" stroke-width="2" stroke-miterlimit="10" stroke-linecap="round" stroke-linejoin="round"/>
<path d="M49.7075 15.6179V13.4551C49.7075 11.7764 48.3466 10.4156 46.6679 10.4156H8.80709C7.12843 10.4156 5.76758 11.7764 5.76758 13.4551V29.5744L23.088 46.8643L26.2934 45.1029C27.1927 44.6086 28.2823 44.6086 29.1817 45.1029L32.3869 46.8643L49.7075 29.5744V19.4993" stroke="#7E50A7" stroke-width="2" stroke-miterlimit="10" stroke-linecap="round" stroke-linejoin="round"/>
<path d="M30.6075 25.623C30.6075 28.0611 29.1113 29.8867 27.32 29.8867C25.5288 29.8867 23.9446 28.0864 23.9446 25.6484C23.9446 23.2104 25.6167 21.5861 27.408 21.5861C29.1993 21.5861 30.6075 23.1851 30.6075 25.623Z" stroke="#FFAE1A" stroke-width="2" stroke-miterlimit="10" stroke-linecap="round" stroke-linejoin="round"/>
<path d="M27.5645 34.0059C24.0016 33.9073 20.753 31.4958 19.7883 27.828C18.6748 23.5943 21.1101 19.1724 25.2814 17.8447C29.6932 16.4402 34.3851 18.9222 35.7181 23.339C36.1898 25.1062 35.9144 26.6436 35.2895 28.2152C35.0416 28.8383 34.2242 30.2972 32.4061 30.2972C31.4135 30.2972 30.5861 29.3459 30.5915 28.2502L30.6274 20.9896" stroke="#FFAE1A" stroke-width="2" stroke-miterlimit="10" stroke-linecap="round" stroke-linejoin="round"/>
<path d="M35.7179 23.3445C36.1896 25.1116 35.9142 26.6492 35.2893 28.2207" stroke="#FFAE1A" stroke-width="2" stroke-miterlimit="10" stroke-linecap="round" stroke-linejoin="round"/>
</svg>
