<svg width="93" height="78" viewBox="0 0 93 78" fill="none" xmlns="http://www.w3.org/2000/svg">
<rect opacity="0.2" x="33" y="18" width="60" height="60" fill="#009CC8"/>
<path d="M64.7026 6.04463L60.6317 5.45323L58.8111 1.76439C58.1977 0.521554 56.4251 0.522076 55.8123 1.76439L53.9916 5.45323L49.9207 6.04463C48.5494 6.24403 48.0019 7.93003 48.9936 8.89673L51.9397 11.7681L51.2439 15.8229C51.009 17.1936 52.4497 18.2277 53.6706 17.5856L57.3114 15.671L60.9527 17.5856C62.1783 18.2303 63.6133 17.1884 63.3789 15.8229L62.6836 11.7681L65.6297 8.89673C66.6214 7.93003 66.0734 6.24403 64.7026 6.04463ZM61.1594 10.4548C60.7648 10.8395 60.5853 11.3928 60.6787 11.9352L61.2894 15.4982L58.0897 13.8159C57.6027 13.5596 57.0207 13.5596 56.5331 13.8159L53.3334 15.4982L53.9446 11.9352C54.0375 11.3928 53.858 10.8395 53.4639 10.4548L50.8749 7.93159L54.4525 7.4117C54.9969 7.33288 55.4678 6.99046 55.7115 6.49719L57.3114 3.25517L58.9113 6.49667C59.1545 6.99046 59.6253 7.33236 60.1703 7.4117L63.7479 7.93159L61.1594 10.4548Z" fill="#009CC8"/>
<path d="M21.0057 8.8967C21.9974 7.92947 21.4494 6.24399 20.0786 6.0446L16.0077 5.45319L14.1871 1.76435C13.5732 0.520474 11.8006 0.52204 11.1878 1.76435L9.36708 5.45319L5.29616 6.0446C3.92543 6.24399 3.37788 7.92999 4.36964 8.8967L7.31518 11.7681L6.6199 15.8229C6.38605 17.1878 7.81993 18.2302 9.04606 17.5856L12.6874 15.6715L16.3287 17.5856C17.5544 18.2302 18.9893 17.1884 18.7549 15.8229L18.0596 11.7686L21.0057 8.8967ZM16.5354 10.4548C16.1408 10.8395 15.9613 11.3928 16.0542 11.9351L16.6654 15.4982L13.4652 13.8158C12.9781 13.5596 12.3967 13.5596 11.9091 13.8158L8.70939 15.4982L9.32063 11.9351C9.41354 11.3923 9.23398 10.839 8.83988 10.4548L6.25086 7.93156L9.82851 7.41166C10.3735 7.33232 10.8443 6.99042 11.0875 6.49663L12.6874 3.25513L14.2878 6.49715C14.5316 6.99042 15.0019 7.33232 15.5468 7.41166L19.1239 7.93156L16.5354 10.4548Z" fill="#009CC8"/>
<path d="M45.9642 7.77758L39.6289 6.85785L36.7951 1.11554C36.0612 -0.372107 33.9378 -0.371585 33.2039 1.11554L30.3716 6.8568L24.0348 7.77758C22.3931 8.01612 21.737 10.0351 22.9245 11.1929L27.5096 15.6611L26.427 21.9718C26.1467 23.6066 27.864 24.8547 29.3329 24.0827L33.1271 22.0877C33.6173 21.8303 33.8057 21.2243 33.5479 20.7342C33.2905 20.2446 32.6845 20.0561 32.1944 20.3135L28.4027 22.3106L29.4853 15.9998C29.5965 15.35 29.3814 14.687 28.909 14.2272L24.3229 9.7611L30.6597 8.84033C31.3122 8.74585 31.8754 8.3361 32.1672 7.74521L34.9974 2.00291L37.8312 7.74469C38.123 8.33557 38.6868 8.74533 39.3392 8.84033L45.6745 9.75745L41.0894 14.2272C40.617 14.687 40.402 15.35 40.5137 15.9993L41.5989 22.3085L37.8041 20.3135C37.3134 20.0556 36.7079 20.2446 36.4506 20.7342C36.1927 21.2243 36.3812 21.8303 36.8713 22.0877L40.6656 24.0827C42.137 24.8557 43.8512 23.6025 43.5714 21.9718L42.4883 15.6626L47.0734 11.1929C48.262 10.0346 47.6053 8.01612 45.9642 7.77758V7.77758Z" fill="#009CC8"/>
<path d="M63.4919 28.3723C63.1004 27.9814 62.4662 27.9814 62.0747 28.3723C61.6832 28.7643 61.6832 29.3985 62.0747 29.79L67.1337 34.8491L59.9706 42.0127C59.5123 41.5544 46.9419 28.9841 46.7337 28.7758L53.8968 21.6122L58.7674 26.4828C59.1589 26.8742 59.7931 26.8742 60.1846 26.4828C60.5761 26.0913 60.5761 25.4565 60.1846 25.0651L55.196 20.077C54.4799 19.3603 53.3138 19.3603 52.5971 20.077L45.198 27.4761C44.4818 28.1928 44.4818 29.3583 45.198 30.075L46.0629 30.9399C45.4741 31.5413 44.0992 33.0842 43.0965 33.0842C43.0944 33.0842 43.0929 33.0842 43.0913 33.0842C39.3403 33.0665 39.8138 32.8984 35.0199 34.777L32.1276 33.6438C32.1208 33.6407 32.114 33.6381 32.1067 33.6355C32.0916 33.6302 30.558 33.0748 28.99 33.0748C28.9868 33.0748 28.9837 33.0748 28.9806 33.0748C28.9717 33.0748 28.9628 33.0743 28.9534 33.0743C28.8918 33.0754 26.949 33.0842 26.949 33.0842C26.9469 33.0842 26.9454 33.0842 26.9438 33.0842C25.9521 33.0842 24.6126 31.5867 23.9565 30.9191C24.7823 30.0933 25.3387 29.7039 25.3387 28.7753C25.3387 28.2846 25.1477 27.8232 24.8006 27.4756L17.4015 20.0765C16.6848 19.3603 15.5192 19.3603 14.8025 20.0765L1.3297 33.5498C0.611454 34.2681 0.611454 35.4305 1.3297 36.1488L8.72878 43.5479C9.44546 44.2645 10.611 44.2645 11.3277 43.5479L12.1206 42.755C14.1506 44.7829 14.3395 44.7176 14.3735 46.6954C14.3954 47.9915 14.4231 49.6044 16.2187 51.3969C21.2568 56.4272 25.2615 60.4392 30.4233 65.601C32.0467 67.2244 34.832 66.6951 35.722 64.5482L36.4898 65.3165C38.1941 67.0203 41.1271 66.3454 41.8782 64.0241C43.0652 64.5362 44.498 64.3076 45.4663 63.3393C46.4513 62.3548 46.658 60.9183 46.1532 59.7512C46.6256 59.5977 47.0693 59.3336 47.4436 58.9588H47.4441C48.0344 58.3669 48.344 57.6017 48.381 56.825C48.4405 56.7722 53.7647 51.4533 53.8211 51.3969C55.6173 49.6039 55.6449 47.9915 55.6668 46.6954C55.7018 44.6659 55.9492 44.7322 57.8988 42.7753C58.6547 43.5312 59.0493 44.086 59.9706 44.086C60.4618 44.086 60.9232 43.895 61.2703 43.5479L68.6689 36.1488C69.3876 35.4305 69.3876 34.2681 68.6694 33.5498L63.4919 28.3723ZM10.028 42.0127L2.86484 34.8496L16.1018 21.6122L23.2654 28.7758C22.936 29.1047 10.657 41.3837 10.028 42.0127ZM46.0253 57.5427C45.5514 58.0172 44.7877 58.026 44.3012 57.5735L34.2594 47.3943C33.8705 47.0002 33.2363 46.9961 32.8422 47.3849C32.4481 47.7733 32.4439 48.408 32.8328 48.8021C34.7928 50.7898 42.0724 58.1842 44.0491 60.1604C44.5372 60.6485 44.5351 61.4367 44.0491 61.9221C43.5637 62.4075 42.7734 62.4075 42.288 61.9221C40.2006 59.8347 42.5704 62.2322 30.9239 50.3874C30.5361 49.9922 29.9014 49.987 29.5067 50.3754C29.1121 50.7632 29.1069 51.3979 29.4947 51.7926C29.4979 51.7957 39.6687 62.1377 39.6687 62.1377C40.1546 62.6231 40.1546 63.4134 39.6687 63.8994C39.1832 64.3848 38.3935 64.3848 37.9075 63.8988C36.1463 62.1382 37.8689 63.8994 27.8218 53.5553C27.436 53.1586 26.8018 53.1492 26.4046 53.5349C26.0074 53.9207 25.9985 54.5549 26.3843 54.9521L33.4404 62.217C33.5782 62.4556 33.9634 62.6826 33.9629 63.3048C33.9629 63.6368 33.8334 63.949 33.5985 64.1838C33.1141 64.6693 32.3254 64.6688 31.8405 64.1838C19.3433 51.6861 28.9018 61.2284 17.6348 49.9781C16.4134 48.7588 16.3977 47.8333 16.3774 46.6615C16.3288 43.8047 15.5746 43.372 13.5383 41.3378L22.5393 32.3362C23.54 33.3572 25.0746 35.0892 26.9433 35.0892H26.9584C28.4774 35.0819 28.8501 35.0803 28.9451 35.0798H28.9628H28.9915C30.1316 35.0798 31.3133 35.4822 31.4109 35.5162L32.2727 35.8539L27.638 37.6693C24.0808 38.9936 25.2406 44.6367 29.5772 43.9284L33.6111 43.3829L46.0191 55.7914C46.504 56.2748 46.5066 57.0604 46.0253 57.5427V57.5427ZM55.0807 42.7581H55.0801C53.7058 44.1304 53.6823 45.534 53.663 46.6615C53.6431 47.8333 53.6269 48.7588 52.405 49.9781L47.7202 54.6567C47.6758 54.6123 34.9541 41.8906 34.6775 41.6139C34.4682 41.4046 34.155 41.2866 33.8345 41.3294L29.2943 41.9438C29.2844 41.9449 29.2739 41.9464 29.2635 41.948C27.3269 42.2711 27.0111 40.037 28.3422 39.5458C28.3485 39.5438 28.3547 39.5411 28.361 39.5391C40.7805 34.6726 38.9614 35.0688 43.0814 35.0886H43.0965C44.8582 35.0886 46.2655 33.6005 47.4801 32.3571L56.4811 41.3582C56.4049 41.4349 55.1563 42.6819 55.0807 42.7581V42.7581Z" fill="#009CC8"/>
</svg>
