<svg width="105" height="95" viewBox="0 0 105 95" fill="none" xmlns="http://www.w3.org/2000/svg">
<path opacity="0.2" d="M14 64.9693C31.9408 81.0403 59.5128 79.5246 75.5838 61.5838C91.6548 43.643 90.139 16.071 72.1982 0L14 64.9693Z" fill="#00407C"/>
<path d="M49.4532 32.7122H33.6885V30.4633H49.4532C54.9344 30.4633 59.3931 26.004 59.3931 20.5229C59.3931 17.865 58.3598 15.3679 56.4842 13.4918C54.6082 11.6163 52.1111 10.583 49.4532 10.583H41.8407V8.33392H49.4532C52.7119 8.33392 55.7739 9.60115 58.0743 11.9016C60.3747 14.202 61.642 17.2642 61.642 20.5226C61.642 27.2442 56.174 32.7122 49.4532 32.7122V32.7122Z" fill="#00407C"/>
<path d="M25.8174 52.5809H53.9734V54.8298H25.8174V52.5809Z" fill="#00407C"/>
<path d="M17.7546 54.8298H14.5165C7.79512 54.8298 2.32715 49.3619 2.32715 42.6405C2.32715 39.3946 3.59374 36.3337 5.89314 34.0215C8.18813 31.7259 11.2501 30.4631 14.5165 30.4631H25.6259V32.712H14.5165C11.8509 32.712 9.35375 33.7408 7.48549 35.6093C5.6099 37.4953 4.57606 39.9929 4.57606 42.6403C4.57606 48.1214 9.03532 52.5807 14.5165 52.5807H17.7548V54.8298H17.7546Z" fill="#00407C"/>
<path d="M9.23145 8.33392H33.7782V10.5828H9.23145V8.33392Z" fill="#00407C"/>
<path d="M5.20045 14.0742C2.33291 14.0742 0 11.7413 0 8.87379C0 6.00625 2.33291 3.67334 5.20045 3.67334C8.06799 3.67334 10.4009 6.00625 10.4009 8.87379C10.4009 11.7413 8.0682 14.0742 5.20045 14.0742ZM5.20045 5.92204C3.57311 5.92204 2.2487 7.24624 2.2487 8.87379C2.2487 10.5013 3.5729 11.8255 5.20045 11.8255C6.828 11.8255 8.15221 10.5013 8.15221 8.87379C8.15221 7.24624 6.828 5.92204 5.20045 5.92204Z" fill="#00407C"/>
<path d="M37.8044 14.0688C35.2377 14.0688 33.0282 12.1553 32.6659 9.61769C32.6263 9.40023 32.6094 9.14486 32.6094 8.87378C32.6094 6.00938 34.94 3.67877 37.8044 3.67877C40.6749 3.67877 43.0105 6.00938 43.0105 8.87378C43.0105 9.14507 42.9935 9.40023 42.9479 9.65561C42.5915 12.1553 40.3776 14.0688 37.8044 14.0688ZM37.8044 5.92747C36.1798 5.92747 34.8583 7.24895 34.8583 8.87357C34.8583 9.00743 34.8633 9.13439 34.8857 9.26113C35.0971 10.736 36.3495 11.8197 37.8044 11.8197C39.266 11.8197 40.5228 10.7358 40.7281 9.29905C40.7566 9.13439 40.7616 9.00743 40.7616 8.87357C40.7614 7.24916 39.4349 5.92747 37.8044 5.92747V5.92747Z" fill="#00407C"/>
<path d="M29.652 36.1975C27.0847 36.1975 24.8758 34.284 24.5136 31.7471C24.474 31.5286 24.457 31.2732 24.457 31.0032C24.457 28.1323 26.7876 25.7966 29.652 25.7966C32.5225 25.7966 34.8581 28.1323 34.8581 31.0032C34.8581 31.2732 34.8412 31.5286 34.7955 31.7844C34.4392 34.284 32.2254 36.1975 29.652 36.1975V36.1975ZM29.652 28.0453C28.0274 28.0453 26.7059 29.3725 26.7059 31.003C26.7059 31.1368 26.711 31.2638 26.7334 31.3911C26.9448 32.8653 28.1971 33.9486 29.652 33.9486C31.1137 33.9486 32.3704 32.8653 32.5757 31.4284C32.6042 31.2638 32.6092 31.1368 32.6092 31.003C32.6092 29.3723 31.2827 28.0453 29.652 28.0453V28.0453Z" fill="#00407C"/>
<path d="M21.7911 58.3273C19.2017 58.3273 16.9874 56.4056 16.6405 53.8569C16.6015 53.6462 16.585 53.3891 16.585 53.1323C16.585 50.2618 18.9206 47.9258 21.7911 47.9258C24.6555 47.9258 26.9861 50.262 26.9861 53.1323C26.9861 53.3894 26.9695 53.6462 26.9234 53.9032C26.5836 56.4056 24.3737 58.3273 21.7911 58.3273V58.3273ZM21.7911 50.1741C20.1604 50.1741 18.8339 51.5016 18.8339 53.1323C18.8339 53.2576 18.8393 53.3827 18.8613 53.5079C19.0645 54.9937 20.3213 56.0786 21.7911 56.0786C23.2548 56.0786 24.5067 54.9937 24.7026 53.554C24.7317 53.3827 24.7372 53.2576 24.7372 53.1323C24.7372 51.5016 23.4157 50.1741 21.7911 50.1741V50.1741Z" fill="#00407C"/>
<path d="M56.4433 57.203C54.4613 57.203 52.8486 55.5899 52.8486 53.6079C52.8486 51.6259 54.4611 50.0128 56.4433 50.0128C58.426 50.0128 60.0384 51.6259 60.0384 53.6079C60.0384 55.5899 58.426 57.203 56.4433 57.203ZM56.4433 52.2615C55.7015 52.2615 55.0975 52.8655 55.0975 53.6077C55.0975 54.3499 55.7015 54.9539 56.4433 54.9539C57.1856 54.9539 57.7895 54.3499 57.7895 53.6077C57.7895 52.8655 57.1856 52.2615 56.4433 52.2615Z" fill="#00407C"/>
<path d="M56.4437 37.7124C55.8227 37.7124 55.3193 37.209 55.3193 36.588V35.2148C55.3193 34.5939 55.8227 34.0905 56.4437 34.0905C57.0646 34.0905 57.568 34.5939 57.568 35.2148V36.588C57.5682 37.2088 57.0646 37.7124 56.4437 37.7124Z" fill="#00407C"/>
<path d="M56.4437 52.2614C55.8227 52.2614 55.3193 51.7585 55.3193 51.1371V43.725C55.3193 43.1041 55.8227 42.6007 56.4437 42.6007C57.0646 42.6007 57.568 43.1041 57.568 43.725V51.1371C57.5682 51.7585 57.0646 52.2614 56.4437 52.2614Z" fill="#00407C"/>
<path d="M66.8756 44.8494H56.4437C55.8227 44.8494 55.3193 44.346 55.3193 43.725V36.588C55.3193 35.9671 55.8227 35.4637 56.4437 35.4637H66.8756C67.2946 35.4637 67.6784 35.6964 67.8722 36.0677C68.0659 36.4382 68.0381 36.8864 67.7986 37.2299L65.7638 40.1557L67.799 43.0832C68.0379 43.4269 68.0659 43.8748 67.8722 44.246C67.6782 44.6166 67.294 44.8494 66.8756 44.8494V44.8494ZM57.5682 42.6005H64.7245L63.4705 40.7974C63.2026 40.4115 63.2026 39.8991 63.4711 39.5136L64.7241 37.7122H57.5685V42.6005H57.5682Z" fill="#00407C"/>
</svg>
