<svg width="16" height="15" viewBox="0 0 16 15" fill="none" xmlns="http://www.w3.org/2000/svg">
<path d="M13.6568 12.3498C12.1458 13.7162 10.1369 14.4688 8 14.4688C5.86312 14.4688 3.85413 13.7162 2.34316 12.3498C0.832125 10.9834 0 9.16657 0 7.23414C0 5.30171 0.832125 3.48494 2.34316 2.1185C3.85413 0.752067 5.86312 -0.000445366 8 -0.000445366C10.1369 -0.000445366 12.1458 0.752067 13.6569 2.11853C15.1678 3.48494 16 5.30173 16 7.23417C16 9.1666 15.1678 10.9834 13.6568 12.3498ZM3.00675 11.7497C3.71022 12.3858 4.53606 12.8711 5.43619 13.1878C5.19644 12.9171 4.97209 12.606 4.7665 12.2561C4.52772 11.8497 4.32169 11.4034 4.15009 10.9266C3.55566 11.0159 3.00488 11.1256 2.51281 11.2543C2.66703 11.4257 2.83156 11.5912 3.00675 11.7497ZM1.94466 10.524C2.52019 10.3574 3.17838 10.2169 3.89656 10.1055C3.69656 9.33783 3.57884 8.5117 3.55075 7.65846H0.95425C1.028 8.68242 1.36806 9.65965 1.94466 10.524ZM1.89356 4.02271C1.34809 4.86766 1.02578 5.81669 0.954219 6.80981H3.55253C3.58322 5.98097 3.69859 5.17832 3.89184 4.4307C3.15891 4.32325 2.48419 4.18628 1.89356 4.02271ZM3.00675 2.71861C2.80738 2.89894 2.62169 3.08828 2.44953 3.28537C2.95963 3.41327 3.52988 3.5216 4.14372 3.60847C4.31653 3.12513 4.52478 2.67291 4.76647 2.26153C4.99053 1.88021 5.23688 1.54516 5.50116 1.25815C4.57584 1.57418 3.72713 2.06721 3.00675 2.71861ZM7.53075 0.957124C6.818 1.13768 6.14375 1.72628 5.59525 2.65977C5.40341 2.98623 5.23491 3.3424 5.09056 3.72199C5.86337 3.79891 6.68572 3.84438 7.53075 3.85507V0.957124ZM7.53075 4.7038C6.59362 4.69225 5.68022 4.63903 4.82481 4.54817C4.63613 5.25358 4.52259 6.01708 4.49144 6.80978H7.53078V4.7038H7.53075ZM7.53075 7.65849H4.48966C4.51813 8.47335 4.63347 9.25816 4.82803 9.98151C5.67797 9.88543 6.58947 9.82698 7.53075 9.81025V7.65849ZM7.53075 10.659C6.68244 10.6745 5.86191 10.7245 5.09456 10.8061C5.23803 11.1818 5.40522 11.5344 5.59525 11.8578C6.14372 12.7913 6.818 13.3799 7.53075 13.5605V10.659ZM14.0849 10.479C14.6435 9.62571 14.9733 8.6647 15.0458 7.65849H12.4493C12.4215 8.50189 12.3061 9.31875 12.1103 10.0789C12.8332 10.1845 13.4995 10.3188 14.0849 10.479ZM12.9932 11.7497C13.1816 11.5793 13.3576 11.4007 13.5218 11.2153C13.0195 11.0912 12.4602 10.986 11.8592 10.9012C11.6858 11.3875 11.4766 11.8424 11.2335 12.2561C11.0279 12.606 10.8036 12.9171 10.5638 13.1878C11.4639 12.8711 12.2898 12.3858 12.9932 11.7497ZM8.46925 6.80978H11.5086C11.4772 6.01092 11.3622 5.24162 11.1708 4.53167C10.321 4.62722 9.40987 4.68512 8.46925 4.7014V6.80978ZM8.46925 7.65849V9.80743C9.40691 9.81856 10.321 9.87132 11.1772 9.96184C11.3687 9.24395 11.4821 8.46597 11.5103 7.65849H8.46925ZM8.46919 13.5605H8.46922C9.18197 13.3799 9.85622 12.7913 10.4047 11.8578C10.5978 11.5293 10.7673 11.1706 10.9122 10.7883C10.1384 10.7116 9.31509 10.6665 8.46919 10.6562V13.5605ZM8.46925 0.957124V3.85261C9.31675 3.83757 10.1367 3.788 10.9037 3.7069C10.7606 3.33296 10.594 2.98191 10.4047 2.65977C9.85625 1.72628 9.182 1.13768 8.46925 0.957124ZM12.9932 2.71861C12.2729 2.06718 11.4242 1.57418 10.4988 1.25818C10.7631 1.54519 11.0094 1.88021 11.2335 2.26153C11.4716 2.66681 11.6772 3.11182 11.8485 3.5871C12.4568 3.4963 13.0195 3.38402 13.5208 3.25196C13.357 3.06697 13.1813 2.88871 12.9932 2.71861ZM14.0814 3.98396C13.4991 4.15327 12.8314 4.29573 12.1025 4.40815C12.2992 5.16213 12.4165 5.97263 12.4475 6.80978H15.0458C14.9731 5.80152 14.6422 4.83855 14.0814 3.98396Z" fill="#FFAE1A"/>
</svg>
