<svg width="52" height="51" viewBox="0 0 52 51" fill="none" xmlns="http://www.w3.org/2000/svg">
<path d="M48.5463 4.59105L45.4541 4.14183L44.0712 1.33986C43.6053 0.395832 42.2589 0.396228 41.7934 1.33986L40.4104 4.14183L37.3183 4.59105C36.2767 4.74251 35.8608 6.02316 36.6141 6.75745L38.8519 8.93852L38.3233 12.0184C38.1449 13.0596 39.2392 13.845 40.1666 13.3574L42.9321 11.903L45.698 13.3574C46.6289 13.847 47.7189 13.0556 47.5408 12.0184L47.0127 8.93852L49.2505 6.75745C50.0038 6.02316 49.5875 4.74251 48.5463 4.59105ZM45.855 7.94096C45.5552 8.23317 45.4189 8.65344 45.4898 9.06539L45.9537 11.7718L43.5233 10.4939C43.1533 10.2993 42.7113 10.2993 42.3409 10.4939L39.9105 11.7718L40.3748 9.06539C40.4453 8.65344 40.3089 8.23317 40.0096 7.94096L38.043 6.02434L40.7605 5.62944C41.1741 5.56958 41.5317 5.30948 41.7169 4.9348L42.9321 2.47223L44.1473 4.93441C44.3321 5.30948 44.6897 5.56918 45.1036 5.62944L47.8212 6.02434L45.855 7.94096Z" fill="#FBFAFF"/>
<path d="M15.355 6.75774C16.1083 6.02306 15.692 4.7428 14.6508 4.59135L11.5587 4.14213L10.1757 1.34016C9.70944 0.395336 8.36298 0.396526 7.8975 1.34016L6.51456 4.14213L3.42237 4.59135C2.38119 4.7428 1.96528 6.02345 2.7186 6.75774L4.95597 8.93881L4.42785 12.0187C4.25023 13.0555 5.33938 13.8473 6.27072 13.3576L9.03661 11.9037L11.8025 13.3576C12.7334 13.8473 13.8234 13.0559 13.6454 12.0187L13.1172 8.93921L15.355 6.75774ZM11.9595 7.94125C11.6598 8.23346 11.5234 8.65374 11.5939 9.06569L12.0582 11.7721L9.62737 10.4942C9.25745 10.2996 8.81576 10.2996 8.44545 10.4942L6.01499 11.7721L6.47927 9.06569C6.54985 8.65334 6.41346 8.23307 6.11411 7.94125L4.14754 6.02464L6.86505 5.62974C7.27898 5.56948 7.63661 5.30978 7.82138 4.9347L9.03661 2.47253L10.2522 4.9351C10.4374 5.30978 10.7946 5.56948 11.2086 5.62974L13.9257 6.02464L11.9595 7.94125Z" fill="#FBFAFF"/>
<path d="M34.3125 5.90769L29.5003 5.20908L27.3478 0.84734C26.7903 -0.282645 25.1774 -0.282248 24.62 0.84734L22.4686 5.20829L17.6553 5.90769C16.4084 6.08888 15.91 7.62249 16.812 8.50189L20.2947 11.8958L19.4724 16.6893C19.2595 17.9311 20.5639 18.8791 21.6796 18.2927L24.5617 16.7773C24.934 16.5819 25.0771 16.1216 24.8813 15.7493C24.6858 15.3774 24.2255 15.2342 23.8532 15.4297L20.9731 16.9466L21.7954 12.1531C21.8799 11.6595 21.7165 11.156 21.3577 10.8067L17.8742 7.41433L22.6875 6.71493C23.1831 6.64317 23.6109 6.33193 23.8325 5.88311L25.9823 1.52137L28.1348 5.88271C28.3565 6.33153 28.7847 6.64277 29.2803 6.71493L34.0924 7.41156L30.6097 10.8067C30.2509 11.156 30.0875 11.6595 30.1724 12.1527L30.9967 16.9451L28.1142 15.4297C27.7415 15.2338 27.2816 15.3774 27.0861 15.7493C26.8902 16.1216 27.0334 16.5819 27.4057 16.7773L30.2877 18.2927C31.4054 18.8799 32.7075 17.9279 32.495 16.6893L31.6723 11.897L35.155 8.50189C36.0578 7.62209 35.559 6.08888 34.3125 5.90769Z" fill="#FBFAFF"/>
<path d="M47.6263 21.5508C47.3289 21.2538 46.8472 21.2538 46.5498 21.5508C46.2525 21.8486 46.2525 22.3303 46.5498 22.6276L50.3926 26.4704L44.9516 31.9118C44.6035 31.5636 35.0553 22.0155 34.8971 21.8573L40.3381 16.4159L44.0377 20.1155C44.335 20.4129 44.8168 20.4129 45.1141 20.1155C45.4115 19.8182 45.4115 19.336 45.1141 19.0387L41.3249 15.2498C40.7809 14.7055 39.8952 14.7055 39.3508 15.2498L33.7306 20.87C33.1867 21.4144 33.1867 22.2998 33.7306 22.8441L34.3876 23.5011C33.9404 23.9579 32.896 25.1299 32.1344 25.1299C32.1328 25.1299 32.1316 25.1299 32.1304 25.1299C29.2813 25.1164 29.6409 24.9887 25.9996 26.4157L23.8026 25.5549C23.7975 25.5525 23.7923 25.5505 23.7868 25.5486C23.7753 25.5446 22.6104 25.1227 21.4194 25.1227C21.417 25.1227 21.4146 25.1227 21.4122 25.1227C21.4055 25.1227 21.3987 25.1223 21.3916 25.1223C21.3448 25.1231 19.8691 25.1299 19.8691 25.1299C19.8675 25.1299 19.8663 25.1299 19.8651 25.1299C19.1118 25.1299 18.0944 23.9924 17.596 23.4852C18.2233 22.858 18.6459 22.5622 18.6459 21.8569C18.6459 21.4842 18.5008 21.1337 18.2372 20.8696L12.617 15.2494C12.0726 14.7055 11.1872 14.7055 10.6429 15.2494L0.409173 25.4835C-0.136391 26.0291 -0.136391 26.9121 0.409173 27.4576L6.02936 33.0778C6.57374 33.6222 7.45909 33.6222 8.00346 33.0778L8.60573 32.4756C10.1477 34.0159 10.2912 33.9664 10.317 35.4686C10.3336 36.4531 10.3546 37.6783 11.7185 39.0398C15.5454 42.8607 18.5873 45.9081 22.5081 49.829C23.7412 51.062 25.8568 50.66 26.5328 49.0292L27.1161 49.6129C28.4106 50.907 30.6384 50.3943 31.209 48.6312C32.1106 49.0201 33.1989 48.8465 33.9344 48.111C34.6826 47.3632 34.8396 46.2721 34.4562 45.3855C34.815 45.269 35.152 45.0683 35.4363 44.7837H35.4367C35.8851 44.3341 36.1203 43.7528 36.1484 43.1628C36.1936 43.1228 40.2378 39.0826 40.2806 39.0398C41.6449 37.6779 41.6659 36.4531 41.6826 35.4686C41.7091 33.9271 41.8971 33.9775 43.3779 32.491C43.952 33.0651 44.2518 33.4866 44.9516 33.4866C45.3247 33.4866 45.6752 33.3415 45.9388 33.0778L51.5586 27.4576C52.1046 26.9121 52.1046 26.0291 51.559 25.4835L47.6263 21.5508ZM7.01621 31.9118L1.57524 26.4708L11.6297 16.4159L17.0711 21.8573C16.8209 22.1071 7.49398 31.434 7.01621 31.9118ZM34.3591 43.708C33.9991 44.0684 33.419 44.0752 33.0495 43.7314L25.4219 35.9995C25.1265 35.7002 24.6448 35.697 24.3454 35.9924C24.0461 36.2874 24.0429 36.7695 24.3383 37.0689C25.8271 38.5787 31.3565 44.1953 32.858 45.6964C33.2287 46.0671 33.2271 46.6658 32.858 47.0345C32.4892 47.4033 31.889 47.4033 31.5202 47.0345C29.9347 45.449 31.7347 47.27 22.8883 38.273C22.5937 37.9728 22.1116 37.9689 21.8119 38.2639C21.5121 38.5585 21.5082 39.0406 21.8028 39.3403C21.8051 39.3427 29.5307 47.1983 29.5307 47.1983C29.8998 47.567 29.8998 48.1673 29.5307 48.5364C29.1619 48.9051 28.562 48.9051 28.1929 48.536C26.8552 47.1987 28.1636 48.5364 20.532 40.6793C20.239 40.3779 19.7573 40.3708 19.4556 40.6638C19.1538 40.9568 19.1471 41.4385 19.4401 41.7402L24.7998 47.2585C24.9045 47.4397 25.1971 47.6122 25.1967 48.0848C25.1967 48.337 25.0983 48.5741 24.9199 48.7525C24.552 49.1212 23.9529 49.1208 23.5846 48.7525C14.0919 39.2594 21.3523 46.5076 12.7942 37.9621C11.8664 37.0359 11.8545 36.333 11.8391 35.4429C11.8022 33.2729 11.2293 32.9442 9.68258 31.3991L16.5196 24.5617C17.2796 25.3372 18.4453 26.6528 19.8647 26.6528H19.8762C21.03 26.6472 21.3131 26.646 21.3853 26.6456H21.3987H21.4205C22.2865 26.6456 23.1841 26.9513 23.2583 26.9771L23.9129 27.2336L20.3925 28.6126C17.6904 29.6185 18.5714 33.9049 21.8654 33.3669L24.9294 32.9525L34.3543 42.3778C34.7226 42.7449 34.7246 43.3417 34.3591 43.708ZM41.2373 32.4779H41.2369C40.193 33.5203 40.1751 34.5865 40.1604 35.4429C40.1454 36.333 40.1331 37.0359 39.2049 37.9621L35.6465 41.5158C35.6128 41.4821 25.9496 31.819 25.7395 31.6088C25.5805 31.4499 25.3426 31.3603 25.0991 31.3928L21.6505 31.8594C21.643 31.8602 21.635 31.8614 21.6271 31.8626C20.1562 32.108 19.9163 30.4111 20.9273 30.038C20.9321 30.0364 20.9368 30.0344 20.9416 30.0328C30.3752 26.3364 28.9934 26.6373 32.1229 26.6524H32.1344C33.4725 26.6524 34.5415 25.522 35.4641 24.5776L42.3011 31.4146C42.2432 31.4729 41.2948 32.4201 41.2373 32.4779Z" fill="#FBFAFF"/>
</svg>
