<svg width="28" height="22" viewBox="0 0 28 22" fill="none" xmlns="http://www.w3.org/2000/svg">
<path d="M27.1155 8.00543L24.1859 1.9689C23.9637 1.50967 23.5968 1.1744 23.1662 1.03703C22.7355 0.89965 22.2767 0.971311 21.8906 1.23639L21.4311 1.55205C20.9615 1.8759 20.6528 2.44972 20.6025 3.09194L19.6086 2.61882C18.9892 2.3235 18.3278 2.17198 17.6604 2.17273H15.8117C15.018 2.17596 14.2354 2.39392 13.5233 2.81L10.3439 2.33787C9.54579 2.21959 8.73524 2.32126 7.97555 2.63519L7.1378 2.98507C7.06475 2.38499 6.76526 1.85729 6.32447 1.55208L5.8649 1.23666C5.47901 0.971584 5.0201 0.899675 4.58953 1.03705C4.15877 1.17418 3.79185 1.50943 3.56959 1.96868L0.6394 8.0052C0.416505 8.46444 0.355982 9.00995 0.471188 9.52223C0.586394 10.0345 0.86814 10.4714 1.25423 10.737L1.71379 11.0527C2.12431 11.3423 2.62185 11.3999 3.0716 11.2099L4.4307 13.3496C4.24955 13.977 4.33449 14.6696 4.6586 15.2094C4.98251 15.7495 5.50591 16.0705 6.06423 16.0718C6.09241 16.0718 6.121 16.0693 6.1498 16.0676C6.20114 16.5633 6.40338 17.0198 6.71854 17.3506C7.03368 17.6811 7.43982 17.8634 7.86035 17.8629C7.89019 17.8629 7.91628 17.8515 7.94445 17.85C7.9935 18.3477 8.19489 18.8066 8.51025 19.1394C8.8256 19.4719 9.23275 19.6554 9.65457 19.6544C9.68274 19.6544 9.71029 19.648 9.73826 19.6465H9.73846C9.78918 20.1429 9.991 20.6001 10.3059 20.9319C10.6209 21.2635 11.0272 21.4467 11.4479 21.4472C11.4989 21.4472 11.5502 21.4447 11.6018 21.439C12.0596 21.3927 12.4827 21.1308 12.7767 20.7112L13.4736 19.7234L14.063 20.3631C14.3664 20.6979 14.7613 20.8913 15.1751 20.9082C15.589 20.925 15.994 20.7641 16.3163 20.4551C16.6383 20.1459 16.856 19.7092 16.9292 19.2249C17.0148 19.2418 17.1012 19.251 17.188 19.2527C17.5566 19.2552 17.9162 19.1161 18.213 18.8565C18.51 18.5968 18.7285 18.2301 18.836 17.8113C19.0353 17.903 19.2473 17.9499 19.461 17.9494C19.4873 17.9494 19.5142 17.9494 19.541 17.9477C20.0928 17.9248 20.6016 17.5874 20.9077 17.0414C21.2139 16.4951 21.2799 15.8074 21.0849 15.1935C21.4063 15.0658 21.6879 14.826 21.8926 14.5054C22.0975 14.1845 22.2159 13.7977 22.2328 13.3958L24.0126 10.7321C24.2734 11.0443 24.6141 11.2449 24.9809 11.3027C25.3481 11.3607 25.7208 11.2725 26.0412 11.052L26.5007 10.7363C26.8868 10.4708 27.1684 10.0339 27.2838 9.52179C27.399 9.00949 27.3384 8.46397 27.1156 8.00476L27.1155 8.00543ZM3.03933 9.65241C2.88469 9.97104 2.5422 10.0804 2.27403 9.8969L1.81447 9.58149V9.58173C1.54733 9.397 1.45613 8.99033 1.61036 8.67195L4.53948 2.63472C4.61357 2.48173 4.73587 2.37014 4.87925 2.32427C5.02284 2.27864 5.17582 2.3027 5.30438 2.39097L5.76394 2.70689C6.0315 2.89137 6.12333 3.29829 5.96909 3.61693L3.03933 9.65241ZM5.6746 14.5683C5.41602 14.3102 5.38221 13.852 5.59926 13.5442L6.90947 11.6864C7.12652 11.3794 7.51197 11.3395 7.77035 11.5974C8.02872 11.8553 8.06232 12.3133 7.84527 12.6202L6.53506 14.4803C6.43113 14.6278 6.28191 14.72 6.12058 14.7369C5.95926 14.7535 5.79876 14.6935 5.67458 14.5698L5.6746 14.5683ZM7.46988 16.3597C7.2113 16.1015 7.1777 15.6433 7.39454 15.3355L9.07837 12.9479C9.29605 12.6414 9.68109 12.6017 9.94011 12.8589C10.1987 13.117 10.2325 13.5752 10.0155 13.8827L8.33162 16.2704C8.22727 16.4187 8.07784 16.5117 7.91589 16.5288C7.75394 16.5456 7.59282 16.4854 7.46843 16.3611L7.46988 16.3597ZM9.26516 18.1512V18.1515C9.007 17.8929 8.97319 17.4354 9.1894 17.1271L10.4986 15.2716C10.6021 15.1238 10.7511 15.0316 10.9122 15.0152C10.9308 15.013 10.949 15.012 10.9669 15.012V15.0122C11.2044 15.0127 11.4202 15.1769 11.5204 15.4328C11.6206 15.6884 11.5872 15.9902 11.4346 16.2065L10.1263 18.0618C10.0221 18.2103 9.87269 18.3033 9.71074 18.3204C9.549 18.3373 9.38788 18.277 9.26349 18.1528L9.26516 18.1512ZM11.919 19.8548C11.8151 20.0028 11.6659 20.0953 11.5043 20.1119C11.3428 20.1278 11.1823 20.0675 11.0579 19.944C10.7991 19.6862 10.7655 19.2279 10.9824 18.9204L11.9144 17.5988V17.5985C12.0183 17.4508 12.1676 17.3583 12.3291 17.3417C12.3473 17.3399 12.3652 17.3392 12.3832 17.3392H12.3834C12.6209 17.3397 12.8369 17.5033 12.937 17.7592C13.0374 18.0151 13.0038 18.3169 12.8513 18.5331L11.919 19.8548ZM20.9654 13.7484C20.8567 13.8912 20.7041 13.976 20.5422 13.9842C20.395 13.9938 20.2504 13.9361 20.1383 13.8227L18.6154 12.1348L18.5904 12.1071H18.5902C18.3629 11.866 18.015 11.8849 17.8071 12.1495C17.5991 12.4143 17.6072 12.8279 17.8251 13.0808L19.876 15.3537H19.8762C20.059 15.5518 20.1235 15.8613 20.0394 16.138C19.9553 16.4145 19.7393 16.6037 19.492 16.6171C19.3313 16.6302 19.1733 16.5633 19.056 16.4323L17.0262 14.1826L17.0124 14.1672L17.0103 14.1647H17.0105C16.7837 13.9205 16.4339 13.9378 16.2248 14.2034C16.0159 14.469 16.0248 14.8848 16.2452 15.1372L17.6008 16.6555C17.852 16.9238 17.8725 17.3833 17.6465 17.6819C17.4206 17.9802 17.0339 18.0047 16.7829 17.7362L15.4332 16.2244C15.2075 15.9784 14.8576 15.993 14.647 16.2573C14.4366 16.5217 14.4437 16.9378 14.663 17.1917H14.6612L15.6425 18.3061C15.891 18.5788 15.9086 19.0386 15.6819 19.3371C15.5732 19.4797 15.4206 19.5647 15.2587 19.5732C15.0967 19.5814 14.9387 19.5127 14.8198 19.3817L14.0572 18.553V18.5533C14.1757 17.9998 14.0933 17.4126 13.8299 16.935C13.5665 16.4575 13.1464 16.1331 12.672 16.0414C12.7424 15.5097 12.6326 14.9664 12.3665 14.531C12.1006 14.0953 11.7003 13.8025 11.2531 13.7167C11.3443 13.011 11.1191 12.2996 10.6589 11.8399C10.1989 11.3804 9.57029 11.239 9.00075 11.4669C8.8676 11.0074 8.60088 10.6193 8.24859 10.3727C7.89609 10.1257 7.48143 10.0362 7.07842 10.12C6.67562 10.204 6.31104 10.4557 6.05036 10.8304L5.09283 12.1862L3.95583 10.3984C3.97149 10.3699 3.99256 10.3493 4.00697 10.3198L6.81673 4.52925L8.3438 3.89369C8.94113 3.64672 9.57825 3.56688 10.2059 3.66036L11.9607 3.92097L10.52 4.99714H10.5202C9.90512 5.45588 9.52573 6.25137 9.51007 7.1138C9.49442 7.97649 9.84462 8.79055 10.4423 9.28055C11.04 9.77055 11.805 9.87071 12.478 9.54736L16.1139 7.79101L20.9265 12.7208C21.1753 12.9921 21.1928 13.4514 20.9655 13.7484L20.9654 13.7484ZM21.8011 11.8978C21.76 11.8368 21.7161 11.7788 21.6698 11.7235L16.5854 6.51543C16.4262 6.35252 16.2039 6.30888 16.0094 6.40261L12.0568 8.31271C11.7333 8.46794 11.366 8.41958 11.079 8.18426C10.7921 7.94895 10.6239 7.55815 10.6312 7.14377C10.6385 6.72967 10.8207 6.34755 11.1158 6.12683L13.6179 4.25742V4.25717C14.2751 3.76644 15.0354 3.50583 15.8116 3.50583H17.6603C18.1854 3.50533 18.7054 3.6246 19.1926 3.85695L21.0333 4.73277L23.3702 9.54928L21.8011 11.8978ZM26.2011 9.17834C26.1629 9.34919 26.069 9.49475 25.9402 9.58327L25.4807 9.89869V9.89844C25.2125 10.0817 24.8702 9.97234 24.7154 9.65419L21.7856 3.61741C21.6314 3.29853 21.7232 2.89159 21.9908 2.70686L22.4503 2.39095C22.5351 2.33243 22.6313 2.30143 22.7292 2.30143C22.7786 2.30143 22.8279 2.30936 22.8757 2.32449C23.0193 2.36987 23.1416 2.4817 23.2152 2.63519L26.1444 8.67241C26.2193 8.82516 26.2397 9.00741 26.2011 9.17827V9.17834Z" fill="#00407C"/>
</svg>
