<svg width="11" height="11" viewBox="0 0 11 11" fill="none" xmlns="http://www.w3.org/2000/svg">
<g opacity="0.3" clip-path="url(#clip0_23_1629)">
<path d="M6.23501 7.74951C6.12256 7.75999 6.00966 7.73462 5.9125 7.677C5.84152 7.60412 5.80749 7.50295 5.82001 7.402C5.82263 7.31795 5.83267 7.23429 5.85001 7.152C5.86678 7.0576 5.88846 6.96414 5.915 6.872L6.21 5.85699C6.24042 5.75681 6.26053 5.65377 6.27 5.54948C6.27 5.43699 6.285 5.35948 6.285 5.31449C6.29127 5.11397 6.20566 4.92156 6.0525 4.79199C5.8641 4.64736 5.62949 4.57626 5.3925 4.59199C5.22266 4.59455 5.05414 4.62235 4.89249 4.67449C4.71582 4.72949 4.52998 4.79532 4.33499 4.872L4.25 5.202C4.30749 5.18199 4.37751 5.1595 4.4575 5.13449C4.53381 5.11189 4.61291 5.1001 4.69249 5.09949C4.80413 5.0874 4.91649 5.11481 5.00999 5.17699C5.0735 5.25276 5.1033 5.3512 5.09249 5.4495C5.09221 5.53356 5.08299 5.61738 5.06499 5.69949C5.04748 5.78699 5.02498 5.87948 4.99748 5.97698L4.69999 6.99697C4.67601 7.09178 4.65683 7.18773 4.6425 7.28448C4.63081 7.3673 4.62497 7.45083 4.62499 7.53447C4.62376 7.73636 4.71608 7.92744 4.87498 8.05196C5.06628 8.19885 5.30424 8.27166 5.54497 8.25697C5.71448 8.26045 5.88341 8.23595 6.04498 8.18446C6.18664 8.13612 6.37581 8.06696 6.61249 7.97696L6.69249 7.66196C6.62839 7.68856 6.56236 7.71028 6.49499 7.72695C6.40978 7.74641 6.3223 7.75397 6.23501 7.74951Z" fill="black"/>
<path d="M6.54718 2.93772C6.41112 2.81277 6.23185 2.74555 6.04717 2.75023C5.8626 2.74606 5.6835 2.81322 5.54716 2.93772C5.29726 3.15321 5.26935 3.5305 5.48486 3.78043C5.50407 3.80271 5.52488 3.82352 5.54716 3.84273C5.83187 4.09739 6.26246 4.09739 6.54715 3.84273C6.79706 3.62512 6.82325 3.24613 6.60563 2.99623C6.58754 2.97541 6.56799 2.95586 6.54718 2.93772Z" fill="black"/>
<path d="M5.5 0C2.46243 0 0 2.46243 0 5.5C0 8.53757 2.46243 11 5.5 11C8.53757 11 11 8.53757 11 5.5C11 2.46243 8.53757 0 5.5 0ZM5.5 10.5C2.73857 10.5 0.500006 8.26143 0.500006 5.5C0.500006 2.73857 2.73857 0.500006 5.5 0.500006C8.26143 0.500006 10.5 2.73857 10.5 5.5C10.5 8.26143 8.26143 10.5 5.5 10.5Z" fill="black"/>
</g>
<defs>
<clipPath id="clip0_23_1629">
<rect width="11" height="11" fill="white"/>
</clipPath>
</defs>
</svg>
