<svg width="26" height="22" viewBox="0 0 26 22" fill="none" xmlns="http://www.w3.org/2000/svg">
<g opacity="0.2">
<path d="M25.1474 6.52663L14.5127 0.849477C13.4333 0.289758 12.1539 0.289758 11.1144 0.849477L0.43978 6.52663C0.15992 6.64657 0 6.92643 0 7.24627V19.2403C0 20.5596 1.07946 21.6391 2.3988 21.6391H23.1884C24.5077 21.6391 25.5872 20.5596 25.5872 19.2403V7.24627C25.5872 6.92643 25.4273 6.64657 25.1474 6.52663ZM11.8341 2.24878C12.4338 1.92894 13.1534 1.92894 13.7531 2.24878L23.988 7.72603V8.36571L17.3113 11.9239L14.5127 10.4447C13.4333 9.88495 12.1539 9.88495 11.1144 10.4447L8.31583 11.9239L1.5992 8.36571V7.72603L11.8341 2.24878ZM1.5992 10.1648L6.59669 12.8435L1.5992 15.4821V10.1648ZM23.1884 20.0399H2.3988C1.95902 20.0399 1.5992 19.68 1.5992 19.2403V17.3212L11.8341 11.844C12.4338 11.5241 13.1534 11.5241 13.7531 11.844L21.2294 15.842C21.6292 16.0419 22.1089 15.9219 22.3088 15.5221C22.5087 15.1223 22.3888 14.6426 21.989 14.4427L19.0305 12.8435L23.988 10.1648V19.2403C23.988 19.68 23.6282 20.0399 23.1884 20.0399Z" fill="#1A1A1A"/>
</g>
</svg>
