<svg width="26" height="27" viewBox="0 0 26 27" fill="none" xmlns="http://www.w3.org/2000/svg">
<g opacity="0.2">
<path d="M13.0002 1.19531C9.17667 1.19531 6.11785 4.25414 6.11785 8.07767V11.1365C4.81785 11.1365 3.82373 12.1306 3.82373 13.4306V23.3718C3.82373 24.6718 4.81785 25.6659 6.11785 25.6659H19.8826C21.1826 25.6659 22.1767 24.6718 22.1767 23.3718V13.4306C22.1767 12.1306 21.1826 11.1365 19.8826 11.1365V8.07767C19.8826 4.25414 16.8237 1.19531 13.0002 1.19531ZM20.6473 13.4306V23.3718C20.6473 23.8306 20.3414 24.1365 19.8826 24.1365H6.11785C5.65902 24.1365 5.35314 23.8306 5.35314 23.3718V13.4306C5.35314 12.9718 5.65902 12.6659 6.11785 12.6659H6.88255H19.1178H19.8826C20.3414 12.6659 20.6473 12.9718 20.6473 13.4306ZM7.64726 11.1365V8.07767C7.64726 5.09531 10.0178 2.72472 13.0002 2.72472C15.9826 2.72472 18.3531 5.09531 18.3531 8.07767V11.1365H7.64726Z" fill="black"/>
<path d="M13.0002 14.9609C11.7002 14.9609 10.7061 15.9551 10.7061 17.2551C10.7061 18.2492 11.3178 19.0903 12.2355 19.3962V21.0786C12.2355 21.5374 12.5413 21.8433 13.0002 21.8433C13.459 21.8433 13.7649 21.5374 13.7649 21.0786V19.3962C14.6825 19.0903 15.2943 18.2492 15.2943 17.2551C15.2943 15.9551 14.3002 14.9609 13.0002 14.9609ZM13.0002 18.0198C12.5413 18.0198 12.2355 17.7139 12.2355 17.2551C12.2355 16.7962 12.5413 16.4903 13.0002 16.4903C13.459 16.4903 13.7649 16.7962 13.7649 17.2551C13.7649 17.7139 13.459 18.0198 13.0002 18.0198Z" fill="black"/>
</g>
</svg>
