<svg width="14" height="14" viewBox="0 0 14 14" fill="none" xmlns="http://www.w3.org/2000/svg">
<path d="M3.13074 4.85938H0V13.5635H3.13074V4.85938Z" fill="#FFAE1A"/>
<path d="M11.6585 4.96145C11.6252 4.95196 11.5937 4.94167 11.5587 4.93296C11.5167 4.92426 11.4747 4.91714 11.4319 4.91081C11.2656 4.88074 11.0836 4.85938 10.8701 4.85938C9.04486 4.85938 7.88724 6.05975 7.50574 6.52344V4.85938H4.375V13.5635H7.50574V8.81579C7.50574 8.81579 9.87174 5.83582 10.8701 8.02451C10.8701 9.97819 10.8701 13.5635 10.8701 13.5635H14V7.6898C14 6.37468 13.0034 5.27876 11.6585 4.96145Z" fill="#FFAE1A"/>
<path d="M1.53125 3.67574C2.37693 3.67574 3.06249 3.05577 3.06249 2.291C3.06249 1.52622 2.37693 0.90625 1.53125 0.90625C0.685562 0.90625 0 1.52622 0 2.291C0 3.05577 0.685562 3.67574 1.53125 3.67574Z" fill="#FFAE1A"/>
</svg>
