<svg width="191" height="33" viewBox="0 0 191 33" fill="none" xmlns="http://www.w3.org/2000/svg">
<path d="M0.998047 21.9785C0.998047 16.4396 5.48825 11.9494 11.0272 11.9494L11.3179 11.9494L11.3179 21.9785L0.998047 21.9785Z" fill="#00407C"/>
<path d="M11.3145 21.9785C11.3145 27.5175 6.82425 32.0077 1.28532 32.0077L0.994618 32.0077L0.994619 21.9785L11.3145 21.9785Z" fill="#009CC8"/>
<path d="M21.6367 11.9502C21.6367 6.41126 17.1465 1.92106 11.6076 1.92106L11.3169 1.92106L11.3169 11.9502L21.6367 11.9502Z" fill="#7E50A7"/>
<path d="M21.6367 11.9502C21.6367 17.4891 17.1465 21.9793 11.6076 21.9793L11.3169 21.9793L11.3169 11.9502L21.6367 11.9502Z" fill="#FFAE1A"/>
<path d="M35.0204 8.06168C35.526 7.35008 36.2189 6.7602 37.099 6.29204C37.9979 5.80516 39.0185 5.56171 40.1608 5.56171C41.4904 5.56171 42.6888 5.88943 43.7562 6.54485C44.8424 7.20027 45.6944 8.13658 46.3124 9.35379C46.9491 10.5523 47.2674 11.9474 47.2674 13.5391C47.2674 15.1309 46.9491 16.5447 46.3124 17.7806C45.6944 18.9978 44.8424 19.9435 43.7562 20.6177C42.6888 21.2918 41.4904 21.6289 40.1608 21.6289C39.0185 21.6289 38.0073 21.3948 37.1271 20.9267C36.2657 20.4585 35.5635 19.8686 35.0204 19.157V28.7917H31.0879V5.81452H35.0204V8.06168ZM43.2506 13.5391C43.2506 12.6028 43.054 11.7976 42.6607 11.1234C42.2862 10.4306 41.7806 9.90622 41.1439 9.55042C40.5259 9.19462 39.8518 9.01672 39.1215 9.01672C38.4099 9.01672 37.7357 9.20398 37.099 9.57851C36.4811 9.93431 35.9755 10.4586 35.5822 11.1515C35.2077 11.8444 35.0204 12.659 35.0204 13.5953C35.0204 14.5316 35.2077 15.3462 35.5822 16.0391C35.9755 16.732 36.4811 17.2657 37.099 17.6402C37.7357 17.996 38.4099 18.1739 39.1215 18.1739C39.8518 18.1739 40.5259 17.9866 41.1439 17.6121C41.7806 17.2376 42.2862 16.7039 42.6607 16.011C43.054 15.3181 43.2506 14.4942 43.2506 13.5391Z" fill="#7E50A7"/>
<path d="M64.2541 5.81452V21.3761H60.2935V19.4098C59.7879 20.084 59.1231 20.6177 58.2991 21.0109C57.4939 21.3854 56.6138 21.5727 55.6587 21.5727C54.4415 21.5727 53.3647 21.3199 52.4284 20.8143C51.4921 20.29 50.7524 19.5315 50.2094 18.539C49.685 17.5278 49.4228 16.3293 49.4228 14.9436V5.81452H53.3554V14.3818C53.3554 15.6177 53.6644 16.5728 54.2823 17.2469C54.9003 17.9024 55.743 18.2301 56.8104 18.2301C57.8965 18.2301 58.7485 17.9024 59.3665 17.2469C59.9845 16.5728 60.2935 15.6177 60.2935 14.3818V5.81452H64.2541Z" fill="#7E50A7"/>
<path d="M71.5049 8.23021C72.0105 7.40626 72.6659 6.7602 73.4712 6.29204C74.2951 5.82388 75.2314 5.5898 76.2801 5.5898V9.71896H75.2408C74.0049 9.71896 73.0685 10.0092 72.4318 10.5897C71.8139 11.1702 71.5049 12.1815 71.5049 13.6234V21.3761H67.5724V5.81452H71.5049V8.23021Z" fill="#7E50A7"/>
<path d="M82.2996 8.06168C82.8052 7.35008 83.4981 6.7602 84.3782 6.29204C85.2771 5.80516 86.2977 5.56171 87.44 5.56171C88.7695 5.56171 89.968 5.88943 91.0354 6.54485C92.1215 7.20027 92.9736 8.13658 93.5915 9.35379C94.2282 10.5523 94.5466 11.9474 94.5466 13.5391C94.5466 15.1309 94.2282 16.5447 93.5915 17.7806C92.9736 18.9978 92.1215 19.9435 91.0354 20.6177C89.968 21.2918 88.7695 21.6289 87.44 21.6289C86.2977 21.6289 85.2864 21.3948 84.4063 20.9267C83.5449 20.4585 82.8427 19.8686 82.2996 19.157V28.7917H78.3671V5.81452H82.2996V8.06168ZM90.5298 13.5391C90.5298 12.6028 90.3332 11.7976 89.9399 11.1234C89.5654 10.4306 89.0598 9.90622 88.4231 9.55042C87.8051 9.19462 87.131 9.01672 86.4006 9.01672C85.689 9.01672 85.0149 9.20398 84.3782 9.57851C83.7602 9.93431 83.2546 10.4586 82.8614 11.1515C82.4868 11.8444 82.2996 12.659 82.2996 13.5953C82.2996 14.5316 82.4868 15.3462 82.8614 16.0391C83.2546 16.732 83.7602 17.2657 84.3782 17.6402C85.0149 17.996 85.689 18.1739 86.4006 18.1739C87.131 18.1739 87.8051 17.9866 88.4231 17.6121C89.0598 17.2376 89.5654 16.7039 89.9399 16.011C90.3332 15.3181 90.5298 14.4942 90.5298 13.5391Z" fill="#7E50A7"/>
<path d="M100.775 0.58988V21.3761H96.8425V0.58988H100.775Z" fill="#7E50A7"/>
<path d="M118.565 13.2582C118.565 13.82 118.527 14.3256 118.452 14.7751H107.076C107.17 15.8986 107.563 16.7788 108.256 17.4155C108.949 18.0522 109.801 18.3705 110.812 18.3705C112.273 18.3705 113.312 17.7432 113.93 16.4885H118.171C117.722 17.9866 116.861 19.2226 115.587 20.1963C114.314 21.1514 112.75 21.6289 110.896 21.6289C109.398 21.6289 108.05 21.3012 106.851 20.6458C105.672 19.9716 104.745 19.0259 104.07 17.8087C103.415 16.5915 103.087 15.187 103.087 13.5953C103.087 11.9848 103.415 10.571 104.07 9.35379C104.726 8.13658 105.643 7.20027 106.823 6.54485C108.003 5.88943 109.361 5.56171 110.896 5.56171C112.376 5.56171 113.696 5.88006 114.857 6.51676C116.037 7.15345 116.945 8.06168 117.581 9.24144C118.237 10.4025 118.565 11.7414 118.565 13.2582ZM114.492 12.1347C114.473 11.1234 114.108 10.3182 113.396 9.71896C112.685 9.10099 111.814 8.792 110.784 8.792C109.81 8.792 108.986 9.09162 108.312 9.69087C107.657 10.2714 107.254 11.086 107.104 12.1347H114.492Z" fill="#7E50A7"/>
<path d="M126.547 21.6289C125.368 21.6289 124.31 21.4323 123.373 21.039C122.437 20.627 121.697 20.0652 121.154 19.3536C120.611 18.6233 120.311 17.79 120.255 16.8537H122.896C122.971 17.6215 123.326 18.2488 123.963 18.7357C124.618 19.2226 125.471 19.466 126.519 19.466C127.493 19.466 128.261 19.2506 128.823 18.8199C129.384 18.3892 129.665 17.8462 129.665 17.1908C129.665 16.5166 129.366 16.0204 128.766 15.702C128.167 15.3649 127.24 15.0372 125.985 14.7189C124.843 14.4193 123.907 14.1196 123.177 13.82C122.465 13.5017 121.847 13.0429 121.323 12.4436C120.817 11.8257 120.564 11.0204 120.564 10.0279C120.564 9.24143 120.798 8.52047 121.266 7.86505C121.735 7.20963 122.399 6.69466 123.261 6.32013C124.122 5.92688 125.105 5.73025 126.21 5.73025C127.914 5.73025 129.291 6.16096 130.339 7.02237C131.388 7.88378 131.95 9.06353 132.025 10.5616H129.469C129.412 9.75641 129.085 9.11035 128.485 8.62347C127.905 8.13658 127.118 7.89314 126.126 7.89314C125.208 7.89314 124.478 8.08977 123.935 8.48302C123.392 8.87627 123.12 9.39124 123.12 10.0279C123.12 10.5336 123.28 10.9549 123.598 11.292C123.935 11.6103 124.347 11.8725 124.834 12.0785C125.339 12.2657 126.032 12.4811 126.912 12.7245C128.017 13.0241 128.916 13.3238 129.609 13.6234C130.302 13.9043 130.892 14.335 131.379 14.9155C131.884 15.496 132.146 16.2544 132.165 17.1908C132.165 18.0334 131.931 18.7919 131.463 19.466C130.995 20.1401 130.33 20.6738 129.469 21.0671C128.626 21.4416 127.652 21.6289 126.547 21.6289Z" fill="#7E50A7"/>
<path d="M138.33 8.08977V17.1627C138.33 17.9117 138.489 18.4454 138.807 18.7638C139.126 19.0634 139.678 19.2132 140.465 19.2132H142.347V21.3761H140.043C138.62 21.3761 137.553 21.0484 136.841 20.393C136.129 19.7375 135.774 18.6608 135.774 17.1627V8.08977H133.779V5.98306H135.774V2.10671H138.33V5.98306H142.347V8.08977H138.33Z" fill="#7E50A7"/>
<path d="M143.927 13.6234C143.927 12.0504 144.245 10.674 144.882 9.49424C145.519 8.29576 146.389 7.3688 147.494 6.71338C148.618 6.05796 149.863 5.73025 151.23 5.73025C152.578 5.73025 153.749 6.02051 154.741 6.60102C155.734 7.18154 156.473 7.91187 156.96 8.792V5.98306H159.545V21.3761H156.96V18.511C156.455 19.4098 155.696 20.1589 154.685 20.7581C153.693 21.3386 152.532 21.6289 151.202 21.6289C149.835 21.6289 148.599 21.2918 147.494 20.6177C146.389 19.9435 145.519 18.9978 144.882 17.7806C144.245 16.5634 143.927 15.1777 143.927 13.6234ZM156.96 13.6515C156.96 12.4905 156.726 11.4792 156.258 10.6178C155.79 9.75641 155.153 9.10099 154.348 8.65156C153.561 8.1834 152.691 7.94932 151.736 7.94932C150.781 7.94932 149.91 8.17403 149.123 8.62347C148.337 9.0729 147.709 9.72832 147.241 10.5897C146.773 11.4511 146.539 12.4624 146.539 13.6234C146.539 14.8031 146.773 15.8331 147.241 16.7132C147.709 17.5746 148.337 18.2394 149.123 18.7076C149.91 19.157 150.781 19.3817 151.736 19.3817C152.691 19.3817 153.561 19.157 154.348 18.7076C155.153 18.2394 155.79 17.5746 156.258 16.7132C156.726 15.8331 156.96 14.8125 156.96 13.6515Z" fill="#7E50A7"/>
<path d="M164.623 3.48309C164.136 3.48309 163.724 3.31456 163.387 2.97748C163.05 2.64041 162.881 2.22843 162.881 1.74155C162.881 1.25466 163.05 0.842684 163.387 0.505611C163.724 0.168537 164.136 0 164.623 0C165.091 0 165.484 0.168537 165.802 0.505611C166.139 0.842684 166.308 1.25466 166.308 1.74155C166.308 2.22843 166.139 2.64041 165.802 2.97748C165.484 3.31456 165.091 3.48309 164.623 3.48309ZM165.858 5.98306V21.3761H163.302V5.98306H165.858Z" fill="#7E50A7"/>
<path d="M172.209 8.48302C172.659 7.60288 173.295 6.91937 174.119 6.43249C174.962 5.9456 175.983 5.70216 177.181 5.70216V8.34257H176.507C173.642 8.34257 172.209 9.89686 172.209 13.0054V21.3761H169.653V5.98306H172.209V8.48302Z" fill="#7E50A7"/>
<path d="M185.019 21.6289C183.84 21.6289 182.782 21.4323 181.845 21.039C180.909 20.627 180.169 20.0652 179.626 19.3536C179.083 18.6233 178.784 17.79 178.727 16.8537H181.368C181.443 17.6215 181.799 18.2488 182.435 18.7357C183.091 19.2226 183.943 19.466 184.991 19.466C185.965 19.466 186.733 19.2506 187.295 18.8199C187.856 18.3892 188.137 17.8462 188.137 17.1908C188.137 16.5166 187.838 16.0204 187.239 15.702C186.639 15.3649 185.712 15.0372 184.458 14.7189C183.315 14.4193 182.379 14.1196 181.649 13.82C180.937 13.5017 180.319 13.0429 179.795 12.4436C179.289 11.8257 179.036 11.0204 179.036 10.0279C179.036 9.24143 179.27 8.52047 179.739 7.86505C180.207 7.20963 180.872 6.69466 181.733 6.32013C182.594 5.92688 183.578 5.73025 184.682 5.73025C186.386 5.73025 187.763 6.16096 188.812 7.02237C189.86 7.88378 190.422 9.06353 190.497 10.5616H187.941C187.885 9.75641 187.557 9.11035 186.958 8.62347C186.377 8.13658 185.591 7.89314 184.598 7.89314C183.681 7.89314 182.95 8.08977 182.407 8.48302C181.864 8.87627 181.593 9.39124 181.593 10.0279C181.593 10.5336 181.752 10.9549 182.07 11.292C182.407 11.6103 182.819 11.8725 183.306 12.0785C183.812 12.2657 184.504 12.4811 185.385 12.7245C186.489 13.0241 187.388 13.3238 188.081 13.6234C188.774 13.9043 189.364 14.335 189.851 14.9155C190.356 15.496 190.619 16.2544 190.637 17.1908C190.637 18.0334 190.403 18.7919 189.935 19.466C189.467 20.1401 188.802 20.6738 187.941 21.0671C187.098 21.4416 186.124 21.6289 185.019 21.6289Z" fill="#7E50A7"/>
</svg>
