<svg width="22" height="24" viewBox="0 0 22 24" fill="none" xmlns="http://www.w3.org/2000/svg">
<path d="M17.8976 4.96595L19.4039 3.45972C19.6784 3.18512 19.6784 2.73995 19.4039 2.46536C19.1293 2.19076 18.6841 2.19081 18.4095 2.46536L16.9032 3.97159C16.6286 4.24614 16.6286 4.69136 16.9032 4.96595C17.1777 5.2405 17.6229 5.24059 17.8976 4.96595Z" fill="#FFAE1A"/>
<path d="M21.1664 8.28436H19.6602C19.2718 8.28436 18.957 8.59918 18.957 8.98749C18.957 9.3758 19.2718 9.69061 19.6602 9.69061H21.1664C21.5548 9.69061 21.8696 9.3758 21.8696 8.98749C21.8696 8.59918 21.5548 8.28436 21.1664 8.28436Z" fill="#FFAE1A"/>
<path d="M12.8828 2.91248C13.2711 2.91248 13.5859 2.59767 13.5859 2.20936V0.703125C13.5859 0.314812 13.2711 0 12.8828 0C12.4945 0 12.1797 0.314812 12.1797 0.703125V2.20936C12.1797 2.59767 12.4945 2.91248 12.8828 2.91248Z" fill="#FFAE1A"/>
<path d="M0.334764 17.5278C0.0604043 17.8021 0.06017 18.2476 0.334764 18.5222L3.34728 21.5347C3.62178 21.8092 4.067 21.8093 4.34164 21.5347L5.51989 20.3565L1.51306 16.3497L0.334764 17.5278Z" fill="#FFAE1A"/>
<path d="M12.5075 18.0955L7.57031 20.4189L10.9455 23.7941C11.22 24.0686 11.6652 24.0687 11.9398 23.7941L14.5757 21.1581C14.8503 20.8836 14.8503 20.4384 14.5757 20.1638L12.5075 18.0955Z" fill="#FFAE1A"/>
<path d="M9.61397 2.46533C9.45206 2.30343 9.22144 2.23054 8.99588 2.26986C8.77031 2.30924 8.57808 2.45596 8.48058 2.66315L2.50781 15.3552L6.51464 19.3621L19.2068 13.3893C19.4139 13.2918 19.5607 13.0995 19.6 12.874C19.6394 12.6484 19.5665 12.4178 19.4046 12.2559L9.61397 2.46533Z" fill="#FFAE1A"/>
</svg>
