<svg width="37" height="46" viewBox="0 0 37 46" fill="none" xmlns="http://www.w3.org/2000/svg">
<path d="M20.2644 0.138786C18.3566 0.433697 16.0526 1.17098 14.3477 2.02807L13.463 2.47044L12.6243 2.17552C11.8225 1.89904 11.7211 1.88983 10.3572 1.88061C8.81809 1.88061 8.41259 1.96356 7.25137 2.48887C4.81835 3.57635 2.70788 6.29507 1.2794 10.1658C-0.361044 14.6079 -0.425556 19.5569 1.09508 23.6211C1.38078 24.3769 1.41764 24.5888 1.41764 25.3169C1.41764 26.6993 1.77707 28.1093 2.42219 29.2429C2.6618 29.6576 2.69867 29.8419 2.75396 30.7728C3.11339 36.7079 6.3482 41.6937 11.4999 44.2281C17.859 47.3431 25.4806 45.8501 30.1992 40.5509C30.9549 39.7123 31.9871 38.2009 32.4663 37.2332C33.434 35.307 34.1252 32.6436 34.1344 30.8373C34.1344 30.3673 34.1713 30.2475 34.4662 29.8696C34.8901 29.3166 35.3602 28.3305 35.6182 27.455C35.8025 26.8652 35.8302 26.5334 35.8394 25.1049C35.8578 23.6027 35.8763 23.3723 36.0974 22.6627C36.9177 19.9716 37.2034 16.8013 36.8532 14.1195C36.3278 10.1566 34.5584 6.55312 31.7475 3.76989C29.7384 1.77924 27.5358 0.618019 24.9369 0.166435C23.6835 -0.0455322 21.527 -0.0547485 20.2644 0.138786ZM25.029 1.38295C28.2731 2.03728 30.9181 3.95421 33.0654 7.21667C34.927 10.0368 35.8025 13.0135 35.8117 16.534C35.821 18.2021 35.7288 19.0961 35.4155 20.6167L35.2127 21.5752L34.8349 20.8471C34.6229 20.4508 34.3833 20.0269 34.3003 19.8979C34.1529 19.6951 34.1344 19.4187 34.1344 17.4372V15.1977L34.5492 14.8014C34.8349 14.525 34.9639 14.3222 34.9639 14.1563C34.9639 13.8614 34.669 13.5388 34.4017 13.5388C34.3003 13.5388 33.8764 13.8338 33.4617 14.1932C32.494 15.0318 31.4157 15.7415 30.4204 16.2115L29.6278 16.5893L28.4482 16.488C26.181 16.3129 23.2688 16.2023 19.4994 16.1654L15.6932 16.1193L15.214 15.8797C14.3569 15.4466 13.1773 14.6171 12.5598 13.9996C11.288 12.7278 10.5968 11.3639 10.3111 9.55754C10.1913 8.80183 9.15908 8.85712 9.15908 9.61283C9.15908 9.85245 9.25124 10.3132 9.50007 11.3915L9.54615 11.6035H7.69374C6.06251 11.6035 5.77681 11.6219 5.26072 11.797C4.19166 12.1472 3.37144 12.9582 2.95672 14.0642C2.7724 14.5618 2.75396 14.8199 2.70788 17.5478L2.6618 20.4969L2.24708 21.3264L1.84158 22.1558L1.72177 21.7411C1.1596 19.8702 1.01214 16.488 1.39921 14.2761C1.99825 10.7833 3.50046 7.38256 5.34366 5.34583C6.91959 3.61322 9.03006 2.74691 11.0299 3.0234C11.8133 3.13399 12.8086 3.43811 13.039 3.64087C13.1127 3.71459 13.251 3.76989 13.3431 3.76989C13.4261 3.76989 14.062 3.4842 14.7624 3.1432C18.3751 1.3553 21.9232 0.747044 25.029 1.38295ZM10.5323 13.3822C11.0852 14.2116 12.0437 15.2069 12.8271 15.7783L13.4077 16.2023L13.1035 16.2484C12.9376 16.276 12.1358 16.3221 11.3248 16.3497C8.81809 16.4419 7.81355 16.5617 6.97489 16.8474C6.03486 17.17 5.10404 17.7137 4.41284 18.3496L3.88753 18.8288L3.9244 16.7092C3.95204 14.4328 3.96126 14.4051 4.52344 13.6587C4.79992 13.2808 5.4266 12.9122 5.9427 12.8108C6.16388 12.7647 7.18686 12.7278 8.20984 12.7186L10.0715 12.7094L10.5323 13.3822ZM33.0285 17.2252C33.0285 17.8335 33.0009 18.3312 32.9732 18.3312C32.9456 18.3312 32.7613 18.2114 32.5769 18.0639C32.3926 17.9164 32.0055 17.6584 31.7106 17.4741L31.1761 17.1515L31.8489 16.7829C32.2175 16.5801 32.6046 16.3497 32.706 16.2668C32.8073 16.1931 32.9179 16.1193 32.964 16.1193C33.0009 16.1193 33.0285 16.617 33.0285 17.2252ZM11.675 22.0544C12.1635 22.1835 12.6243 22.3125 12.698 22.3586C12.7718 22.3954 12.3202 22.4415 11.6658 22.4415C9.86871 22.4599 8.05316 22.9023 7.97943 23.3355C7.92414 23.6396 8.05316 23.9621 8.26513 24.0359C8.41259 24.0912 8.77201 24.0543 9.3987 23.8976C10.5231 23.6211 10.5783 23.6211 10.4493 23.8515C10.3111 24.1188 10.3387 24.8469 10.4954 25.1418C10.818 25.7869 11.629 26.1555 12.2925 25.9804C13.2049 25.7316 13.721 24.7639 13.3984 23.9161C13.3155 23.6857 13.3247 23.6764 13.5643 23.7317C14.2187 23.8792 15.085 24.1925 15.1218 24.3031C15.214 24.5335 14.9283 24.9943 14.4583 25.3445C13.8132 25.833 12.7165 26.3214 11.6566 26.5979C10.5138 26.8928 9.05771 26.8652 8.20984 26.5426C6.67998 25.9528 5.9427 24.6718 6.47723 23.5474C7.18686 22.0821 9.3434 21.4646 11.675 22.0544ZM29.0933 22.1005C29.7568 22.3586 30.3098 22.7825 30.6784 23.2986C30.9181 23.6396 30.9549 23.7686 30.9549 24.3216C30.9549 24.8745 30.9181 25.0035 30.6784 25.3445C30.0149 26.2846 29.0656 26.7269 27.545 26.7822C26.6787 26.8191 26.4022 26.7915 25.6373 26.5887C24.6604 26.3399 23.4347 25.7961 22.8264 25.3538C22.3748 25.022 22.126 24.598 22.1721 24.2478C22.1997 24.0267 22.2642 23.9898 22.8448 23.8423C23.7388 23.6304 23.8402 23.6304 23.7204 23.8515C23.5821 24.1188 23.6098 24.8469 23.7664 25.1418C24.089 25.7869 24.9 26.1555 25.5636 25.9804C26.4759 25.7316 26.992 24.7639 26.6695 23.9161C26.5865 23.6857 26.5958 23.6764 26.8354 23.7317C26.9736 23.7594 27.4252 23.8976 27.8399 24.0267C28.5588 24.2478 28.5956 24.2571 28.826 24.1096C29.0841 23.9345 29.1394 23.6211 28.9735 23.3078C28.7799 22.9484 27.1671 22.5244 25.5728 22.4231C25.0567 22.3862 24.6512 22.3401 24.6696 22.3217C24.688 22.3033 25.0935 22.1835 25.5728 22.0636C26.7063 21.7595 28.2546 21.778 29.0933 22.1005ZM20.2736 28.2015C21.1952 28.478 22.2458 29.0678 23.8955 30.2106C25.5728 31.381 26.4299 31.8603 27.4528 32.2105C28.0887 32.4224 28.3468 32.4593 29.296 32.4685C30.5586 32.4777 31.342 32.2934 32.365 31.7312C32.6783 31.5653 32.9364 31.4547 32.9364 31.5008C32.9364 31.5469 32.8534 32.0722 32.752 32.662C32.2728 35.4453 30.9641 38.035 28.9735 40.1178C27.9136 41.2237 27.0381 41.9333 25.8861 42.6245C20.9556 45.5644 14.7348 45.3156 10.0162 41.9886C8.98398 41.2606 7.33431 39.6109 6.60625 38.5787C5.54641 37.0673 4.70776 35.2057 4.28382 33.3901C4.0995 32.5975 3.89675 31.1414 3.97969 31.1414C3.99812 31.1414 4.18244 31.2612 4.39441 31.4087C5.50033 32.1644 6.54174 32.4777 7.961 32.4685C9.74891 32.4685 10.735 32.0538 13.3524 30.2198C15.4813 28.7268 16.4489 28.2291 17.7115 28.008C18.3474 27.8882 19.5547 27.9803 20.2736 28.2015Z" fill="#7E50A7"/>
<path d="M21.6203 34.9419C21.4636 35.0617 21.1134 35.329 20.8461 35.5409C20.0628 36.1492 19.5098 36.3427 18.4223 36.3427C17.5745 36.3519 17.4547 36.3243 16.9017 36.0663C16.5699 35.9096 16.0354 35.5686 15.7036 35.3013C15.0216 34.7484 14.6991 34.7023 14.3857 35.1262C14.1369 35.458 14.2291 35.7621 14.7359 36.2414C15.676 37.1445 16.7911 37.6053 18.1459 37.6698C19.731 37.7343 21.0673 37.2735 22.0811 36.3059C22.7078 35.7068 22.7815 35.3566 22.3852 34.9695C22.1087 34.6839 21.9797 34.6839 21.6203 34.9419Z" fill="#7E50A7"/>
</svg>
