<svg width="123" height="123" viewBox="0 0 123 123" fill="none" xmlns="http://www.w3.org/2000/svg">
<g opacity="0.1">
<path fill-rule="evenodd" clip-rule="evenodd" d="M32.1005 105.57C37.7126 109.304 44.0851 111.992 50.9322 113.375V122.84H71.9078V113.375C78.745 111.992 85.1175 109.304 90.7296 105.57L97.4284 112.268L112.258 97.4383L105.56 90.7395C109.294 85.1179 111.992 78.7549 113.365 71.9078H122.84V61.415V50.9322H113.365C111.992 44.0851 109.294 37.7225 105.56 32.1005L112.258 25.4017L97.4284 10.5717L90.7296 17.2705C85.1179 13.5359 78.745 10.8484 71.9078 9.46521V0H50.9322V9.46521C44.0851 10.8484 37.7126 13.5359 32.1005 17.2705L25.4017 10.5717L10.5717 25.4017L17.2705 32.1005C13.5359 37.7221 10.8385 44.0851 9.4652 50.9322H0V61.415V71.9078H9.4652C10.8385 78.7549 13.5359 85.1175 17.2705 90.7395L10.5717 97.4383L25.4017 112.268L32.1005 105.57ZM61.415 95.7586C53.4912 95.7586 46.1898 93.0711 40.3704 88.5559C32.2884 82.2722 27.0814 72.4513 27.0814 61.415C27.0814 42.4549 42.4549 27.0814 61.415 27.0814C80.3851 27.0814 95.7586 42.4549 95.7586 61.415C95.7586 72.4513 90.5516 82.2722 82.4597 88.5559C76.6502 93.0711 69.3488 95.7586 61.415 95.7586Z" fill="#7E50A7"/>
</g>
<path fill-rule="evenodd" clip-rule="evenodd" d="M51.1133 54.7734H70.695V59.1718H51.1133V54.7734Z" fill="#7E50A7"/>
<path fill-rule="evenodd" clip-rule="evenodd" d="M60.9031 51.4025L63.6428 48.2182L60.9031 45.0312L58.166 48.2182L60.9031 51.4025Z" fill="#7E50A7"/>
<path d="M81.4122 70.8279C80.2285 69.1704 78.4927 67.8371 76.1053 66.7519L66.8001 62.5248C66.4836 62.3811 66.1122 62.4351 65.8498 62.6633L60.9071 66.9611L55.9646 62.6634C55.7023 62.4352 55.3308 62.3811 55.0143 62.5249L45.7086 66.7521C43.3223 67.8375 41.5869 69.1706 40.4032 70.8278C39.045 72.7292 38.3848 75.063 38.3848 77.9626V82.9768C38.3848 83.4674 38.7826 83.8652 39.2732 83.8652H82.541C83.0316 83.8652 83.4294 83.4674 83.4294 82.9768V77.9626C83.4295 75.0625 82.7696 72.7288 81.4122 70.8279ZM66.5848 64.3787L68.8763 65.4197L66.3167 70.9308L62.3374 68.072L66.5848 64.3787ZM59.3243 75.1861H62.49L63.8051 82.0884H58.0092L59.3243 75.1861ZM62.6491 73.4093H59.1651L58.1752 71.1951L60.9071 69.2324L63.639 71.195L62.6491 73.4093ZM55.2295 64.3787L59.4769 68.072L55.4976 70.9308L52.9379 65.4197L55.2295 64.3787ZM40.1616 77.9626C40.1616 73.2414 42.0405 70.3725 46.4438 68.3697L51.3202 66.1546L54.3384 72.653C54.4499 72.8931 54.6627 73.071 54.9187 73.138C54.9931 73.1575 55.0687 73.1671 55.1441 73.1671C55.3282 73.1671 55.5098 73.1098 55.6625 73.0002L56.7021 72.2533L57.6642 74.4054L56.2004 82.0884H40.1616V77.9626ZM81.6527 82.0884H65.6139L64.1501 74.4054L65.1122 72.2533L66.1518 73.0002C66.3044 73.1099 66.4861 73.1671 66.6702 73.1671C66.7455 73.1671 66.8212 73.1575 66.8956 73.138C67.1516 73.0709 67.3644 72.893 67.4759 72.653L70.4941 66.1546L75.3703 68.3696C79.7738 70.3713 81.6527 73.2403 81.6527 77.9626V82.0884Z" fill="#1A1A1A"/>
<path d="M50.2305 54.8918V59.1724C50.2305 59.6631 50.6283 60.0608 51.1189 60.0608H70.7006C71.1912 60.0608 71.589 59.6631 71.589 59.1724V54.8918L75.4763 40.4814C75.5721 40.1263 75.4391 39.749 75.1421 39.5322C74.8449 39.3155 74.4449 39.3043 74.1362 39.5039C73.7664 39.7429 73.4052 39.9836 73.0559 40.2165C70.8358 41.696 68.9173 42.9734 66.3584 42.7911C64.6019 42.6647 63.8431 41.6498 62.6946 40.1135C62.353 39.6567 61.9998 39.1843 61.588 38.6975C61.4192 38.498 61.1711 38.3828 60.9097 38.3828C60.6484 38.3828 60.4002 38.498 60.2314 38.6975C59.8197 39.1843 59.4665 39.6567 59.1249 40.1135C57.9764 41.6498 57.2176 42.6647 55.4611 42.7911C52.9004 42.9735 50.9835 41.6959 48.7636 40.2165C48.4142 39.9836 48.053 39.7429 47.6833 39.5039C47.3744 39.3043 46.9745 39.3156 46.6774 39.5322C46.3803 39.7489 46.2474 40.1263 46.3432 40.4814L50.2305 54.8918ZM55.588 44.5634H55.5887C58.1548 44.3788 59.3173 42.8238 60.5481 41.1775C60.6667 41.0188 60.7868 40.8582 60.9097 40.6965C61.0328 40.8582 61.1528 41.0188 61.2714 41.1775C62.5022 42.8238 63.6647 44.3788 66.2314 44.5634C69.0018 44.7615 71.0752 43.6353 73.1493 42.2848L69.8428 54.5427C69.8224 54.6182 69.8121 54.696 69.8121 54.7741V58.284H52.0073V54.7741C52.0073 54.696 51.997 54.6182 51.9766 54.5427L48.67 42.2848C50.7444 43.6353 52.8181 44.7611 55.588 44.5634Z" fill="#1A1A1A"/>
</svg>
