<svg width="72" height="72" viewBox="0 0 72 72" fill="none" xmlns="http://www.w3.org/2000/svg">
<g opacity="0.1">
<path fill-rule="evenodd" clip-rule="evenodd" d="M18.5965 61.1589C21.8478 63.3224 25.5395 64.8793 29.5062 65.6806V71.1641H41.6579V65.6806C45.6188 64.8793 49.3106 63.3224 52.5618 61.1589L56.4425 65.0396L65.0339 56.4483L61.1531 52.5675C63.3166 49.3108 64.8793 45.6245 65.6749 41.6579H71.1641V35.5792V29.5062H65.6749C64.8793 25.5395 63.3166 21.8535 61.1531 18.5965L65.0339 14.7158L56.4425 6.12444L52.5618 10.0052C49.3108 7.84168 45.6188 6.28474 41.6579 5.48341V0H29.5062V5.48341C25.5395 6.28474 21.8478 7.84168 18.5965 10.0052L14.7158 6.12444L6.12444 14.7158L10.0052 18.5965C7.84168 21.8533 6.279 25.5395 5.48341 29.5062H0V35.5792V41.6579H5.48341C6.279 45.6245 7.84168 49.3106 10.0052 52.5675L6.12444 56.4483L14.7158 65.0396L18.5965 61.1589ZM35.5792 55.4752C30.9887 55.4752 26.7588 53.9182 23.3875 51.3025C18.7054 47.6622 15.6889 41.9728 15.6889 35.5792C15.6889 24.5951 24.5951 15.6889 35.5792 15.6889C46.5689 15.6889 55.4752 24.5951 55.4752 35.5792C55.4752 41.9728 52.4587 47.6622 47.7708 51.3025C44.4052 53.9182 40.1754 55.4752 35.5792 55.4752Z" fill="#7E50A7"/>
</g>
<circle cx="35.6158" cy="35.2056" r="22.44" fill="white"/>
<path fill-rule="evenodd" clip-rule="evenodd" d="M29.5835 44.0502H42.4165C42.6425 44.0502 42.8261 43.8666 42.8261 43.6406C42.8261 43.4146 42.6425 43.231 42.4165 43.231H29.5835C29.3574 43.231 29.1738 43.4146 29.1738 43.6406C29.1738 43.8666 29.3574 44.0502 29.5835 44.0502ZM42.0045 40.9531H29.995C29.7689 40.9531 29.5853 41.1367 29.5853 41.3628C29.5853 41.5888 29.7689 41.7724 29.995 41.7724H42.0045C42.2306 41.7724 42.4142 41.5888 42.4142 41.3628C42.4142 41.1367 42.2306 40.9531 42.0045 40.9531Z" fill="black"/>
<path fill-rule="evenodd" clip-rule="evenodd" d="M32.8851 24.9252H40.7473C40.9734 24.9252 41.157 24.7416 41.157 24.5156C41.157 24.2896 40.9734 24.106 40.7473 24.106H32.8851C32.6591 24.106 32.4755 24.2896 32.4755 24.5156C32.4755 24.7416 32.6591 24.9252 32.8851 24.9252ZM40.7473 21.8281H31.3159C31.0899 21.8281 30.9062 22.0119 30.9062 22.2378C30.9062 22.4638 31.0899 22.6474 31.3159 22.6474H40.7473C40.9734 22.6474 41.157 22.4638 41.157 22.2378C41.157 22.0119 40.9734 21.8281 40.7473 21.8281Z" fill="black"/>
<path fill-rule="evenodd" clip-rule="evenodd" d="M31.6616 32.8443V22.2289C31.6616 21.5503 31.1113 21 30.4327 21H29.7934C29.1147 21 28.5645 21.5503 28.5645 22.2289V32.8443C28.5645 33.0703 28.7481 33.2539 28.9741 33.2539C29.2001 33.2539 29.3837 33.0703 29.3837 32.8443V22.2289C29.3837 22.0029 29.5673 21.8193 29.7934 21.8193H30.4327C30.6587 21.8193 30.8423 22.0029 30.8423 22.2289V32.8443C30.8423 33.0703 31.0259 33.2539 31.2519 33.2539C31.478 33.2539 31.6616 33.0703 31.6616 32.8443Z" fill="black"/>
<path fill-rule="evenodd" clip-rule="evenodd" d="M43.435 32.8443V22.2289C43.435 21.5503 42.8847 21 42.2061 21H41.5668C40.8882 21 40.3379 21.5503 40.3379 22.2289V32.8443C40.3379 33.0703 40.5215 33.2539 40.7475 33.2539C40.9736 33.2539 41.1572 33.0703 41.1572 32.8443V22.2289C41.1572 22.0029 41.3408 21.8193 41.5668 21.8193H42.2061C42.4321 21.8193 42.6157 22.0029 42.6157 22.2289V32.8443C42.6157 33.0703 42.7993 33.2539 43.0254 33.2539C43.2514 33.2539 43.435 33.0703 43.435 32.8443Z" fill="black"/>
<path fill-rule="evenodd" clip-rule="evenodd" d="M46 33.6664C46 33.3405 45.8705 33.028 45.6401 32.7974C45.4097 32.567 45.0969 32.4375 44.7711 32.4375H27.2289C26.903 32.4375 26.5905 32.567 26.3599 32.7974C26.1295 33.0278 26 33.3405 26 33.6664V34.401C26 34.7268 26.1295 35.0394 26.3599 35.27C26.5903 35.5002 26.903 35.6298 27.2289 35.6298H44.7711C45.4497 35.6298 46 35.0796 46 34.4009L46 33.6664ZM45.1807 33.6664V34.401C45.1807 34.627 44.9971 34.8106 44.7711 34.8106H27.2289C27.1202 34.8106 27.0162 34.7674 26.9394 34.6905C26.8624 34.6136 26.8192 34.5094 26.8192 34.401V33.6664C26.8192 33.5579 26.8624 33.4537 26.9394 33.3769C27.0162 33.2999 27.1202 33.2567 27.2289 33.2567H44.7711C44.8797 33.2567 44.9838 33.2999 45.0606 33.3769C45.1375 33.4537 45.1807 33.5579 45.1807 33.6664Z" fill="#7E50A7"/>
<path fill-rule="evenodd" clip-rule="evenodd" d="M33.9629 24.5112V32.8425C33.9629 33.0685 34.1465 33.2521 34.3725 33.2521C34.5986 33.2521 34.7822 33.0685 34.7822 32.8425V24.5112C34.7822 24.2852 34.5986 24.1016 34.3725 24.1016C34.1465 24.1016 33.9629 24.2852 33.9629 24.5112Z" fill="#7E50A7"/>
<path fill-rule="evenodd" clip-rule="evenodd" d="M37.2168 24.5112V32.8425C37.2168 33.0685 37.4004 33.2521 37.6264 33.2521C37.8525 33.2521 38.0361 33.0685 38.0361 32.8425V24.5112C38.0361 24.2852 37.8525 24.1016 37.6264 24.1016C37.4004 24.1016 37.2168 24.2852 37.2168 24.5112Z" fill="#7E50A7"/>
<path fill-rule="evenodd" clip-rule="evenodd" d="M27.827 35.1694C27.827 35.1694 26.97 42.8888 26.6716 45.5765C26.633 45.924 26.7442 46.2713 26.9775 46.5315C27.2107 46.7921 27.5437 46.9409 27.8932 46.9409H28.3763C28.9708 46.9409 29.48 46.5154 29.5858 45.9307C30.026 43.4951 31.5099 35.2872 31.5099 35.2872C31.5503 35.0649 31.4023 34.8516 31.1798 34.8116C30.9572 34.7712 30.744 34.9191 30.7038 35.1417C30.7038 35.1417 29.2201 43.3494 28.7796 45.7847C28.7443 45.9796 28.5747 46.1214 28.3765 46.1214H27.8934C27.7767 46.1214 27.6659 46.0716 27.588 45.9848C27.5104 45.8983 27.4733 45.7823 27.4861 45.6666C27.4861 45.6664 28.6413 35.2595 28.6413 35.2595C28.6664 35.0347 28.5042 34.8321 28.2794 34.8072C28.0547 34.7822 27.852 34.9444 27.8272 35.1691L27.827 35.1694Z" fill="black"/>
<path fill-rule="evenodd" clip-rule="evenodd" d="M43.3576 35.2591L44.5128 45.6661C44.5256 45.7823 44.4885 45.898 44.411 45.9845C44.3331 46.0714 44.2222 46.1211 44.1056 46.1211H43.6224C43.4242 46.1211 43.2545 45.9794 43.2194 45.7844L41.2952 35.1414C41.2549 34.9189 41.0417 34.7709 40.8192 34.8113C40.5966 34.8516 40.4487 35.0648 40.4891 35.287C40.4891 35.287 41.9727 43.4947 42.4131 45.9305C42.519 46.5151 43.0281 46.9407 43.6226 46.9407H44.1058C44.4552 46.9407 44.7882 46.7918 45.0214 46.5312C45.2546 46.271 45.3658 45.9235 45.3274 45.5763L44.172 35.1692C44.1471 34.9444 43.9445 34.7822 43.7197 34.8073C43.495 34.8322 43.3328 35.0348 43.3578 35.2595L43.3576 35.2591Z" fill="black"/>
</svg>
