<svg width="72" height="72" viewBox="0 0 72 72" fill="none" xmlns="http://www.w3.org/2000/svg">
<g opacity="0.1">
<path fill-rule="evenodd" clip-rule="evenodd" d="M18.5965 61.1589C21.8478 63.3224 25.5395 64.8793 29.5062 65.6806V71.1641H41.6579V65.6806C45.6188 64.8793 49.3106 63.3224 52.5618 61.1589L56.4425 65.0396L65.0339 56.4483L61.1531 52.5675C63.3166 49.3108 64.8793 45.6245 65.6749 41.6579H71.1641V35.5792V29.5062H65.6749C64.8793 25.5395 63.3166 21.8535 61.1531 18.5965L65.0339 14.7158L56.4425 6.12444L52.5618 10.0052C49.3108 7.84168 45.6188 6.28474 41.6579 5.48341V0H29.5062V5.48341C25.5395 6.28474 21.8478 7.84168 18.5965 10.0052L14.7158 6.12444L6.12444 14.7158L10.0052 18.5965C7.84168 21.8533 6.279 25.5395 5.48341 29.5062H0V35.5792V41.6579H5.48341C6.279 45.6245 7.84168 49.3106 10.0052 52.5675L6.12444 56.4483L14.7158 65.0396L18.5965 61.1589ZM35.5792 55.4752C30.9887 55.4752 26.7588 53.9182 23.3875 51.3025C18.7054 47.6622 15.6889 41.9728 15.6889 35.5792C15.6889 24.5951 24.5951 15.6889 35.5792 15.6889C46.5689 15.6889 55.4752 24.5951 55.4752 35.5792C55.4752 41.9728 52.4587 47.6622 47.7708 51.3025C44.4052 53.9182 40.1754 55.4752 35.5792 55.4752Z" fill="#7E50A7"/>
</g>
<circle cx="35.6158" cy="35.2056" r="22.44" fill="white"/>
<path fill-rule="evenodd" clip-rule="evenodd" d="M29.6113 31.7266H40.9555V34.2746H29.6113V31.7266Z" fill="#7E50A7"/>
<path fill-rule="evenodd" clip-rule="evenodd" d="M35.281 29.7848L36.8682 27.94L35.281 26.0938L33.6953 27.94L35.281 29.7848Z" fill="#7E50A7"/>
<path d="M47.1612 41.0359C46.4754 40.0757 45.4698 39.3033 44.0868 38.6746L38.696 36.2258C38.5127 36.1425 38.2975 36.1738 38.1455 36.306L35.2821 38.7958L32.4188 36.3061C32.2668 36.1738 32.0516 36.1425 31.8682 36.2258L26.4772 38.6747C25.0948 39.3035 24.0894 40.0758 23.4037 41.0359C22.6169 42.1374 22.2344 43.4894 22.2344 45.1692V48.074C22.2344 48.3583 22.4648 48.5887 22.7491 48.5887H47.8151C48.0993 48.5887 48.3298 48.3583 48.3298 48.074V45.1692C48.3298 43.4891 47.9475 42.1372 47.1612 41.0359ZM38.5713 37.2997L39.8988 37.9028L38.416 41.0955L36.1107 39.4394L38.5713 37.2997ZM34.3651 43.5607H36.1991L36.9609 47.5594H33.6033L34.3651 43.5607ZM36.2913 42.5314H34.2729L33.6994 41.2486L35.2821 40.1116L36.8648 41.2486L36.2913 42.5314ZM31.9929 37.2997L34.4535 39.4394L32.1482 41.0955L30.6653 37.9028L31.9929 37.2997ZM23.2637 45.1692C23.2637 42.4341 24.3522 40.7721 26.9032 39.6118L29.7282 38.3285L31.4767 42.0932C31.5413 42.2323 31.6645 42.3354 31.8129 42.3742C31.8559 42.3855 31.8997 42.3911 31.9434 42.3911C32.0501 42.3911 32.1553 42.3579 32.2438 42.2944L32.846 41.8617L33.4034 43.1085L32.5554 47.5594H23.2637V45.1692ZM47.3005 47.5594H38.0088L37.1608 43.1085L37.7182 41.8617L38.3205 42.2944C38.4089 42.3579 38.5141 42.3911 38.6208 42.3911C38.6644 42.3911 38.7083 42.3855 38.7514 42.3742C38.8997 42.3353 39.023 42.2323 39.0875 42.0932L40.8361 38.3285L43.6609 39.6118C46.212 40.7714 47.3005 42.4335 47.3005 45.1692V47.5594Z" fill="#1A1A1A"/>
<path d="M29.0959 31.7984V34.2783C29.0959 34.5625 29.3264 34.793 29.6106 34.793H40.9548C41.239 34.793 41.4694 34.5625 41.4694 34.2783V31.7984L43.7214 23.4502C43.7769 23.2444 43.6999 23.0258 43.5278 22.9003C43.3556 22.7747 43.1239 22.7682 42.9451 22.8838C42.7309 23.0223 42.5216 23.1618 42.3192 23.2967C41.0331 24.1538 39.9216 24.8938 38.4392 24.7882C37.4216 24.715 36.9821 24.127 36.3167 23.237C36.1188 22.9724 35.9142 22.6987 35.6756 22.4167C35.5779 22.3011 35.4341 22.2344 35.2827 22.2344C35.1313 22.2344 34.9875 22.3011 34.8897 22.4167C34.6512 22.6987 34.4466 22.9724 34.2487 23.237C33.5833 24.127 33.1437 24.715 32.1262 24.7882C30.6427 24.8939 29.5322 24.1537 28.2462 23.2967C28.0437 23.1618 27.8345 23.0223 27.6203 22.8838C27.4413 22.7682 27.2097 22.7747 27.0376 22.9003C26.8655 23.0258 26.7885 23.2444 26.844 23.4502L29.0959 31.7984ZM32.1997 25.8149H32.2001C33.6867 25.708 34.3602 24.8072 35.0732 23.8534C35.1419 23.7615 35.2115 23.6684 35.2827 23.5748C35.354 23.6684 35.4235 23.7615 35.4922 23.8534C36.2053 24.8072 36.8787 25.708 38.3657 25.8149C39.9706 25.9297 41.1718 25.2773 42.3734 24.4949L40.4578 31.5962C40.446 31.6399 40.44 31.685 40.44 31.7302V33.7636H30.1253V31.7302C30.1253 31.685 30.1193 31.6399 30.1075 31.5962L28.192 24.4949C29.3937 25.2773 30.595 25.9295 32.1997 25.8149Z" fill="#1A1A1A"/>
</svg>
