<svg width="19" height="19" viewBox="0 0 19 19" fill="none" xmlns="http://www.w3.org/2000/svg">
<path d="M2.46485 18.9837L4.82126 18.7216C5.32225 18.6654 5.78934 18.4409 6.1461 18.0848L16.2545 7.98075L18.3495 5.88604C18.766 5.46948 19 4.90458 19 4.31556C19 3.72654 18.766 3.16164 18.3495 2.74508L16.2545 0.650374C15.8379 0.23394 15.2729 0 14.6838 0C14.0947 0 13.5298 0.23394 13.1131 0.650374L11.0181 2.74508L0.909706 12.8492C0.553378 13.2061 0.328829 13.6734 0.272838 14.1745L0.0136466 16.5328C-0.0209048 16.8431 0.0103325 17.1571 0.105321 17.4545C0.200309 17.7519 0.356915 18.0259 0.564928 18.2587C0.772941 18.4915 1.02769 18.6778 1.31256 18.8055C1.59744 18.9333 1.90604 18.9995 2.21825 19C2.30068 18.9989 2.38299 18.9935 2.46485 18.9837ZM14.1581 1.69736C14.2969 1.55855 14.4853 1.48057 14.6816 1.48057C14.878 1.48057 15.0663 1.55855 15.2052 1.69736L17.3002 3.79207C17.439 3.93092 17.517 4.11922 17.517 4.31556C17.517 4.5119 17.439 4.7002 17.3002 4.83905L15.7287 6.41027L12.5866 3.26858L14.1581 1.69736ZM1.48585 16.6943L1.74726 14.3382C1.76591 14.1703 1.84082 14.0138 1.9598 13.8939L11.5417 4.31556L14.6838 7.45725L5.10193 17.0378C4.98186 17.1565 4.82536 17.2314 4.6576 17.2503L2.30119 17.5117C2.19136 17.5234 2.0803 17.5103 1.97617 17.4735C1.87203 17.4367 1.77745 17.3771 1.69935 17.299C1.62125 17.2209 1.56161 17.1263 1.5248 17.0222C1.48798 16.9181 1.47493 16.807 1.48659 16.6972L1.48585 16.6943Z" fill="#7E50A7"/>
</svg>
