<?xml version="1.0" encoding="utf-8"?>
<!-- Generator: Adobe Illustrator 16.0.0, SVG Export Plug-In . SVG Version: 6.00 Build 0)  -->
<!DOCTYPE svg PUBLIC "-//W3C//DTD SVG 1.1//EN" "http://www.w3.org/Graphics/SVG/1.1/DTD/svg11.dtd">
<svg version="1.1" id="Layer_1" xmlns="http://www.w3.org/2000/svg" xmlns:xlink="http://www.w3.org/1999/xlink" x="0px" y="0px"
	 width="27px" height="27px" viewBox="21.782 21.912 27 27" enable-background="new 21.782 21.912 27 27" xml:space="preserve">
<path fill="#06407C" d="M29.473,31.636h11.621v2.61H29.473V31.636z"/>
<path fill="#06407C" d="M35.281,29.647l1.626-1.89l-1.626-1.891l-1.625,1.891L35.281,29.647z"/>
<path fill="#06407C" d="M47.452,41.174c-0.702-0.983-1.732-1.775-3.149-2.419l-5.523-2.509c-0.188-0.085-0.408-0.053-0.563,0.083
	l-2.934,2.551l-2.934-2.551c-0.156-0.136-0.376-0.167-0.564-0.083l-5.523,2.509c-1.416,0.645-2.446,1.436-3.148,2.419
	c-0.806,1.128-1.198,2.514-1.198,4.234v2.977c0,0.291,0.236,0.527,0.527,0.527h25.679c0.292,0,0.528-0.236,0.528-0.527v-2.977
	C48.649,43.688,48.258,42.302,47.452,41.174z M38.651,37.346l1.36,0.617l-1.519,3.272l-2.362-1.697L38.651,37.346z M34.343,43.76
	h1.879l0.78,4.098h-3.439L34.343,43.76z M36.316,42.706h-2.068l-0.587-1.315l1.622-1.164l1.622,1.164L36.316,42.706z M31.912,37.346
	l2.521,2.192l-2.361,1.697l-1.52-3.272L31.912,37.346z M22.969,45.408c0-2.803,1.115-4.506,3.729-5.694l2.894-1.314l1.792,3.858
	c0.066,0.142,0.193,0.248,0.345,0.287c0.044,0.012,0.089,0.017,0.134,0.017c0.109,0,0.217-0.034,0.308-0.098l0.617-0.444
	l0.571,1.277l-0.869,4.561h-9.519V45.408z M47.595,47.857h-9.52l-0.869-4.561l0.572-1.277l0.616,0.444
	c0.09,0.063,0.198,0.098,0.309,0.098c0.044,0,0.09-0.005,0.134-0.017c0.152-0.039,0.278-0.146,0.344-0.287l1.791-3.858l2.895,1.314
	c2.613,1.188,3.729,2.892,3.729,5.694V47.857z"/>
<path fill="#06407C" d="M28.944,31.71v2.541c0,0.291,0.236,0.527,0.527,0.527h11.623c0.29,0,0.526-0.236,0.526-0.527V31.71
	l2.308-8.553c0.058-0.211-0.022-0.435-0.198-0.563c-0.177-0.128-0.413-0.135-0.597-0.017c-0.22,0.142-0.434,0.285-0.641,0.423
	c-1.318,0.878-2.457,1.636-3.976,1.528c-1.042-0.075-1.492-0.677-2.174-1.589c-0.203-0.271-0.413-0.551-0.657-0.84
	c-0.1-0.118-0.248-0.187-0.403-0.187s-0.303,0.068-0.403,0.187c-0.244,0.289-0.454,0.57-0.657,0.84
	c-0.681,0.912-1.132,1.514-2.174,1.589c-1.52,0.108-2.657-0.65-3.975-1.528c-0.207-0.138-0.422-0.281-0.641-0.423
	c-0.183-0.119-0.421-0.112-0.597,0.017c-0.176,0.129-0.255,0.353-0.198,0.563L28.944,31.71z M32.124,25.58L32.124,25.58
	c1.523-0.11,2.214-1.033,2.944-2.01c0.07-0.094,0.141-0.189,0.214-0.286c0.073,0.096,0.144,0.192,0.215,0.286
	c0.73,0.977,1.42,1.9,2.943,2.01c1.646,0.117,2.876-0.551,4.106-1.353l-1.962,7.275c-0.014,0.044-0.02,0.091-0.02,0.137v2.083
	H29.999V31.64c0-0.046-0.006-0.092-0.019-0.137l-1.962-7.275C29.25,25.029,30.48,25.697,32.124,25.58z"/>
</svg>
