<svg width="19" height="16" viewBox="0 0 19 16" fill="none" xmlns="http://www.w3.org/2000/svg">
<path d="M18.0023 14.7107V0L11.8457 7.51855L18.0023 14.7107Z" fill="#7E50A7"/>
<path d="M0 0V14.7118L6.15686 7.51928L0 0Z" fill="#7E50A7"/>
<path d="M0 0.265625L6.60579 7.0409C6.64385 7.05729 6.75393 7.17429 6.7684 7.20771L8.63703 9.12427C8.83676 9.31422 9.16293 9.3139 9.37083 9.11623L11.23 7.20932C11.2445 7.17557 11.3558 7.05729 11.3942 7.0409L18 0.265625H0Z" fill="#7E50A7"/>
<path d="M11.4231 8.03906L9.77276 10.0545C9.55372 10.3028 9.27557 10.4266 8.99862 10.4266C8.72436 10.4266 8.45161 10.3054 8.23857 10.064L6.58046 8.03906L0.470703 15.1757H17.5325L11.4231 8.03906Z" fill="#7E50A7"/>
</svg>
