<svg width="11" height="11" viewBox="0 0 11 11" fill="none" xmlns="http://www.w3.org/2000/svg">
<path d="M5.5 0C2.46732 0 0 2.46729 0 5.5C0 8.53271 2.46729 11 5.5 11C8.53271 11 11 8.53271 11 5.5C11 2.46729 8.53271 0 5.5 0ZM5.5 0.814742C8.09235 0.814742 10.1852 2.90761 10.1852 5.49993C10.1852 8.09224 8.09231 10.1851 5.5 10.1851C2.90769 10.1851 0.814815 8.09224 0.814815 5.49993C0.814815 2.90761 2.90769 0.814742 5.5 0.814742ZM5.5 2.03704C5.27492 2.03704 5.09263 2.21948 5.09263 2.44441V5.49996C5.09263 5.72504 5.27507 5.90733 5.5 5.90733H8.14818C8.37326 5.90733 8.55555 5.72489 8.55555 5.49996C8.55555 5.27489 8.37311 5.09259 8.14818 5.09259H5.90737V2.44441C5.90737 2.21933 5.72492 2.03704 5.5 2.03704Z" fill="#7E50A7"/>
</svg>
