<svg width="10" height="11" viewBox="0 0 10 11" fill="none" xmlns="http://www.w3.org/2000/svg">
<path d="M0.240682 1.77059C0.396472 1.6148 0.580637 1.54393 0.778932 1.54393H1.54384V0.963182C1.54384 0.694114 1.64299 0.467455 1.82714 0.283295C2.01128 0.0991363 2.23786 0 2.50702 0H2.88948C3.15855 0 3.3852 0.0991477 3.56936 0.283295C3.75352 0.467443 3.85266 0.694023 3.85266 0.963182V1.54393H6.16136V0.963182C6.16136 0.694114 6.26051 0.467455 6.44466 0.283295C6.62881 0.0991363 6.85539 0 7.12455 0H7.507C7.77607 0 8.00273 0.0991477 8.18689 0.283295C8.37104 0.46745 8.47018 0.694023 8.47018 0.963182V1.54393H9.23509C9.44752 1.54393 9.61755 1.61471 9.77334 1.77059C9.92913 1.92638 10 2.09639 10 2.30884V10.0142C10 10.2266 9.92922 10.3966 9.77334 10.5524C9.61755 10.7082 9.44755 10.7791 9.23509 10.7791H0.764909C0.552477 10.7791 0.382455 10.7083 0.22666 10.5524C0.0708685 10.3966 0 10.2125 0 10.0142V2.30884C0.0139608 2.11055 0.0848312 1.92648 0.240614 1.77059H0.240682ZM3.08775 0.977409H2.32284V2.33718H3.08775V0.977409ZM7.70516 0.963271H6.94025V2.32304H7.70516V0.963271ZM7.521 10.0142H9.2491V8.28616H7.5211L7.521 10.0142ZM7.521 7.9037H9.2491V5.97741H7.5211L7.521 7.9037ZM7.521 5.595H9.2491V3.867H7.5211L7.521 5.595ZM5.2123 10.0141H7.1386V8.28613H5.2123V10.0141ZM5.2123 7.90368H7.1386V5.97738H5.2123V7.90368ZM5.2123 5.59498H7.1386V3.86698H5.2123V5.59498ZM2.90359 10.0141H4.82989V8.28611H2.90359V10.0141ZM2.90359 7.90366H4.82989V5.97736H2.90359V7.90366ZM2.90359 5.59495H4.82989V3.86695H2.90359V5.59495ZM0.779004 10.0141H2.507V8.28609H0.779004V10.0141ZM0.779004 7.90363H2.507V5.97734H0.779004V7.90363ZM0.779004 5.59493H2.507V3.86693H0.779004V5.59493Z" fill="#7E50A7"/>
</svg>
