<svg width="31" height="30" viewBox="0 0 31 30" fill="none" xmlns="http://www.w3.org/2000/svg">
<g clip-path="url(#clip0_23_3545)">
<path d="M15.1975 0.308968C12.2469 3.15569 10.4563 7.97675 10.7143 12.4198C8.75234 14.4572 7.62504 17.2241 7.62504 20.0913C7.6238 20.2571 7.71722 20.4099 7.8651 20.4848C8.01421 20.5596 8.19178 20.5442 8.32481 20.4445L11.0509 18.4015L11.0861 19.0258C11.0991 19.2578 11.2909 19.4385 11.5236 19.4385L19.4766 19.4385C19.5966 19.4385 19.7061 19.3896 19.7859 19.3098C19.8596 19.2362 19.9072 19.1366 19.9134 19.0252L19.9487 18.4009L22.6747 20.4439C22.8078 20.5435 22.9847 20.5373 23.1326 20.4637C23.1703 20.4445 23.2044 20.4192 23.2347 20.3889C23.3225 20.301 23.3739 20.1729 23.3745 20.0498C23.3745 17.2223 22.2472 14.4553 20.2853 12.4179C20.5414 7.96808 18.7644 3.13589 15.802 0.308349C15.6331 0.148101 15.3671 0.148101 15.1975 0.308968ZM17.6873 8.5008C17.6873 9.10343 17.4422 9.65038 17.0456 10.047C16.649 10.4436 16.1021 10.6886 15.4995 10.6886C14.2936 10.688 13.3123 9.70668 13.3117 8.5008C13.3117 7.2943 14.293 6.31301 15.4995 6.31301C16.706 6.31301 17.6879 7.29492 17.6873 8.5008Z" fill="white"/>
<path d="M12.7961 23.6264C12.7961 24.9505 14.8781 28.8503 15.1151 29.2902C15.1912 29.4319 15.3397 29.5197 15.4999 29.5204C15.6187 29.5204 15.7288 29.4733 15.8099 29.3923C15.8396 29.3626 15.865 29.3285 15.886 29.2902C16.123 28.8503 18.205 24.9505 18.205 23.6264C18.205 22.1353 16.9916 20.922 15.5005 20.922C14.0088 20.9226 12.7967 22.1359 12.7961 23.6264Z" fill="white"/>
</g>
<defs>
<clipPath id="clip0_23_3545">
<rect width="21" height="21" fill="white" transform="translate(0.650391 14.8516) rotate(-45)"/>
</clipPath>
</defs>
</svg>
