<svg width="16" height="18" viewBox="0 0 16 18" fill="none" xmlns="http://www.w3.org/2000/svg">
<path d="M14.2702 12.2348L12.5572 11.2293C11.8309 10.8031 11.2495 11.0488 10.8096 11.647L9.72161 13.1189H9.72149C9.61749 13.26 9.47596 13.3523 9.32179 13.3793C9.16749 13.4062 9.01046 13.3662 8.87798 13.2663C7.95014 12.5554 7.09159 11.7184 6.31903 10.7716C5.54095 9.83162 4.85311 8.78689 4.26889 7.65783C4.18682 7.49661 4.15392 7.30541 4.17608 7.11779C4.19824 6.93017 4.27398 6.75794 4.39007 6.63141L5.59963 5.30744C6.09124 4.77223 6.29315 4.06478 5.94293 3.18098L5.11646 1.09635C4.66453 -0.0456315 4.03305 -0.301742 3.09459 0.357427L3.09471 0.357564C2.49049 0.816577 1.93738 1.36831 1.44881 1.99899C-0.38146 4.29765 0.788076 9.38616 4.12282 13.4442C7.45744 17.5019 11.6391 18.9252 13.5282 16.698V16.6979C14.0466 16.1035 14.5001 15.4305 14.8774 14.6953C15.4191 13.5533 15.2086 12.785 14.2701 12.235L14.2702 12.2348Z" fill="#FFAE1A"/>
</svg>
