<svg width="20" height="21" viewBox="0 0 20 21" fill="none" xmlns="http://www.w3.org/2000/svg">
<path d="M15.75 0H3.75C2.75544 0 1.80161 0.395088 1.09835 1.09835C0.395088 1.80161 0 2.75544 0 3.75V20.25C0 20.3893 0.038786 20.5258 0.112012 20.6443C0.185238 20.7628 0.29001 20.8585 0.41459 20.9208C0.539169 20.9831 0.678633 21.0095 0.817354 20.997C0.956075 20.9845 1.08857 20.9336 1.2 20.85L6.75 16.695L12.3 20.85C12.4114 20.9336 12.5439 20.9845 12.6826 20.997C12.8214 21.0095 12.9608 20.9831 13.0854 20.9208C13.21 20.8585 13.3148 20.7628 13.388 20.6443C13.4612 20.5258 13.5 20.3893 13.5 20.25V3.75C13.5 3.15326 13.7371 2.58097 14.159 2.15901C14.581 1.73705 15.1533 1.5 15.75 1.5C16.3467 1.5 16.919 1.73705 17.341 2.15901C17.7629 2.58097 18 3.15326 18 3.75V9H15.75C15.5511 9 15.3603 9.07902 15.2197 9.21967C15.079 9.36032 15 9.55109 15 9.75C15 9.94891 15.079 10.1397 15.2197 10.2803C15.3603 10.421 15.5511 10.5 15.75 10.5H18.75C18.9489 10.5 19.1397 10.421 19.2803 10.2803C19.421 10.1397 19.5 9.94891 19.5 9.75V3.75C19.5 2.75544 19.1049 1.80161 18.4017 1.09835C17.6984 0.395088 16.7446 0 15.75 0V0ZM12 3.75V18.75L7.2 15.15C7.07018 15.0526 6.91228 15 6.75 15C6.58772 15 6.42982 15.0526 6.3 15.15L1.5 18.75V3.75C1.5 3.15326 1.73705 2.58097 2.15901 2.15901C2.58097 1.73705 3.15326 1.5 3.75 1.5H12.75C12.2641 2.14962 12.0011 2.93879 12 3.75V3.75Z" fill="#FFAE1A"/>
</svg>
