<svg version="1.2" xmlns="http://www.w3.org/2000/svg" viewBox="0 0 22 22" width="22" height="22">
	<title>clock-white-svg</title>
	<defs>
		<clipPath clipPathUnits="userSpaceOnUse" id="cp1">
			<path d="m0 0h22v22h-22z"/>
		</clipPath>
	</defs>
	<style>
		.s0 { fill: #ffffff } 
	</style>
	<g id="Clip-Path" clip-path="url(#cp1)">
		<g id="Layer">
			<path id="Layer" class="s0" d="m19.7 16.4c-0.4-0.3-0.9-0.2-1.2 0.1q-0.2 0.3-0.5 0.6c-0.3 0.4-0.3 0.9 0.1 1.3q0.2 0.2 0.5 0.2c0.3 0 0.5-0.1 0.7-0.3q0.3-0.4 0.6-0.7c0.3-0.4 0.2-1-0.2-1.2z"/>
			<path id="Layer" class="s0" d="m21.1 12.3c-0.4-0.1-0.9 0.2-1 0.7q-0.1 0.4-0.2 0.7c-0.1 0.5 0.1 1 0.6 1.1q0.1 0.1 0.2 0.1c0.4 0 0.7-0.3 0.9-0.7q0.1-0.4 0.2-0.9c0.1-0.4-0.2-0.9-0.7-1z"/>
			<path id="Layer" class="s0" d="m15.6 19.1q-0.4 0.2-0.7 0.4c-0.5 0.2-0.7 0.7-0.5 1.1 0.2 0.3 0.5 0.5 0.8 0.5q0.2 0 0.4-0.1 0.4-0.2 0.8-0.4c0.4-0.2 0.6-0.7 0.3-1.2-0.2-0.4-0.7-0.5-1.1-0.3z"/>
			<path id="Layer" class="s0" d="m10.1 4.1v6.5l-3.1 3.2c-0.3 0.3-0.3 0.9 0 1.2q0.3 0.3 0.6 0.3 0.3 0 0.6-0.3l3.4-3.4q0.3-0.2 0.3-0.6v-6.9c0-0.4-0.4-0.8-0.9-0.8-0.5 0-0.9 0.4-0.9 0.8z"/>
			<path id="Layer" class="s0" d="m21.1 1.8c-0.4 0-0.8 0.4-0.8 0.9v2.4c-2-3.1-5.5-5.1-9.3-5.1-2.9 0-5.7 1.1-7.8 3.2-2.1 2.1-3.2 4.9-3.2 7.8 0 2.9 1.1 5.7 3.2 7.8 2.1 2.1 4.9 3.2 7.8 3.2q0 0 0 0 0 0 0 0 0.5 0 1 0c0.4-0.1 0.8-0.5 0.8-1-0.1-0.4-0.5-0.8-1-0.8q-0.4 0.1-0.8 0.1 0 0 0 0 0 0 0 0c-5.1 0-9.3-4.2-9.3-9.3 0-5.1 4.2-9.3 9.3-9.3 3.3 0 6.3 1.8 8 4.6h-2.4c-0.4 0-0.8 0.4-0.8 0.8 0 0.5 0.4 0.9 0.8 0.9h2.6q0.8 0 1.5-0.4 0 0 0.1-0.1c0.7-0.5 1.2-1.3 1.2-2.3v-2.5c0-0.5-0.4-0.9-0.9-0.9z"/>
		</g>
	</g>
</svg>