<svg width="17" height="14" viewBox="0 0 17 14" fill="none" xmlns="http://www.w3.org/2000/svg">
<path d="M7.78364 13.0011H8.94206C9.83658 13.0011 10.5693 12.2975 10.5754 11.4329L10.5843 10.2529C10.7458 9.24065 11.1499 8.29925 11.786 7.45482C12.348 6.70913 12.6452 5.81986 12.6452 4.8831C12.6452 2.47567 10.6749 0.571978 8.30684 0.605916C6.00148 0.637903 4.12404 2.51276 4.09033 4.81894C4.07608 5.78442 4.37612 6.70013 4.95804 7.46712C5.58827 8.29764 5.98911 9.23244 6.15036 10.2458V11.4216C6.15032 12.2925 6.883 13.0011 7.78364 13.0011ZM9.45037 11.4247C9.44861 11.6736 9.22057 11.8761 8.94202 11.8761H7.7836C7.50333 11.8761 7.27529 11.6722 7.27529 11.4216V10.7511H9.45543L9.45037 11.4247ZM5.21514 4.83544C5.23986 3.14696 6.63377 1.75424 8.32244 1.73081C10.0782 1.70482 11.5201 3.11985 11.5201 4.8831C11.5201 5.57356 11.3014 6.22864 10.8874 6.7778C10.2342 7.6451 9.78847 8.60128 9.55905 9.62612H8.93002V6.36473C8.93002 6.05408 8.67817 5.80223 8.36752 5.80223C8.05687 5.80223 7.80502 6.05408 7.80502 6.36473V9.62612H7.17745C6.94911 8.59794 6.50515 7.64491 5.85426 6.78713C5.42567 6.22223 5.20468 5.54738 5.21514 4.83544Z" fill="#7E50A7"/>
<path d="M3.00038 4.32617C3.00038 4.01552 2.74853 3.76367 2.43788 3.76367H0.562502C0.251851 3.76367 0 4.01552 0 4.32617C0 4.63682 0.251851 4.88868 0.562502 4.88868H2.43788C2.74857 4.88868 3.00038 4.63682 3.00038 4.32617Z" fill="#7E50A7"/>
<path d="M13.7634 7.62341L15.3792 8.57535C15.6471 8.73315 15.9919 8.64371 16.1494 8.37623C16.3071 8.10855 16.2179 7.76377 15.9503 7.60605L14.3344 6.65411C14.0667 6.49646 13.7219 6.58552 13.5642 6.85323C13.4066 7.12091 13.4957 7.46572 13.7634 7.62341Z" fill="#7E50A7"/>
<path d="M1.35398 8.57535L2.96982 7.62341C3.2375 7.46572 3.32664 7.12091 3.16895 6.85323C3.01122 6.58552 2.66641 6.49646 2.39877 6.65411L0.782929 7.60605C0.515253 7.76374 0.426115 8.10855 0.583803 8.37623C0.741528 8.64394 1.0863 8.733 1.35398 8.57535Z" fill="#7E50A7"/>
<path d="M14.3344 1.99918L15.9503 1.04724C16.218 0.88955 16.3071 0.544737 16.1494 0.277061C15.9917 0.00934769 15.6468 -0.0797151 15.3792 0.0779354L13.7634 1.02988C13.4957 1.18756 13.4066 1.53238 13.5643 1.80005C13.722 2.0678 14.0668 2.15683 14.3344 1.99918Z" fill="#7E50A7"/>
<path d="M2.96982 1.02988L1.35398 0.0779354C1.0863 -0.0797151 0.741566 0.00934769 0.583803 0.277061C0.426115 0.544737 0.515253 0.889513 0.782929 1.04724L2.39877 1.99918C2.6666 2.15694 3.0113 2.06762 3.16895 1.80005C3.3266 1.53238 3.23746 1.18756 2.96982 1.02988Z" fill="#7E50A7"/>
<path d="M16.7328 4.32617C16.7328 4.01552 16.481 3.76367 16.1703 3.76367H14.2949C13.9843 3.76367 13.7324 4.01552 13.7324 4.32617C13.7324 4.63682 13.9843 4.88868 14.2949 4.88868H16.1703C16.481 4.88868 16.7328 4.63682 16.7328 4.32617Z" fill="#7E50A7"/>
</svg>
