<svg width="15" height="15" viewBox="0 0 15 15" fill="none" xmlns="http://www.w3.org/2000/svg">
<path d="M11.5043 7.49805C11.5023 6.86775 11.4348 6.23936 11.3027 5.62305H12.9902C12.9033 5.36597 12.7984 5.11534 12.6762 4.87305H11.1059C10.8107 3.88682 10.3528 2.95684 9.75117 2.12148C9.36679 1.95986 8.96601 1.84041 8.55586 1.76523C9.38008 2.65082 10.0022 3.70477 10.3793 4.8543H7.85273V1.68555H7.14961V4.85898H4.62305C5.00089 3.70738 5.62468 2.65173 6.45117 1.76523C6.04278 1.83916 5.64359 1.95703 5.26055 2.1168C4.65654 2.94865 4.19553 3.87543 3.89648 4.85898H2.3168C2.19238 5.1057 2.08585 5.36105 1.99805 5.62305H3.69961C3.56756 6.23936 3.50001 6.86775 3.49805 7.49805C3.49934 8.18747 3.57796 8.87458 3.73242 9.54648H2.07305C2.17002 9.80923 2.28595 10.0646 2.41992 10.3105H3.93398C4.22096 11.2086 4.64639 12.0563 5.19492 12.823C5.58772 12.9915 5.99806 13.1157 6.41836 13.1934C5.65332 12.3589 5.06496 11.3783 4.68867 10.3105H7.1543V13.2824H7.85742V10.3105H10.3137C9.9361 11.3787 9.34612 12.3594 8.5793 13.1934C9.00156 13.113 9.41351 12.9857 9.80742 12.8137C10.3551 12.0498 10.7805 11.2053 11.0684 10.3105H12.5684C12.7017 10.0691 12.8176 9.81849 12.9152 9.56054H11.2512C11.413 8.88478 11.4979 8.19289 11.5043 7.49805ZM7.14961 9.54648H4.45898C4.12897 8.25641 4.1145 6.90583 4.4168 5.60898H7.14961V9.54648ZM10.5434 9.54648H7.85273V5.62305H10.5855C10.7202 6.23886 10.7862 6.86769 10.7824 7.49805C10.7862 8.18803 10.706 8.87592 10.5434 9.54648Z" fill="#7E50A7"/>
<path d="M7.5 0C6.01664 0 4.56659 0.439867 3.33323 1.26398C2.09986 2.08809 1.13856 3.25943 0.570907 4.62987C0.00324961 6.00032 -0.145275 7.50832 0.144114 8.96317C0.433503 10.418 1.14781 11.7544 2.1967 12.8033C3.2456 13.8522 4.58197 14.5665 6.03682 14.8559C7.49168 15.1453 8.99968 14.9968 10.3701 14.4291C11.7406 13.8614 12.9119 12.9001 13.736 11.6668C14.5601 10.4334 15 8.98336 15 7.5C15 5.51087 14.2098 3.60322 12.8033 2.1967C11.3968 0.790176 9.48913 0 7.5 0ZM7.5 14.0625C6.20206 14.0625 4.93327 13.6776 3.85407 12.9565C2.77488 12.2354 1.93374 11.2105 1.43704 10.0114C0.940344 8.81222 0.810384 7.49272 1.0636 6.21972C1.31682 4.94672 1.94183 3.77739 2.85961 2.85961C3.7774 1.94183 4.94672 1.31681 6.21972 1.0636C7.49272 0.810381 8.81222 0.94034 10.0114 1.43704C11.2105 1.93374 12.2354 2.77487 12.9565 3.85407C13.6776 4.93327 14.0625 6.20206 14.0625 7.5C14.0625 9.24048 13.3711 10.9097 12.1404 12.1404C10.9097 13.3711 9.24048 14.0625 7.5 14.0625Z" fill="#7E50A7"/>
</svg>
