<svg width="16" height="16" viewBox="0 0 16 16" fill="none" xmlns="http://www.w3.org/2000/svg">
<path d="M1.5122 15.5189C1.09634 15.5189 0.740219 15.3707 0.443829 15.0743C0.147943 14.7784 0 14.4226 0 14.0067V3.42134C0 3.00549 0.147943 2.64937 0.443829 2.35298C0.740219 2.05709 1.09634 1.90915 1.5122 1.90915H8.26037L6.74817 3.42134H1.5122V14.0067H12.0976V8.75183L13.6098 7.23963V14.0067C13.6098 14.4226 13.4618 14.7784 13.1659 15.0743C12.8695 15.3707 12.5134 15.5189 12.0976 15.5189H1.5122ZM9.96159 2.3439L11.039 3.40244L6.04878 8.39268V9.47012H7.10732L12.1165 4.46098L13.1939 5.51951L7.75 10.9823H4.53659V7.7689L9.96159 2.3439ZM13.1939 5.51951L9.96159 2.3439L11.8518 0.453659C12.1543 0.15122 12.5167 0 12.9391 0C13.361 0 13.7169 0.15122 14.0067 0.453659L15.0652 1.5311C15.3551 1.82094 15.5 2.17378 15.5 2.58963C15.5 3.00549 15.3551 3.35833 15.0652 3.64817L13.1939 5.51951Z" fill="black"/>
</svg>
