<svg width="20" height="20" viewBox="0 0 20 20" fill="none" xmlns="http://www.w3.org/2000/svg">
<g clip-path="url(#clip0_1309_800)">
<path d="M19.5813 9.62109C19.4079 9.38387 15.276 3.8125 9.99874 3.8125C4.7215 3.8125 0.589377 9.38387 0.41615 9.62086C0.251908 9.84592 0.251908 10.1512 0.41615 10.3762C0.589377 10.6134 4.7215 16.1848 9.99874 16.1848C15.276 16.1848 19.4079 10.6134 19.5813 10.3764C19.7458 10.1514 19.7458 9.84592 19.5813 9.62109ZM9.99874 14.9049C6.11149 14.9049 2.74473 11.2071 1.74809 9.99822C2.74344 8.78828 6.10315 5.09239 9.99874 5.09239C13.8858 5.09239 17.2523 8.78957 18.2494 9.99909C17.254 11.209 13.8943 14.9049 9.99874 14.9049Z" fill="white" stroke="#7E50A7" stroke-width="0.5"/>
<path d="M9.9979 6.1582C7.88073 6.1582 6.1582 7.88073 6.1582 9.9979C6.1582 12.1151 7.88073 13.8376 9.9979 13.8376C12.1151 13.8376 13.8376 12.1151 13.8376 9.9979C13.8376 7.88073 12.1151 6.1582 9.9979 6.1582ZM9.9979 12.5577C8.58638 12.5577 7.43813 11.4094 7.43813 9.9979C7.43813 8.58642 8.58642 7.43813 9.9979 7.43813C11.4094 7.43813 12.5577 8.58642 12.5577 9.9979C12.5577 11.4094 11.4094 12.5577 9.9979 12.5577Z" fill="white" stroke="#7E50A7" stroke-width="0.5"/>
</g>
<defs>
<clipPath id="clip0_1309_800">
<rect width="19.4118" height="19.4118" fill="white" transform="translate(0.292969 0.292969)"/>
</clipPath>
</defs>
</svg>
