<svg width="43" height="43" viewBox="0 0 43 43" fill="none" xmlns="http://www.w3.org/2000/svg">
<circle cx="21.5" cy="21.5" r="21.5" fill="white"/>
<path d="M33.9855 20.9154C33.7599 20.6068 28.3849 13.3594 21.5201 13.3594C14.6553 13.3594 9.28011 20.6068 9.05477 20.9151C8.84112 21.2078 8.84112 21.6049 9.05477 21.8977C9.28011 22.2063 14.6553 29.4537 21.5201 29.4537C28.3849 29.4537 33.7599 22.2062 33.9855 21.8979C34.1994 21.6052 34.1994 21.2078 33.9855 20.9154ZM21.5201 27.7888C16.4635 27.7888 12.0839 22.9785 10.7874 21.406C12.0822 19.832 16.4526 15.0243 21.5201 15.0243C26.5765 15.0243 30.9558 19.8337 32.2528 21.4071C30.958 22.981 26.5876 27.7888 21.5201 27.7888Z" fill="#7E50A7"/>
<path d="M21.53 16.375C18.7759 16.375 16.5352 18.6157 16.5352 21.3698C16.5352 24.1239 18.7759 26.3646 21.53 26.3646C24.284 26.3646 26.5248 24.1239 26.5248 21.3698C26.5248 18.6157 24.284 16.375 21.53 16.375ZM21.53 24.6996C19.6938 24.6996 18.2001 23.2059 18.2001 21.3698C18.2001 19.5337 19.6939 18.04 21.53 18.04C23.3661 18.04 24.8598 19.5337 24.8598 21.3698C24.8598 23.2059 23.3661 24.6996 21.53 24.6996Z" fill="#7E50A7"/>
</svg>
