<svg width="22" height="22" viewBox="0 0 22 22" fill="none" xmlns="http://www.w3.org/2000/svg">
<path d="M20.1667 11.6111C21.143 11.6111 21.9969 12.406 22 13.4444V20.1667C22 21.143 21.215 22 20.1667 22H13.4444C12.4681 22 11.6142 21.2046 11.6111 20.1667V13.4444C11.6111 12.4681 12.3984 11.6111 13.4444 11.6111H20.1667ZM8.55556 11.6111C9.53192 11.6111 10.3858 12.406 10.3889 13.4444V20.1667C10.3889 21.143 9.60392 22 8.55556 22H1.83333C0.856973 22 0.0031122 21.2046 0 20.1667V13.4444C0 12.4681 0.787243 11.6111 1.83333 11.6111H8.55556ZM20.1667 12.8333H13.4444C13.131 12.8333 12.8333 13.0878 12.8333 13.4444V20.1667C12.8333 20.4801 13.0795 20.7778 13.4444 20.7778H20.1667C20.4801 20.7778 20.7778 20.5317 20.7778 20.1667V13.4444C20.7778 13.131 20.5374 12.8333 20.1667 12.8333ZM8.55556 12.8333H1.83333C1.51993 12.8333 1.22222 13.0878 1.22222 13.4444V20.1667C1.22222 20.4801 1.46835 20.7778 1.83333 20.7778H8.55556C8.86895 20.7778 9.16667 20.5317 9.16667 20.1667V13.4444C9.16667 13.131 8.92633 12.8333 8.55556 12.8333ZM20.1667 0C21.143 0 21.9969 0.79485 22 1.83333V8.55556C22 9.53192 21.215 10.3889 20.1667 10.3889H13.4444C12.4681 10.3889 11.6142 9.59345 11.6111 8.55556V1.83333C11.6111 0.856973 12.3984 0 13.4444 0H20.1667ZM8.55556 0C9.53192 0 10.3858 0.79485 10.3889 1.83333V8.55556C10.3889 9.53192 9.60392 10.3889 8.55556 10.3889H1.83333C0.856973 10.3889 0.0031122 9.59345 0 8.55556V1.83333C0 0.856973 0.787243 0 1.83333 0H8.55556ZM20.1667 1.22222H13.4444C13.131 1.22222 12.8333 1.47668 12.8333 1.83333V8.55556C12.8333 8.86895 13.0795 9.16667 13.4444 9.16667H20.1667C20.4801 9.16667 20.7778 8.92055 20.7778 8.55556V1.83333C20.7778 1.51993 20.5374 1.22222 20.1667 1.22222ZM8.55556 1.22222H1.83333C1.51993 1.22222 1.22222 1.47668 1.22222 1.83333V8.55556C1.22222 8.86895 1.46835 9.16667 1.83333 9.16667H8.55556C8.86895 9.16667 9.16667 8.92055 9.16667 8.55556V1.83333C9.16667 1.51993 8.92633 1.22222 8.55556 1.22222Z" fill="#7E50A7"/>
<rect x="1" y="1" width="9" height="9" rx="1" fill="#7E50A7"/>
<rect x="1" y="12" width="9" height="9" rx="1" fill="#7E50A7"/>
<rect x="12" y="1" width="9" height="9" rx="1" fill="#7E50A7"/>
<rect x="12" y="12" width="9" height="9" rx="1" fill="#7E50A7"/>
</svg>
