<svg width="15" height="14" viewBox="0 0 15 14" fill="none" xmlns="http://www.w3.org/2000/svg">
<path d="M13.9286 5.35485H1.07171V4.28344C1.07171 3.99928 1.18459 3.72677 1.38552 3.52584C1.58644 3.32491 1.85896 3.21203 2.14312 3.21203H12.8572C13.1413 3.21203 13.4139 3.32491 13.6148 3.52584C13.8157 3.72677 13.9286 3.99928 13.9286 4.28344V5.35485ZM13.9286 6.42625V11.7833C13.9286 12.0674 13.8157 12.34 13.6148 12.5409C13.4139 12.7418 13.1413 12.8547 12.8572 12.8547H2.14312C1.85896 12.8547 1.58644 12.7418 1.38552 12.5409C1.18459 12.34 1.07171 12.0674 1.07171 11.7833V6.42625H13.9286ZM12.8572 2.14062H2.14312C1.57481 2.14063 1.02977 2.36639 0.627917 2.76824C0.226062 3.1701 0.000301361 3.71513 0.000301361 4.28344V11.7833C0.000301361 12.3516 0.226062 12.8966 0.627917 13.2985C1.02977 13.7003 1.57481 13.9261 2.14312 13.9261H12.8572C13.4255 13.9261 13.9705 13.7003 14.3724 13.2985C14.7742 12.8966 15 12.3516 15 11.7833V4.28344C15 3.71513 14.7742 3.1701 14.3724 2.76824C13.9705 2.36639 13.4255 2.14063 12.8572 2.14062Z" fill="#7E50A7"/>
<path d="M9.64344 1.07141V2.14281H5.35781V1.07141H9.64344ZM9.64344 0H5.35781C5.07365 0 4.80114 0.11288 4.60021 0.313808C4.39928 0.514736 4.2864 0.787252 4.2864 1.07141V2.14281C4.2864 2.42697 4.39928 2.69949 4.60021 2.90041C4.80114 3.10134 5.07365 3.21422 5.35781 3.21422H9.64344C9.92759 3.21422 10.2001 3.10134 10.401 2.90041C10.602 2.69949 10.7148 2.42697 10.7148 2.14281V1.07141C10.7148 0.787252 10.602 0.514736 10.401 0.313808C10.2001 0.11288 9.92759 0 9.64344 0Z" fill="#7E50A7"/>
</svg>
