<svg width="17" height="14" viewBox="0 0 17 14" fill="none" xmlns="http://www.w3.org/2000/svg">
<path d="M7.78364 13.005H8.94206C9.83658 13.005 10.5693 12.3014 10.5754 11.4369L10.5843 10.2568C10.7458 9.24456 11.1499 8.30316 11.786 7.45873C12.348 6.71304 12.6452 5.82376 12.6452 4.88701C12.6452 2.47958 10.6749 0.575884 8.30684 0.609822C6.00148 0.641809 4.12404 2.51666 4.09033 4.82285C4.07608 5.78832 4.37612 6.70404 4.95804 7.47103C5.58827 8.30155 5.98911 9.23635 6.15036 10.2497V11.4255C6.15032 12.2964 6.883 13.005 7.78364 13.005ZM9.45037 11.4286C9.44861 11.6775 9.22057 11.88 8.94202 11.88H7.7836C7.50333 11.88 7.27529 11.6761 7.27529 11.4255V10.755H9.45543L9.45037 11.4286ZM5.21514 4.83935C5.23986 3.15087 6.63377 1.75815 8.32244 1.73471C10.0782 1.70872 11.5201 3.12375 11.5201 4.88701C11.5201 5.57746 11.3014 6.23255 10.8874 6.7817C10.2342 7.64901 9.78847 8.60518 9.55905 9.63002H8.93002V6.36864C8.93002 6.05799 8.67817 5.80614 8.36752 5.80614C8.05687 5.80614 7.80502 6.05799 7.80502 6.36864V9.63002H7.17745C6.94911 8.60185 6.50515 7.64882 5.85426 6.79104C5.42567 6.22614 5.20468 5.55129 5.21514 4.83935Z" fill="#7E50A7"/>
<path d="M3.00038 4.32813C3.00038 4.01748 2.74853 3.76562 2.43788 3.76562H0.562502C0.251851 3.76562 0 4.01748 0 4.32813C0 4.63878 0.251851 4.89063 0.562502 4.89063H2.43788C2.74857 4.89063 3.00038 4.63878 3.00038 4.32813Z" fill="#7E50A7"/>
<path d="M13.7614 7.62536L15.3773 8.5773C15.6451 8.7351 15.9899 8.64567 16.1474 8.37818C16.3051 8.1105 16.216 7.76573 15.9483 7.608L14.3325 6.65606C14.0648 6.49841 13.72 6.58747 13.5623 6.85519C13.4046 7.12286 13.4938 7.46768 13.7614 7.62536Z" fill="#7E50A7"/>
<path d="M1.35593 8.5773L2.97178 7.62536C3.23945 7.46768 3.32859 7.12286 3.1709 6.85519C3.01318 6.58747 2.66836 6.49841 2.40072 6.65606L0.784882 7.608C0.517206 7.76569 0.428068 8.1105 0.585756 8.37818C0.743482 8.64589 1.08826 8.73495 1.35593 8.5773Z" fill="#7E50A7"/>
<path d="M14.3325 1.99918L15.9483 1.04724C16.216 0.88955 16.3052 0.544737 16.1475 0.277061C15.9898 0.00934769 15.6449 -0.0797151 15.3773 0.0779354L13.7614 1.02988C13.4938 1.18756 13.4046 1.53238 13.5623 1.80005C13.72 2.0678 14.0648 2.15683 14.3325 1.99918Z" fill="#7E50A7"/>
<path d="M2.97178 1.02988L1.35593 0.0779354C1.08826 -0.0797151 0.743519 0.00934769 0.585756 0.277061C0.428068 0.544737 0.517206 0.889513 0.784882 1.04724L2.40072 1.99918C2.66855 2.15694 3.01325 2.06762 3.1709 1.80005C3.32855 1.53238 3.23941 1.18756 2.97178 1.02988Z" fill="#7E50A7"/>
<path d="M16.7348 4.32813C16.7348 4.01748 16.4829 3.76562 16.1723 3.76562H14.2969C13.9862 3.76562 13.7344 4.01748 13.7344 4.32813C13.7344 4.63878 13.9862 4.89063 14.2969 4.89063H16.1723C16.4829 4.89063 16.7348 4.63878 16.7348 4.32813Z" fill="#7E50A7"/>
</svg>
