<svg width="13" height="17" viewBox="0 0 13 17" fill="none" xmlns="http://www.w3.org/2000/svg">
<path d="M11.1682 0H1.56509C0.718774 0 0 0.682579 0 1.56509V15.7649C0.00249044 16.885 1.37064 17.4106 2.14845 16.6243L5.8089 12.9649C6.10224 12.6589 6.63107 12.6589 6.92442 12.9649L10.5849 16.6243C11.363 17.4109 12.731 16.8845 12.7333 15.7649V1.56509C12.7333 0.682579 12.0145 0 11.1682 0V0ZM11.7371 15.7649C11.7359 16.0021 11.4411 16.0804 11.2886 15.9193C10.5568 15.1864 8.47001 13.1002 7.62948 12.2612C6.96825 11.5697 5.76606 11.5695 5.10513 12.2599C4.5245 12.8394 3.38793 13.9757 2.49197 14.8714L1.44963 15.9132C1.29944 16.0726 1.00096 16.0194 0.996142 15.774V1.56509C0.996142 1.24691 1.25405 0.996176 1.56509 0.996176H11.1682C11.4788 0.996176 11.7371 1.24651 11.7371 1.56509V15.7649Z" fill="#FFAE1A"/>
</svg>
