<svg width="27" height="27" viewBox="0 0 27 27" fill="none" xmlns="http://www.w3.org/2000/svg">
<path d="M20.2499 5.90625H18.8437V4.5C18.8431 3.97804 18.6355 3.47762 18.2664 3.10854C17.8973 2.73946 17.3969 2.53185 16.8749 2.53125H10.1249C9.60296 2.53185 9.10254 2.73946 8.73346 3.10854C8.36438 3.47762 8.15676 3.97804 8.15617 4.5V5.90625H6.74992C6.17993 5.84019 5.60237 5.90386 5.06047 6.09251C4.51856 6.28117 4.02632 6.58991 3.62057 6.99566C3.21483 7.4014 2.90609 7.89364 2.71743 8.43555C2.52878 8.97746 2.4651 9.55501 2.53117 10.125V20.25C2.4651 20.82 2.52878 21.3975 2.71743 21.9395C2.90609 22.4814 3.21483 22.9736 3.62057 23.3793C4.02632 23.7851 4.51856 24.0938 5.06047 24.2825C5.60237 24.4711 6.17993 24.5348 6.74992 24.4688H15.7499C15.9737 24.4688 16.1883 24.3799 16.3465 24.2216C16.5048 24.0634 16.5937 23.8488 16.5937 23.625C16.5937 23.4012 16.5048 23.1866 16.3465 23.0284C16.1883 22.8701 15.9737 22.7813 15.7499 22.7813H6.74992C4.97579 22.7813 4.21867 22.0241 4.21867 20.25V15.0525C5.88201 15.7511 7.61272 16.277 9.38354 16.6219C9.77378 16.6954 10.1771 16.651 10.542 16.4943C10.9069 16.3376 11.2168 16.0758 11.4322 15.7421C11.6523 15.3884 11.956 15.0942 12.3166 14.8855C12.6772 14.6767 13.0835 14.5599 13.4999 14.5451C13.9162 14.5598 14.3224 14.6766 14.6828 14.8854C15.0432 15.0941 15.3467 15.3883 15.5665 15.7421C15.7482 16.0204 15.9954 16.2496 16.2866 16.4097C16.5777 16.5698 16.9038 16.6558 17.236 16.6601C17.3634 16.6602 17.4904 16.6474 17.6152 16.6219C19.3864 16.2771 21.1175 15.7513 22.7812 15.0525V15.75C22.7812 15.9738 22.8701 16.1884 23.0283 16.3466C23.1865 16.5049 23.4011 16.5938 23.6249 16.5938C23.8487 16.5938 24.0633 16.5049 24.2215 16.3466C24.3798 16.1884 24.4687 15.9738 24.4687 15.75V10.125C24.5347 9.55501 24.4711 8.97746 24.2824 8.43555C24.0938 7.89364 23.785 7.4014 23.3793 6.99566C22.9735 6.58991 22.4813 6.28117 21.9394 6.09251C21.3975 5.90386 20.8199 5.84019 20.2499 5.90625V5.90625ZM9.84367 4.5C9.84367 4.42541 9.8733 4.35387 9.92604 4.30113C9.97879 4.24838 10.0503 4.21875 10.1249 4.21875H16.8749C16.9495 4.21875 17.021 4.24838 17.0738 4.30113C17.1265 4.35387 17.1562 4.42541 17.1562 4.5V5.90625H9.84367V4.5ZM22.2749 13.4314C20.6679 14.1224 18.9909 14.6376 17.2732 14.9681C17.2115 14.9726 17.1499 14.9596 17.0953 14.9305C17.0408 14.9015 16.9956 14.8576 16.9649 14.8039C16.5916 14.2198 16.0802 13.7368 15.4759 13.3973C14.8715 13.0579 14.1929 12.8725 13.4999 12.8576C12.8062 12.8718 12.1266 13.0568 11.5214 13.3963C10.9163 13.7357 10.4041 14.2192 10.0304 14.8039C10.0002 14.8579 9.95508 14.9022 9.90042 14.9313C9.84577 14.9604 9.78389 14.9732 9.72217 14.9681C8.00594 14.6373 6.33048 14.1221 4.72492 13.4314C4.57484 13.3661 4.44726 13.2581 4.35805 13.1209C4.26884 12.9837 4.22194 12.8233 4.22317 12.6596V10.125C4.22317 8.35088 4.98029 7.59375 6.75442 7.59375H20.2499C22.024 7.59375 22.7812 8.35088 22.7812 10.125V12.6596C22.782 12.8238 22.7345 12.9846 22.6444 13.1218C22.5544 13.2591 22.4258 13.3668 22.2749 13.4314V13.4314ZM13.5224 15.75C13.8203 15.7515 14.1054 15.8711 14.3153 16.0825C14.5251 16.2939 14.6425 16.5799 14.6418 16.8778C14.641 17.1757 14.5222 17.4611 14.3113 17.6715C14.1004 17.8818 13.8147 18 13.5168 18C13.2189 18 12.9332 17.8818 12.7223 17.6715C12.5114 17.4611 12.3925 17.1757 12.3918 16.8778C12.3911 16.5799 12.5085 16.2939 12.7183 16.0825C12.9282 15.8711 13.2133 15.7515 13.5112 15.75H13.5224ZM24.4687 21.375C24.4687 21.5988 24.3798 21.8134 24.2215 21.9716C24.0633 22.1299 23.8487 22.2188 23.6249 22.2188H22.2187V23.625C22.2187 23.8488 22.1298 24.0634 21.9715 24.2216C21.8133 24.3799 21.5987 24.4688 21.3749 24.4688C21.1511 24.4688 20.9365 24.3799 20.7783 24.2216C20.6201 24.0634 20.5312 23.8488 20.5312 23.625V22.2188H19.1249C18.9011 22.2188 18.6865 22.1299 18.5283 21.9716C18.3701 21.8134 18.2812 21.5988 18.2812 21.375C18.2812 21.1512 18.3701 20.9366 18.5283 20.7784C18.6865 20.6201 18.9011 20.5313 19.1249 20.5313H20.5312V19.125C20.5312 18.9012 20.6201 18.6866 20.7783 18.5284C20.9365 18.3701 21.1511 18.2813 21.3749 18.2813C21.5987 18.2813 21.8133 18.3701 21.9715 18.5284C22.1298 18.6866 22.2187 18.9012 22.2187 19.125V20.5313H23.6249C23.8487 20.5313 24.0633 20.6201 24.2215 20.7784C24.3798 20.9366 24.4687 21.1512 24.4687 21.375Z" fill="#FFAE1A"/>
</svg>
