<svg width="20" height="25" viewBox="0 0 20 25" fill="none" xmlns="http://www.w3.org/2000/svg">
<path d="M19.8824 2.90588C19.8824 1.3 18.5824 0 16.9765 0H2.90588C1.3 0 0 1.3 0 2.90588V21.5647C0 23.1706 1.3 24.4706 2.90588 24.4706H16.9765C18.5824 24.4706 19.8824 23.1706 19.8824 21.5647V2.90588ZM18.3529 21.5647C18.3529 22.3294 17.7412 22.9412 16.9765 22.9412H2.90588C2.14118 22.9412 1.52941 22.3294 1.52941 21.5647V2.90588C1.52941 2.14118 2.14118 1.52941 2.90588 1.52941H16.9765C17.7412 1.52941 18.3529 2.14118 18.3529 2.90588V21.5647Z" fill="#FFAE1A"/>
<path d="M5.27642 13.7637H14.3C14.5294 13.7637 14.7588 13.6873 14.9117 13.4579C15.0647 13.3049 15.1411 13.0755 15.0647 12.8461C14.7588 11.0108 13.6117 9.55786 12.0823 8.86962C12.5411 8.33433 12.847 7.64609 12.847 6.80492C12.847 5.12256 11.4705 3.74609 9.78819 3.74609C8.10584 3.74609 6.72937 5.12256 6.72937 6.80492C6.72937 7.56962 7.03525 8.25786 7.49407 8.86962C5.96466 9.63433 4.74113 11.0873 4.51172 12.8461C4.51172 13.0755 4.51172 13.3049 4.66466 13.4579C4.8176 13.6873 5.04701 13.7637 5.27642 13.7637V13.7637ZM8.25878 6.88139C8.25878 6.04021 8.94701 5.35198 9.78819 5.35198C10.6294 5.35198 11.3176 6.04021 11.3176 6.88139C11.3176 7.72256 10.6294 8.4108 9.78819 8.4108C8.94701 8.4108 8.25878 7.72256 8.25878 6.88139ZM9.78819 9.94021C11.3176 9.94021 12.6941 10.8579 13.3058 12.2343H6.27054C6.88231 10.8579 8.25878 9.94021 9.78819 9.94021V9.94021Z" fill="#FFAE1A"/>
<path d="M16.0586 16.0586H3.8233C3.36448 16.0586 3.05859 16.3645 3.05859 16.8233C3.05859 17.2821 3.36448 17.588 3.8233 17.588H16.0586C16.5174 17.588 16.8233 17.2821 16.8233 16.8233C16.8233 16.3645 16.5174 16.0586 16.0586 16.0586Z" fill="#FFAE1A"/>
<path d="M16.0586 19.1172H3.8233C3.36448 19.1172 3.05859 19.4231 3.05859 19.8819C3.05859 20.3407 3.36448 20.6466 3.8233 20.6466H16.0586C16.5174 20.6466 16.8233 20.3407 16.8233 19.8819C16.8233 19.4231 16.5174 19.1172 16.0586 19.1172Z" fill="#FFAE1A"/>
</svg>
