<svg width="26" height="26" viewBox="0 0 26 26" fill="none" xmlns="http://www.w3.org/2000/svg">
<g clip-path="url(#clip0_552_2186)">
<path d="M7.30933 19.4397C8.25592 18.7026 8.86649 17.5533 8.86649 16.2635C8.86649 14.044 7.06058 12.2383 4.84108 12.2383C2.62158 12.2383 0.815872 14.044 0.815872 16.2635C0.815872 17.5533 1.42644 18.7026 2.37283 19.4397C1.03705 20.2343 0 21.7352 0 23.6065V25.2383C0 25.659 0.340988 26 0.761719 26H8.92064C9.34117 26 9.68236 25.659 9.68236 25.2383V23.6065C9.68236 21.7356 8.64551 20.2345 7.30933 19.4397ZM2.33931 16.2635C2.33931 14.8841 3.46165 13.7617 4.84128 13.7617C6.2207 13.7617 7.34305 14.8841 7.34305 16.2635C7.34305 17.6431 6.2207 18.7655 4.84128 18.7655C3.46165 18.7655 2.33931 17.6431 2.33931 16.2635ZM8.15892 24.4766H1.52344V23.6065C1.52344 21.774 3.00601 20.2889 4.84108 20.2889C6.67357 20.2889 8.15872 21.7715 8.15872 23.6065V24.4766H8.15892Z" fill="#FFAE1A"/>
<path d="M22.791 0H13.0004C11.2278 0 9.79102 1.43417 9.79102 3.20934V17.8952C9.79102 18.5183 10.5055 18.8827 11.0098 18.5046L14.0701 16.2093H22.791C24.5636 16.2093 26.0004 14.7752 26.0004 13V3.20934C26.0004 1.43675 24.5662 0 22.791 0V0ZM24.4769 13C24.4769 13.9319 23.7233 14.6859 22.791 14.6859H13.8162C13.6514 14.6859 13.4911 14.7395 13.3592 14.8382L11.3145 16.3718V3.20934C11.3145 2.27742 12.068 1.52344 13.0004 1.52344H22.791C23.7229 1.52344 24.4769 2.27702 24.4769 3.20934V13Z" fill="#FFAE1A"/>
<path d="M21.9753 4.07812H13.8164C13.3957 4.07812 13.0547 4.41931 13.0547 4.83984C13.0547 5.26057 13.3957 5.60156 13.8164 5.60156H21.9753C22.3959 5.60156 22.737 5.26057 22.737 4.83984C22.737 4.41931 22.3961 4.07812 21.9753 4.07812Z" fill="#FFAE1A"/>
<path d="M21.9753 7.34375H13.8164C13.3957 7.34375 13.0547 7.68474 13.0547 8.10547C13.0547 8.526 13.3957 8.86719 13.8164 8.86719H21.9753C22.3959 8.86719 22.737 8.526 22.737 8.10547C22.737 7.68474 22.3961 7.34375 21.9753 7.34375Z" fill="#FFAE1A"/>
<path d="M17.8958 10.6055H13.8164C13.3957 10.6055 13.0547 10.9465 13.0547 11.3672C13.0547 11.7879 13.3957 12.1289 13.8164 12.1289H17.8958C18.3165 12.1289 18.6575 11.7879 18.6575 11.3672C18.6575 10.9465 18.3165 10.6055 17.8958 10.6055V10.6055Z" fill="#FFAE1A"/>
</g>
<defs>
<clipPath id="clip0_552_2186">
<rect width="26" height="26" fill="white"/>
</clipPath>
</defs>
</svg>
