<svg width="20" height="14" viewBox="0 0 20 14" fill="none" xmlns="http://www.w3.org/2000/svg">
<path d="M19.5813 6.62109C19.4079 6.38387 15.276 0.8125 9.99874 0.8125C4.7215 0.8125 0.589377 6.38387 0.41615 6.62086C0.251908 6.84592 0.251908 7.15116 0.41615 7.37622C0.589377 7.61344 4.7215 13.1848 9.99874 13.1848C15.276 13.1848 19.4079 7.6134 19.5813 7.37641C19.7458 7.15139 19.7458 6.84592 19.5813 6.62109ZM9.99874 11.9049C6.11149 11.9049 2.74473 8.20709 1.74809 6.99822C2.74344 5.78828 6.10315 2.09239 9.99874 2.09239C13.8858 2.09239 17.2523 5.78957 18.2494 6.99909C17.254 8.20899 13.8943 11.9049 9.99874 11.9049Z" fill="#FFAE1A"/>
<path d="M9.9979 3.15918C7.88073 3.15918 6.1582 4.88171 6.1582 6.99888C6.1582 9.11605 7.88073 10.8386 9.9979 10.8386C12.1151 10.8386 13.8376 9.11605 13.8376 6.99888C13.8376 4.88171 12.1151 3.15918 9.9979 3.15918ZM9.9979 9.55865C8.58638 9.55865 7.43813 8.41037 7.43813 6.99888C7.43813 5.58739 8.58642 4.4391 9.9979 4.4391C11.4094 4.4391 12.5577 5.58739 12.5577 6.99888C12.5577 8.41037 11.4094 9.55865 9.9979 9.55865Z" fill="#FFAE1A"/>
</svg>
