<svg width="17" height="17" viewBox="0 0 17 17" fill="none" xmlns="http://www.w3.org/2000/svg">
<path d="M16.8357 3.56434L13.4357 0.164343C13.3827 0.111823 13.3199 0.0702723 13.2509 0.0420724C13.1818 0.0138725 13.1079 -0.000421701 13.0333 9.47143e-06H1.7C1.24913 9.47143e-06 0.81673 0.179116 0.497918 0.497928C0.179107 0.816739 0 1.24914 0 1.70001V15.3C0 15.7509 0.179107 16.1833 0.497918 16.5021C0.81673 16.8209 1.24913 17 1.7 17H15.3C15.7509 17 16.1833 16.8209 16.5021 16.5021C16.8209 16.1833 17 15.7509 17 15.3V3.96667C17.0004 3.8921 16.9861 3.81817 16.9579 3.74913C16.9297 3.68009 16.8882 3.61729 16.8357 3.56434V3.56434ZM10.7667 1.13334V4.53334H6.23333V1.13334H10.7667ZM3.96666 15.8667V11.9C3.96666 11.7497 4.02637 11.6056 4.13264 11.4993C4.23891 11.393 4.38304 11.3333 4.53333 11.3333H12.4667C12.6169 11.3333 12.7611 11.393 12.8674 11.4993C12.9736 11.6056 13.0333 11.7497 13.0333 11.9V15.8667H3.96666ZM15.8667 15.3C15.8667 15.4503 15.807 15.5944 15.7007 15.7007C15.5944 15.807 15.4503 15.8667 15.3 15.8667H14.1667V11.9C14.1667 11.4491 13.9876 11.0167 13.6687 10.6979C13.3499 10.3791 12.9175 10.2 12.4667 10.2H4.53333C4.08246 10.2 3.65006 10.3791 3.33125 10.6979C3.01244 11.0167 2.83333 11.4491 2.83333 11.9V15.8667H1.7C1.54971 15.8667 1.40558 15.807 1.29931 15.7007C1.19303 15.5944 1.13333 15.4503 1.13333 15.3V1.70001C1.13333 1.54972 1.19303 1.40559 1.29931 1.29931C1.40558 1.19304 1.54971 1.13334 1.7 1.13334H5.1V4.53334C5.1 4.83392 5.2194 5.12219 5.43194 5.33473C5.64448 5.54727 5.93275 5.66667 6.23333 5.66667H10.7667C11.0672 5.66667 11.3555 5.54727 11.568 5.33473C11.7806 5.12219 11.9 4.83392 11.9 4.53334V1.13334H12.801L15.8667 4.19901V15.3Z" fill="#FFAE1A"/>
</svg>
