<svg width="19" height="19" viewBox="0 0 19 19" fill="none" xmlns="http://www.w3.org/2000/svg">
<path d="M17.5 8.33338C17.279 8.33338 17.067 8.42118 16.9107 8.57746C16.7545 8.73374 16.6667 8.9457 16.6667 9.16672C16.6667 10.6501 16.2268 12.1001 15.4027 13.3335C14.5786 14.5669 13.4072 15.5282 12.0368 16.0958C10.6664 16.6635 9.15835 16.812 7.70349 16.5226C6.24864 16.2332 4.91226 15.5189 3.86337 14.47C2.81448 13.4211 2.10017 12.0848 1.81078 10.6299C1.52139 9.17504 1.66992 7.66704 2.23757 6.29659C2.80523 4.92615 3.76653 3.75481 4.99989 2.9307C6.23326 2.10658 7.68331 1.66672 9.16667 1.66672C10.4581 1.6644 11.7278 1.99934 12.85 2.63838L11.9108 3.57755C11.7943 3.69409 11.715 3.84256 11.6829 4.00419C11.6507 4.16582 11.6672 4.33335 11.7303 4.4856C11.7933 4.63785 11.9001 4.76798 12.0371 4.85955C12.1741 4.95112 12.3352 5.00002 12.5 5.00005H15.8333C16.0544 5.00005 16.2663 4.91225 16.4226 4.75597C16.5789 4.59969 16.6667 4.38773 16.6667 4.16672V0.833384C16.6666 0.668592 16.6177 0.50751 16.5262 0.370502C16.4346 0.233494 16.3045 0.126711 16.1522 0.0636524C16 0.000594016 15.8324 -0.0159085 15.6708 0.0162311C15.5092 0.0483708 15.3607 0.127709 15.2442 0.244217L14.0683 1.41672C12.6034 0.485876 10.9024 -0.00574454 9.16667 5.06496e-05C7.35367 5.06496e-05 5.58139 0.537666 4.07394 1.54491C2.56649 2.55216 1.39158 3.9838 0.697775 5.65879C0.0039718 7.33377 -0.177559 9.17689 0.176139 10.955C0.529837 12.7332 1.40288 14.3665 2.68486 15.6485C3.96684 16.9305 5.60018 17.8036 7.37834 18.1572C9.1565 18.5109 10.9996 18.3294 12.6746 17.6356C14.3496 16.9418 15.7812 15.7669 16.7885 14.2594C17.7957 12.752 18.3333 10.9797 18.3333 9.16672C18.3333 8.9457 18.2455 8.73374 18.0893 8.57746C17.933 8.42118 17.721 8.33338 17.5 8.33338Z" fill="#8F8F8F"/>
</svg>
