<svg version="1.2" xmlns="http://www.w3.org/2000/svg" viewBox="0 0 20 14" width="20" height="14">
	<title>new_dash_icon1-svg</title>
	<style>
		tspan { white-space:pre } 
		.s0 { fill: #ffae1a } 
		.t1 { font-size: 10px;fill: #ffae1a;font-weight: 400;font-family: "DejaVuSans", "DejaVu Sans" } 
	</style>
	<path id="Layer" fill-rule="evenodd" class="s0" d="m19.3 7.4c-0.2 0.2-4.3 5.8-9.6 5.8-5.3 0-9.4-5.6-9.6-5.8-0.1-0.2-0.1-0.6 0-0.8 0.2-0.2 4.3-5.8 9.6-5.8 5.3 0 9.4 5.6 9.6 5.8 0.2 0.2 0.2 0.6 0 0.8zm-1.3-0.4c-1-1.2-4.4-4.9-8.3-4.9-3.9 0-7.2 3.7-8.2 4.9 1 1.2 4.3 4.9 8.2 4.9 3.9 0 7.3-3.7 8.3-4.9z"/>
	<text id="✓" style="transform: matrix(1,0,0,1,0,2.092)" >
		<tspan x="5.4" y="7.6" class="t1">✓
</tspan>
	</text>
</svg>