<svg width="20" height="14" viewBox="0 0 20 14" fill="none" xmlns="http://www.w3.org/2000/svg">
<path d="M19.2884 6.62109C19.1149 6.38387 14.983 0.8125 9.70577 0.8125C4.42854 0.8125 0.296409 6.38387 0.123181 6.62086C-0.0410604 6.84592 -0.0410604 7.15116 0.123181 7.37622C0.296409 7.61344 4.42854 13.1848 9.70577 13.1848C14.983 13.1848 19.1149 7.6134 19.2884 7.37641C19.4528 7.15139 19.4528 6.84592 19.2884 6.62109ZM9.70577 11.9049C5.81852 11.9049 2.45176 8.20709 1.45512 6.99822C2.45047 5.78828 5.81018 2.09239 9.70577 2.09239C13.5928 2.09239 16.9594 5.78957 17.9564 6.99909C16.9611 8.20899 13.6014 11.9049 9.70577 11.9049Z" fill="#FFAE1A"/>
<path d="M9.70493 3.15918C7.58776 3.15918 5.86523 4.88171 5.86523 6.99888C5.86523 9.11605 7.58776 10.8386 9.70493 10.8386C11.8221 10.8386 13.5446 9.11605 13.5446 6.99888C13.5446 4.88171 11.8221 3.15918 9.70493 3.15918ZM9.70493 9.55865C8.29341 9.55865 7.14516 8.41037 7.14516 6.99888C7.14516 5.58739 8.29345 4.4391 9.70493 4.4391C11.1164 4.4391 12.2647 5.58739 12.2647 6.99888C12.2647 8.41037 11.1165 9.55865 9.70493 9.55865Z" fill="#FFAE1A"/>
</svg>
