<svg width="19" height="19" viewBox="0 0 19 19" fill="none" xmlns="http://www.w3.org/2000/svg">
<path d="M18.8163 3.98368L15.0163 0.183677C14.9571 0.124979 14.887 0.0785397 14.8098 0.0470221C14.7326 0.0155045 14.65 -0.000471313 14.5667 1.05857e-05H1.9C1.39609 1.05857e-05 0.912816 0.200188 0.556497 0.556507C0.200178 0.912826 0 1.3961 0 1.90001V17.1C0 17.6039 0.200178 18.0872 0.556497 18.4435C0.912816 18.7998 1.39609 19 1.9 19H17.1C17.6039 19 18.0872 18.7998 18.4435 18.4435C18.7998 18.0872 19 17.6039 19 17.1V4.43334C19.0005 4.34999 18.9845 4.26736 18.953 4.1902C18.9215 4.11304 18.875 4.04285 18.8163 3.98368ZM12.0333 1.26668V5.06667H6.96666V1.26668H12.0333ZM4.43333 17.7333V13.3C4.43333 13.132 4.50006 12.9709 4.61883 12.8522C4.7376 12.7334 4.89869 12.6667 5.06666 12.6667H13.9333C14.1013 12.6667 14.2624 12.7334 14.3812 12.8522C14.4999 12.9709 14.5667 13.132 14.5667 13.3V17.7333H4.43333ZM17.7333 17.1C17.7333 17.268 17.6666 17.4291 17.5478 17.5478C17.4291 17.6666 17.268 17.7333 17.1 17.7333H15.8333V13.3C15.8333 12.7961 15.6331 12.3128 15.2768 11.9565C14.9205 11.6002 14.4372 11.4 13.9333 11.4H5.06666C4.56275 11.4 4.07948 11.6002 3.72316 11.9565C3.36684 12.3128 3.16666 12.7961 3.16666 13.3V17.7333H1.9C1.73203 17.7333 1.57094 17.6666 1.45216 17.5478C1.33339 17.4291 1.26667 17.268 1.26667 17.1V1.90001C1.26667 1.73204 1.33339 1.57095 1.45216 1.45218C1.57094 1.3334 1.73203 1.26668 1.9 1.26668H5.7V5.06667C5.7 5.40262 5.83345 5.7248 6.07099 5.96234C6.30854 6.19989 6.63072 6.33334 6.96666 6.33334H12.0333C12.3693 6.33334 12.6914 6.19989 12.929 5.96234C13.1665 5.7248 13.3 5.40262 13.3 5.06667V1.26668H14.307L17.7333 4.69301V17.1Z" fill="white"/>
</svg>
