<svg width="16" height="14" viewBox="0 0 16 14" fill="none" xmlns="http://www.w3.org/2000/svg">
<path d="M14.9848 7.55771L13.4327 1.34354C13.4327 1.34296 13.4327 1.34296 13.4327 1.34235C13.2331 0.551507 12.5246 0 11.7094 0H11.7089H4.07945H4.07887C3.26373 0 2.55525 0.551507 2.35559 1.34354L0.803511 7.55771C0.791071 7.60452 0.785156 7.65251 0.785156 7.70108V11.8478C0.785156 12.8276 1.58252 13.625 2.56233 13.625H13.2254C14.2052 13.625 15.0025 12.8276 15.0025 11.8478V7.70108C15.0025 7.65251 14.9966 7.60452 14.9848 7.55771ZM3.50423 1.63145C3.57057 1.36842 3.80693 1.18479 4.07884 1.18479H11.7088C11.9802 1.18479 12.2159 1.36842 12.2829 1.63086L13.1318 5.0294H10.2634C9.93641 5.0294 9.67102 5.29478 9.67102 5.62178C9.67102 6.60159 8.87366 7.39896 7.89385 7.39896C6.91404 7.39896 6.11668 6.60159 6.11668 5.62178C6.11668 5.29478 5.85129 5.0294 5.52429 5.0294H2.65533L3.50423 1.63145ZM13.8178 11.8478C13.8178 12.1742 13.5518 12.4402 13.2254 12.4402H2.56233C2.23591 12.4402 1.96995 12.1742 1.96995 11.8478V7.77394L2.35973 6.21416H4.99173C5.2666 7.56423 6.46381 8.58372 7.89385 8.58372C9.32389 8.58372 10.5211 7.56421 10.796 6.21416H13.428L13.8178 7.77394V11.8478Z" fill="black"/>
</svg>
