<svg width="17" height="20" viewBox="0 0 17 20" fill="none" xmlns="http://www.w3.org/2000/svg">
<path d="M8.46796 9.63409C7.14441 9.63409 5.99847 9.15939 5.06189 8.22281C4.12561 7.28638 3.65076 6.14059 3.65076 4.81689C3.65076 3.49365 4.12546 2.34772 5.06204 1.41098C5.99863 0.474701 7.14456 0 8.46796 0C9.79166 0 10.9374 0.474701 11.8739 1.41113C12.8103 2.34756 13.2852 3.4935 13.2852 4.81689C13.2852 6.14059 12.8103 7.28653 11.8739 8.22296C10.9371 9.15924 9.7912 9.63409 8.46796 9.63409V9.63409ZM11.045 2.23984C10.3265 1.5213 9.48358 1.17203 8.46796 1.17203C7.45248 1.17203 6.60944 1.5213 5.89075 2.23984C5.17221 2.95853 4.82278 3.80157 4.82278 4.81689C4.82278 5.83252 5.17221 6.67542 5.89075 7.3941C6.60944 8.11279 7.45248 8.46207 8.46796 8.46207C9.48328 8.46207 10.3262 8.11264 11.045 7.3941C11.7637 6.67557 12.1131 5.83252 12.1131 4.81689C12.1131 3.80157 11.7637 2.95853 11.045 2.23984Z" fill="#FFAE1A"/>
<path d="M0.0398865 15.3784C0.0668945 14.9887 0.121521 14.5636 0.201935 14.1147C0.283112 13.6624 0.387634 13.2348 0.512756 12.8441C0.642151 12.4402 0.81778 12.0413 1.03522 11.6591C1.26059 11.2623 1.52548 10.9169 1.82272 10.6326C2.13354 10.3352 2.5141 10.0961 2.95416 9.92169C3.3927 9.7482 3.87869 9.66031 4.39856 9.66031C4.60272 9.66031 4.80017 9.74408 5.18149 9.99234C5.41617 10.1454 5.69067 10.3224 5.99707 10.5182C6.25906 10.6851 6.61398 10.8415 7.05237 10.9831C7.48007 11.1215 7.91434 11.1917 8.34311 11.1917C8.77158 11.1917 9.20584 11.1215 9.63385 10.9831C10.0718 10.8416 10.4268 10.6852 10.6884 10.5183C10.9919 10.3244 11.2665 10.1474 11.5047 9.99219C11.8857 9.74393 12.0832 9.66016 12.2874 9.66016C12.8074 9.66016 13.2932 9.7482 13.7316 9.92184C14.1714 10.0959 14.5521 10.3351 14.8632 10.6328C15.1604 10.9172 15.4253 11.2625 15.6505 11.6591C15.8677 12.0413 16.0435 12.44 16.1729 12.8442C16.2978 13.235 16.4023 13.6624 16.4835 14.1147C16.5641 14.563 16.6186 14.9882 16.6456 15.3788C16.6721 15.7608 16.6855 16.1583 16.6855 16.5599C16.6855 17.6039 16.3537 18.4491 15.6992 19.0724C15.0529 19.6875 14.1978 19.9994 13.1576 19.9994H3.52744C2.48755 19.9994 1.63245 19.6875 0.985931 19.0724C0.331329 18.4495 -0.000549316 17.604 -0.000549316 16.5597C-0.000396738 16.1567 0.0131836 15.7592 0.0398865 15.3784V15.3784ZM1.79404 18.2232C2.22113 18.6297 2.78815 18.8273 3.52759 18.8273H13.1576C13.8972 18.8273 14.4642 18.6297 14.8911 18.2234C15.31 17.8247 15.5135 17.2804 15.5135 16.5599C15.5135 16.1851 15.5012 15.8151 15.4764 15.4599C15.4523 15.1114 15.403 14.7285 15.33 14.3217C15.2578 13.92 15.1659 13.5429 15.0567 13.2016C14.9518 12.8743 14.8089 12.5502 14.6316 12.238C14.4623 11.9404 14.2676 11.6852 14.0528 11.4795C13.8518 11.287 13.5985 11.1296 13.3001 11.0115C13.024 10.9022 12.7138 10.8424 12.3771 10.8334C12.336 10.8552 12.2629 10.8969 12.1445 10.9741C11.9036 11.1311 11.6259 11.3102 11.3189 11.5063C10.9728 11.727 10.5269 11.9262 9.99426 12.0982C9.44968 12.2743 8.89426 12.3637 8.34296 12.3637C7.79166 12.3637 7.23608 12.2743 6.6918 12.0984C6.15866 11.9261 5.71295 11.727 5.36642 11.506C5.05225 11.3052 4.78232 11.1313 4.54138 10.9741C4.42297 10.897 4.34988 10.8552 4.30884 10.8334C3.97192 10.8424 3.66171 10.9022 3.38553 11.0115C3.08722 11.1296 2.83392 11.2872 2.63297 11.4795C2.41812 11.685 2.22342 11.9403 2.0542 12.2381C1.87674 12.5502 1.73361 12.8744 1.62894 13.2014C1.51953 13.5432 1.42752 13.9201 1.3555 14.3216C1.28256 14.7291 1.23312 15.1121 1.20901 15.46V15.4603C1.18414 15.8142 1.17163 16.1841 1.17148 16.5599C1.17163 17.2805 1.37518 17.8247 1.79404 18.2232V18.2232Z" fill="#FFAE1A"/>
</svg>
