<svg width="16" height="16" viewBox="0 0 16 16" fill="none" xmlns="http://www.w3.org/2000/svg">
<path d="M13.6568 13.6568C12.1458 15.1679 10.1369 16 8 16C5.86312 16 3.85413 15.1679 2.34316 13.6569C0.832125 12.1459 0 10.1369 0 8C0 5.86313 0.832125 3.85416 2.34316 2.34316C3.85413 0.832157 5.86312 3.24249e-05 8 3.24249e-05C10.1369 3.24249e-05 12.1458 0.832157 13.6569 2.34319C15.1678 3.85416 16 5.86316 16 8.00003C16 10.1369 15.1678 12.1459 13.6568 13.6568ZM3.00675 12.9933C3.71022 13.6967 4.53606 14.2333 5.43619 14.5835C5.19644 14.2842 4.97209 13.9402 4.7665 13.5532C4.52772 13.1038 4.32169 12.6103 4.15009 12.0832C3.55566 12.1818 3.00488 12.3031 2.51281 12.4455C2.66703 12.6351 2.83156 12.8181 3.00675 12.9933ZM1.94466 11.638C2.52019 11.4537 3.17838 11.2983 3.89656 11.1752C3.69656 10.3263 3.57884 9.41272 3.55075 8.46922H0.95425C1.028 9.6015 1.36806 10.6821 1.94466 11.638ZM1.89356 4.44881C1.34809 5.38316 1.02578 6.43259 0.954219 7.53078H3.55253C3.58322 6.61425 3.69859 5.72669 3.89184 4.89997C3.15891 4.78116 2.48419 4.62969 1.89356 4.44881ZM3.00675 3.00675C2.80738 3.20616 2.62169 3.41553 2.44953 3.63347C2.95963 3.77491 3.52988 3.89469 4.14372 3.99075C4.31653 3.45628 4.52478 2.95622 4.76647 2.50131C4.99053 2.07966 5.23688 1.70916 5.50116 1.39178C4.57584 1.74125 3.72713 2.28644 3.00675 3.00675ZM7.53075 1.05891C6.818 1.25856 6.14375 1.90944 5.59525 2.94169C5.40341 3.30269 5.23491 3.69653 5.09056 4.11628C5.86337 4.20134 6.68572 4.25163 7.53075 4.26344V1.05891ZM7.53075 5.20197C6.59362 5.18919 5.68022 5.13034 4.82481 5.02988C4.63613 5.80991 4.52259 6.65419 4.49144 7.53075H7.53078V5.20197H7.53075ZM7.53075 8.46925H4.48966C4.51813 9.37031 4.63347 10.2382 4.82803 11.038C5.67797 10.9318 6.58947 10.8672 7.53075 10.8487V8.46925ZM7.53075 11.7873C6.68244 11.8043 5.86191 11.8597 5.09456 11.9499C5.23803 12.3653 5.40522 12.7552 5.59525 13.1129C6.14372 14.1451 6.818 14.796 7.53075 14.9957V11.7873ZM14.0849 11.5881C14.6435 10.6446 14.9733 9.58191 15.0458 8.46925H12.4493C12.4215 9.40188 12.3061 10.3052 12.1103 11.1457C12.8332 11.2625 13.4995 11.411 14.0849 11.5881ZM12.9932 12.9933C13.1816 12.8048 13.3576 12.6073 13.5218 12.4023C13.0195 12.2652 12.4602 12.1488 11.8592 12.0551C11.6858 12.5928 11.4766 13.0958 11.2335 13.5532C11.0279 13.9402 10.8036 14.2842 10.5638 14.5835C11.4639 14.2333 12.2898 13.6967 12.9932 12.9933ZM8.46925 7.53075H11.5086C11.4772 6.64738 11.3622 5.79669 11.1708 5.01163C10.321 5.11728 9.40987 5.18131 8.46925 5.19931V7.53075ZM8.46925 8.46925V10.8455C9.40691 10.8578 10.321 10.9162 11.1772 11.0163C11.3687 10.2224 11.4821 9.36216 11.5103 8.46925H8.46925ZM8.46919 14.9957H8.46922C9.18197 14.796 9.85622 14.1451 10.4047 13.1129C10.5978 12.7495 10.7673 12.3529 10.9122 11.9301C10.1384 11.8454 9.31509 11.7955 8.46919 11.7841V14.9957ZM8.46925 1.05891V4.26072C9.31675 4.24409 10.1367 4.18928 10.9037 4.0996C10.7606 3.6861 10.594 3.29791 10.4047 2.94169C9.85625 1.90944 9.182 1.25856 8.46925 1.05891ZM12.9932 3.00675C12.2729 2.28641 11.4242 1.74125 10.4988 1.39181C10.7631 1.70919 11.0094 2.07966 11.2335 2.50131C11.4716 2.94947 11.6772 3.44156 11.8485 3.96713C12.4568 3.86672 13.0195 3.74256 13.5208 3.59653C13.357 3.39197 13.1813 3.19484 12.9932 3.00675ZM14.0814 4.40597C13.4991 4.59319 12.8314 4.75072 12.1025 4.87503C12.2992 5.70878 12.4165 6.60503 12.4475 7.53075H15.0458C14.9731 6.41581 14.6422 5.35097 14.0814 4.40597Z" fill="#FFAE1A"/>
</svg>
